<svg width="25" height="34" viewBox="0 0 25 34" fill="none" xmlns="http://www.w3.org/2000/svg">
<ellipse cx="12.3568" cy="11.7669" rx="9.664" ry="9.80571" fill="white"/>
<path d="M3.83715 3.83704C5.67546 1.83232 7.41068 0.821237 10.0393 0.193672C11.4996 -0.154976 14.3344 -0.0155185 15.8806 0.472588C17.822 1.08272 19.1621 1.93691 20.7771 3.59298C23.1136 5.98122 24.0929 8.38689 24.1101 11.8036C24.1273 14.0524 23.8867 15.0809 22.8731 17.1902C22.1344 18.7418 21.911 19.0206 19.4886 21.4612C15.3137 25.6798 13.252 29.3058 12.6507 33.4721C12.6174 33.7114 12.2776 33.7104 12.2384 33.4721C11.5168 29.0791 9.57541 25.6798 5.41775 21.4786C2.58298 18.6197 1.9473 17.6609 1.17418 15.1158C0.658768 13.4423 0.624407 10.5485 1.0711 8.84013C1.56933 6.95743 2.49708 5.28393 3.83715 3.83704ZM10.3837 15.6483V16.5063L12.3568 15.9343L14.3299 16.5063V15.6483L13.2024 14.7903V11.6443L17.9941 13.0743V11.9302L13.2024 9.07027V5.92427C13.2024 5.6764 13.1226 5.47143 12.9628 5.30938C12.8031 5.14731 12.6011 5.06627 12.3568 5.06627C12.1125 5.06627 11.9105 5.14731 11.7508 5.30938C11.591 5.47143 11.5112 5.6764 11.5112 5.92427V9.07027L6.71948 11.9302V13.0743L11.5112 11.6443V14.7903L10.3837 15.6483Z" fill="#1F6FC4"/>
</svg>
