<svg width="25" height="34" viewBox="0 0 25 34" fill="none" xmlns="http://www.w3.org/2000/svg">
<ellipse cx="12.5573" cy="11.7669" rx="9.664" ry="9.80571" fill="white"/>
<path d="M4.03771 3.83703C5.87602 1.83231 7.61125 0.821238 10.2398 0.193672C11.7002 -0.154976 14.5349 -0.0155186 16.0812 0.472588C18.0226 1.08272 19.3627 1.93691 20.9776 3.59299C23.3142 5.98122 24.2934 8.3869 24.3106 11.8036C24.3278 14.0524 24.0873 15.0809 23.0736 17.1902C22.3349 18.7418 22.1116 19.0206 19.6891 21.4612C15.5143 25.6798 13.4525 29.3057 12.8513 33.4721C12.818 33.7114 12.4781 33.7104 12.439 33.4721C11.7174 29.0791 9.77599 25.6798 5.61831 21.4786C2.78354 18.6197 2.14786 17.6609 1.37474 15.1158C0.859329 13.4423 0.824969 10.5485 1.27166 8.84014C1.76989 6.95744 2.69764 5.28393 4.03771 3.83703ZM13.1211 7.35428H11.9937V11.3583H13.1211V7.35428ZM10.701 15.7667C10.8067 15.6595 10.8662 15.514 10.8662 15.3623V11.9303C11.0157 11.9303 11.1591 11.87 11.2648 11.7627C11.3705 11.6555 11.4299 11.5099 11.4299 11.3583V7.35428H9.17497L8.0475 12.5023V15.3623C8.0475 15.514 8.1069 15.6595 8.21262 15.7667C8.31834 15.874 8.46173 15.9343 8.61124 15.9343H10.3024C10.452 15.9343 10.5953 15.874 10.701 15.7667ZM9.7387 6.78229H11.4299V5.63828H9.7387V6.78229ZM14.2486 11.9303V15.3623C14.2486 15.514 14.308 15.6595 14.4137 15.7667C14.5195 15.874 14.6628 15.9343 14.8123 15.9343H16.5035C16.653 15.9343 16.7964 15.874 16.9021 15.7667C17.0078 15.6595 17.0673 15.514 17.0673 15.3623V12.5023L15.9398 7.35428H13.6849V11.3583C13.6849 11.5099 13.7442 11.6555 13.8499 11.7627C13.9557 11.87 14.0991 11.9303 14.2486 11.9303ZM13.6849 5.63828V6.78229H15.3761V5.63828H13.6849Z" fill="#299091"/>
</svg>
