<svg width="25" height="34" viewBox="0 0 25 34" fill="none" xmlns="http://www.w3.org/2000/svg">
<ellipse cx="12.3973" cy="11.7669" rx="9.664" ry="9.80571" fill="white"/>
<path d="M3.87768 3.83704C5.71598 1.83232 7.45121 0.821237 10.0798 0.193672C11.5402 -0.154976 14.3749 -0.0155185 15.9212 0.472588C17.8626 1.08272 19.2027 1.93691 20.8176 3.59298C23.1542 5.98122 24.1334 8.38689 24.1506 11.8036C24.1677 14.0524 23.9273 15.0809 22.9136 17.1902C22.1748 18.7418 21.9515 19.0206 19.529 21.4612C15.3542 25.6798 13.2926 29.3058 12.6913 33.4721C12.658 33.7114 12.318 33.7104 12.2789 33.4721C11.5574 29.0791 9.61595 25.6798 5.45827 21.4786C2.6235 18.6197 1.98783 17.6609 1.21471 15.1158C0.699295 13.4423 0.664935 10.5485 1.11163 8.84013C1.60986 6.95743 2.5376 5.28393 3.87768 3.83704ZM9.34641 15.5985C9.56702 15.8223 9.83235 15.9343 10.1424 15.9343H14.0886C14.3986 15.9343 14.6641 15.8223 14.8851 15.5985C15.1057 15.3743 15.216 15.1048 15.216 14.7903H16.3435C16.6535 14.7903 16.9191 14.6784 17.14 14.4545C17.3606 14.2303 17.471 13.9609 17.471 13.6462V10.2142C17.471 9.89966 17.3606 9.63026 17.14 9.40604C16.9191 9.18219 16.6535 9.07027 16.3435 9.07027H15.4697C15.5731 8.89867 15.6507 8.71754 15.7025 8.52688C15.754 8.3362 15.7798 8.136 15.7798 7.92628C15.7798 7.29707 15.559 6.75843 15.1173 6.31037C14.6758 5.86231 14.1449 5.63827 13.5248 5.63827C13.4215 5.63827 13.3275 5.64533 13.243 5.65944C13.1584 5.67392 13.0691 5.6907 12.9752 5.70977C12.7403 5.5191 12.4794 5.36657 12.1927 5.25217C11.9063 5.13778 11.5987 5.08057 11.2699 5.08057C10.7343 5.08057 10.2529 5.22358 9.82559 5.50957C9.3979 5.79557 9.07601 6.16738 8.85991 6.62497C8.40893 6.77751 8.04024 7.0492 7.75386 7.44007C7.46711 7.83093 7.32374 8.27901 7.32374 8.78428C7.32374 9.31814 7.48346 9.78527 7.80291 10.1857C8.12236 10.5861 8.52637 10.853 9.01493 10.9864V14.7903C9.01493 15.1048 9.12542 15.3743 9.34641 15.5985ZM8.78268 9.59193C8.56169 9.36809 8.45121 9.09887 8.45121 8.78428C8.45121 8.53641 8.52168 8.31466 8.66261 8.11904C8.80354 7.92379 8.99145 7.78803 9.22633 7.71178L9.67733 7.55447L9.87463 7.12547C10.0062 6.849 10.1965 6.62973 10.4457 6.46768C10.6945 6.30561 10.9692 6.22457 11.2699 6.22457C11.4953 6.22457 11.6905 6.26499 11.855 6.34584C12.0192 6.42706 12.1531 6.51058 12.2564 6.59638L12.6933 6.96817L12.9329 6.87494C13.0926 6.81316 13.2899 6.78227 13.5248 6.78227C13.8349 6.78227 14.1004 6.89438 14.3214 7.11861C14.542 7.34245 14.6523 7.61167 14.6523 7.92628H12.9611C12.4819 7.92628 12.0944 8.03342 11.7987 8.24774C11.5025 8.46242 11.237 8.69848 11.0021 8.95588C10.7766 9.20373 10.5582 9.42778 10.3471 9.62797C10.1354 9.82817 9.87933 9.92829 9.57866 9.92829C9.26861 9.92829 9.00329 9.81611 8.78268 9.59193ZM16.3435 13.6462H15.216V10.2142H16.3435V13.6462Z" fill="#D97200"/>
</svg>
