<svg width="25" height="35" viewBox="0 0 25 35" fill="none" xmlns="http://www.w3.org/2000/svg">
<ellipse cx="12.7591" cy="12.0006" rx="9.99885" ry="10.0006" fill="white"/>
<path fill-rule="evenodd" clip-rule="evenodd" d="M3.94402 3.91325C5.84602 1.86869 7.64137 0.837514 10.3611 0.197475C11.872 -0.158102 14.805 -0.0158728 16.4048 0.481935C18.4135 1.10419 19.8 1.97536 21.4709 3.66435C23.8884 6.10005 24.9016 8.55353 24.9194 12.0382C24.9372 14.3317 24.6883 15.3806 23.6395 17.5318C22.8752 19.1142 22.6441 19.3986 20.1377 21.8877C15.8182 26.1901 13.6851 29.8881 13.063 34.1373C13.0286 34.3813 12.6768 34.3803 12.6364 34.1373C11.8898 29.657 9.88111 26.1901 5.57938 21.9054C2.64639 18.9897 1.98868 18.0119 1.18878 15.4162C0.655504 13.7094 0.619953 10.7581 1.08212 9.01578C1.59762 7.09567 2.55751 5.3889 3.94402 3.91325ZM17.7247 11.9992H18.2577C18.3903 11.9992 18.5175 12.0529 18.6112 12.1467C18.705 12.2405 18.7577 12.3676 18.7577 12.5002C18.7577 12.6328 18.705 12.76 18.6112 12.8538C18.5175 12.9476 18.3903 13.0002 18.2577 13.0002H17.7247C17.6242 14.1073 17.1885 15.1573 16.4757 16.0102L16.8537 16.3882L16.8657 16.4002C16.9573 16.4957 17.0073 16.6236 17.0048 16.7558C17.0023 16.8881 16.9475 17.014 16.8524 17.1059C16.7573 17.1978 16.6296 17.2483 16.4973 17.2463C16.3651 17.2443 16.239 17.19 16.1467 17.0952L15.7677 16.7172C14.9148 17.4301 13.8647 17.8658 12.7577 17.9662V18.4992C12.7577 18.6318 12.705 18.759 12.6112 18.8528C12.5175 18.9466 12.3903 18.9992 12.2577 18.9992C12.1251 18.9992 11.9979 18.9466 11.9041 18.8528C11.8104 18.759 11.7577 18.6318 11.7577 18.4992V17.9662C10.6503 17.8661 9.59982 17.4303 8.74668 16.7172L8.36868 17.0952L8.35668 17.1082C8.2612 17.2004 8.13303 17.2509 8.00034 17.2485C7.86766 17.2462 7.74134 17.1912 7.64918 17.0957C7.55702 17.0003 7.50656 16.8721 7.5089 16.7394C7.51125 16.6067 7.5662 16.4804 7.66168 16.3882L8.03968 16.0102C7.32754 15.1571 6.89252 14.1071 6.79268 13.0002H6.25968C6.12707 13.0002 5.9999 12.9476 5.90613 12.8538C5.81236 12.76 5.75968 12.6328 5.75968 12.5002C5.75968 12.3676 5.81236 12.2405 5.90613 12.1467C5.9999 12.0529 6.12707 12.0002 6.25968 12.0002H6.79368C6.89233 10.8913 7.32741 9.83902 8.04068 8.98424L7.66268 8.60724C7.5716 8.51294 7.52121 8.38663 7.52234 8.25554C7.52348 8.12444 7.57607 7.99903 7.66877 7.90633C7.76148 7.81362 7.88688 7.76104 8.01798 7.7599C8.14908 7.75876 8.27538 7.80916 8.36968 7.90024L8.74868 8.28224C9.60161 7.56943 10.6517 7.13371 11.7587 7.03324V6.50024C11.7587 6.36763 11.8114 6.24045 11.9051 6.14668C11.9989 6.05292 12.1261 6.00024 12.2587 6.00024C12.3913 6.00024 12.5185 6.05292 12.6122 6.14668C12.706 6.24045 12.7587 6.36763 12.7587 6.50024V7.03324C13.8659 7.13322 14.9164 7.5686 15.7697 8.28124L16.1477 7.90324L16.1597 7.89124C16.2551 7.79966 16.383 7.74963 16.5153 7.75213C16.6475 7.75462 16.7734 7.80942 16.8653 7.90453C16.9573 7.99965 17.0078 8.12732 17.0058 8.25959C17.0038 8.39186 16.9495 8.51794 16.8547 8.61024L16.4767 8.98924C17.1892 9.84226 17.6246 10.8923 17.7247 11.9992ZM15.0507 9.00024C14.3917 8.47323 13.5964 8.14445 12.7577 8.05224V11.0922C12.8063 11.1091 12.8541 11.1284 12.9007 11.1502L15.0507 9.00024ZM11.7577 11.0922V8.05224C10.9189 8.14445 10.1247 8.47323 9.46568 9.00024L11.6157 11.1502C11.662 11.1285 11.7094 11.1091 11.7577 11.0922ZM10.9077 11.8572L8.75768 9.70724C8.23067 10.3662 7.90189 11.1615 7.80968 12.0002H10.8517C10.8679 11.9516 10.8866 11.9039 10.9077 11.8572ZM10.8507 13.0002H7.80968C7.90207 13.8391 8.23122 14.6344 8.75868 15.2932L10.9087 13.1432C10.8867 13.0962 10.8677 13.0482 10.8507 13.0002ZM9.46668 15.9982C10.1256 16.5256 10.9208 16.8547 11.7597 16.9472V13.9062C11.7117 13.8892 11.6637 13.8702 11.6167 13.8482L9.46668 15.9982ZM12.7597 13.9072V16.9472C13.5985 16.8551 14.3937 16.5263 15.0527 15.9992L12.9027 13.8492C12.8557 13.8702 12.8087 13.8902 12.7597 13.9072ZM15.7591 15.2907C16.2867 14.6321 16.616 13.837 16.7087 12.9982H13.6677C13.6507 13.0472 13.6317 13.0952 13.6097 13.1412L15.7591 15.2907ZM13.6087 11.8572C13.6305 11.9039 13.6498 11.9516 13.6667 12.0002L16.7067 11.9992C16.6143 11.1608 16.2855 10.366 15.7587 9.70724L13.6087 11.8572Z" fill="#5E758D"/>
</svg>
