<svg width="24" height="34" viewBox="0 0 24 34" fill="none" xmlns="http://www.w3.org/2000/svg">
<ellipse cx="12.0773" cy="11.7669" rx="9.664" ry="9.80571" fill="white"/>
<path d="M3.55761 3.83703C5.39592 1.83232 7.13115 0.821238 9.75975 0.193672C11.2201 -0.154976 14.0548 -0.0155185 15.6011 0.472588C17.5425 1.08272 18.8826 1.9369 20.4975 3.59298C22.8341 5.98122 23.8133 8.38689 23.8305 11.8036C23.8477 14.0524 23.6072 15.0809 22.5935 17.1902C21.8548 18.7418 21.6315 19.0206 19.209 21.4612C15.0342 25.6798 12.9724 29.3057 12.3712 33.4721C12.3379 33.7114 11.998 33.7104 11.9589 33.4721C11.2373 29.0791 9.29588 25.6798 5.13821 21.4786C2.30344 18.6197 1.66776 17.6609 0.89464 15.1158C0.379227 13.4423 0.344866 10.5485 0.791558 8.84014C1.28979 6.95744 2.21753 5.28393 3.55761 3.83703ZM8.17172 17.364C8.35941 17.5549 8.58748 17.6503 8.85593 17.6503C9.12438 17.6503 9.35245 17.5549 9.54014 17.364C9.72827 17.1735 9.82233 16.9421 9.82233 16.6697V16.3429H14.9765V16.6697C14.9765 16.9421 15.0705 17.1735 15.2587 17.364C15.4463 17.5549 15.6744 17.6503 15.9429 17.6503C16.2113 17.6503 16.4394 17.5549 16.6271 17.364C16.8152 17.1735 16.9093 16.9421 16.9093 16.6697V15.6565C17.1025 15.4385 17.2582 15.196 17.3763 14.9289C17.4945 14.6622 17.5536 14.3709 17.5536 14.0548V7.84457C17.5536 6.90758 17.1563 6.23752 16.3616 5.8344C15.567 5.43128 14.2463 5.22971 12.3994 5.22971C10.6169 5.22971 9.31228 5.43934 8.48548 5.85858C7.65867 6.27827 7.24527 6.94027 7.24527 7.84457V14.0548C7.24527 14.3709 7.30433 14.6622 7.42244 14.9289C7.54055 15.196 7.69625 15.4385 7.88953 15.6565V16.6697C7.88953 16.9421 7.9836 17.1735 8.17172 17.364ZM16.265 8.49829V10.4595H8.5338V8.49829H16.265ZM10.8287 14.0954C10.641 14.2862 10.4129 14.3817 10.1445 14.3817C9.87602 14.3817 9.64795 14.2862 9.46026 14.0954C9.27213 13.9049 9.17807 13.6735 9.17807 13.4012C9.17807 13.1288 9.27213 12.8974 9.46026 12.7069C9.64795 12.516 9.87602 12.4206 10.1445 12.4206C10.4129 12.4206 10.641 12.516 10.8287 12.7069C11.0168 12.8974 11.1109 13.1288 11.1109 13.4012C11.1109 13.6735 11.0168 13.9049 10.8287 14.0954ZM15.3386 14.0954C15.1508 14.2862 14.9227 14.3817 14.6544 14.3817C14.3859 14.3817 14.1578 14.2862 13.9702 14.0954C13.782 13.9049 13.688 13.6735 13.688 13.4012C13.688 13.1288 13.782 12.8974 13.9702 12.7069C14.1578 12.516 14.3859 12.4206 14.6544 12.4206C14.9227 12.4206 15.1508 12.516 15.3386 12.7069C15.5266 12.8974 15.6208 13.1288 15.6208 13.4012C15.6208 13.6735 15.5266 13.9049 15.3386 14.0954Z" fill="#1F6FC4"/>
</svg>
