<svg width="25" height="35" viewBox="0 0 25 35" fill="none" xmlns="http://www.w3.org/2000/svg">
<ellipse cx="11.9992" cy="13.0006" rx="9.99885" ry="10.0006" fill="white"/>
<path d="M3.18413 3.9133C5.08613 1.86873 6.88148 0.83756 9.60116 0.197521C11.1121 -0.158056 14.0451 -0.0158271 15.6449 0.481981C17.6535 1.10424 19.0401 1.97541 20.711 3.6644C23.1285 6.1001 24.1417 8.55359 24.1595 12.0382C24.1773 14.3317 23.9284 15.3806 22.8796 17.5319C22.1153 19.1143 21.8843 19.3987 19.3778 21.8877C15.0583 26.1902 12.9252 29.8882 12.3031 34.1374C12.2687 34.3814 11.917 34.3804 11.8765 34.1374C11.1299 29.6571 9.12122 26.1902 4.81949 21.9055C1.8865 18.9897 1.2288 18.0119 0.428888 15.4162C-0.104384 13.7094 -0.139935 10.7581 0.322235 9.01583C0.83773 7.09572 1.79762 5.38894 3.18413 3.9133ZM6.16633 14.5009V16.251C6.16633 16.4163 6.22232 16.5547 6.33431 16.6663C6.44591 16.7783 6.58433 16.8343 6.74959 16.8343H17.2484C17.4137 16.8343 17.5521 16.7783 17.6636 16.6663C17.7756 16.5547 17.8316 16.4163 17.8316 16.251V14.5009C17.8316 14.3745 17.8122 14.253 17.7733 14.1363C17.7344 14.0195 17.6761 13.9077 17.5983 13.8008L12.7281 7.23793L13.3988 6.3337C13.496 6.19758 13.5349 6.05173 13.5155 5.89618C13.496 5.74061 13.4182 5.61421 13.2821 5.51698C13.1461 5.41976 13.0003 5.38086 12.8447 5.40032C12.6892 5.41976 12.5628 5.49754 12.4656 5.63366L11.999 6.26078L11.5323 5.63366C11.4352 5.49754 11.3088 5.41976 11.1533 5.40032C10.9977 5.38086 10.8519 5.41976 10.7158 5.51698C10.6477 5.5656 10.5943 5.62394 10.5554 5.69199C10.5166 5.76006 10.4923 5.83045 10.4825 5.90318C10.4728 5.97629 10.4777 6.04921 10.4971 6.12194C10.5166 6.19505 10.5506 6.26564 10.5992 6.3337L11.2699 7.23793L6.39963 13.8008C6.32186 13.9077 6.26354 14.0195 6.22465 14.1363C6.18577 14.253 6.16633 14.3745 6.16633 14.5009ZM11.999 12.5904L14.2008 15.6676H9.79716L11.999 12.5904Z" fill="#598017"/>
</svg>
