<svg width="24" height="34" viewBox="0 0 24 34" fill="none" xmlns="http://www.w3.org/2000/svg">
<ellipse cx="12.2372" cy="11.7669" rx="9.664" ry="9.80571" fill="white"/>
<path d="M3.71765 3.83704C5.55595 1.83232 7.29118 0.821237 9.91978 0.193672C11.3801 -0.154976 14.2148 -0.0155185 15.7611 0.472588C17.7025 1.08272 19.0426 1.93691 20.6575 3.59298C22.9941 5.98122 23.9734 8.38689 23.9906 11.8036C24.0078 14.0524 23.7672 15.0809 22.7536 17.1902C22.0149 18.7418 21.7915 19.0206 19.369 21.4612C15.1942 25.6798 13.1325 29.3058 12.5312 33.4721C12.4979 33.7114 12.1581 33.7104 12.1189 33.4721C11.3973 29.0791 9.45592 25.6798 5.29824 21.4786C2.46347 18.6197 1.82779 17.6609 1.05467 15.1158C0.539261 13.4423 0.5049 10.5485 0.951592 8.84013C1.44982 6.95743 2.37757 5.28393 3.71765 3.83704ZM8.8549 15.0906V14.7903H15.6197V15.0763C15.6197 15.3146 15.702 15.5171 15.8666 15.6838C16.0308 15.8507 16.2304 15.9343 16.4653 15.9343C16.7096 15.9343 16.9116 15.8532 17.0713 15.6912C17.2311 15.5291 17.3109 15.3289 17.3109 15.0906V10.7863L16.1271 7.35427C16.0707 7.18267 15.9698 7.04444 15.8244 6.93958C15.6786 6.8347 15.5164 6.78227 15.3378 6.78227H9.13677C8.95825 6.78227 8.79627 6.8347 8.65083 6.93958C8.50501 7.04444 8.40391 7.18267 8.34754 7.35427L7.1637 10.7863V15.0763C7.1637 15.3146 7.24601 15.5171 7.41062 15.6838C7.57485 15.8507 7.77441 15.9343 8.0093 15.9343C8.25359 15.9343 8.4556 15.8532 8.61531 15.6912C8.77504 15.5291 8.8549 15.3289 8.8549 15.0906ZM15.7325 9.64227H8.74215L9.33407 7.92628H15.1406L15.7325 9.64227ZM10.2992 12.8237C10.135 12.9907 9.9354 13.0743 9.7005 13.0743C9.46561 13.0743 9.26605 12.9907 9.10182 12.8237C8.93721 12.6571 8.8549 12.4546 8.8549 12.2163C8.8549 11.978 8.93721 11.7755 9.10182 11.6088C9.26605 11.4418 9.46561 11.3583 9.7005 11.3583C9.9354 11.3583 10.135 11.4418 10.2992 11.6088C10.4638 11.7755 10.5461 11.978 10.5461 12.2163C10.5461 12.4546 10.4638 12.6571 10.2992 12.8237ZM15.3728 12.8237C15.2086 12.9907 15.009 13.0743 14.7741 13.0743C14.5392 13.0743 14.3396 12.9907 14.1754 12.8237C14.0108 12.6571 13.9285 12.4546 13.9285 12.2163C13.9285 11.978 14.0108 11.7755 14.1754 11.6088C14.3396 11.4418 14.5392 11.3583 14.7741 11.3583C15.009 11.3583 15.2086 11.4418 15.3728 11.6088C15.5374 11.7755 15.6197 11.978 15.6197 12.2163C15.6197 12.4546 15.5374 12.6571 15.3728 12.8237Z" fill="#1F6FC4"/>
</svg>
