<svg width="25" height="35" viewBox="0 0 25 35" fill="none" xmlns="http://www.w3.org/2000/svg">
<ellipse cx="12.3989" cy="12.0006" rx="9.99885" ry="10.0006" fill="white"/>
<path fill-rule="evenodd" clip-rule="evenodd" d="M3.58379 3.9133C5.48579 1.86873 7.28114 0.837559 10.0008 0.197521C11.5118 -0.158056 14.4448 -0.015827 16.0446 0.481981C18.0532 1.10424 19.4397 1.9754 21.1107 3.66439C23.5282 6.1001 24.5414 8.55358 24.5592 12.0382C24.5769 14.3317 24.3281 15.3807 23.2793 17.5319C22.5149 19.1142 22.2839 19.3987 19.7775 21.8877C15.458 26.1902 13.3249 29.8882 12.7027 34.1373C12.6683 34.3813 12.3166 34.3804 12.2761 34.1373C11.5295 29.6571 9.52088 26.1902 5.21915 21.9055C2.28616 18.9898 1.62845 18.0119 0.828547 15.4162C0.295275 13.7094 0.259723 10.7582 0.721892 9.01583C1.23739 7.09571 2.19728 5.38894 3.58379 3.9133ZM10.6214 16.3121C10.5197 16.4133 10.3912 16.464 10.2359 16.464C10.0807 16.464 9.95245 16.4133 9.85118 16.3121C9.74944 16.2103 9.69857 16.0818 9.69857 15.9266V9.29896C9.69857 9.09595 9.76735 8.92566 9.90492 8.78809C10.042 8.651 10.2121 8.58246 10.4151 8.58246H13.5498C13.6811 8.58246 13.8065 8.61518 13.9259 8.68062C14.0453 8.74654 14.1349 8.84517 14.1946 8.97653L14.7141 10.0155H16.1471C16.3501 10.0155 16.5201 10.084 16.6572 10.2211C16.7948 10.3587 16.8636 10.5289 16.8636 10.732V13.598C16.8636 13.801 16.7948 13.971 16.6572 14.1081C16.5201 14.2457 16.3501 14.3145 16.1471 14.3145H13.7289C13.5975 14.3145 13.4721 14.2817 13.3527 14.2163C13.2333 14.1504 13.1437 14.0517 13.084 13.9204L12.5646 12.8815H10.7733V15.9266C10.7733 16.0818 10.7227 16.2103 10.6214 16.3121ZM9.77022 18.7654C10.642 19.1418 11.5734 19.33 12.5646 19.33C13.5557 19.33 14.4872 19.1418 15.3589 18.7654C16.2307 18.3894 16.989 17.879 17.6338 17.2342C18.2787 16.5893 18.789 15.831 19.165 14.9593C19.5414 14.0876 19.7296 13.1561 19.7296 12.165C19.7296 11.1738 19.5414 10.2423 19.165 9.37061C18.789 8.49887 18.2787 7.74057 17.6338 7.09572C16.989 6.45087 16.2307 5.94024 15.3589 5.56384C14.4872 5.18792 13.5557 4.99996 12.5646 4.99996C11.5734 4.99996 10.642 5.18792 9.77022 5.56384C8.89848 5.94024 8.14018 6.45087 7.49533 7.09572C6.85048 7.74057 6.3401 8.49887 5.96417 9.37061C5.58777 10.2423 5.39957 11.1738 5.39957 12.165C5.39957 13.1561 5.58777 14.0876 5.96417 14.9593C6.3401 15.831 6.85048 16.5893 7.49533 17.2342C8.14018 17.879 8.89848 18.3894 9.77022 18.7654Z" fill="#F0438B"/>
</svg>
