<svg width="24" height="34" viewBox="0 0 24 34" fill="none" xmlns="http://www.w3.org/2000/svg">
<ellipse cx="11.6767" cy="11.7669" rx="9.664" ry="9.80571" fill="white"/>
<path d="M3.1571 3.83703C4.9954 1.83231 6.73063 0.821238 9.35924 0.193672C10.8196 -0.154976 13.6544 -0.0155186 15.2006 0.472588C17.1419 1.08272 18.482 1.93691 20.097 3.59299C22.4336 5.98122 23.4128 8.3869 23.43 11.8036C23.4472 14.0524 23.2067 15.0809 22.193 17.1902C21.4543 18.7418 21.231 19.0206 18.8085 21.4612C14.6336 25.6798 12.572 29.3057 11.9706 33.4721C11.9374 33.7114 11.5975 33.7104 11.5584 33.4721C10.8368 29.0791 8.89537 25.6798 4.7377 21.4786C1.90292 18.6197 1.26724 17.6609 0.494128 15.1158C-0.0212862 13.4423 -0.0556466 10.5485 0.391045 8.84014C0.889278 6.95744 1.81702 5.28393 3.1571 3.83703ZM7.66015 15.4338C7.989 15.7675 8.38832 15.9343 8.85809 15.9343C9.32787 15.9343 9.72718 15.7675 10.056 15.4338C10.3849 15.1001 10.5493 14.6949 10.5493 14.2183H12.8043C12.8043 14.6949 12.9686 15.1001 13.2975 15.4338C13.6264 15.7675 14.0257 15.9343 14.4955 15.9343C14.9652 15.9343 15.3645 15.7675 15.6934 15.4338C16.0222 15.1001 16.1867 14.6949 16.1867 14.2183H16.7504C17.0604 14.2183 17.3259 14.1064 17.547 13.8825C17.7675 13.6583 17.8779 13.3889 17.8779 13.0743V10.4002C17.8779 10.3335 17.8731 10.269 17.8637 10.2069C17.8544 10.1451 17.8403 10.0856 17.8214 10.0284L17.004 7.56878C16.9288 7.33046 16.7927 7.13978 16.5953 6.99679C16.398 6.85378 16.1772 6.78229 15.933 6.78229H15.6229V6.21028C15.6229 6.04822 15.5687 5.91228 15.4605 5.80245C15.3526 5.69301 15.2189 5.63828 15.0592 5.63828H14.4955C14.3357 5.63828 14.2019 5.69301 14.094 5.80245C13.9858 5.91228 13.9317 6.04822 13.9317 6.21028V6.78229H12.8043C12.4941 6.78229 12.2289 6.8944 12.0082 7.11862C11.7872 7.34247 11.6768 7.61169 11.6768 7.92628V10.2143H6.60315C6.2931 10.2143 6.02777 10.3262 5.80717 10.5501C5.58618 10.7743 5.47569 11.0437 5.47569 11.3583V13.0743C5.47569 13.3889 5.58618 13.6583 5.80717 13.8825C6.02777 14.1064 6.2931 14.2183 6.60315 14.2183H7.16689C7.16689 14.6949 7.33132 15.1001 7.66015 15.4338ZM9.26003 14.6255C9.15179 14.7353 9.01781 14.7903 8.85809 14.7903C8.69837 14.7903 8.56439 14.7353 8.45615 14.6255C8.34829 14.5161 8.29435 14.3804 8.29435 14.2183C8.29435 14.0562 8.34829 13.9205 8.45615 13.8111C8.56439 13.7012 8.69837 13.6463 8.85809 13.6463C9.01781 13.6463 9.15179 13.7012 9.26003 13.8111C9.36789 13.9205 9.42182 14.0562 9.42182 14.2183C9.42182 14.3804 9.36789 14.5161 9.26003 14.6255ZM14.8968 14.6255C14.7889 14.7353 14.6551 14.7903 14.4955 14.7903C14.3357 14.7903 14.2019 14.7353 14.094 14.6255C13.9858 14.5161 13.9317 14.3804 13.9317 14.2183C13.9317 14.0562 13.9858 13.9205 14.094 13.8111C14.2019 13.7012 14.3357 13.6463 14.4955 13.6463C14.6551 13.6463 14.7889 13.7012 14.8968 13.8111C15.005 13.9205 15.0592 14.0562 15.0592 14.2183C15.0592 14.3804 15.005 14.5161 14.8968 14.6255ZM16.694 10.2143H12.8043V7.92628H15.933L16.694 10.2143ZM7.87155 8.78428H6.88502V7.64029H7.87155V8.78428ZM9.70369 8.78428H8.71715V7.64029H9.70369V8.78428ZM5.5952 9.52045C5.67525 9.60168 5.77635 9.64228 5.89849 9.64228H10.6903C10.8124 9.64228 10.9135 9.60168 10.9935 9.52045C11.0731 9.43961 11.1131 9.33722 11.1131 9.21328C11.1131 9.08936 11.0731 8.98677 10.9935 8.90555C10.9135 8.82471 10.8124 8.78428 10.6903 8.78428H10.5493V7.64029H10.6903C10.8124 7.64029 10.9135 7.59967 10.9935 7.51845C11.0731 7.4376 11.1131 7.33522 11.1131 7.21129C11.1131 7.08735 11.0731 6.98496 10.9935 6.90412C10.9135 6.82289 10.8124 6.78229 10.6903 6.78229H5.89849C5.77635 6.78229 5.67525 6.82289 5.5952 6.90412C5.51553 6.98496 5.47569 7.08735 5.47569 7.21129C5.47569 7.33522 5.51553 7.4376 5.5952 7.51845C5.67525 7.59967 5.77635 7.64029 5.89849 7.64029H6.03942V8.78428H5.89849C5.77635 8.78428 5.67525 8.82471 5.5952 8.90555C5.51553 8.98677 5.47569 9.08936 5.47569 9.21328C5.47569 9.33722 5.51553 9.43961 5.5952 9.52045Z" fill="#299091"/>
</svg>
