<svg width="26" height="35" viewBox="0 0 26 35" fill="none" xmlns="http://www.w3.org/2000/svg">
<ellipse cx="12.9188" cy="12.0006" rx="9.99885" ry="10.0006" fill="white"/>
<path fill-rule="evenodd" clip-rule="evenodd" d="M4.10368 3.91325C6.00569 1.86869 7.80104 0.837514 10.5207 0.197475C12.0317 -0.158102 14.9647 -0.0158728 16.5645 0.481935C18.5731 1.10419 19.9596 1.97536 21.6306 3.66435C24.0481 6.10005 25.0613 8.55353 25.0791 12.0382C25.0968 14.3317 24.848 15.3806 23.7992 17.5318C23.0348 19.1142 22.8038 19.3986 20.2974 21.8877C15.9779 26.1901 13.8448 29.8881 13.2226 34.1373C13.1882 34.3813 12.8365 34.3803 12.796 34.1373C12.0494 29.657 10.0408 26.1901 5.73905 21.9054C2.80605 18.9897 2.14835 18.0119 1.34844 15.4162C0.815172 13.7094 0.779621 10.7581 1.24179 9.01578C1.75729 7.09567 2.71718 5.3889 4.10368 3.91325ZM16.7814 10.4714C16.9064 10.5964 17.076 10.6666 17.2528 10.6666C17.4296 10.6666 17.5992 10.5964 17.7242 10.4714C17.8492 10.3463 17.9195 10.1768 17.9195 9.99995C17.9195 9.82314 17.8492 9.65357 17.7242 9.52855C17.5992 9.40352 17.4296 9.33329 17.2528 9.33329C17.076 9.33329 16.9064 9.40352 16.7814 9.52855C16.6564 9.65357 16.5861 9.82314 16.5861 9.99995C16.5861 10.1768 16.6564 10.3463 16.7814 10.4714ZM9.2528 10.6666H13.2528V7.33328H9.2528V10.6666ZM18.4395 8.81328L18.4328 8.81995C18.7328 9.11995 18.9195 9.53995 18.9195 9.99995V16.3333C18.9195 16.5522 18.8764 16.7689 18.7926 16.9711C18.7088 17.1733 18.5861 17.357 18.4313 17.5118C18.2765 17.6666 18.0928 17.7893 17.8906 17.8731C17.6884 17.9568 17.4717 18 17.2528 18C16.8108 18 16.3868 17.8244 16.0743 17.5118C15.7617 17.1992 15.5861 16.7753 15.5861 16.3333V13H14.5861V18H7.91947V7.33328C7.91947 6.59328 8.5128 5.99995 9.2528 5.99995H13.2528C13.6064 5.99995 13.9456 6.14043 14.1956 6.39048C14.4457 6.64052 14.5861 6.97966 14.5861 7.33328V12H15.2528C15.6064 12 15.9456 12.1404 16.1956 12.3905C16.4457 12.6405 16.5861 12.9797 16.5861 13.3333V16.3333C16.5861 16.5101 16.6564 16.6797 16.7814 16.8047C16.9064 16.9297 17.076 17 17.2528 17C17.4296 17 17.5992 16.9297 17.7242 16.8047C17.8492 16.6797 17.9195 16.5101 17.9195 16.3333V11.5266C17.7128 11.6133 17.4928 11.6666 17.2528 11.6666C16.8108 11.6666 16.3868 11.491 16.0743 11.1785C15.9195 11.0237 15.7968 10.84 15.713 10.6378C15.6292 10.4355 15.5861 10.2188 15.5861 9.99995C15.5861 9.28662 16.0328 8.66662 16.6595 8.44662L15.2528 7.03995L15.9595 6.33328L18.4395 8.81328Z" fill="#1F6FC4"/>
</svg>
