<svg width="25" height="35" viewBox="0 0 25 35" fill="none" xmlns="http://www.w3.org/2000/svg">
<ellipse cx="12.4387" cy="11.0006" rx="9.99885" ry="10.0006" fill="white"/>
<path fill-rule="evenodd" clip-rule="evenodd" d="M3.62358 3.91325C5.52558 1.86869 7.32093 0.837514 10.0406 0.197475C11.5516 -0.158102 14.4846 -0.0158728 16.0844 0.481935C18.093 1.10419 19.4795 1.97536 21.1505 3.66435C23.568 6.10005 24.5812 8.55353 24.5989 12.0382C24.6167 14.3317 24.3679 15.3806 23.3191 17.5318C22.5547 19.1142 22.3237 19.3986 19.8173 21.8877C15.4978 26.1901 13.3647 29.8881 12.7425 34.1373C12.7081 34.3813 12.3564 34.3803 12.3159 34.1373C11.5693 29.657 9.56068 26.1901 5.25895 21.9054C2.32595 18.9897 1.66825 18.0119 0.868342 15.4162C0.335069 13.7094 0.299518 10.7581 0.761687 9.01578C1.27718 7.09567 2.23707 5.3889 3.62358 3.91325ZM13.3684 14.6726H11.1803V12.8814H9.35686V10.7319H11.1803V8.94065H13.3684V10.7319H15.1919V12.8814H13.3684V14.6726ZM8.08921 16.4725C9.18959 17.9595 10.5846 18.9119 12.2744 19.3299C13.9646 18.9124 15.3596 17.9602 16.4595 16.4732C17.5594 14.9862 18.1094 13.3352 18.1094 11.52V7.14939L12.2744 4.9999L6.43936 7.14939V11.52C6.43887 13.3347 6.98882 14.9855 8.08921 16.4725Z" fill="#BA272A"/>
</svg>
