<svg width="24" height="34" viewBox="0 0 24 34" fill="none" xmlns="http://www.w3.org/2000/svg">
<ellipse cx="11.7166" cy="11.7669" rx="9.664" ry="9.80571" fill="white"/>
<path d="M3.19689 3.83703C5.0352 1.83232 6.77043 0.821238 9.39903 0.193672C10.8594 -0.154976 13.6941 -0.0155185 15.2403 0.472588C17.1817 1.08272 18.5218 1.9369 20.1368 3.59298C22.4734 5.98122 23.4526 8.38689 23.4698 11.8036C23.487 14.0524 23.2465 15.0809 22.2328 17.1902C21.4941 18.7418 21.2708 19.0206 18.8483 21.4612C14.6734 25.6798 12.6117 29.3057 12.0104 33.4721C11.9772 33.7114 11.6373 33.7104 11.5982 33.4721C10.8766 29.0791 8.93517 25.6798 4.77749 21.4786C1.94272 18.6197 1.30704 17.6609 0.533922 15.1158C0.0185088 13.4423 -0.0158515 10.5485 0.43084 8.84014C0.929072 6.95744 1.85682 5.28393 3.19689 3.83703ZM10.0324 9.6574V5.91019H7.85095V15.6626H10.0324V11.5815H13.6117V15.6624H15.7784V5.91019H13.6115V9.6574H10.0324Z" fill="#BA272A"/>
</svg>
