<svg width="26" height="35" viewBox="0 0 26 35" fill="none" xmlns="http://www.w3.org/2000/svg">
<ellipse cx="12.9586" cy="12.0006" rx="9.99885" ry="10.0006" fill="white"/>
<path fill-rule="evenodd" clip-rule="evenodd" d="M10.5605 0.197521C7.84083 0.837559 6.04548 1.86873 4.14348 3.9133C2.75697 5.38894 1.79708 7.09571 1.28158 9.01583C0.819415 10.7582 0.854967 13.7094 1.38824 15.4162C2.18815 18.0119 2.84585 18.9898 5.77885 21.9055C10.0806 26.1902 12.0892 29.6571 12.8358 34.1373C12.8763 34.3804 13.228 34.3813 13.2624 34.1373C13.8846 29.8882 16.0177 26.1902 20.3372 21.8877C22.8436 19.3987 23.0746 19.1142 23.839 17.5319C24.8878 15.3807 25.1366 14.3317 25.1188 12.0382C25.1011 8.55358 24.0879 6.1001 21.6704 3.66439C19.9994 1.9754 18.6129 1.10424 16.6043 0.481981C15.0045 -0.015827 12.0715 -0.158056 10.5605 0.197521ZM9.76236 16.201C8.95596 16.1837 8.32235 15.5711 8.32235 14.8432V13.7077C8.3223 13.6486 8.30052 13.5912 8.26042 13.5446C8.22032 13.4979 8.16418 13.4645 8.10081 13.4497C6.85465 13.1548 5.95926 12.1263 5.95926 10.8685C5.96022 10.2409 6.20597 9.63366 6.65341 9.15331C7.10085 8.67295 7.72139 8.35015 8.40617 8.24154C8.46853 8.2322 8.52594 8.20504 8.56993 8.16407C8.61393 8.1231 8.64221 8.07046 8.6506 8.0139C8.77222 7.1802 9.22546 6.41483 9.92589 5.86039C10.6263 5.30595 11.5262 5.00025 12.4578 5.00025C13.3894 5.00025 14.2892 5.30595 14.9896 5.86039C15.6901 6.41483 16.1433 7.1802 16.2649 8.0139C16.2733 8.07046 16.3016 8.1231 16.3456 8.16407C16.3896 8.20504 16.447 8.2322 16.5094 8.24154C17.2381 8.35578 17.8928 8.71263 18.3441 9.24155C18.7954 9.77047 19.0105 10.433 18.9468 11.0981C18.8831 11.7632 18.5452 12.3826 18.0001 12.8338C17.4549 13.2849 16.742 13.5351 16.0024 13.5347C15.3612 13.532 14.7414 13.3267 14.2504 12.9545C14.199 12.9162 14.1347 12.8949 14.0682 12.8941C14.0016 12.8932 13.9367 12.9129 13.8841 12.9498C13.4778 13.2397 12.9757 13.3987 12.4578 13.4014C12.1853 13.3996 11.9145 13.3639 11.6528 13.2954C11.6089 13.2841 11.5626 13.2821 11.5176 13.2896C11.4727 13.2972 11.4303 13.314 11.3938 13.3389C11.3573 13.3637 11.3277 13.3959 11.3073 13.4328C11.2868 13.4698 11.2762 13.5105 11.2762 13.5517V14.8679C11.2763 15.0458 11.2369 15.2219 11.1604 15.3858C11.0838 15.5498 10.9717 15.6983 10.8307 15.8225C10.6896 15.9467 10.5224 16.0442 10.3389 16.1092C10.1554 16.1742 9.9594 16.2054 9.76236 16.201ZM12.8421 14.5417C12.8926 14.4929 12.9616 14.463 13.0354 14.4579C13.4426 14.427 13.8406 14.3322 14.2116 14.1776C14.253 14.1603 14.2984 14.1518 14.3441 14.153C14.3898 14.1542 14.4345 14.1649 14.4749 14.1843C14.8877 14.3834 15.3367 14.5142 15.8006 14.5706C15.8454 14.5764 15.8881 14.5916 15.9254 14.6147C15.9627 14.6379 15.9936 14.6685 16.0158 14.7041C16.0379 14.7398 16.0506 14.7796 16.053 14.8204C16.0554 14.8612 16.0474 14.9019 16.0295 14.9395L13.305 20.677C13.2595 20.7728 13.1839 20.8545 13.0875 20.912C12.991 20.9695 12.8781 21.0001 12.7625 21.0003C12.6472 21.0002 12.5343 20.9698 12.4379 20.9125C12.3415 20.8553 12.2658 20.7739 12.2201 20.6783L10.7094 17.5188C10.6931 17.4846 10.6849 17.4478 10.6853 17.4106C10.6858 17.3734 10.6948 17.3367 10.7119 17.3029C10.729 17.2691 10.7537 17.2388 10.7845 17.2141C10.8153 17.1894 10.8515 17.1708 10.8907 17.1595C11.4325 17.0074 11.9064 16.703 12.2431 16.2908C12.5798 15.8785 12.7618 15.38 12.7625 14.8678V14.7215C12.7632 14.6547 12.7915 14.5906 12.8421 14.5417Z" fill="#D97200"/>
</svg>
