<svg width="25" height="34" viewBox="0 0 25 34" fill="none" xmlns="http://www.w3.org/2000/svg">
<ellipse cx="12.3965" cy="11.7669" rx="9.664" ry="9.80571" fill="white"/>
<path d="M3.87683 3.83704C5.71513 1.83232 7.45036 0.821237 10.079 0.193672C11.5393 -0.154976 14.374 -0.0155185 15.9203 0.472588C17.8617 1.08272 19.2018 1.93691 20.8167 3.59298C23.1533 5.98122 24.1325 8.38689 24.1497 11.8036C24.1669 14.0524 23.9264 15.0809 22.9128 17.1902C22.174 18.7418 21.9507 19.0206 19.5282 21.4612C15.3534 25.6798 13.2917 29.3058 12.6904 33.4721C12.6571 33.7114 12.3172 33.7104 12.2781 33.4721C11.5565 29.0791 9.6151 25.6798 5.45742 21.4786C2.62265 18.6197 1.98697 17.6609 1.21385 15.1158C0.69844 13.4423 0.66408 10.5485 1.11077 8.84013C1.609 6.95743 2.53675 5.28393 3.87683 3.83704ZM8.21809 16.1705C8.4387 16.3944 8.70403 16.5063 9.01408 16.5063H15.7789C16.0889 16.5063 16.3545 16.3944 16.5754 16.1705C16.796 15.9463 16.9064 15.6769 16.9064 15.3622V6.21028C16.9064 5.89567 16.796 5.62626 16.5754 5.40204C16.3545 5.17819 16.0889 5.06627 15.7789 5.06627H9.01408C8.70403 5.06627 8.4387 5.17819 8.21809 5.40204C7.99711 5.62626 7.88661 5.89567 7.88661 6.21028V15.3622C7.88661 15.6769 7.99711 15.9463 8.21809 16.1705ZM14.3909 13.954C13.8412 14.5115 13.1763 14.7903 12.3965 14.7903C11.6167 14.7903 10.952 14.5115 10.4026 13.954C9.85273 13.3961 9.57781 12.7215 9.57781 11.9302C9.57781 11.139 9.85273 10.4645 10.4026 9.90652C10.952 9.34903 11.6167 9.07027 12.3965 9.07027C13.1763 9.07027 13.8412 9.34903 14.3909 9.90652C14.9404 10.4645 15.2152 11.139 15.2152 11.9302C15.2152 12.7215 14.9404 13.3961 14.3909 13.954ZM11.671 13.6749C11.901 13.7702 12.1428 13.8178 12.3965 13.8178C12.9038 13.8178 13.3408 13.632 13.7071 13.2602C14.0736 12.8883 14.2568 12.445 14.2568 11.9302C14.2568 11.6729 14.2098 11.4273 14.1159 11.1935C14.0219 10.9601 13.8903 10.7577 13.7212 10.5861L11.0717 13.2745C11.2409 13.4461 11.4406 13.5795 11.671 13.6749ZM10.5435 7.76211C10.4353 7.87155 10.3013 7.92628 10.1416 7.92628C9.98183 7.92628 9.84784 7.87155 9.73961 7.76211C9.63175 7.65228 9.57781 7.51634 9.57781 7.35427C9.57781 7.1922 9.63175 7.05626 9.73961 6.94644C9.84784 6.837 9.98183 6.78227 10.1416 6.78227C10.3013 6.78227 10.4353 6.837 10.5435 6.94644C10.6514 7.05626 10.7053 7.1922 10.7053 7.35427C10.7053 7.51634 10.6514 7.65228 10.5435 7.76211ZM12.2347 7.76211C12.1265 7.87155 11.9924 7.92628 11.8328 7.92628C11.673 7.92628 11.5392 7.87155 11.4313 7.76211C11.3231 7.65228 11.269 7.51634 11.269 7.35427C11.269 7.1922 11.3231 7.05626 11.4313 6.94644C11.5392 6.837 11.673 6.78227 11.8328 6.78227C11.9924 6.78227 12.1265 6.837 12.2347 6.94644C12.3426 7.05626 12.3965 7.1922 12.3965 7.35427C12.3965 7.51634 12.3426 7.65228 12.2347 7.76211Z" fill="#5E758D"/>
</svg>
