<svg width="24" height="34" viewBox="0 0 24 34" fill="none" xmlns="http://www.w3.org/2000/svg">
<ellipse cx="12.2364" cy="10.7863" rx="9.664" ry="9.80571" fill="white"/>
<path d="M3.71679 3.83704C5.5551 1.83232 7.29032 0.821237 9.91893 0.193672C11.3793 -0.154976 14.214 -0.0155185 15.7602 0.472588C17.7016 1.08272 19.0417 1.93691 20.6567 3.59298C22.9933 5.98122 23.9725 8.38689 23.9897 11.8036C24.0069 14.0524 23.7664 15.0809 22.7527 17.1902C22.014 18.7418 21.7907 19.0206 19.3682 21.4612C15.1933 25.6798 13.1316 29.3058 12.5303 33.4721C12.4971 33.7114 12.1572 33.7104 12.1181 33.4721C11.3965 29.0791 9.45505 25.6798 5.29739 21.4786C2.46262 18.6197 1.82694 17.6609 1.05382 15.1158C0.538407 13.4423 0.504045 10.5485 0.950738 8.84013C1.44897 6.95743 2.37671 5.28393 3.71679 3.83704ZM13.4559 8.67674C13.3946 8.7675 13.3639 8.85577 13.3639 8.94157C13.3639 9.11317 13.4181 9.2371 13.5263 9.31337C13.6342 9.38964 13.7726 9.39441 13.9418 9.32767C14.1578 9.2514 14.3833 9.18944 14.6182 9.14177C14.8531 9.09411 15.0927 9.07027 15.3369 9.07027C15.4873 9.07027 15.6354 9.07733 15.7812 9.09144C15.9266 9.10592 16.0651 9.12747 16.1967 9.15607C16.3564 9.1942 16.4879 9.17514 16.5913 9.09887C16.6946 9.0226 16.7463 8.90343 16.7463 8.74138C16.7463 8.64603 16.7157 8.56024 16.6544 8.48398C16.5936 8.40771 16.5208 8.36004 16.4362 8.34097C16.2577 8.30284 16.077 8.27176 15.894 8.24774C15.7106 8.22409 15.5249 8.21227 15.3369 8.21227C15.0363 8.21227 14.7498 8.23611 14.4773 8.28377C14.2048 8.33144 13.9324 8.40294 13.6599 8.49827C13.5847 8.52688 13.5166 8.58636 13.4559 8.67674ZM13.4559 11.8228C13.3946 11.9135 13.3639 12.0018 13.3639 12.0876C13.3639 12.2592 13.4181 12.3806 13.5263 12.4519C13.6342 12.5237 13.7726 12.5261 13.9418 12.4593C14.1578 12.3831 14.3833 12.3236 14.6182 12.2809C14.8531 12.2378 15.0927 12.2163 15.3369 12.2163C15.4873 12.2163 15.6354 12.2233 15.7812 12.2374C15.9266 12.2519 16.0651 12.2734 16.1967 12.3021C16.3564 12.3402 16.4879 12.3212 16.5913 12.2449C16.6946 12.1686 16.7463 12.0495 16.7463 11.8874C16.7463 11.7921 16.7157 11.7063 16.6544 11.63C16.5936 11.5537 16.5208 11.506 16.4362 11.487C16.2577 11.4489 16.077 11.4178 15.894 11.3938C15.7106 11.3701 15.5249 11.3583 15.3369 11.3583C15.0363 11.3583 14.7498 11.3821 14.4773 11.4297C14.2048 11.4774 13.9324 11.549 13.6599 11.6443C13.5847 11.6728 13.5166 11.7323 13.4559 11.8228ZM13.4559 10.2497C13.3946 10.3405 13.3639 10.4288 13.3639 10.5146C13.3639 10.6862 13.4181 10.8101 13.5263 10.8864C13.6342 10.9626 13.7726 10.9674 13.9418 10.9006C14.1578 10.8244 14.3833 10.7625 14.6182 10.7148C14.8531 10.6671 15.0927 10.6432 15.3369 10.6432C15.4873 10.6432 15.6354 10.6503 15.7812 10.6644C15.9266 10.6789 16.0651 10.7005 16.1967 10.729C16.3564 10.7672 16.4879 10.7481 16.5913 10.6719C16.6946 10.5956 16.7463 10.4764 16.7463 10.3143C16.7463 10.219 16.7157 10.1332 16.6544 10.0569C16.5936 9.98075 16.5208 9.933 16.4362 9.91397C16.2577 9.87583 16.077 9.84474 15.894 9.82072C15.7106 9.7971 15.5249 9.78527 15.3369 9.78527C15.0363 9.78527 14.7498 9.80915 14.4773 9.8568C14.2048 9.90446 13.9324 9.97594 13.6599 10.0713C13.5847 10.0999 13.5166 10.1593 13.4559 10.2497ZM14.0477 13.2241C13.6294 13.3244 13.2136 13.4746 12.8001 13.6749V8.04067C13.1854 7.81187 13.5941 7.64027 14.0263 7.52587C14.4585 7.41148 14.8954 7.35427 15.3369 7.35427C15.6752 7.35427 16.0112 7.38764 16.3449 7.45438C16.6783 7.5211 17 7.6212 17.31 7.75468V13.4175C16.9812 13.303 16.6548 13.2172 16.3308 13.1601C16.0065 13.1029 15.6752 13.0743 15.3369 13.0743C14.8954 13.0743 14.4656 13.1243 14.0477 13.2241ZM11.8632 15.0122C11.9805 15.0454 12.1049 15.062 12.2364 15.062C12.368 15.062 12.4925 15.0454 12.6103 15.0122C12.7275 14.9786 12.8377 14.9332 12.9411 14.8761C13.3075 14.6568 13.6927 14.4925 14.0968 14.383C14.5008 14.2732 14.9141 14.2183 15.3369 14.2183C15.7316 14.2183 16.1191 14.2708 16.4994 14.3756C16.8801 14.4804 17.2442 14.6282 17.5919 14.8189C17.7892 14.9237 17.9796 14.919 18.163 14.8046C18.346 14.6901 18.4375 14.5233 18.4375 14.3041V7.41148C18.4375 7.3066 18.4117 7.20651 18.3603 7.11118C18.3084 7.01583 18.2308 6.94434 18.1274 6.89668C17.6953 6.66787 17.2442 6.49627 16.7745 6.38188C16.3047 6.26747 15.8256 6.21028 15.3369 6.21028C14.792 6.21028 14.2589 6.28177 13.7377 6.42478C13.216 6.56777 12.7156 6.78227 12.2364 7.06828C11.7573 6.78227 11.2571 6.56777 10.7358 6.42478C10.2142 6.28177 9.68086 6.21028 9.13592 6.21028C8.64735 6.21028 8.16818 6.26747 7.6984 6.38188C7.22862 6.49627 6.77763 6.66787 6.34544 6.89668C6.24208 6.94434 6.16466 7.01583 6.11317 7.11118C6.06132 7.20651 6.03538 7.3066 6.03538 7.41148V14.3041C6.03538 14.5233 6.12708 14.6901 6.31048 14.8046C6.49351 14.919 6.68368 14.9237 6.88098 14.8189C7.22862 14.6282 7.59279 14.4804 7.97349 14.3756C8.35383 14.2708 8.7413 14.2183 9.13592 14.2183C9.55872 14.2183 9.97212 14.2732 10.3761 14.383C10.7802 14.4925 11.1654 14.6568 11.5317 14.8761C11.6352 14.9332 11.7456 14.9786 11.8632 15.0122Z" fill="#5E758D"/>
</svg>
