<svg width="25" height="34" viewBox="0 0 25 34" fill="none" xmlns="http://www.w3.org/2000/svg">
<ellipse cx="12.5168" cy="11.7669" rx="9.664" ry="9.80571" fill="white"/>
<path d="M3.99716 3.83703C5.83546 1.83231 7.57069 0.821238 10.1993 0.193672C11.6596 -0.154976 14.4944 -0.0155186 16.0406 0.472588C17.982 1.08272 19.3221 1.93691 20.9371 3.59299C23.2736 5.98122 24.2529 8.3869 24.2701 11.8036C24.2873 14.0524 24.0467 15.0809 23.0331 17.1902C22.2944 18.7418 22.071 19.0206 19.6486 21.4612C15.4737 25.6798 13.412 29.3057 12.8107 33.4721C12.7775 33.7114 12.4376 33.7104 12.3984 33.4721C11.6768 29.0791 9.73543 25.6798 5.57775 21.4786C2.74298 18.6197 2.1073 17.6609 1.33419 15.1158C0.818771 13.4423 0.784411 10.5485 1.2311 8.84014C1.72934 6.95744 2.65708 5.28393 3.99716 3.83703ZM6.4781 15.1976C6.58596 15.3074 6.71976 15.3623 6.87948 15.3623C7.0392 15.3623 7.17318 15.3074 7.28142 15.1976C7.38928 15.0882 7.44321 14.9523 7.44321 14.7903V13.6463H17.5904V14.7903C17.5904 14.9523 17.6445 15.0882 17.7528 15.1976C17.8606 15.3074 17.9945 15.3623 18.1541 15.3623C18.3139 15.3623 18.4477 15.3074 18.5556 15.1976C18.6638 15.0882 18.7179 14.9523 18.7179 14.7903V10.2143C18.7179 9.58508 18.4971 9.04645 18.0555 8.59838C17.6139 8.15031 17.0831 7.92628 16.4629 7.92628H13.0805C12.7705 7.92628 12.5051 8.0382 12.2846 8.26205C12.0636 8.48628 11.9531 8.75569 11.9531 9.07028V12.5023H7.44321V7.35428C7.44321 7.19222 7.38928 7.05627 7.28142 6.94645C7.17318 6.837 7.0392 6.78229 6.87948 6.78229C6.71976 6.78229 6.58596 6.837 6.4781 6.94645C6.36986 7.05627 6.31574 7.19222 6.31574 7.35428V14.7903C6.31574 14.9523 6.36986 15.0882 6.4781 15.1976ZM8.50021 11.4297C8.82906 11.7634 9.22837 11.9303 9.69814 11.9303C10.1679 11.9303 10.5672 11.7634 10.8961 11.4297C11.2249 11.0961 11.3893 10.691 11.3893 10.2143C11.3893 9.73761 11.2249 9.33245 10.8961 8.99878C10.5672 8.66511 10.1679 8.49829 9.69814 8.49829C9.22837 8.49829 8.82906 8.66511 8.50021 8.99878C8.17137 9.33245 8.00694 9.73761 8.00694 10.2143C8.00694 10.691 8.17137 11.0961 8.50021 11.4297Z" fill="#9C3291"/>
</svg>
