<svg width="25" height="35" viewBox="0 0 25 35" fill="none" xmlns="http://www.w3.org/2000/svg">
<ellipse cx="12.3186" cy="12.0006" rx="9.99885" ry="10.0006" fill="white"/>
<path fill-rule="evenodd" clip-rule="evenodd" d="M3.50346 3.9133C5.40547 1.86873 7.20082 0.837559 9.9205 0.197521C11.4314 -0.158056 14.3644 -0.015827 15.9643 0.481981C17.9729 1.10424 19.3594 1.9754 21.0303 3.66439C23.4478 6.1001 24.4611 8.55358 24.4788 12.0382C24.4966 14.3317 24.2477 15.3807 23.199 17.5319C22.4346 19.1142 22.2035 19.3987 19.6972 21.8877C15.3777 26.1902 13.2446 29.8882 12.6224 34.1373C12.588 34.3813 12.2363 34.3804 12.1958 34.1373C11.4492 29.6571 9.44056 26.1902 5.13883 21.9055C2.20583 18.9898 1.54813 18.0119 0.748224 15.4162C0.214952 13.7094 0.179401 10.7582 0.64157 9.01583C1.15707 7.09571 2.11696 5.38894 3.50346 3.9133ZM10.2843 18.7055C10.4443 18.8076 10.5947 18.8047 10.7353 18.6969L12.1542 17.6903L13.5732 18.6969C13.7138 18.8047 13.8641 18.8076 14.0242 18.7055C14.1837 18.6039 14.2315 18.4692 14.1676 18.3014L13.6115 16.6477L15.0113 15.713C15.1647 15.6171 15.2095 15.4853 15.1455 15.3176C15.0816 15.1498 14.9602 15.0659 14.7812 15.0659H13.0746L12.5377 13.4122L15.2606 11.9023C15.4907 11.7705 15.6697 11.5968 15.7975 11.3811C15.9253 11.1654 15.9892 10.9197 15.9892 10.6441V6.43795C15.9892 6.0425 15.8392 5.70385 15.539 5.42201C15.2383 5.14064 14.8771 4.99996 14.4552 4.99996H9.85324C9.43139 4.99996 9.07039 5.14064 8.77023 5.42201C8.46957 5.70385 8.31924 6.0425 8.31924 6.43795V10.6441C8.31924 10.9197 8.38315 11.1654 8.51099 11.3811C8.63882 11.5968 8.81779 11.7705 9.04789 11.9023L11.7707 13.4122L11.2338 15.0659H9.52726C9.3483 15.0659 9.22686 15.1498 9.16294 15.3176C9.09902 15.4853 9.14376 15.6171 9.29716 15.713L10.6969 16.6477L10.1409 18.3014C10.0769 18.4692 10.1248 18.6039 10.2843 18.7055ZM12.9212 11.5069L12.1542 11.9383L11.3872 11.5069V7.15695C11.3872 6.95323 11.4609 6.78235 11.6081 6.6443C11.7549 6.50673 11.9369 6.43795 12.1542 6.43795C12.3716 6.43795 12.5538 6.50673 12.7011 6.6443C12.8479 6.78235 12.9212 6.95323 12.9212 7.15695V11.5069Z" fill="#1C7679"/>
</svg>
