<svg width="25" height="34" viewBox="0 0 25 34" fill="none" xmlns="http://www.w3.org/2000/svg">
<ellipse cx="12.2766" cy="11.7669" rx="9.664" ry="9.80571" fill="white"/>
<path d="M3.75695 3.83703C5.59526 1.83231 7.33049 0.821238 9.95909 0.193672C11.4194 -0.154976 14.2542 -0.0155186 15.8004 0.472588C17.7418 1.08272 19.0819 1.93691 20.6969 3.59299C23.0334 5.98122 24.0127 8.3869 24.0299 11.8036C24.0471 14.0524 23.8065 15.0809 22.7929 17.1902C22.0542 18.7418 21.8308 19.0206 19.4084 21.4612C15.2335 25.6798 13.1718 29.3057 12.5705 33.4721C12.5372 33.7114 12.1974 33.7104 12.1582 33.4721C11.4366 29.0791 9.49522 25.6798 5.33755 21.4786C2.50278 18.6197 1.8671 17.6609 1.09398 15.1158C0.578567 13.4423 0.544207 10.5485 0.990898 8.84014C1.48913 6.95744 2.41687 5.28393 3.75695 3.83703ZM6.80163 16.3415C6.90949 16.4513 7.04328 16.5063 7.20301 16.5063H17.3502C17.51 16.5063 17.6437 16.4513 17.7516 16.3415C17.8598 16.2321 17.9139 16.0964 17.9139 15.9343C17.9139 15.7722 17.8598 15.6365 17.7516 15.5271C17.6437 15.4172 17.51 15.3623 17.3502 15.3623H16.7865V10.2143H17.1529C17.369 10.2143 17.55 10.1405 17.6958 9.9929C17.8412 9.84494 17.9139 9.66135 17.9139 9.44209C17.9139 9.33722 17.8833 9.22987 17.8221 9.12005C17.7612 9.01061 17.6932 8.92729 17.618 8.87008L12.9249 5.52388C12.8216 5.44762 12.7159 5.39518 12.6081 5.36659C12.4998 5.33799 12.3894 5.32369 12.2766 5.32369C12.1638 5.32369 12.0536 5.33799 11.9457 5.36659C11.8375 5.39518 11.7317 5.44762 11.6283 5.52388L6.93524 8.87008C6.86007 8.92729 6.79205 9.00832 6.73116 9.11318C6.66991 9.21805 6.63928 9.32292 6.63928 9.42778C6.63928 9.64706 6.71218 9.83297 6.85801 9.98545C7.00345 10.138 7.18422 10.2143 7.40032 10.2143H7.76674V15.3623H7.20301C7.04328 15.3623 6.90949 15.4172 6.80163 15.5271C6.6934 15.6365 6.63928 15.7722 6.63928 15.9343C6.63928 16.0964 6.6934 16.2321 6.80163 16.3415ZM10.9873 14.0535C10.8791 14.1634 10.7452 14.2183 10.5854 14.2183C10.4257 14.2183 10.2919 14.1634 10.184 14.0535C10.0758 13.9441 10.0217 13.8083 10.0217 13.6463V10.9579C10.0217 10.7481 10.0921 10.5718 10.2331 10.4288C10.374 10.2858 10.5478 10.2143 10.7545 10.2143C10.8673 10.2143 10.9825 10.2477 11.1001 10.3144C11.2173 10.3811 11.3042 10.4574 11.3606 10.5432L12.2766 11.9303L13.1927 10.5432C13.2491 10.4574 13.3361 10.3811 13.4537 10.3144C13.5709 10.2477 13.6813 10.2143 13.7846 10.2143C13.9913 10.2143 14.1676 10.2858 14.3134 10.4288C14.4588 10.5718 14.5315 10.7481 14.5315 10.9579V13.6463C14.5315 13.8083 14.4776 13.9441 14.3697 14.0535C14.2615 14.1634 14.1276 14.2183 13.9678 14.2183C13.8081 14.2183 13.6743 14.1634 13.5665 14.0535C13.4582 13.9441 13.4041 13.8083 13.4041 13.6463V11.9303L12.7416 12.9313C12.6853 13.0171 12.6173 13.0813 12.5376 13.1241C12.4576 13.1671 12.3705 13.1887 12.2766 13.1887C12.192 13.1887 12.1075 13.1671 12.0229 13.1241C11.9384 13.0813 11.8679 13.0171 11.8116 12.9313L11.1491 11.9303V13.6463C11.1491 13.8083 11.0952 13.9441 10.9873 14.0535Z" fill="#299091"/>
</svg>
