<svg width="24" height="34" viewBox="0 0 24 34" fill="none" xmlns="http://www.w3.org/2000/svg">
<ellipse cx="12.1199" cy="10.7863" rx="9.29231" ry="9.80571" fill="white"/>
<path d="M3.79839 3.83703C5.56599 1.83231 7.23447 0.821238 9.76201 0.193672C11.1662 -0.154976 13.8919 -0.0155186 15.3787 0.472588C17.2454 1.08272 18.5339 1.93691 20.0868 3.59299C22.3335 5.98122 23.2751 8.3869 23.2916 11.8036C23.3081 14.0524 23.0769 15.0809 22.1022 17.1902C21.3918 18.7418 21.177 19.0206 18.8478 21.4612C14.8336 25.6798 12.8511 29.3057 12.273 33.4721C12.241 33.7114 11.9141 33.7104 11.8765 33.4721C11.1827 29.0791 9.31595 25.6798 5.3182 21.4786C2.59246 18.6197 1.98123 17.6609 1.23784 15.1158C0.742252 13.4423 0.709213 10.5485 1.13872 8.84014C1.61779 6.95744 2.50986 5.28393 3.79839 3.83703ZM11.9904 5.06629C8.99662 5.06629 6.56986 7.62713 6.56986 10.7863C6.56986 13.9454 8.99662 16.5063 11.9904 16.5063C14.9841 16.5063 17.4109 13.9454 17.4109 10.7863C17.4109 7.62713 14.9841 5.06629 11.9904 5.06629ZM11.4154 7.60559C11.263 7.76649 11.1773 7.98472 11.1773 8.21229V8.218C11.1773 8.44556 11.263 8.6638 11.4154 8.8247C11.5679 8.98561 11.7747 9.076 11.9904 9.076H11.9958C12.2115 9.076 12.4182 8.98561 12.5707 8.8247C12.7232 8.6638 12.8089 8.44556 12.8089 8.218V8.21229C12.8089 7.98472 12.7232 7.76649 12.5707 7.60559C12.4182 7.44468 12.2115 7.35428 11.9958 7.35428H11.9904C11.7747 7.35428 11.5679 7.44468 11.4154 7.60559ZM11.4154 10.1796C11.5679 10.0187 11.7747 9.92828 11.9904 9.92828H11.9958C12.2115 9.92828 12.4182 10.0187 12.5707 10.1796C12.7232 10.3405 12.8089 10.5587 12.8089 10.7863V10.792C12.8089 11.0196 12.7232 11.2378 12.5707 11.3988C12.4182 11.5596 12.2115 11.65 11.9958 11.65H11.9904C11.7747 11.65 11.5679 11.5596 11.4154 11.3988C11.263 11.2378 11.1773 11.0196 11.1773 10.792V10.7863C11.1773 10.5587 11.263 10.3405 11.4154 10.1796ZM11.4154 12.7536C11.5679 12.5927 11.7747 12.5023 11.9904 12.5023H11.9958C12.2115 12.5023 12.4182 12.5927 12.5707 12.7536C12.7232 12.9145 12.8089 13.1327 12.8089 13.3603V13.366C12.8089 13.5936 12.7232 13.8118 12.5707 13.9728C12.4182 14.1336 12.2115 14.224 11.9958 14.224H11.9904C11.7747 14.224 11.5679 14.1336 11.4154 13.9728C11.263 13.8118 11.1773 13.5936 11.1773 13.366V13.3603C11.1773 13.1327 11.263 12.9145 11.4154 12.7536Z" fill="#5E758D"/>
</svg>
