<svg width="25" height="34" viewBox="0 0 25 34" fill="none" xmlns="http://www.w3.org/2000/svg">
<ellipse cx="12.4366" cy="11.7669" rx="9.664" ry="9.80571" fill="white"/>
<path d="M3.91693 3.83704C5.75523 1.83232 7.49046 0.821237 10.1191 0.193672C11.5794 -0.154976 14.4141 -0.0155185 15.9604 0.472588C17.9018 1.08272 19.2419 1.93691 20.8568 3.59298C23.1934 5.98122 24.1726 8.38689 24.1898 11.8036C24.207 14.0524 23.9665 15.0809 22.9529 17.1902C22.2141 18.7418 21.9908 19.0206 19.5683 21.4612C15.3935 25.6798 13.3318 29.3058 12.7305 33.4721C12.6972 33.7114 12.3573 33.7104 12.3182 33.4721C11.5966 29.0791 9.6552 25.6798 5.49752 21.4786C2.66275 18.6197 2.02707 17.6609 1.25395 15.1158C0.73854 13.4423 0.70418 10.5485 1.15087 8.84013C1.6491 6.95743 2.57685 5.28393 3.91693 3.83704ZM15.2553 5.63827H14.1278V9.73951L12.1547 14.0467L10.1817 11.3583L6.79925 15.9343H18.0739L15.2553 9.73951V7.92628L18.0739 6.78227L15.2553 5.63827Z" fill="#5E758D"/>
</svg>
