<svg width="25" height="35" viewBox="0 0 25 35" fill="none" xmlns="http://www.w3.org/2000/svg">
<ellipse cx="12.7188" cy="12.0006" rx="9.99885" ry="10.0006" fill="white"/>
<path fill-rule="evenodd" clip-rule="evenodd" d="M3.90373 3.9133C5.80574 1.86873 7.60109 0.837559 10.3208 0.197521C11.8317 -0.158056 14.7647 -0.015827 16.3645 0.481981C18.3732 1.10424 19.7597 1.9754 21.4306 3.66439C23.8481 6.1001 24.8613 8.55358 24.8791 12.0382C24.8969 14.3317 24.648 15.3807 23.5992 17.5319C22.8349 19.1142 22.6038 19.3987 20.0974 21.8877C15.7779 26.1902 13.6448 29.8882 13.0227 34.1373C12.9883 34.3813 12.6366 34.3804 12.5961 34.1373C11.8495 29.6571 9.84083 26.1902 5.5391 21.9055C2.6061 18.9898 1.9484 18.0119 1.14849 15.4162C0.615221 13.7094 0.579669 10.7582 1.04184 9.01583C1.55733 7.09571 2.51722 5.38894 3.90373 3.9133ZM12.5545 14.139L11.3875 14.9995C11.2538 15.0951 11.114 15.0982 10.9681 15.0088C10.8222 14.9189 10.7797 14.7903 10.8405 14.623L11.2781 13.2068L10.1293 12.2925C9.98345 12.185 9.9409 12.0475 10.0017 11.8802C10.0625 11.7129 10.184 11.6293 10.3664 11.6293H11.7522L12.2263 10.213C12.2871 10.0457 12.3965 9.96208 12.5545 9.96208C12.7125 9.96208 12.8219 10.0457 12.8827 10.213L13.3568 11.6293H14.7426C14.925 11.6293 15.0436 11.7129 15.0986 11.8802C15.153 12.0475 15.1134 12.185 14.9797 12.2925L13.7944 13.2068L14.2321 14.623C14.2928 14.7903 14.2503 14.9189 14.1044 15.0088C13.9585 15.0982 13.8187 15.0951 13.685 14.9995L12.5545 14.139ZM12.3721 20.1803H12.5545C12.7247 20.1803 12.8402 20.1683 12.9009 20.1444C14.4934 19.6544 15.8063 18.6833 16.8396 17.231C17.8729 15.7792 18.3895 14.1748 18.3895 12.418V9.02989C18.3895 8.73111 18.3015 8.46221 18.1255 8.22319C17.9489 7.98417 17.7209 7.81088 17.4413 7.70332L13.0651 6.08992C12.8949 6.03016 12.7247 6.00028 12.5545 6.00028C12.3843 6.00028 12.2141 6.03016 12.0439 6.08992L7.66768 7.70332C7.38809 7.81088 7.16028 7.98417 6.98426 8.22319C6.80775 8.46221 6.71949 8.73111 6.71949 9.02989V12.418C6.71949 14.1748 7.23613 15.7792 8.26941 17.231C9.3027 18.6833 10.6156 19.6544 12.208 20.1444C12.2567 20.1683 12.3114 20.1803 12.3721 20.1803Z" fill="#1C7679"/>
</svg>
