<svg width="24" height="34" viewBox="0 0 24 34" fill="none" xmlns="http://www.w3.org/2000/svg">
<ellipse cx="12.1968" cy="11.7669" rx="9.664" ry="9.80571" fill="white"/>
<path d="M3.67715 3.83703C5.51545 1.83232 7.25067 0.821238 9.87928 0.193672C11.3396 -0.154976 14.1744 -0.0155185 15.7206 0.472588C17.662 1.08272 19.0021 1.9369 20.6171 3.59298C22.9536 5.98122 23.9329 8.38689 23.9501 11.8036C23.9673 14.0524 23.7267 15.0809 22.7131 17.1902C21.9744 18.7418 21.751 19.0206 19.3285 21.4612C15.1537 25.6798 13.092 29.3057 12.4907 33.4721C12.4574 33.7114 12.1176 33.7104 12.0784 33.4721C11.3568 29.0791 9.41542 25.6798 5.25775 21.4786C2.42297 18.6197 1.7873 17.6609 1.01418 15.1158C0.498764 13.4423 0.464404 10.5485 0.911095 8.84014C1.40933 6.95744 2.33707 5.28393 3.67715 3.83703ZM7.17386 5.70977H5.43201V6.29294H7.17496V15.7645H5.43201V16.628H18.9638V15.7645H17.6536V6.28959H18.9517V5.70977H17.6415V3.92227H16.9809V5.70977H15.1927V3.92227H14.5321V5.70977H12.7396V3.92227H12.079V5.70977H10.2854V3.92227H9.62477V5.70977H7.83448V3.92227H7.17386V5.70977ZM9.61597 10.1684L9.60605 9.44565H9.62257V6.29294H7.84219V14.7109C8.14001 14.3328 8.54108 14.2427 8.9811 14.1438C9.18851 14.0971 9.40458 14.0485 9.62257 13.9669V10.1684H9.61597ZM10.292 12.4272C10.2909 12.425 10.2898 12.4229 10.2887 12.4207H10.292V12.4272ZM10.292 12.4272V13.5782C10.3141 13.5602 10.336 13.5401 10.358 13.52C10.3196 13.6329 11.0803 14.3333 12.0812 14.3602V13.729C11.724 13.7092 11.38 13.5855 11.0903 13.3725C10.7557 13.1243 10.4824 12.8007 10.292 12.4272ZM13.1106 13.4463C12.9946 13.5193 12.8714 13.5799 12.7429 13.6273V14.2742C13.1932 14.1321 13.5984 13.8719 13.9178 13.52C14.0978 13.6854 14.3055 13.8171 14.531 13.9088V10.7047C14.3383 12.1236 13.779 13.0239 13.1106 13.4463ZM13.8633 7.95453C14.1781 8.24744 14.4089 8.62143 14.531 9.03675V6.29294H12.7429V7.37326C13.1613 7.46075 13.5484 7.66163 13.8633 7.95453ZM11.0728 7.6299C11.382 7.45612 11.7252 7.35362 12.0779 7.32969V6.29294H10.2887V8.33516C10.4958 8.04448 10.7635 7.80368 11.0728 7.6299ZM15.3297 14.1265C15.2862 14.1178 15.2423 14.109 15.1983 14.0998V6.29294H16.9819V15.7678H16.9599C16.7125 14.404 16.0647 14.274 15.3297 14.1265ZM12.0779 10.5048L10.2887 10.3148V10.1696H12.0779V10.5048ZM14.3945 10.2769L12.7429 10.459V10.4555V10.1651H14.4022C14.3945 10.2053 14.3945 10.2411 14.3945 10.2769ZM14.3085 10.9474C14.3093 10.9465 14.31 10.9457 14.3108 10.9449V10.9338C14.31 10.9383 14.3093 10.9428 14.3085 10.9474ZM12.7429 11.3303C13.2706 11.6148 13.8016 11.4748 14.3085 10.9474C14.2566 11.247 14.1793 11.5414 14.0774 11.8275C14.03 11.8474 13.985 11.9043 13.9337 11.9693C13.8005 12.1384 13.6237 12.3625 13.2461 12.1358C13.0811 12.0872 12.9129 12.0499 12.7429 12.0242V11.3303ZM10.2887 11.1482C10.8535 11.6677 11.4569 11.5795 12.0779 10.9896V11.9783C11.7472 11.9866 11.4192 12.0414 11.1035 12.1414C10.687 12.3864 10.4967 12.0962 10.3549 11.88C10.3318 11.8448 10.31 11.8115 10.2887 11.7828V11.1482ZM12.7385 10.9304C12.7712 10.9732 12.8082 11.0124 12.8486 11.0477H12.8552C13.3166 11.4442 13.8076 11.1248 14.0377 10.65C14.0405 10.6437 14.0434 10.6382 14.046 10.6333C14.0566 10.6129 14.0626 10.6016 14.0377 10.5773C14.0157 10.5558 13.9813 10.561 13.9502 10.5659C13.9378 10.5677 13.9259 10.5696 13.9155 10.5696L12.7385 10.7561V10.9304ZM11.7421 10.7729C11.6883 10.8774 11.6154 10.9706 11.5274 11.0477H11.5372C11.076 11.4442 10.5849 11.1248 10.3548 10.65C10.3521 10.644 10.3494 10.6388 10.347 10.634C10.3363 10.6132 10.3305 10.6019 10.3548 10.5773C10.376 10.5559 10.4101 10.561 10.4411 10.5659C10.4536 10.5677 10.4655 10.5696 10.4758 10.5696L11.7421 10.7729ZM12.9873 12.748C12.9873 12.6598 12.8938 12.5804 12.7429 12.5246V12.9715C12.8938 12.9145 12.9873 12.8363 12.9873 12.748ZM11.4448 12.7469C11.4448 12.8967 11.7201 13.0206 12.0823 13.0463V12.4476C11.7201 12.4733 11.4448 12.5972 11.4448 12.7469Z" fill="#299091"/>
</svg>
