<svg width="25" height="34" viewBox="0 0 25 34" fill="none" xmlns="http://www.w3.org/2000/svg">
<ellipse cx="13.3632" cy="11.7669" rx="9.664" ry="9.80571" fill="white"/>
<path d="M3.87715 3.83704C5.71545 1.83232 7.45068 0.821237 10.0793 0.193672C11.5396 -0.154976 14.3743 -0.0155185 15.9206 0.472588C17.862 1.08272 19.2021 1.93691 20.817 3.59298C23.1536 5.98122 24.1329 8.38689 24.1501 11.8036C24.1673 14.0524 23.9267 15.0809 22.9131 17.1902C22.1744 18.7418 21.951 19.0206 19.5285 21.4612C15.3537 25.6798 13.292 29.3058 12.6907 33.4721C12.6574 33.7114 12.3176 33.7104 12.2784 33.4721C11.5568 29.0791 9.61542 25.6798 5.45774 21.4786C2.62297 18.6197 1.98729 17.6609 1.21417 15.1158C0.698761 13.4423 0.6644 10.5485 1.11109 8.84013C1.60933 6.95743 2.53707 5.28393 3.87715 3.83704ZM12.5096 13.6462L14.088 12.0447C14.2008 11.9302 14.2571 11.7968 14.2571 11.6443C14.2571 11.4917 14.2008 11.3583 14.088 11.2439L9.32445 6.41047C9.21171 6.29608 9.07547 6.23887 8.91575 6.23887C8.75603 6.23887 8.61979 6.29608 8.50704 6.41047L6.92859 8.01208C6.81584 8.12647 6.75947 8.25517 6.75947 8.39818C6.75947 8.54117 6.81584 8.66987 6.92859 8.78428L11.7203 13.6462C11.8331 13.7607 11.9646 13.8178 12.1149 13.8178C12.2653 13.8178 12.3968 13.7607 12.5096 13.6462ZM13.7215 14.0752L15.7229 16.1059C15.8262 16.2107 15.9577 16.2632 16.1174 16.2632C16.2772 16.2632 16.4087 16.2107 16.512 16.1059C16.6248 15.9915 16.6811 15.858 16.6811 15.7054C16.6811 15.5529 16.6295 15.4242 16.5261 15.3194L14.5108 13.2745L13.7215 14.0752ZM14.6658 8.48398C15.051 8.87484 15.5161 9.07027 16.0611 9.07027C16.6061 9.07027 17.0711 8.87484 17.4563 8.48398C17.8415 8.09311 18.0341 7.6212 18.0341 7.06828C18.0341 6.51534 17.8415 6.04344 17.4563 5.65258C17.0711 5.2617 16.6061 5.06627 16.0611 5.06627C15.5161 5.06627 15.051 5.2617 14.6658 5.65258C14.2806 6.04344 14.088 6.51534 14.088 7.06828C14.088 7.6212 14.2806 8.09311 14.6658 8.48398Z" fill="#598017"/>
</svg>
