<svg width="24" height="34" viewBox="0 0 24 34" fill="none" xmlns="http://www.w3.org/2000/svg">
<ellipse cx="12.2368" cy="11.7669" rx="9.664" ry="9.80571" fill="white"/>
<path d="M3.71714 3.83703C5.55545 1.83231 7.29068 0.821238 9.91928 0.193672C11.3796 -0.154976 14.2143 -0.0155186 15.7606 0.472588C17.702 1.08272 19.0421 1.93691 20.657 3.59299C22.9936 5.98122 23.9729 8.3869 23.9901 11.8036C24.0073 14.0524 23.7667 15.0809 22.7531 17.1902C22.0144 18.7418 21.791 19.0206 19.3685 21.4612C15.1937 25.6798 13.132 29.3057 12.5307 33.4721C12.4974 33.7114 12.1576 33.7104 12.1184 33.4721C11.3968 29.0791 9.45541 25.6798 5.29774 21.4786C2.46297 18.6197 1.82729 17.6609 1.05417 15.1158C0.538757 13.4423 0.504397 10.5485 0.951088 8.84014C1.44932 6.95744 2.37706 5.28393 3.71714 3.83703ZM7.2968 7.71177C7.38625 7.76897 7.47795 7.77373 7.57191 7.72607L8.91077 7.03967C8.95775 7.01108 8.99533 6.97294 9.02352 6.92528C9.05171 6.8776 9.0658 6.82993 9.0658 6.78227C9.0658 6.7346 9.05171 6.68694 9.02352 6.63927C8.99533 6.59161 8.95775 6.55347 8.91077 6.52487L7.57191 5.83847C7.47795 5.7908 7.38625 5.79557 7.2968 5.85278C7.20773 5.90997 7.1632 5.99101 7.1632 6.09587V7.46867C7.1632 7.57354 7.20773 7.65458 7.2968 7.71177ZM15.7533 7.71177C15.8424 7.76897 15.934 7.77373 16.0279 7.72607L17.3667 7.03967C17.4137 7.01108 17.4513 6.97294 17.4795 6.92528C17.5077 6.8776 17.5218 6.82993 17.5218 6.78227C17.5218 6.7346 17.5077 6.68694 17.4795 6.63927C17.4513 6.59161 17.4137 6.55347 17.3667 6.52487L16.0279 5.83847C15.934 5.7908 15.8424 5.79557 15.7533 5.85278C15.6639 5.90997 15.6192 5.99101 15.6192 6.09587V7.46867C15.6192 7.57354 15.6639 7.65458 15.7533 7.71177ZM11.8072 7.13978C11.8963 7.19697 11.9879 7.20174 12.0818 7.15407L13.4206 6.46767C13.4676 6.43907 13.5052 6.40093 13.5334 6.35327C13.5615 6.3056 13.5757 6.25794 13.5757 6.21027C13.5757 6.16261 13.5615 6.11494 13.5334 6.06728C13.5052 6.0196 13.4676 5.98147 13.4206 5.95287L12.0818 5.26647C11.9879 5.21881 11.8963 5.22357 11.8072 5.28077C11.7177 5.33798 11.6731 5.419 11.6731 5.52387V6.89667C11.6731 7.00153 11.7177 7.08257 11.8072 7.13978ZM9.10808 16.2203C9.57786 16.3156 10.057 16.3871 10.5456 16.4348V14.2183C10.5456 14.0562 10.5997 13.9205 10.708 13.8111C10.8158 13.7012 10.9497 13.6463 11.1093 13.6463H13.3643C13.5239 13.6463 13.658 13.7012 13.7662 13.8111C13.8741 13.9205 13.928 14.0562 13.928 14.2183V16.4348C14.4166 16.3871 14.8958 16.3156 15.3655 16.2203C15.8353 16.1249 16.2559 16.008 16.6272 15.8697C16.9981 15.7316 17.2987 15.572 17.5291 15.3909C17.7591 15.2097 17.8741 15.0095 17.8741 14.7903V9.64227C17.8741 9.40393 17.726 9.18219 17.4299 8.97703C17.1341 8.77226 16.7326 8.59113 16.2252 8.43364C15.7179 8.27652 15.1212 8.15259 14.4354 8.06184C13.7495 7.97146 13.0166 7.92627 12.2368 7.92627C11.457 7.92627 10.7241 7.97146 10.0382 8.06184C9.35237 8.15259 8.75575 8.27652 8.24839 8.43364C7.74103 8.59113 7.33946 8.77226 7.04368 8.97703C6.74754 9.18219 6.59947 9.40393 6.59947 9.64227V14.7903C6.59947 15.0095 6.71447 15.2097 6.94447 15.3909C7.17485 15.572 7.47569 15.7316 7.847 15.8697C8.21795 16.008 8.6383 16.1249 9.10808 16.2203ZM14.5977 10.0496C13.9352 10.1594 13.1482 10.2143 12.2368 10.2143C11.3254 10.2143 10.5386 10.1594 9.87644 10.0496C9.21387 9.94005 8.68528 9.81385 8.29067 9.67087C8.29067 9.6232 8.6477 9.51109 9.36176 9.33454C10.0758 9.15836 11.0342 9.07028 12.2368 9.07028C13.4394 9.07028 14.3978 9.15836 15.1118 9.33454C15.8259 9.51109 16.1829 9.6232 16.1829 9.67087C15.7883 9.81385 15.2599 9.94005 14.5977 10.0496Z" fill="#299091"/>
</svg>
