<svg width="25" height="35" viewBox="0 0 25 35" fill="none" xmlns="http://www.w3.org/2000/svg">
<ellipse cx="11.9989" cy="12.0006" rx="9.99885" ry="10.0006" fill="white"/>
<path fill-rule="evenodd" clip-rule="evenodd" d="M3.18376 3.9133C5.08577 1.86873 6.88111 0.837559 9.6008 0.197521C11.1117 -0.158056 14.0447 -0.015827 15.6446 0.481981C17.6532 1.10424 19.0397 1.9754 20.7106 3.66439C23.1281 6.1001 24.1414 8.55358 24.1591 12.0382C24.1769 14.3317 23.928 15.3807 22.8793 17.5319C22.1149 19.1142 21.8838 19.3987 19.3775 21.8877C15.058 26.1902 12.9249 29.8882 12.3027 34.1373C12.2683 34.3813 11.9166 34.3804 11.8761 34.1373C11.1295 29.6571 9.12086 26.1902 4.81913 21.9055C1.88613 18.9898 1.22843 18.0119 0.428522 15.4162C-0.10475 13.7094 -0.140301 10.7582 0.321868 9.01583C0.837364 7.09571 1.79725 5.38894 3.18376 3.9133ZM5.33777 13.1696L5.30289 13.2637C5.28791 13.303 5.28082 13.3448 5.28203 13.3869C5.28323 13.4289 5.29271 13.4703 5.30992 13.5086C5.32712 13.547 5.35172 13.5816 5.38231 13.6105C5.4129 13.6393 5.44887 13.6619 5.48817 13.6768L5.48849 13.6771C5.56776 13.7073 5.65577 13.7048 5.73317 13.6701C5.81058 13.6354 5.87105 13.5714 5.90129 13.4922L5.93841 13.3923C6.02033 13.1709 6.10513 12.9418 6.25841 12.8499C6.35729 12.7904 6.48721 12.7555 6.62865 12.7267C6.58481 12.881 6.55985 13.0515 6.55985 13.2442V14.0547C6.55985 14.4555 6.7942 14.8467 7.03133 15.2425C7.27413 15.6478 7.51985 16.058 7.51985 16.4883V17.2995C7.51985 17.9905 7.33584 18.2515 7.10249 18.5826C6.92495 18.8345 6.71886 19.1269 6.54353 19.68H7.35473L9.11985 16.48V19.68H9.75985V15.6774L10.5599 14.8662C11.3711 14.8662 11.3599 15.6774 11.3599 15.6774V19.68H12.3199V16.0826L13.0824 17.273L13.8447 19.68H14.6559L13.4514 14.6109C13.9202 14.3251 13.92 13.8262 13.9199 13.2754C13.9199 13.2649 13.9199 13.2544 13.9199 13.2438V10.8099L17.1269 6.34784L18.2706 6.70912C18.5135 6.78432 18.7195 6.75328 18.7195 6.55072C18.7195 6.21771 18.5382 6.09734 18.3954 6.00255C18.3643 5.98193 18.3351 5.96252 18.3099 5.9424L16.2824 4.32C14.6597 6.75328 13.2168 8.38016 11.4191 9.99808C10.7274 10.6209 9.80492 10.9069 8.94969 11.1721C8.25384 11.3879 7.60252 11.5898 7.15633 11.9482L7.14193 11.953L7.05105 11.985C6.93546 12.017 6.81816 12.0424 6.69969 12.0611C6.45201 12.1053 6.17105 12.1555 5.92945 12.3002C5.58343 12.5073 5.44788 12.8728 5.33858 13.1674L5.33777 13.1696Z" fill="#598017"/>
</svg>
