<svg width="25" height="35" viewBox="0 0 25 35" fill="none" xmlns="http://www.w3.org/2000/svg">
<ellipse cx="12.4393" cy="11.0006" rx="9.99885" ry="10.0006" fill="white"/>
<path d="M3.62419 3.9133C5.5262 1.86874 7.32155 0.83756 10.0412 0.197521C11.5522 -0.158056 14.4851 -0.0158269 16.0849 0.481981C18.0936 1.10424 19.4801 1.9754 21.1511 3.66439C23.5686 6.1001 24.5818 8.55358 24.5996 12.0382C24.6174 14.3317 24.3685 15.3806 23.3197 17.5319C22.5554 19.1143 22.3243 19.3987 19.8179 21.8877C15.4984 26.1902 13.3652 29.8882 12.7431 34.1374C12.7087 34.3814 12.3571 34.3804 12.3166 34.1374C11.57 29.6571 9.56129 26.1902 5.25956 21.9055C2.32656 18.9897 1.66886 18.0119 0.868952 15.4162C0.335679 13.7094 0.300129 10.7582 0.762298 9.01583C1.27779 7.09571 2.23768 5.38895 3.62419 3.9133ZM6.94906 16.4916C7.17751 16.7201 7.45213 16.8343 7.77292 16.8343H17.1052C17.426 16.8343 17.7007 16.7201 17.929 16.4916C18.1575 16.2631 18.2717 15.9885 18.2717 15.6676V8.66719C18.2717 8.34634 18.1575 8.07167 17.929 7.84319C17.7007 7.61469 17.426 7.50046 17.1052 7.50046H14.7721L12.8473 5.57534C12.7307 5.45866 12.5946 5.40033 12.4391 5.40033C12.2835 5.40033 12.1474 5.45866 12.0308 5.57534L10.106 7.50046H7.77292C7.45213 7.50046 7.17751 7.61469 6.94906 7.84319C6.72061 8.07167 6.60639 8.34634 6.60639 8.66719V15.6676C6.60639 15.9885 6.72061 16.2631 6.94906 16.4916ZM10.9225 12.4737L12.0016 13.9175L13.5181 11.8903C13.5764 11.8125 13.6542 11.7736 13.7514 11.7736C13.8486 11.7736 13.9264 11.8125 13.9847 11.8903L15.5887 14.0342C15.6665 14.1315 15.6762 14.2335 15.6179 14.3405C15.5595 14.4474 15.472 14.5009 15.3554 14.5009H9.52272C9.40607 14.5009 9.31858 14.4474 9.26025 14.3405C9.20193 14.2335 9.21164 14.1315 9.28942 14.0342L10.456 12.4737C10.5143 12.3959 10.5921 12.3569 10.6893 12.3569C10.7864 12.3569 10.8642 12.3959 10.9225 12.4737ZM16.2667 11.3288C16.0966 11.499 15.8901 11.584 15.647 11.584C15.404 11.584 15.1974 11.499 15.0273 11.3288C14.8572 11.1587 14.7721 10.9521 14.7721 10.7089C14.7721 10.4659 14.8572 10.2593 15.0273 10.0891C15.1974 9.919 15.404 9.83393 15.647 9.83393C15.8901 9.83393 16.0966 9.919 16.2667 10.0891C16.4369 10.2593 16.5219 10.4659 16.5219 10.7089C16.5219 10.9521 16.4369 11.1587 16.2667 11.3288ZM12.4391 6.39205L13.5472 7.50046H11.3309L12.4391 6.39205Z" fill="#299091"/>
</svg>
