<svg width="25" height="35" viewBox="0 0 25 35" fill="none" xmlns="http://www.w3.org/2000/svg">
<ellipse cx="12.5991" cy="12.0007" rx="9.99885" ry="10.0006" fill="white"/>
<path d="M3.78411 3.9133C5.68611 1.86874 7.48145 0.83756 10.2011 0.197521C11.7121 -0.158056 14.645 -0.0158269 16.2448 0.481981C18.2535 1.10424 19.6401 1.9754 21.311 3.66439C23.7285 6.1001 24.7417 8.55358 24.7595 12.0382C24.7773 14.3317 24.5284 15.3806 23.4796 17.5319C22.7153 19.1143 22.4842 19.3987 19.9778 21.8877C15.6583 26.1902 13.5252 29.8882 12.903 34.1374C12.8686 34.3814 12.517 34.3804 12.4765 34.1374C11.7299 29.6571 9.7212 26.1902 5.41947 21.9055C2.48648 18.9897 1.82877 18.0119 1.02886 15.4162C0.495592 13.7094 0.46004 10.7582 0.922209 9.01583C1.43771 7.09571 2.3976 5.38895 3.78411 3.9133ZM18.4316 13.9174H6.7663V16.251H18.4316V13.9174ZM10.8492 8.08381H9.24518C8.54526 8.08381 7.962 8.66718 7.962 9.25054L7.6412 13.3341H17.5567L17.2651 9.25054C17.1484 8.66718 16.5652 8.08381 15.9819 8.08381H12.0157V7.50044H13.7655V5.75033H9.09937V7.50044H10.8492V8.08381ZM16.0986 10.4172H13.1822V9.25054H16.0986V10.4172ZM9.09937 9.83392V9.25054H10.2659V9.83392H9.09937ZM10.8492 9.83392V9.25054H12.0157V9.83392H10.8492ZM9.09937 11.0007V10.4172H10.2659V11.0007H9.09937ZM10.8492 11.0007V10.4172H12.0157V11.0007H10.8492ZM9.09937 12.1673V11.584H10.2659V12.1673H9.09937ZM10.8492 12.1673V11.584H12.0157V12.1673H10.8492ZM9.68263 6.91707V6.33371H13.1822V6.91707H9.68263Z" fill="#676BDB"/>
</svg>
