<svg width="25" height="35" viewBox="0 0 25 35" fill="none" xmlns="http://www.w3.org/2000/svg">
<circle cx="12" cy="12" r="10" fill="white"/>
<path fill-rule="evenodd" clip-rule="evenodd" d="M3.18413 3.91306C5.08635 1.86862 6.8819 0.837509 9.60191 0.197509C11.113 -0.158047 14.0463 -0.0158261 15.6463 0.481952C17.6552 1.10417 19.0419 1.97528 20.713 3.66417C23.1308 6.09973 24.1441 8.55306 24.1619 12.0375C24.1797 14.3308 23.9308 15.3797 22.8819 17.5308C22.1175 19.1131 21.8864 19.3975 19.3797 21.8864C15.0597 26.1886 12.9263 29.8864 12.3041 34.1353C12.2697 34.3793 11.918 34.3783 11.8775 34.1353C11.1308 29.6553 9.1219 26.1886 4.81968 21.9042C1.88635 18.9886 1.22857 18.0108 0.428571 15.4153C-0.104762 13.7086 -0.140317 10.7575 0.321905 9.01529C0.83746 7.09529 1.79746 5.38862 3.18413 3.91306ZM15.0958 14.1634C15.4572 13.6735 15.7032 13.1082 15.8154 12.5099C16.4392 12.9203 16.914 13.5209 17.1694 14.2227C17.4247 14.9244 17.4469 15.6897 17.2327 16.4051C17.0185 17.1204 16.5793 17.7476 15.9803 18.1935C15.3813 18.6394 14.6545 18.8802 13.9077 18.8802H6.87563C7.3767 18.6897 8.74198 18.1556 10.2255 17.4467C12.7369 16.2466 14.3755 15.1418 15.0958 14.1634ZM10.2354 10.7101C10.0611 10.9464 9.94435 11.2201 9.89451 11.5095C9.84467 11.7989 9.86308 12.0959 9.94827 12.3769C10.0335 12.6579 10.1831 12.9151 10.3852 13.1281C10.5874 13.3411 10.8365 13.5039 11.1126 13.6036C11.3888 13.7034 11.6845 13.7372 11.976 13.7026C12.2676 13.6679 12.5471 13.5656 12.7921 13.4039C13.0372 13.2421 13.2412 13.0254 13.3877 12.7709C13.5342 12.5165 13.6193 12.2313 13.6362 11.9382C13.6603 11.5322 13.5523 11.1293 13.3285 10.7896C13.1048 10.45 12.7771 10.1918 12.3946 10.0537C12.012 9.91552 11.5951 9.90479 11.2059 10.0231C10.8168 10.1414 10.4763 10.3824 10.2354 10.7101ZM8.53132 9.33266C8.05829 9.97507 7.6623 10.8469 7.34567 11.9382C7.07874 12.8574 6.86917 13.9288 6.717 15.1525C6.62869 15.8629 6.57282 16.5321 6.53747 17.0996L6.53747 11.9382V4.99656H13.9077C14.6496 4.99656 15.3719 5.23425 15.9688 5.67478C16.5657 6.11531 17.0057 6.7355 17.2244 7.44439C17.443 8.15329 17.4288 8.91359 17.1837 9.6138C16.9387 10.314 16.4758 10.9173 15.8628 11.3352C15.8051 10.7717 15.63 10.2265 15.3488 9.73476C15.0676 9.24303 14.6866 8.81563 14.2302 8.48009L14.215 8.46904C13.3464 7.83096 12.2601 7.56354 11.1946 7.72545C10.129 7.88736 9.1712 8.46537 8.53132 9.33266Z" fill="#63A088"/>
</svg>
