<svg xmlns="http://www.w3.org/2000/svg" xmlns:xlink="http://www.w3.org/1999/xlink" width="128" zoomAndPan="magnify" viewBox="0 0 96 95.999999" height="128" preserveAspectRatio="xMidYMid meet" version="1.0"><defs><g/></defs><rect x="-9.6" width="115.2" fill="#ffffff" y="-9.6" height="115.199999" fill-opacity="1"/><rect x="-9.6" width="115.2" fill="#ffffff" y="-9.6" height="115.199999" fill-opacity="1"/><g fill="#d9d9d9" fill-opacity="1"><g transform="translate(21.806936, 51.446454)"><g><path d="M 3.453125 0.09375 C 2.828125 0.09375 2.359375 -0.140625 2.046875 -0.609375 L 1.953125 -0.59375 L 1.953125 0 L 0.71875 0 L 0.71875 -6.9375 L 1.953125 -6.9375 L 1.953125 -4.359375 L 2.046875 -4.34375 C 2.222656 -4.582031 2.425781 -4.757812 2.65625 -4.875 C 2.882812 -4.988281 3.160156 -5.046875 3.484375 -5.046875 C 3.890625 -5.046875 4.238281 -4.953125 4.53125 -4.765625 C 4.832031 -4.578125 5.066406 -4.289062 5.234375 -3.90625 C 5.398438 -3.519531 5.484375 -3.039062 5.484375 -2.46875 C 5.484375 -1.90625 5.394531 -1.429688 5.21875 -1.046875 C 5.050781 -0.660156 4.8125 -0.375 4.5 -0.1875 C 4.195312 0 3.847656 0.09375 3.453125 0.09375 Z M 3.078125 -0.953125 C 3.441406 -0.953125 3.71875 -1.070312 3.90625 -1.3125 C 4.101562 -1.5625 4.203125 -1.945312 4.203125 -2.46875 C 4.203125 -2.988281 4.101562 -3.367188 3.90625 -3.609375 C 3.71875 -3.859375 3.441406 -3.984375 3.078125 -3.984375 C 2.734375 -3.984375 2.457031 -3.859375 2.25 -3.609375 C 2.039062 -3.359375 1.9375 -2.976562 1.9375 -2.46875 C 1.9375 -1.957031 2.039062 -1.578125 2.25 -1.328125 C 2.457031 -1.078125 2.734375 -0.953125 3.078125 -0.953125 Z M 3.078125 -0.953125 "/></g></g></g><g fill="#d9d9d9" fill-opacity="1"><g transform="translate(27.732708, 51.446454)"><g><path d="M 1.921875 0.09375 C 1.609375 0.09375 1.332031 0.0351562 1.09375 -0.078125 C 0.863281 -0.191406 0.6875 -0.363281 0.5625 -0.59375 C 0.4375 -0.820312 0.375 -1.09375 0.375 -1.40625 C 0.375 -1.695312 0.4375 -1.941406 0.5625 -2.140625 C 0.6875 -2.335938 0.878906 -2.5 1.140625 -2.625 C 1.410156 -2.757812 1.757812 -2.859375 2.1875 -2.921875 C 2.476562 -2.972656 2.703125 -3.023438 2.859375 -3.078125 C 3.015625 -3.140625 3.117188 -3.207031 3.171875 -3.28125 C 3.222656 -3.351562 3.25 -3.441406 3.25 -3.546875 C 3.25 -3.710938 3.191406 -3.835938 3.078125 -3.921875 C 2.972656 -4.003906 2.789062 -4.046875 2.53125 -4.046875 C 2.257812 -4.046875 2 -3.984375 1.75 -3.859375 C 1.5 -3.734375 1.28125 -3.570312 1.09375 -3.375 L 1.015625 -3.375 L 0.484375 -4.15625 C 0.734375 -4.4375 1.039062 -4.65625 1.40625 -4.8125 C 1.769531 -4.96875 2.164062 -5.046875 2.59375 -5.046875 C 3.25 -5.046875 3.722656 -4.90625 4.015625 -4.625 C 4.304688 -4.34375 4.453125 -3.945312 4.453125 -3.4375 L 4.453125 -1.296875 C 4.453125 -1.066406 4.550781 -0.953125 4.75 -0.953125 C 4.820312 -0.953125 4.894531 -0.96875 4.96875 -1 L 5.03125 -0.984375 L 5.125 -0.109375 C 5.050781 -0.0664062 4.953125 -0.03125 4.828125 0 C 4.703125 0.0195312 4.566406 0.03125 4.421875 0.03125 C 4.128906 0.03125 3.898438 -0.0234375 3.734375 -0.140625 C 3.566406 -0.253906 3.445312 -0.429688 3.375 -0.671875 L 3.28125 -0.671875 C 3.039062 -0.160156 2.585938 0.09375 1.921875 0.09375 Z M 2.328125 -0.828125 C 2.609375 -0.828125 2.832031 -0.921875 3 -1.109375 C 3.175781 -1.304688 3.265625 -1.578125 3.265625 -1.921875 L 3.265625 -2.4375 L 3.1875 -2.453125 C 3.113281 -2.390625 3.015625 -2.335938 2.890625 -2.296875 C 2.765625 -2.253906 2.59375 -2.21875 2.375 -2.1875 C 2.101562 -2.132812 1.90625 -2.050781 1.78125 -1.9375 C 1.664062 -1.832031 1.609375 -1.679688 1.609375 -1.484375 C 1.609375 -1.273438 1.671875 -1.113281 1.796875 -1 C 1.921875 -0.882812 2.097656 -0.828125 2.328125 -0.828125 Z M 2.328125 -0.828125 "/></g></g></g><g fill="#d9d9d9" fill-opacity="1"><g transform="translate(32.949721, 51.446454)"><g><path d="M 1.921875 0.09375 C 1.609375 0.09375 1.332031 0.0351562 1.09375 -0.078125 C 0.863281 -0.191406 0.6875 -0.363281 0.5625 -0.59375 C 0.4375 -0.820312 0.375 -1.09375 0.375 -1.40625 C 0.375 -1.695312 0.4375 -1.941406 0.5625 -2.140625 C 0.6875 -2.335938 0.878906 -2.5 1.140625 -2.625 C 1.410156 -2.757812 1.757812 -2.859375 2.1875 -2.921875 C 2.476562 -2.972656 2.703125 -3.023438 2.859375 -3.078125 C 3.015625 -3.140625 3.117188 -3.207031 3.171875 -3.28125 C 3.222656 -3.351562 3.25 -3.441406 3.25 -3.546875 C 3.25 -3.710938 3.191406 -3.835938 3.078125 -3.921875 C 2.972656 -4.003906 2.789062 -4.046875 2.53125 -4.046875 C 2.257812 -4.046875 2 -3.984375 1.75 -3.859375 C 1.5 -3.734375 1.28125 -3.570312 1.09375 -3.375 L 1.015625 -3.375 L 0.484375 -4.15625 C 0.734375 -4.4375 1.039062 -4.65625 1.40625 -4.8125 C 1.769531 -4.96875 2.164062 -5.046875 2.59375 -5.046875 C 3.25 -5.046875 3.722656 -4.90625 4.015625 -4.625 C 4.304688 -4.34375 4.453125 -3.945312 4.453125 -3.4375 L 4.453125 -1.296875 C 4.453125 -1.066406 4.550781 -0.953125 4.75 -0.953125 C 4.820312 -0.953125 4.894531 -0.96875 4.96875 -1 L 5.03125 -0.984375 L 5.125 -0.109375 C 5.050781 -0.0664062 4.953125 -0.03125 4.828125 0 C 4.703125 0.0195312 4.566406 0.03125 4.421875 0.03125 C 4.128906 0.03125 3.898438 -0.0234375 3.734375 -0.140625 C 3.566406 -0.253906 3.445312 -0.429688 3.375 -0.671875 L 3.28125 -0.671875 C 3.039062 -0.160156 2.585938 0.09375 1.921875 0.09375 Z M 2.328125 -0.828125 C 2.609375 -0.828125 2.832031 -0.921875 3 -1.109375 C 3.175781 -1.304688 3.265625 -1.578125 3.265625 -1.921875 L 3.265625 -2.4375 L 3.1875 -2.453125 C 3.113281 -2.390625 3.015625 -2.335938 2.890625 -2.296875 C 2.765625 -2.253906 2.59375 -2.21875 2.375 -2.1875 C 2.101562 -2.132812 1.90625 -2.050781 1.78125 -1.9375 C 1.664062 -1.832031 1.609375 -1.679688 1.609375 -1.484375 C 1.609375 -1.273438 1.671875 -1.113281 1.796875 -1 C 1.921875 -0.882812 2.097656 -0.828125 2.328125 -0.828125 Z M 2.328125 -0.828125 "/></g></g></g><g fill="#d9d9d9" fill-opacity="1"><g transform="translate(38.166734, 51.446454)"><g><path d="M 3.40625 -1.1875 L 3.734375 -0.265625 C 3.597656 -0.148438 3.425781 -0.0625 3.21875 0 C 3.019531 0.0625 2.796875 0.09375 2.546875 0.09375 C 2.003906 0.09375 1.59375 -0.0507812 1.3125 -0.34375 C 1.039062 -0.632812 0.90625 -1.054688 0.90625 -1.609375 L 0.90625 -3.96875 L 0.140625 -3.96875 L 0.140625 -4.953125 L 0.90625 -4.953125 L 0.90625 -5.921875 L 2.140625 -6.125 L 2.140625 -4.953125 L 3.546875 -4.953125 L 3.546875 -3.96875 L 2.140625 -3.96875 L 2.140625 -1.703125 C 2.140625 -1.460938 2.191406 -1.285156 2.296875 -1.171875 C 2.398438 -1.054688 2.546875 -1 2.734375 -1 C 2.960938 -1 3.15625 -1.0625 3.3125 -1.1875 Z M 3.40625 -1.1875 "/></g></g></g><g fill="#d9d9d9" fill-opacity="1"><g transform="translate(42.011086, 51.446454)"><g><path d="M 2.875 0.09375 C 2.394531 0.09375 1.96875 -0.00390625 1.59375 -0.203125 C 1.226562 -0.398438 0.941406 -0.691406 0.734375 -1.078125 C 0.535156 -1.460938 0.4375 -1.925781 0.4375 -2.46875 C 0.4375 -3.007812 0.535156 -3.472656 0.734375 -3.859375 C 0.941406 -4.253906 1.226562 -4.550781 1.59375 -4.75 C 1.96875 -4.945312 2.394531 -5.046875 2.875 -5.046875 C 3.363281 -5.046875 3.789062 -4.945312 4.15625 -4.75 C 4.519531 -4.550781 4.800781 -4.253906 5 -3.859375 C 5.207031 -3.472656 5.3125 -3.007812 5.3125 -2.46875 C 5.3125 -1.925781 5.207031 -1.460938 5 -1.078125 C 4.800781 -0.691406 4.519531 -0.398438 4.15625 -0.203125 C 3.789062 -0.00390625 3.363281 0.09375 2.875 0.09375 Z M 2.875 -0.953125 C 3.644531 -0.953125 4.03125 -1.457031 4.03125 -2.46875 C 4.03125 -2.988281 3.929688 -3.367188 3.734375 -3.609375 C 3.535156 -3.859375 3.25 -3.984375 2.875 -3.984375 C 2.101562 -3.984375 1.71875 -3.476562 1.71875 -2.46875 C 1.71875 -1.457031 2.101562 -0.953125 2.875 -0.953125 Z M 2.875 -0.953125 "/></g></g></g><g fill="#d9d9d9" fill-opacity="1"><g transform="translate(47.761906, 51.446454)"><g/></g></g><g fill="#d9d9d9" fill-opacity="1"><g transform="translate(49.928562, 51.446454)"><g><path d="M 0.71875 0 L 0.71875 -4.953125 L 1.90625 -4.953125 L 1.90625 -4.28125 L 2 -4.265625 C 2.164062 -4.535156 2.351562 -4.734375 2.5625 -4.859375 C 2.78125 -4.984375 3.0625 -5.046875 3.40625 -5.046875 C 3.78125 -5.046875 4.078125 -4.96875 4.296875 -4.8125 C 4.523438 -4.664062 4.691406 -4.453125 4.796875 -4.171875 L 4.890625 -4.171875 C 5.046875 -4.460938 5.242188 -4.679688 5.484375 -4.828125 C 5.722656 -4.972656 6.023438 -5.046875 6.390625 -5.046875 C 7.410156 -5.046875 7.921875 -4.472656 7.921875 -3.328125 L 7.921875 0 L 6.6875 0 L 6.6875 -3.171875 C 6.6875 -3.460938 6.628906 -3.671875 6.515625 -3.796875 C 6.398438 -3.929688 6.21875 -4 5.96875 -4 C 5.28125 -4 4.9375 -3.539062 4.9375 -2.625 L 4.9375 0 L 3.703125 0 L 3.703125 -3.171875 C 3.703125 -3.460938 3.640625 -3.671875 3.515625 -3.796875 C 3.398438 -3.929688 3.21875 -4 2.96875 -4 C 2.65625 -4 2.40625 -3.890625 2.21875 -3.671875 C 2.039062 -3.453125 1.953125 -3.113281 1.953125 -2.65625 L 1.953125 0 Z M 0.71875 0 "/></g></g></g><g fill="#d9d9d9" fill-opacity="1"><g transform="translate(58.487504, 51.446454)"><g><path d="M 1.921875 0.09375 C 1.609375 0.09375 1.332031 0.0351562 1.09375 -0.078125 C 0.863281 -0.191406 0.6875 -0.363281 0.5625 -0.59375 C 0.4375 -0.820312 0.375 -1.09375 0.375 -1.40625 C 0.375 -1.695312 0.4375 -1.941406 0.5625 -2.140625 C 0.6875 -2.335938 0.878906 -2.5 1.140625 -2.625 C 1.410156 -2.757812 1.757812 -2.859375 2.1875 -2.921875 C 2.476562 -2.972656 2.703125 -3.023438 2.859375 -3.078125 C 3.015625 -3.140625 3.117188 -3.207031 3.171875 -3.28125 C 3.222656 -3.351562 3.25 -3.441406 3.25 -3.546875 C 3.25 -3.710938 3.191406 -3.835938 3.078125 -3.921875 C 2.972656 -4.003906 2.789062 -4.046875 2.53125 -4.046875 C 2.257812 -4.046875 2 -3.984375 1.75 -3.859375 C 1.5 -3.734375 1.28125 -3.570312 1.09375 -3.375 L 1.015625 -3.375 L 0.484375 -4.15625 C 0.734375 -4.4375 1.039062 -4.65625 1.40625 -4.8125 C 1.769531 -4.96875 2.164062 -5.046875 2.59375 -5.046875 C 3.25 -5.046875 3.722656 -4.90625 4.015625 -4.625 C 4.304688 -4.34375 4.453125 -3.945312 4.453125 -3.4375 L 4.453125 -1.296875 C 4.453125 -1.066406 4.550781 -0.953125 4.75 -0.953125 C 4.820312 -0.953125 4.894531 -0.96875 4.96875 -1 L 5.03125 -0.984375 L 5.125 -0.109375 C 5.050781 -0.0664062 4.953125 -0.03125 4.828125 0 C 4.703125 0.0195312 4.566406 0.03125 4.421875 0.03125 C 4.128906 0.03125 3.898438 -0.0234375 3.734375 -0.140625 C 3.566406 -0.253906 3.445312 -0.429688 3.375 -0.671875 L 3.28125 -0.671875 C 3.039062 -0.160156 2.585938 0.09375 1.921875 0.09375 Z M 2.328125 -0.828125 C 2.609375 -0.828125 2.832031 -0.921875 3 -1.109375 C 3.175781 -1.304688 3.265625 -1.578125 3.265625 -1.921875 L 3.265625 -2.4375 L 3.1875 -2.453125 C 3.113281 -2.390625 3.015625 -2.335938 2.890625 -2.296875 C 2.765625 -2.253906 2.59375 -2.21875 2.375 -2.1875 C 2.101562 -2.132812 1.90625 -2.050781 1.78125 -1.9375 C 1.664062 -1.832031 1.609375 -1.679688 1.609375 -1.484375 C 1.609375 -1.273438 1.671875 -1.113281 1.796875 -1 C 1.921875 -0.882812 2.097656 -0.828125 2.328125 -0.828125 Z M 2.328125 -0.828125 "/></g></g></g><g fill="#d9d9d9" fill-opacity="1"><g transform="translate(63.704517, 51.446454)"><g><path d="M 0.71875 2 L 0.71875 -4.953125 L 1.953125 -4.953125 L 1.953125 -4.296875 L 2.046875 -4.28125 C 2.191406 -4.53125 2.382812 -4.71875 2.625 -4.84375 C 2.875 -4.976562 3.164062 -5.046875 3.5 -5.046875 C 3.894531 -5.046875 4.238281 -4.953125 4.53125 -4.765625 C 4.832031 -4.578125 5.066406 -4.289062 5.234375 -3.90625 C 5.398438 -3.519531 5.484375 -3.039062 5.484375 -2.46875 C 5.484375 -1.90625 5.394531 -1.429688 5.21875 -1.046875 C 5.050781 -0.660156 4.8125 -0.375 4.5 -0.1875 C 4.1875 0 3.828125 0.09375 3.421875 0.09375 C 3.109375 0.09375 2.835938 0.0390625 2.609375 -0.0625 C 2.390625 -0.164062 2.203125 -0.328125 2.046875 -0.546875 L 1.953125 -0.53125 L 1.953125 2 Z M 3.078125 -0.953125 C 3.441406 -0.953125 3.71875 -1.070312 3.90625 -1.3125 C 4.101562 -1.5625 4.203125 -1.945312 4.203125 -2.46875 C 4.203125 -2.988281 4.101562 -3.367188 3.90625 -3.609375 C 3.71875 -3.859375 3.441406 -3.984375 3.078125 -3.984375 C 2.722656 -3.984375 2.441406 -3.859375 2.234375 -3.609375 C 2.035156 -3.359375 1.9375 -2.976562 1.9375 -2.46875 C 1.9375 -1.96875 2.035156 -1.585938 2.234375 -1.328125 C 2.441406 -1.078125 2.722656 -0.953125 3.078125 -0.953125 Z M 3.078125 -0.953125 "/></g></g></g><g fill="#d9d9d9" fill-opacity="1"><g transform="translate(69.630289, 51.446454)"><g><path d="M 2.3125 0.09375 C 1.976562 0.09375 1.671875 0.0546875 1.390625 -0.015625 C 1.109375 -0.0976562 0.867188 -0.207031 0.671875 -0.34375 C 0.472656 -0.488281 0.320312 -0.648438 0.21875 -0.828125 L 0.921875 -1.578125 L 1.015625 -1.578125 C 1.171875 -1.359375 1.359375 -1.191406 1.578125 -1.078125 C 1.804688 -0.960938 2.054688 -0.90625 2.328125 -0.90625 C 2.566406 -0.90625 2.75 -0.945312 2.875 -1.03125 C 3 -1.125 3.0625 -1.25 3.0625 -1.40625 C 3.0625 -1.53125 3.015625 -1.632812 2.921875 -1.71875 C 2.835938 -1.8125 2.695312 -1.878906 2.5 -1.921875 L 1.84375 -2.09375 C 1.351562 -2.207031 0.992188 -2.382812 0.765625 -2.625 C 0.535156 -2.863281 0.421875 -3.171875 0.421875 -3.546875 C 0.421875 -3.847656 0.5 -4.113281 0.65625 -4.34375 C 0.8125 -4.570312 1.03125 -4.742188 1.3125 -4.859375 C 1.601562 -4.984375 1.941406 -5.046875 2.328125 -5.046875 C 2.773438 -5.046875 3.144531 -4.976562 3.4375 -4.84375 C 3.726562 -4.71875 3.957031 -4.546875 4.125 -4.328125 L 3.453125 -3.609375 L 3.359375 -3.609375 C 3.222656 -3.765625 3.066406 -3.878906 2.890625 -3.953125 C 2.722656 -4.023438 2.535156 -4.0625 2.328125 -4.0625 C 1.835938 -4.0625 1.59375 -3.910156 1.59375 -3.609375 C 1.59375 -3.472656 1.632812 -3.363281 1.71875 -3.28125 C 1.8125 -3.207031 1.972656 -3.144531 2.203125 -3.09375 L 2.8125 -2.953125 C 3.320312 -2.847656 3.691406 -2.675781 3.921875 -2.4375 C 4.148438 -2.207031 4.265625 -1.890625 4.265625 -1.484375 C 4.265625 -1.171875 4.1875 -0.894531 4.03125 -0.65625 C 3.875 -0.414062 3.648438 -0.226562 3.359375 -0.09375 C 3.066406 0.03125 2.71875 0.09375 2.3125 0.09375 Z M 2.3125 0.09375 "/></g></g></g></svg>