<svg width="24" height="34" viewBox="0 0 24 34" fill="none" xmlns="http://www.w3.org/2000/svg">
<ellipse cx="11.9172" cy="10.7863" rx="9.664" ry="9.80571" fill="white"/>
<path d="M3.39758 3.83703C5.23588 1.83232 6.9711 0.821236 9.59971 0.193672C11.06 -0.154977 13.8948 -0.0155169 15.441 0.472588C17.3824 1.08272 18.7225 1.9369 20.3375 3.59298C22.674 5.98122 23.6533 8.38689 23.6705 11.8036C23.6877 14.0524 23.4472 15.0809 22.4335 17.1902C21.6948 18.7418 21.4715 19.0206 19.049 21.4612C14.8741 25.6798 12.8124 29.3057 12.2111 33.4721C12.1779 33.7114 11.838 33.7104 11.7989 33.4721C11.0772 29.0791 9.13584 25.6798 4.97817 21.4786C2.1434 18.6197 1.50772 17.6609 0.734605 15.1158C0.219192 13.4423 0.184832 10.5485 0.631523 8.84014C1.12976 6.95744 2.0575 5.28393 3.39758 3.83703ZM6.86618 14.6187C6.92819 15.1564 7.22698 16.5063 7.9711 16.5063C8.69661 16.5063 9.43317 15.9681 9.99478 15.5577L10.0118 15.5453C10.9372 14.859 11.8046 14.0955 12.605 13.263C14.1162 11.8115 15.4164 10.1494 16.4666 8.32667C16.8622 7.72405 17.0322 6.99765 16.9457 6.27891C16.6864 4.91755 15.2151 4.96331 14.1496 5.21499C13.5785 5.29062 13.0426 5.53761 12.6106 5.92427C12.3922 6.20916 12.579 6.24738 12.8173 6.29611C12.8804 6.30902 12.9471 6.32267 13.0109 6.34183C13.2895 6.42047 13.5582 6.53181 13.8114 6.67359C14.1721 6.88523 15.0177 7.76611 14.206 8.01779C13.955 8.10421 13.6861 7.97002 13.4419 7.84814C13.3791 7.81674 13.3178 7.78617 13.2589 7.76039C12.8093 7.55653 12.3384 7.40493 11.8552 7.30851C10.9194 7.13691 9.94417 7.35427 9.94417 8.49827C10.7728 8.49827 12.1653 8.56691 12.6558 9.41347C12.8587 9.77383 12.7628 10.2658 12.2949 10.3058C12.0863 10.3212 11.8699 10.2148 11.6648 10.1139C11.5652 10.065 11.4682 10.0172 11.3761 9.98545C10.9132 9.82052 10.4325 9.713 9.94417 9.66515C9.12112 9.58507 7.9711 9.72235 7.9711 10.7863C8.69268 10.7863 10.4572 10.8034 10.7052 11.7873C10.7264 11.9049 10.7173 12.0261 10.6785 12.1392C10.6398 12.2521 10.573 12.353 10.4844 12.432C10.3957 12.5109 10.2886 12.5651 10.1731 12.5896C10.0577 12.6139 9.93803 12.6075 9.82578 12.5709C9.61798 12.5232 9.42585 12.4436 9.23588 12.3649C8.87961 12.2174 8.53095 12.073 8.10076 12.1476C7.86092 12.1961 7.6376 12.3069 7.45278 12.4693C7.26795 12.6318 7.12796 12.8403 7.04658 13.0743C6.86141 13.566 6.79942 14.0967 6.86618 14.6187Z" fill="#D97200"/>
</svg>
