<svg width="25" height="35" viewBox="0 0 25 35" fill="none" xmlns="http://www.w3.org/2000/svg">
<ellipse cx="13.279" cy="11.0007" rx="9.99885" ry="10.0006" fill="white"/>
<path d="M3.46428 3.9133C5.36628 1.86873 7.16164 0.83756 9.88132 0.197521C11.3922 -0.158056 14.3253 -0.0158271 15.9251 0.481981C17.9337 1.10424 19.3202 1.97541 20.9911 3.6644C23.4087 6.1001 24.4218 8.55359 24.4396 12.0382C24.4574 14.3317 24.2086 15.3806 23.1598 17.5319C22.3955 19.1143 22.1644 19.3987 19.658 21.8877C15.3385 26.1902 13.2054 29.8882 12.5832 34.1374C12.5488 34.3814 12.1971 34.3804 12.1567 34.1374C11.41 29.6571 9.40138 26.1902 5.09965 21.9055C2.16665 18.9897 1.50894 18.0119 0.70904 15.4162C0.175767 13.7094 0.140216 10.7581 0.602385 9.01583C1.11788 7.09572 2.07777 5.38894 3.46428 3.9133ZM8.36368 13.7495C8.47567 13.8615 8.61429 13.9175 8.77954 13.9175C8.9448 13.9175 9.08343 13.864 9.19541 13.757C9.30701 13.6501 9.36281 13.514 9.36281 13.3487V10.4173C9.36281 10.252 9.30701 10.1133 9.19541 10.0013C9.08343 9.88974 8.9448 9.83392 8.77954 9.83392C8.61429 9.83392 8.47567 9.8874 8.36368 9.99435C8.25208 10.1013 8.19628 10.2374 8.19628 10.4027V13.3341C8.19628 13.4994 8.25208 13.6379 8.36368 13.7495ZM11.8639 13.7495C11.9755 13.8615 12.1139 13.9175 12.2791 13.9175C12.4444 13.9175 12.583 13.864 12.695 13.757C12.8066 13.6501 12.8624 13.514 12.8624 13.3487V10.4173C12.8624 10.252 12.8066 10.1133 12.695 10.0013C12.583 9.88974 12.4444 9.83392 12.2791 9.83392C12.1139 9.83392 11.9755 9.8874 11.8639 9.99435C11.7519 10.1013 11.6959 10.2374 11.6959 10.4027V13.3341C11.6959 13.4994 11.7519 13.6379 11.8639 13.7495ZM6.60688 16.083C6.71381 16.195 6.8499 16.251 7.01516 16.251H17.5285C17.6938 16.251 17.8322 16.195 17.9438 16.083C18.0558 15.9714 18.1118 15.8329 18.1118 15.6676C18.1118 15.5023 18.0584 15.3638 17.9514 15.2522C17.8445 15.1402 17.7084 15.0842 17.5431 15.0842H7.02974C6.86449 15.0842 6.72606 15.1402 6.61446 15.2522C6.50247 15.3638 6.44648 15.5023 6.44648 15.6676C6.44648 15.8329 6.49994 15.9714 6.60688 16.083ZM15.3635 13.7495C15.4751 13.8615 15.6135 13.9175 15.7787 13.9175C15.944 13.9175 16.0824 13.864 16.194 13.757C16.306 13.6501 16.362 13.514 16.362 13.3487V10.4173C16.362 10.252 16.306 10.1133 16.194 10.0013C16.0824 9.88974 15.944 9.83392 15.7787 9.83392C15.6135 9.83392 15.4751 9.8874 15.3635 9.99435C15.2515 10.1013 15.1955 10.2374 15.1955 10.4027V13.3341C15.1955 13.4994 15.2515 13.6379 15.3635 13.7495ZM17.7181 7.29627L12.8041 4.84612C12.6388 4.76834 12.4638 4.72945 12.2791 4.72945C12.0945 4.72945 11.9195 4.76834 11.7542 4.84612L6.84018 7.31086C6.70409 7.36919 6.60454 7.46156 6.54155 7.58796C6.47816 7.71436 6.44648 7.84561 6.44648 7.98173C6.44648 8.17618 6.51939 8.33894 6.6652 8.47001C6.81102 8.60146 6.98114 8.66719 7.17556 8.66719H17.3974C17.5917 8.66719 17.7595 8.60146 17.9007 8.47001C18.0414 8.33894 18.1118 8.17618 18.1118 7.98173C18.1118 7.83589 18.0778 7.7021 18.0098 7.58038C17.9417 7.45903 17.8445 7.36433 17.7181 7.29627Z" fill="#676BDB"/>
</svg>
