<svg width="25" height="35" viewBox="0 0 25 35" fill="none" xmlns="http://www.w3.org/2000/svg">
<ellipse cx="12.1195" cy="11.0006" rx="9.99885" ry="10.0006" fill="white"/>
<path fill-rule="evenodd" clip-rule="evenodd" d="M3.30437 3.9133C5.20637 1.86873 7.00172 0.837559 9.72141 0.197521C11.2323 -0.158056 14.1653 -0.015827 15.7652 0.481981C17.7738 1.10424 19.1603 1.9754 20.8312 3.66439C23.2487 6.1001 24.262 8.55358 24.2797 12.0382C24.2975 14.3317 24.0487 15.3807 22.9999 17.5319C22.2355 19.1142 22.0044 19.3987 19.4981 21.8877C15.1786 26.1902 13.0455 29.8882 12.4233 34.1373C12.3889 34.3813 12.0372 34.3804 11.9967 34.1373C11.2501 29.6571 9.24146 26.1902 4.93973 21.9055C2.00674 18.9898 1.34904 18.0119 0.549128 15.4162C0.0158556 13.7094 -0.0196959 10.7582 0.442473 9.01583C0.95797 7.09571 1.91786 5.38894 3.30437 3.9133ZM9.83615 17.792C9.97965 17.9307 10.1576 18 10.3701 18H14.8701C15.0826 18 15.2609 17.9307 15.4049 17.792C15.5484 17.6538 15.6201 17.4824 15.6201 17.2778C15.6201 17.0732 15.5484 16.9018 15.4049 16.7636C15.2609 16.6249 15.0826 16.5556 14.8701 16.5556H13.3701V13.5945C14.4451 13.4259 15.3389 12.9445 16.0514 12.15C16.7639 11.3556 17.1201 10.4167 17.1201 9.33335V5.72223C17.1201 5.5176 17.0481 5.34596 16.9041 5.20729C16.7606 5.06911 16.5826 5.00001 16.3701 5.00001H8.87015C8.65765 5.00001 8.4794 5.06911 8.3354 5.20729C8.1919 5.34596 8.12015 5.5176 8.12015 5.72223V9.33335C8.12015 10.4167 8.4764 11.3556 9.1889 12.15C9.9014 12.9445 10.7951 13.4259 11.8701 13.5945V16.5556H10.3701C10.1576 16.5556 9.97965 16.6249 9.83615 16.7636C9.69215 16.9018 9.62015 17.0732 9.62015 17.2778C9.62015 17.4824 9.69215 17.6538 9.83615 17.792ZM15.6201 8.61112H9.62015V6.44446H15.6201V8.61112Z" fill="#D97200"/>
</svg>
