<svg width="24" height="34" viewBox="0 0 24 34" fill="none" xmlns="http://www.w3.org/2000/svg">
<ellipse cx="11.7573" cy="11.7669" rx="9.664" ry="9.80571" fill="white"/>
<path d="M3.70947 3.83704C5.54777 1.83232 7.283 0.821237 9.91159 0.193672C11.3719 -0.154976 14.2068 -0.0155185 15.753 0.472588C17.6943 1.08272 19.0344 1.93691 20.6494 3.59298C22.9859 5.98122 23.9652 8.38689 23.9824 11.8036C23.9996 14.0524 23.759 15.0809 22.7454 17.1902C22.0067 18.7418 21.7833 19.0206 19.3609 21.4612C15.186 25.6798 13.1244 29.3058 12.523 33.4721C12.4898 33.7114 12.1499 33.7104 12.1107 33.4721C11.3891 29.0791 9.44774 25.6798 5.29006 21.4786C2.45529 18.6197 1.81961 17.6609 1.0465 15.1158C0.531082 13.4423 0.496722 10.5485 0.943413 8.84013C1.44164 6.95743 2.36939 5.28393 3.70947 3.83704ZM7.88105 15.7696C7.98928 15.8794 8.12327 15.9343 8.28299 15.9343H16.1752C16.335 15.9343 16.4688 15.8794 16.5767 15.7696C16.6849 15.6601 16.739 15.5243 16.739 15.3622C16.739 15.2002 16.6849 15.0644 16.5767 14.955C16.4688 14.8452 16.335 14.7903 16.1752 14.7903H8.28299C8.12327 14.7903 7.98928 14.8452 7.88105 14.955C7.77319 15.0644 7.71925 15.2002 7.71925 15.3622C7.71925 15.5243 7.77319 15.6601 7.88105 15.7696ZM8.38164 12.9741C8.82324 13.4223 9.35408 13.6462 9.97421 13.6462H13.3566C13.9767 13.6462 14.5076 13.4223 14.9491 12.9741C15.3907 12.5261 15.6115 11.9875 15.6115 11.3583V9.64227H16.739C17.049 9.64227 17.3146 9.53016 17.5355 9.30594C17.7561 9.0821 17.8664 8.81287 17.8664 8.49827V6.78227C17.8664 6.46768 17.7561 6.19826 17.5355 5.97404C17.3146 5.75019 17.049 5.63827 16.739 5.63827H8.84672C8.53667 5.63827 8.27134 5.75019 8.05073 5.97404C7.82975 6.19826 7.71925 6.46768 7.71925 6.78227V11.3583C7.71925 11.9875 7.94006 12.5261 8.38164 12.9741ZM16.739 8.49827H15.6115V6.78227H16.739V8.49827Z" fill="#D97200"/>
</svg>
