<svg width="25" height="34" viewBox="0 0 25 34" fill="none" xmlns="http://www.w3.org/2000/svg">
<ellipse cx="12.4372" cy="11.7669" rx="9.664" ry="9.80571" fill="white"/>
<path d="M3.91748 3.83703C5.75578 1.83231 7.491 0.821238 10.1196 0.193672C11.5799 -0.154976 14.4147 -0.0155186 15.9609 0.472588C17.9023 1.08272 19.2424 1.93691 20.8574 3.59299C23.1939 5.98122 24.1732 8.3869 24.1904 11.8036C24.2076 14.0524 23.9671 15.0809 22.9534 17.1902C22.2147 18.7418 21.9914 19.0206 19.5689 21.4612C15.394 25.6798 13.3323 29.3057 12.731 33.4721C12.6978 33.7114 12.3579 33.7104 12.3187 33.4721C11.5971 29.0791 9.65574 25.6798 5.49807 21.4786C2.6633 18.6197 2.02762 17.6609 1.2545 15.1158C0.73909 13.4423 0.704729 10.5485 1.15142 8.84014C1.64965 6.95744 2.5774 5.28393 3.91748 3.83703ZM6.56754 15.5985C6.78815 15.8224 7.05348 15.9343 7.36353 15.9343H11.3096V14.2183C11.3096 13.9037 11.4202 13.6343 11.6411 13.4101C11.8617 13.1862 12.1271 13.0743 12.4371 13.0743C12.7472 13.0743 13.0127 13.1862 13.2336 13.4101C13.4543 13.6343 13.5646 13.9037 13.5646 14.2183V15.9343H17.5107C17.8208 15.9343 18.0863 15.8224 18.3072 15.5985C18.5279 15.3743 18.6382 15.1049 18.6382 14.7903V9.64228C18.6382 9.48022 18.5841 9.34428 18.4759 9.23445C18.368 9.12501 18.2342 9.07028 18.0744 9.07028C17.9148 9.07028 17.7809 9.12501 17.6731 9.23445C17.5648 9.34428 17.5107 9.48022 17.5107 9.64228V10.2143H16.3832V6.21028C16.3832 6.04822 16.3291 5.91228 16.2209 5.80245C16.113 5.69301 15.9793 5.63828 15.8195 5.63828C15.6598 5.63828 15.526 5.69301 15.4182 5.80245C15.3099 5.91228 15.2558 6.04822 15.2558 6.21028V6.78229H14.1283V6.21028C14.1283 6.04822 14.0744 5.91228 13.9666 5.80245C13.8583 5.69301 13.7243 5.63828 13.5646 5.63828C13.4049 5.63828 13.271 5.69301 13.1632 5.80245C13.055 5.91228 13.0008 6.04822 13.0008 6.21028V6.78229H11.8734V6.21028C11.8734 6.04822 11.8195 5.91228 11.7116 5.80245C11.6033 5.69301 11.4694 5.63828 11.3096 5.63828C11.15 5.63828 11.0161 5.69301 10.9083 5.80245C10.8001 5.91228 10.7459 6.04822 10.7459 6.21028V6.78229H9.61846V6.21028C9.61846 6.04822 9.56454 5.91228 9.45668 5.80245C9.34844 5.69301 9.21446 5.63828 9.05473 5.63828C8.89501 5.63828 8.76102 5.69301 8.65279 5.80245C8.54493 5.91228 8.491 6.04822 8.491 6.21028V10.2143H7.36353V9.64228C7.36353 9.48022 7.3096 9.34428 7.20174 9.23445C7.0935 9.12501 6.95952 9.07028 6.7998 9.07028C6.64008 9.07028 6.50628 9.12501 6.39842 9.23445C6.29018 9.34428 6.23606 9.48022 6.23606 9.64228V14.7903C6.23606 15.1049 6.34656 15.3743 6.56754 15.5985ZM11.8734 10.7863H10.7459V9.07028H11.8734V10.7863ZM14.1283 9.07028V10.7863H13.0008V9.07028H14.1283Z" fill="#299091"/>
</svg>
