<svg width="25" height="34" viewBox="0 0 25 34" fill="none" xmlns="http://www.w3.org/2000/svg">
<ellipse cx="12.277" cy="11.7669" rx="9.664" ry="9.80571" fill="white"/>
<path d="M3.75744 3.83703C5.59575 1.83231 7.33098 0.821238 9.95957 0.193672C11.4199 -0.154976 14.2546 -0.0155186 15.8009 0.472588C17.7423 1.08272 19.0824 1.93691 20.6973 3.59299C23.0339 5.98122 24.0132 8.3869 24.0304 11.8036C24.0476 14.0524 23.807 15.0809 22.7934 17.1902C22.0547 18.7418 21.8313 19.0206 19.4088 21.4612C15.234 25.6798 13.1723 29.3057 12.571 33.4721C12.5377 33.7114 12.1979 33.7104 12.1587 33.4721C11.4371 29.0791 9.49571 25.6798 5.33804 21.4786C2.50327 18.6197 1.86759 17.6609 1.09447 15.1158C0.579056 13.4423 0.544695 10.5485 0.991387 8.84014C1.48962 6.95744 2.41736 5.28393 3.75744 3.83703ZM13.4046 5.06629H11.1496C9.28367 5.06629 8.33097 6.60496 8.33097 8.49829V14.5958C9.52608 14.0067 10.5465 13.6463 12.2771 13.6463C14.0077 13.6463 15.0281 14.0067 16.2232 14.5958V8.49829C16.2232 6.60496 15.2705 5.06629 13.4046 5.06629ZM10.0222 9.35629V8.49829H14.532V9.35629H10.0222ZM10.5859 11.6443V10.7863H13.9683V11.6443H10.5859ZM7.2035 16.1116V16.5063H17.3507V16.0773C12.9705 12.9828 8.70303 15.1449 7.2035 16.1116Z" fill="#299091"/>
</svg>
