<svg width="25" height="35" viewBox="0 0 25 35" fill="none" xmlns="http://www.w3.org/2000/svg">
<ellipse cx="12.5191" cy="11.0006" rx="9.99885" ry="10.0006" fill="white"/>
<path fill-rule="evenodd" clip-rule="evenodd" d="M3.70402 3.91325C5.60603 1.86869 7.40138 0.837514 10.1211 0.197475C11.632 -0.158102 14.565 -0.0158728 16.1648 0.481935C18.1735 1.10419 19.56 1.97536 21.2309 3.66435C23.6484 6.10005 24.6616 8.55353 24.6794 12.0382C24.6972 14.3317 24.4483 15.3806 23.3995 17.5318C22.6352 19.1142 22.4041 19.3986 19.8977 21.8877C15.5782 26.1901 13.4451 29.8881 12.823 34.1373C12.7886 34.3813 12.4369 34.3803 12.3964 34.1373C11.6498 29.657 9.64112 26.1901 5.33939 21.9054C2.4064 18.9897 1.74869 18.0119 0.948786 15.4162C0.415514 13.7094 0.379962 10.7581 0.842131 9.01578C1.35763 7.09567 2.31752 5.3889 3.70402 3.91325ZM10.7692 5.1666H11.3524C13.0019 5.1666 13.8272 5.1666 14.3393 5.67935C14.852 6.19152 14.852 7.01693 14.852 8.66659V8.6666V13.4791H15.7683C16.1054 13.4791 16.4287 13.613 16.667 13.8514C16.9054 14.0898 17.0393 14.4131 17.0393 14.7502V14.7916C17.0393 14.9076 17.0854 15.0189 17.1674 15.101C17.2494 15.183 17.3607 15.2291 17.4767 15.2291C17.5928 15.2291 17.704 15.183 17.7861 15.101C17.8681 15.0189 17.9142 14.9076 17.9142 14.7916V12.0208L17.2003 11.7828C17.026 11.7247 16.8745 11.6133 16.7671 11.4643C16.6597 11.3154 16.6019 11.1364 16.6018 10.9527V9.5416C16.6018 9.30954 16.694 9.08698 16.8581 8.92288C17.0222 8.75879 17.2447 8.6666 17.4767 8.6666H17.9142V8.4461C17.9151 8.3866 17.9145 8.32708 17.9124 8.2676C17.8926 7.92052 17.7363 7.5956 17.4779 7.36402C17.4543 7.34262 17.4271 7.3207 17.354 7.26184L17.3397 7.25027L16.6205 6.6751C16.5748 6.63952 16.5367 6.59522 16.5083 6.54479C16.4799 6.49435 16.4617 6.43877 16.455 6.38128C16.4482 6.32379 16.4529 6.26552 16.4688 6.20985C16.4847 6.15419 16.5114 6.10223 16.5476 6.05699C16.5837 6.01176 16.6284 5.97414 16.6792 5.94632C16.73 5.91851 16.7857 5.90105 16.8433 5.89495C16.9009 5.88885 16.9591 5.89424 17.0145 5.9108C17.07 5.92736 17.1216 5.95477 17.1664 5.99144L17.8955 6.57477C17.9521 6.61949 18.0077 6.66539 18.0623 6.71244C18.4932 7.099 18.7533 7.64061 18.7856 8.2186C18.7891 8.27985 18.7891 8.34285 18.7891 8.43444V14.7916C18.7891 15.1397 18.6508 15.4735 18.4047 15.7197C18.1586 15.9658 17.8248 16.1041 17.4767 16.1041C17.1287 16.1041 16.7949 15.9658 16.5488 15.7197C16.3026 15.4735 16.1644 15.1397 16.1644 14.7916V14.7502C16.1644 14.5314 15.9871 14.3541 15.7683 14.3541H14.852V16.3958H15.5811C15.6971 16.3958 15.8084 16.4419 15.8904 16.5239C15.9725 16.606 16.0186 16.7172 16.0186 16.8333C16.0186 16.9493 15.9725 17.0606 15.8904 17.1426C15.8084 17.2247 15.6971 17.2708 15.5811 17.2708H6.68631C6.57029 17.2708 6.45902 17.2247 6.37698 17.1426C6.29494 17.0606 6.24886 16.9493 6.24886 16.8333C6.24886 16.7172 6.29494 16.606 6.37698 16.5239C6.45902 16.4419 6.57029 16.3958 6.68631 16.3958H7.26957V8.6666C7.26957 7.01694 7.26957 6.19152 7.78226 5.67935C8.29437 5.1666 9.11969 5.1666 10.7692 5.1666ZM11.4852 9.72726C11.4571 9.6147 11.3854 9.51791 11.2859 9.45819C11.1865 9.39847 11.0674 9.38072 10.9548 9.40884C10.8423 9.43695 10.7455 9.50863 10.6858 9.6081L9.81086 11.0664C9.77102 11.1328 9.7495 11.2086 9.74851 11.286C9.74753 11.3634 9.7671 11.4397 9.80523 11.5071C9.84337 11.5745 9.8987 11.6305 9.96558 11.6695C10.0325 11.7085 10.1085 11.7291 10.1859 11.7291H11.1629L10.6858 12.5248C10.6555 12.574 10.6353 12.6288 10.6264 12.6859C10.6174 12.7431 10.6199 12.8014 10.6336 12.8576C10.6474 12.9137 10.6721 12.9666 10.7064 13.0132C10.7407 13.0597 10.7839 13.099 10.8334 13.1287C10.883 13.1585 10.938 13.1781 10.9952 13.1865C11.0524 13.1949 11.1107 13.1919 11.1667 13.1776C11.2227 13.1633 11.2753 13.138 11.3215 13.1033C11.3677 13.0685 11.4066 13.025 11.4358 12.9751L12.3107 11.5168C12.3506 11.4504 12.3721 11.3746 12.3731 11.2972C12.3741 11.2198 12.3545 11.1435 12.3164 11.0761C12.2782 11.0087 12.2229 10.9527 12.156 10.9137C12.0892 10.8747 12.0131 10.8541 11.9357 10.8541H10.9587L11.4358 10.0584C11.4955 9.95896 11.5133 9.83983 11.4852 9.72726Z" fill="#1F6FC4"/>
</svg>
