<svg width="25" height="35" viewBox="0 0 25 35" fill="none" xmlns="http://www.w3.org/2000/svg">
<ellipse cx="12.3591" cy="12.0006" rx="9.99885" ry="10.0006" fill="white"/>
<path fill-rule="evenodd" clip-rule="evenodd" d="M3.54399 3.9133C5.44599 1.86873 7.24134 0.837559 9.96103 0.197521C11.472 -0.158056 14.405 -0.015827 16.0048 0.481981C18.0134 1.10424 19.3999 1.9754 21.0709 3.66439C23.4884 6.1001 24.5016 8.55358 24.5194 12.0382C24.5371 14.3317 24.2883 15.3807 23.2395 17.5319C22.4752 19.1142 22.2441 19.3987 19.7377 21.8877C15.4182 26.1902 13.2851 29.8882 12.6629 34.1373C12.6285 34.3813 12.2768 34.3804 12.2363 34.1373C11.4897 29.6571 9.48109 26.1902 5.17936 21.9055C2.24636 18.9898 1.58866 18.0119 0.788752 15.4162C0.25548 13.7094 0.219928 10.7582 0.682097 9.01583C1.19759 7.09571 2.15748 5.38894 3.54399 3.9133ZM13.6315 4.99997H11.418V9.29897H7.35976V11.4485H11.418V19.33H13.6315V11.4485H17.6898V9.29897H13.6315V4.99997Z" fill="#5E758D"/>
</svg>
