<svg width="24" height="34" viewBox="0 0 24 34" fill="none" xmlns="http://www.w3.org/2000/svg">
<ellipse cx="11.7971" cy="11.7669" rx="9.664" ry="9.80571" fill="white"/>
<path d="M3.27734 3.83703C5.11564 1.83232 6.85086 0.821238 9.47947 0.193672C10.9398 -0.154976 13.7745 -0.0155185 15.3208 0.472588C17.2622 1.08272 18.6023 1.9369 20.2172 3.59298C22.5538 5.98122 23.5331 8.38689 23.5503 11.8036C23.5675 14.0524 23.3269 15.0809 22.3133 17.1902C21.5745 18.7418 21.3512 19.0206 18.9287 21.4612C14.7539 25.6798 12.6922 29.3057 12.0909 33.4721C12.0576 33.7114 11.7178 33.7104 11.6786 33.4721C10.957 29.0791 9.01561 25.6798 4.85793 21.4786C2.02316 18.6197 1.38749 17.6609 0.614366 15.1158C0.0989532 13.4423 0.0645928 10.5485 0.511284 8.84014C1.00952 6.95744 1.93726 5.28393 3.27734 3.83703ZM8.4146 12.5023H7.28713C6.9881 12.5023 6.70133 12.6228 6.48989 12.8373C6.27845 13.0519 6.15967 13.3428 6.15967 13.6463V14.7903H5.59593V16.5063H17.9981V14.7903H17.4343V13.6463C17.4343 13.3428 17.3155 13.0519 17.1041 12.8373C16.8926 12.6228 16.6059 12.5023 16.3069 12.5023H15.1794C14.8804 12.5023 14.5936 12.6228 14.3821 12.8373C14.1708 13.0519 14.0519 13.3428 14.0519 13.6463V14.7903H13.4882V13.6463C13.4882 13.3428 13.3694 13.0519 13.158 12.8373C12.9465 12.6228 12.6598 12.5023 12.3607 12.5023H11.2333C10.9342 12.5023 10.6475 12.6228 10.436 12.8373C10.2246 13.0519 10.1058 13.3428 10.1058 13.6463V14.7903H9.54207V13.6463C9.54207 13.3428 9.42327 13.0519 9.21184 12.8373C9.0004 12.6228 8.71362 12.5023 8.4146 12.5023ZM13.4882 9.64228L11.2333 7.92628V11.3583L13.4882 9.64228ZM16.3069 5.06629H7.28713C6.9881 5.06629 6.70133 5.18681 6.48989 5.40136C6.27845 5.6159 6.15967 5.90687 6.15967 6.21028V11.6671C6.49226 11.467 6.8756 11.3583 7.28713 11.3583V6.21028H16.3069V11.3583C16.7184 11.3583 17.1018 11.467 17.4343 11.6671V6.21028C17.4343 5.90687 17.3155 5.6159 17.1041 5.40136C16.8926 5.18681 16.6059 5.06629 16.3069 5.06629Z" fill="#299091"/>
</svg>
