<svg width="25" height="35" viewBox="0 0 25 35" fill="none" xmlns="http://www.w3.org/2000/svg">
<ellipse cx="12.039" cy="12.0006" rx="9.99885" ry="10.0006" fill="white"/>
<path fill-rule="evenodd" clip-rule="evenodd" d="M3.22392 3.9133C5.12593 1.86873 6.92128 0.837559 9.64096 0.197521C11.1519 -0.158056 14.0849 -0.015827 15.6847 0.481981C17.6934 1.10424 19.0799 1.9754 20.7508 3.66439C23.1683 6.1001 24.1815 8.55358 24.1993 12.0382C24.2171 14.3317 23.9682 15.3807 22.9194 17.5319C22.1551 19.1142 21.924 19.3987 19.4176 21.8877C15.0981 26.1902 12.965 29.8882 12.3429 34.1373C12.3085 34.3813 11.9568 34.3804 11.9163 34.1373C11.1697 29.6571 9.16102 26.1902 4.85929 21.9055C1.92629 18.9898 1.26859 18.0119 0.468683 15.4162C-0.0645888 13.7094 -0.10014 10.7582 0.362029 9.01583C0.877525 7.09571 1.83742 5.38894 3.22392 3.9133ZM8.90903 18H14.6104C14.7994 18 14.9807 17.9239 15.1143 17.7884C15.248 17.653 15.3231 17.4693 15.3231 17.2778V11.5866L16.2495 12.3089C16.5275 12.5833 16.9765 12.5833 17.2544 12.3089L19.2713 10.265C19.5492 9.98332 19.5492 9.52832 19.2713 9.24665L15.0808 4.99998H13.8977C13.8977 5.79443 12.9427 6.44443 11.7597 6.44443C10.5767 6.44443 9.6217 5.79443 9.6217 4.99998H8.43867L4.24817 9.24665C3.97023 9.52832 3.97023 9.98332 4.24817 10.265L6.26503 12.2728C6.54297 12.5544 6.99195 12.5544 7.26989 12.2728L8.19636 11.5505V17.2778C8.19636 17.4693 8.27145 17.653 8.4051 17.7884C8.53875 17.9239 8.72002 18 8.90903 18Z" fill="#1B78F2"/>
</svg>
