<svg width="25" height="34" viewBox="0 0 25 34" fill="none" xmlns="http://www.w3.org/2000/svg">
<ellipse cx="12.477" cy="10.7863" rx="9.664" ry="9.80571" fill="white"/>
<path d="M3.95727 3.83703C5.79558 1.83231 7.5308 0.821238 10.1594 0.193672C11.6197 -0.154976 14.4545 -0.0155186 16.0007 0.472588C17.9421 1.08272 19.2822 1.93691 20.8972 3.59299C23.2337 5.98122 24.213 8.3869 24.2302 11.8036C24.2474 14.0524 24.0069 15.0809 22.9932 17.1902C22.2545 18.7418 22.0311 19.0206 19.6087 21.4612C15.4338 25.6798 13.3721 29.3057 12.7708 33.4721C12.7376 33.7114 12.3977 33.7104 12.3585 33.4721C11.6369 29.0791 9.69553 25.6798 5.53787 21.4786C2.7031 18.6197 2.06742 17.6609 1.2943 15.1158C0.778885 13.4423 0.744524 10.5485 1.19122 8.84014C1.68945 6.95744 2.61719 5.28393 3.95727 3.83703ZM18.4609 13.8666C18.5842 13.9921 18.7371 14.0548 18.9196 14.0548C19.1022 14.0548 19.2551 13.9921 19.3783 13.8666C19.502 13.7415 19.5638 13.5863 19.5638 13.4011V9.21735C19.5638 9.09751 19.5345 8.98572 19.4756 8.882C19.4164 8.77871 19.333 8.69983 19.2256 8.64535L13.0889 5.24604C12.9923 5.19157 12.8932 5.1506 12.7913 5.12314C12.6891 5.09612 12.5843 5.08261 12.4769 5.08261C12.3696 5.08261 12.2647 5.09612 12.1626 5.12314C12.0607 5.1506 11.9615 5.19157 11.8649 5.24604L6.42082 8.25313C6.31344 8.30761 6.23033 8.3867 6.17149 8.49042C6.11222 8.59371 6.08258 8.70528 6.08258 8.82512C6.08258 8.94498 6.11222 9.05654 6.17149 9.15983C6.23033 9.26355 6.31344 9.34265 6.42082 9.39713L11.8488 12.4042C11.9454 12.4586 12.0448 12.4994 12.1471 12.5264C12.2489 12.5539 12.3588 12.5677 12.4769 12.5677C12.595 12.5677 12.705 12.5539 12.8068 12.5264C12.909 12.4994 13.0084 12.4586 13.1051 12.4042L18.2753 9.54422V13.4011C18.2753 13.5863 18.3372 13.7415 18.4609 13.8666ZM12.1626 16.4494C12.2647 16.4764 12.3696 16.49 12.4769 16.49C12.5843 16.49 12.6891 16.4764 12.7913 16.4494C12.8932 16.4219 12.9923 16.3809 13.0889 16.3265L16.3103 14.5615C16.5251 14.4417 16.6915 14.281 16.8096 14.0797C16.9278 13.8779 16.9868 13.6517 16.9868 13.4011V10.917L13.3467 12.9109C13.2071 12.9871 13.0649 13.0579 12.9202 13.1233C12.775 13.1887 12.6273 13.2213 12.4769 13.2213C12.3266 13.2213 12.1816 13.1913 12.042 13.1311C11.9025 13.0714 11.7629 13.0035 11.6233 12.9272L7.96706 10.917V13.4011C7.96706 13.6517 8.02611 13.8779 8.14424 14.0797C8.26235 14.281 8.42878 14.4417 8.64354 14.5615L11.8649 16.3265C11.9615 16.3809 12.0607 16.4219 12.1626 16.4494Z" fill="#875C1B"/>
</svg>
