<svg width="25" height="34" viewBox="0 0 25 34" fill="none" xmlns="http://www.w3.org/2000/svg">
<ellipse cx="12.3168" cy="11.7669" rx="9.664" ry="9.80571" fill="white"/>
<path d="M3.79724 3.83703C5.63554 1.83232 7.37077 0.821238 9.99937 0.193672C11.4597 -0.154976 14.2944 -0.0155185 15.8407 0.472588C17.7821 1.08272 19.1222 1.9369 20.7371 3.59298C23.0737 5.98122 24.053 8.38689 24.0702 11.8036C24.0874 14.0524 23.8468 15.0809 22.8332 17.1902C22.0944 18.7418 21.8711 19.0206 19.4486 21.4612C15.2738 25.6798 13.2121 29.3057 12.6108 33.4721C12.5775 33.7114 12.2376 33.7104 12.1985 33.4721C11.4769 29.0791 9.53551 25.6798 5.37783 21.4786C2.54306 18.6197 1.90738 17.6609 1.13426 15.1158C0.618851 13.4423 0.58449 10.5485 1.03118 8.84014C1.52941 6.95744 2.45716 5.28393 3.79724 3.83703ZM16.7281 6.79044C16.2865 6.34238 15.7556 6.11834 15.1356 6.11834C14.8067 6.11834 14.5389 6.16353 14.3322 6.25391C14.1255 6.34466 13.9283 6.44247 13.7403 6.54734C13.5524 6.65221 13.3529 6.74983 13.1416 6.8402C12.9301 6.93096 12.6551 6.97634 12.3169 6.97634C11.9787 6.97634 11.7039 6.93096 11.4927 6.8402C11.2811 6.74983 11.0814 6.65221 10.8935 6.54734C10.7055 6.44247 10.5107 6.34466 10.3089 6.25391C10.1067 6.16353 9.83646 6.11834 9.49822 6.11834C8.87812 6.11834 8.34727 6.34238 7.90568 6.79044C7.46409 7.23851 7.24329 7.77714 7.24329 8.40634C7.24329 8.5112 7.25043 8.65173 7.26472 8.82791C7.27862 9.00446 7.29966 9.20714 7.32785 9.43594L8.08889 15.1845C8.13587 15.5468 8.2956 15.8449 8.56806 16.0786C8.84054 16.312 9.15529 16.4287 9.51232 16.4287C9.72842 16.4287 9.93286 16.3785 10.1257 16.2782C10.3181 16.1783 10.4801 16.033 10.6116 15.8423L12.0773 13.6831C12.19 13.5973 12.2652 13.5543 12.3028 13.5543C12.3498 13.5543 12.3945 13.5614 12.437 13.5755C12.4791 13.59 12.5095 13.6163 12.5283 13.6545L14.0363 15.8853C14.1585 16.0569 14.3112 16.1903 14.4946 16.2856C14.6776 16.3809 14.8772 16.4287 15.0933 16.4287C15.4503 16.4287 15.7675 16.3143 16.0449 16.0855C16.3218 15.8566 16.4838 15.5611 16.5308 15.1989L17.3059 9.43594C17.3342 9.20714 17.3551 9.00446 17.369 8.82791C17.3833 8.65173 17.3905 8.5112 17.3905 8.40634C17.3905 7.77714 17.1697 7.23851 16.7281 6.79044Z" fill="#BA272A"/>
</svg>
