<svg width="25" height="35" viewBox="0 0 25 35" fill="none" xmlns="http://www.w3.org/2000/svg">
<ellipse cx="12.5589" cy="12.0006" rx="9.99885" ry="10.0006" fill="white"/>
<path fill-rule="evenodd" clip-rule="evenodd" d="M3.74382 3.9133C5.64582 1.86873 7.44117 0.837559 10.1609 0.197521C11.6718 -0.158056 14.6048 -0.015827 16.2046 0.481981C18.2133 1.10424 19.5998 1.9754 21.2707 3.66439C23.6882 6.1001 24.7014 8.55358 24.7192 12.0382C24.737 14.3317 24.4881 15.3807 23.4393 17.5319C22.675 19.1142 22.4439 19.3987 19.9375 21.8877C15.618 26.1902 13.4849 29.8882 12.8628 34.1373C12.8284 34.3813 12.4767 34.3804 12.4362 34.1373C11.6896 29.6571 9.68091 26.1902 5.37919 21.9055C2.44619 18.9898 1.78849 18.0119 0.988581 15.4162C0.455309 13.7094 0.419757 10.7582 0.881926 9.01583C1.39742 7.09571 2.35731 5.38894 3.74382 3.9133ZM18.2296 17.897C18.2296 16.6717 16.6687 15.6257 14.466 15.2172L12.3946 18.6135L10.3232 15.2172C8.12046 15.6257 6.55959 16.6717 6.55959 17.897V19.33H18.2296V17.897ZM15.3121 10.732V9.29896H9.47709V10.732C9.47709 11.4921 9.78447 12.221 10.3316 12.7585C10.8787 13.296 11.6208 13.598 12.3946 13.598C13.1684 13.598 13.9104 13.296 14.4576 12.7585C15.0047 12.221 15.3121 11.4921 15.3121 10.732ZM9.77614 5.64481L9.47709 8.58246H15.3121L15.0131 5.64481C14.9766 5.27939 14.6629 4.99996 14.291 4.99996H10.5055C10.1262 4.99996 9.81261 5.27939 9.77614 5.64481ZM11.6652 5.71646H12.3946V6.43296H13.124V7.14946H12.3946V7.86596H11.6652V7.14946H10.9358V6.43296H11.6652V5.71646Z" fill="#BA272A"/>
</svg>
