<svg width="24" height="34" viewBox="0 0 24 34" fill="none" xmlns="http://www.w3.org/2000/svg">
<ellipse cx="11.8369" cy="11.7669" rx="9.664" ry="9.80571" fill="white"/>
<path d="M3.31713 3.83703C5.15544 1.83231 6.89067 0.821238 9.51927 0.193672C10.9796 -0.154976 13.8143 -0.0155186 15.3606 0.472588C17.302 1.08272 18.6421 1.93691 20.257 3.59299C22.5936 5.98122 23.5728 8.3869 23.59 11.8036C23.6073 14.0524 23.3667 15.0809 22.3531 17.1902C21.6143 18.7418 21.391 19.0206 18.9685 21.4612C14.7937 25.6798 12.732 29.3057 12.1307 33.4721C12.0974 33.7114 11.7575 33.7104 11.7184 33.4721C10.9968 29.0791 9.0554 25.6798 4.89773 21.4786C2.06296 18.6197 1.42728 17.6609 0.654162 15.1158C0.138748 13.4423 0.104388 10.5485 0.551079 8.84014C1.04931 6.95744 1.97706 5.28393 3.31713 3.83703ZM5.84712 12.3089C5.95987 12.4379 6.1055 12.5023 6.28402 12.5023H13.4998C13.6784 12.5023 13.8239 12.4379 13.9367 12.3089C14.0495 12.1805 14.0917 12.0351 14.0636 11.8731C13.885 10.9293 13.3871 10.2261 12.5696 9.76354C11.7522 9.30136 10.8597 9.07028 9.89191 9.07028C8.92417 9.07028 8.03159 9.30136 7.21418 9.76354C6.39676 10.2261 5.8988 10.9293 5.72028 11.8731C5.6921 12.0351 5.73438 12.1805 5.84712 12.3089ZM14.254 9.70691C14.9163 10.4742 15.2474 11.4059 15.2474 12.5023V17.0783H16.2057C16.45 17.0783 16.6591 16.9972 16.8332 16.8351C17.0068 16.6731 17.1077 16.4777 17.1359 16.2489L18.0097 7.41147C18.0284 7.23987 17.9815 7.0921 17.8688 6.96817C17.756 6.84424 17.6151 6.78227 17.446 6.78227H15.2474V5.06627C15.2474 4.9042 15.1935 4.76826 15.0855 4.65844C14.9774 4.54899 14.8434 4.49427 14.6836 4.49427C14.524 4.49427 14.3899 4.54899 14.2817 4.65844C14.1738 4.76826 14.1199 4.9042 14.1199 5.06627V6.78227H11.9355C11.7663 6.78227 11.6279 6.84671 11.52 6.97561C11.4118 7.10411 11.367 7.25417 11.3858 7.42577L11.4562 8.09787C12.6589 8.40294 13.5915 8.93928 14.254 9.70691ZM5.79808 14.6255C5.90594 14.7353 6.03973 14.7903 6.19946 14.7903H13.528C13.6877 14.7903 13.8217 14.7353 13.9299 14.6255C14.0378 14.5161 14.0917 14.3804 14.0917 14.2183C14.0917 14.0562 14.0378 13.9205 13.9299 13.8111C13.8217 13.7012 13.6877 13.6463 13.528 13.6463H6.19946C6.03973 13.6463 5.90594 13.7012 5.79808 13.8111C5.68984 13.9205 5.63572 14.0562 5.63572 14.2183C5.63572 14.3804 5.68984 14.5161 5.79808 14.6255ZM5.79808 16.9136C5.90594 17.0234 6.03973 17.0783 6.19946 17.0783H13.528C13.6877 17.0783 13.8217 17.0234 13.9299 16.9136C14.0378 16.8041 14.0917 16.6683 14.0917 16.5063C14.0917 16.3442 14.0378 16.2085 13.9299 16.099C13.8217 15.9892 13.6877 15.9343 13.528 15.9343H6.19946C6.03973 15.9343 5.90594 15.9892 5.79808 16.099C5.68984 16.2085 5.63572 16.3442 5.63572 16.5063C5.63572 16.6683 5.68984 16.8041 5.79808 16.9136Z" fill="#D97200"/>
</svg>
