<svg width="25" height="34" viewBox="0 0 25 34" fill="none" xmlns="http://www.w3.org/2000/svg">
<ellipse cx="13.3231" cy="11.7669" rx="9.664" ry="9.80571" fill="white"/>
<path d="M3.83703 3.83703C5.67534 1.83232 7.41056 0.821238 10.0392 0.193672C11.4995 -0.154976 14.3342 -0.0155185 15.8805 0.472588C17.8219 1.08272 19.162 1.9369 20.7769 3.59298C23.1135 5.98122 24.0927 8.38689 24.1099 11.8036C24.1271 14.0524 23.8866 15.0809 22.873 17.1902C22.1342 18.7418 21.9109 19.0206 19.4884 21.4612C15.3136 25.6798 13.2519 29.3057 12.6506 33.4721C12.6173 33.7114 12.2774 33.7104 12.2383 33.4721C11.5167 29.0791 9.5753 25.6798 5.41763 21.4786C2.58286 18.6197 1.94718 17.6609 1.17406 15.1158C0.658646 13.4423 0.624285 10.5485 1.07098 8.84014C1.56921 6.95744 2.49695 5.28393 3.83703 3.83703ZM5.91402 8.49829V15.0354H7.20256V8.49829H5.91402ZM17.5108 8.49829V15.0354H18.7994V8.49829H17.5108ZM7.84682 9.80571V16.3429H11.7124V12.4206H10.4239V11.1131H11.7124V7.19085H10.4239C9.7152 7.19085 9.10851 7.44689 8.60384 7.95897C8.09915 8.47105 7.84682 9.08663 7.84682 9.80571ZM13.001 12.4206V16.3429H16.8666V9.80571C16.8666 9.08663 16.6143 8.47105 16.1095 7.95897C15.6049 7.44689 14.9981 7.19085 14.2895 7.19085H13.001V11.1131H14.2895V12.4206H13.001Z" fill="#299091"/>
</svg>
