<svg width="24" height="34" viewBox="0 0 24 34" fill="none" xmlns="http://www.w3.org/2000/svg">
<ellipse cx="12.1967" cy="11.7669" rx="9.664" ry="9.80571" fill="white"/>
<path d="M3.677 3.83703C5.5153 1.83231 7.25053 0.821238 9.87913 0.193672C11.3395 -0.154976 14.1742 -0.0155186 15.7204 0.472588C17.6618 1.08272 19.0019 1.93691 20.6169 3.59299C22.9535 5.98122 23.9327 8.3869 23.9499 11.8036C23.9671 14.0524 23.7266 15.0809 22.7129 17.1902C21.9742 18.7418 21.7509 19.0206 19.3284 21.4612C15.1535 25.6798 13.0918 29.3057 12.4905 33.4721C12.4573 33.7114 12.1174 33.7104 12.0783 33.4721C11.3567 29.0791 9.41527 25.6798 5.25759 21.4786C2.42282 18.6197 1.78714 17.6609 1.01403 15.1158C0.498611 13.4423 0.464251 10.5485 0.910942 8.84014C1.40918 6.95744 2.33692 5.28393 3.677 3.83703ZM17.9951 7.06011H8.71761V6.47177C8.71761 6.31573 8.65653 6.16609 8.54778 6.05574C8.43904 5.94541 8.29156 5.88343 8.13777 5.88343H6.39825V7.06011H7.55793L8.13777 8.82514L8.90896 11.1785H8.71761C8.25626 11.1785 7.81381 11.3644 7.48759 11.6955C7.16136 12.0265 6.97809 12.4754 6.97809 12.9435C6.97809 13.4117 7.16136 13.8606 7.48759 14.1916C7.81381 14.5227 8.25626 14.7086 8.71761 14.7086H16.2555V13.5319H8.71761C8.56383 13.5319 8.41635 13.4699 8.30761 13.3596C8.19886 13.2492 8.13777 13.0996 8.13777 12.9435C8.13777 12.7875 8.19886 12.6379 8.30761 12.5275C8.41635 12.4172 8.56383 12.3552 8.71761 12.3552H16.2555L17.9951 7.06011ZM8.47743 17.3056C8.69492 17.5263 8.98989 17.6503 9.29745 17.6503C9.60502 17.6503 9.89998 17.5263 10.1175 17.3056C10.335 17.085 10.4571 16.7857 10.4571 16.4736C10.4571 16.1615 10.335 15.8622 10.1175 15.6416C9.89998 15.4209 9.60502 15.2969 9.29745 15.2969C8.98989 15.2969 8.69492 15.4209 8.47743 15.6416C8.25996 15.8622 8.13777 16.1615 8.13777 16.4736C8.13777 16.7857 8.25996 17.085 8.47743 17.3056ZM14.2759 17.3056C14.4933 17.5263 14.7882 17.6503 15.0959 17.6503C15.4035 17.6503 15.6984 17.5263 15.9158 17.3056C16.1334 17.085 16.2555 16.7857 16.2555 16.4736C16.2555 16.1615 16.1334 15.8622 15.9158 15.6416C15.6984 15.4209 15.4035 15.2969 15.0959 15.2969C14.7882 15.2969 14.4933 15.4209 14.2759 15.6416C14.0583 15.8622 13.9362 16.1615 13.9362 16.4736C13.9362 16.7857 14.0583 17.085 14.2759 17.3056Z" fill="#1B78F2"/>
</svg>
