<svg width="25" height="35" viewBox="0 0 25 35" fill="none" xmlns="http://www.w3.org/2000/svg">
<ellipse cx="12.2786" cy="12.0006" rx="9.99885" ry="10.0006" fill="white"/>
<path fill-rule="evenodd" clip-rule="evenodd" d="M3.46355 3.9133C5.36555 1.86873 7.1609 0.837559 9.88059 0.197521C11.3915 -0.158056 14.3245 -0.015827 15.9243 0.481981C17.933 1.10424 19.3195 1.9754 20.9904 3.66439C23.4079 6.1001 24.4211 8.55358 24.4389 12.0382C24.4567 14.3317 24.2078 15.3807 23.1591 17.5319C22.3947 19.1142 22.1636 19.3987 19.6572 21.8877C15.3377 26.1902 13.2046 29.8882 12.5825 34.1373C12.5481 34.3813 12.1964 34.3804 12.1559 34.1373C11.4093 29.6571 9.40064 26.1902 5.09891 21.9055C2.16592 18.9898 1.50822 18.0119 0.708307 15.4162C0.175035 13.7094 0.139484 10.7582 0.601653 9.01583C1.11715 7.09571 2.07704 5.38894 3.46355 3.9133ZM7.00429 11.6872L6.39988 11.8626L6.27921 11.8973L6.28961 12.0234C6.36243 12.8597 6.52992 13.6277 6.79103 14.3263C7.05318 15.026 7.41208 15.6554 7.86564 16.2132C8.32129 16.7764 8.81958 17.1987 9.36053 17.4824C9.9046 17.7671 10.4882 17.91 11.1124 17.91C11.4973 17.91 11.8478 17.8532 12.1631 17.7387C12.4814 17.6242 12.7623 17.4509 13.0036 17.2218C13.246 16.9907 13.428 16.7249 13.5487 16.4223C13.6683 16.1218 13.7287 15.7877 13.7287 15.419C13.7287 14.9788 13.6413 14.5291 13.4665 14.071C13.3094 13.6602 13.0827 13.2421 12.7841 12.8187C12.9651 12.6989 13.1336 12.6054 13.2907 12.5392C13.4728 12.4625 13.6351 12.4237 13.7765 12.4237C13.9055 12.4237 14.0033 12.4867 14.0699 12.6128C14.1531 12.7714 14.1947 13.0194 14.1947 13.3566V13.9439C14.1947 14.3389 14.2228 14.6793 14.2779 14.964C14.3362 15.2582 14.4236 15.4957 14.5422 15.6764C14.666 15.8644 14.8303 16.0063 15.0374 16.1008C15.2371 16.1922 15.4753 16.2384 15.751 16.2384C16.1411 16.2384 16.4917 16.147 16.8038 15.9653C17.1138 15.7846 17.3821 15.5156 17.61 15.1584C17.8336 14.8065 18.0011 14.3946 18.1124 13.9239C18.2227 13.4585 18.2778 12.9332 18.2778 12.3491C18.2778 11.7754 18.2341 11.2711 18.1457 10.8351C18.0563 10.3939 17.9221 10.024 17.741 9.72672C17.5569 9.41993 17.3239 9.1909 17.0441 9.03646C16.7642 8.88202 16.4397 8.80532 16.0714 8.80532C15.5044 8.80532 15.0446 8.98183 14.6909 9.33483C14.3705 9.65527 14.1427 10.1196 14.0096 10.728C13.9586 10.7227 13.917 10.7195 13.8837 10.7195C13.5414 10.7195 13.194 10.8089 12.8382 10.9885C12.5251 11.1461 12.2067 11.3751 11.8822 11.6735L11.8239 11.6189C11.8687 11.5138 11.903 11.4025 11.9269 11.2848C11.9602 11.1303 11.9768 10.9675 11.9768 10.7941C11.9768 10.4002 11.9186 10.0419 11.8021 9.71831C11.6856 9.39367 11.5087 9.1058 11.2736 8.8568C11.0375 8.60676 10.7649 8.41869 10.4559 8.29262C10.1491 8.16865 9.80889 8.10561 9.43543 8.10561C9.15663 8.10561 8.88096 8.13713 8.60944 8.20017C8.33793 8.2632 8.07162 8.35776 7.81155 8.48278L7.68151 8.54477L8.33273 10.168L8.48253 10.0839C8.77589 9.92003 9.06093 9.79816 9.33764 9.71726C9.61124 9.63741 9.87859 9.59749 10.1397 9.59749C10.3134 9.59749 10.4611 9.61535 10.586 9.65002C10.7025 9.68364 10.7992 9.73197 10.8752 9.795C10.9459 9.85699 11 9.93369 11.0354 10.0251C11.0739 10.1228 11.0926 10.2405 11.0926 10.377C11.0926 10.7406 10.9563 11.0526 10.6848 11.3152C10.3987 11.5905 9.96597 11.8143 9.38342 11.9855L9.21905 12.0339L9.89627 13.6445L10.0378 13.5793C10.3197 13.4501 10.5818 13.2831 10.8252 13.075C11.025 12.9048 11.2112 12.7084 11.3849 12.4867C11.6939 12.8218 11.929 13.1706 12.0913 13.5352C12.2723 13.9439 12.3628 14.3736 12.3628 14.8243C12.3628 15.0639 12.3243 15.2834 12.2473 15.4831C12.1703 15.6827 12.0538 15.8644 11.8988 16.0283C11.7438 16.1912 11.5732 16.312 11.3849 16.3929C11.1977 16.4738 10.9907 16.5137 10.7639 16.5137C10.3186 16.5137 9.90044 16.4097 9.51033 16.2017C9.11502 15.9916 8.74572 15.6743 8.40139 15.2509C8.05185 14.8212 7.76369 14.3242 7.53587 13.7621C7.30701 13.1959 7.13848 12.5613 7.0303 11.8595L7.00429 11.6872ZM14.9666 11.3468C14.9073 11.1965 14.8241 11.0778 14.719 10.9906C14.8418 10.7763 14.9916 10.6124 15.1715 10.4989C15.3817 10.3655 15.6355 10.2983 15.933 10.2983C16.1463 10.2983 16.3387 10.3455 16.5094 10.439C16.6831 10.5346 16.8381 10.6796 16.9744 10.874C17.1148 11.0726 17.2199 11.3026 17.2896 11.5621C17.3613 11.8259 17.3967 12.1221 17.3967 12.451C17.3967 12.7893 17.3572 13.0971 17.2792 13.3755C17.2022 13.6508 17.0867 13.8966 16.9327 14.112L16.9317 14.113C16.7798 14.3263 16.6103 14.486 16.424 14.5911C16.2399 14.694 16.0371 14.7455 15.8144 14.7455C15.5741 14.7455 15.3952 14.651 15.2777 14.4629C15.1455 14.2517 15.08 13.925 15.08 13.4816V12.0643C15.08 11.7754 15.0415 11.5359 14.9666 11.3468ZM10.7514 6.28384L10.2406 6.66521L10.1241 6.75136L10.2021 6.87218C10.5881 7.46999 11.0208 7.91965 11.4994 8.22118C11.9841 8.52691 12.5136 8.67925 13.0868 8.67925C13.4707 8.67925 13.8514 8.58049 14.228 8.38192C14.5973 8.18756 14.9635 7.89654 15.3266 7.51096L15.4379 7.39224L14.1105 6.27438L14.0148 6.40466C13.7932 6.70619 13.5539 6.93207 13.2949 7.08126C13.0421 7.22624 12.7695 7.29979 12.4762 7.29979C12.1599 7.29979 11.8666 7.22624 11.5971 7.07916C11.3246 6.92997 11.0728 6.70409 10.8419 6.40256L10.7514 6.28384ZM13.6829 6.05585L12.7591 5.10714L12.6561 4.99998L11.6003 5.99387L12.6478 7.08021L13.6829 6.05585Z" fill="#5E758D"/>
</svg>
