<svg width="25" height="35" viewBox="0 0 25 35" fill="none" xmlns="http://www.w3.org/2000/svg">
<ellipse cx="11.9986" cy="12.0006" rx="9.99885" ry="10.0006" fill="white"/>
<path d="M3.18352 3.9133C5.08552 1.86873 6.88087 0.837559 9.60056 0.197521C11.1115 -0.158058 14.0445 -0.0158252 15.6444 0.481981C17.6529 1.10424 19.0395 1.9754 20.7104 3.66439C23.1279 6.1001 24.1411 8.55358 24.1589 12.0382C24.1767 14.3317 23.9278 15.3806 22.879 17.5319C22.1147 19.1143 21.8836 19.3987 19.3772 21.8877C15.0577 26.1902 12.9247 29.8882 12.3024 34.1374C12.268 34.3814 11.9164 34.3804 11.8759 34.1374C11.1293 29.6571 9.12062 26.1902 4.81888 21.9055C1.88589 18.9897 1.22818 18.0119 0.428279 15.4162C-0.104994 13.7094 -0.140545 10.7582 0.321624 9.01583C0.83712 7.09571 1.79701 5.38895 3.18352 3.9133ZM11.0144 6.57121L12.5193 4.82305L14.023 6.57121L14.8884 15.561H10.149L11.0144 6.57121ZM12.2888 6.90473C12.2278 6.96585 12.1935 7.04876 12.1935 7.1352V8.71489C12.1935 8.80133 12.2278 8.88425 12.2888 8.94537C12.35 9.0065 12.4329 9.04084 12.5193 9.04084C12.6057 9.04084 12.6886 9.0065 12.7498 8.94537C12.8109 8.88425 12.8452 8.80133 12.8452 8.71489V7.1352C12.8452 7.04876 12.8109 6.96585 12.7498 6.90473C12.6886 6.8436 12.6057 6.80926 12.5193 6.80926C12.4329 6.80926 12.35 6.8436 12.2888 6.90473ZM12.2888 9.36215C12.2278 9.42328 12.1935 9.50618 12.1935 9.59263V15.0129C12.1935 15.0993 12.2278 15.1822 12.2888 15.2433C12.35 15.3045 12.4329 15.3388 12.5193 15.3388C12.6057 15.3388 12.6886 15.3045 12.7498 15.2433C12.8109 15.1822 12.8452 15.0993 12.8452 15.0129V9.59263C12.8452 9.50618 12.8109 9.42328 12.7498 9.36215C12.6886 9.30102 12.6057 9.26668 12.5193 9.26668C12.4329 9.26668 12.35 9.30102 12.2888 9.36215ZM9.47401 15.8089H8.4646L8.45972 15.804C8.38504 15.8043 8.31351 15.8341 8.26071 15.8869C8.2079 15.9397 8.1781 16.0113 8.17778 16.086V17.2432H7.38075C7.30565 17.2432 7.23361 17.273 7.18051 17.3261C7.12741 17.3794 7.09757 17.4514 7.09757 17.5265V18.6117H5.99907V18.9962H18.9554V18.6117H17.9057V17.5265C17.9053 17.4517 17.8756 17.3799 17.8228 17.3269C17.77 17.2739 17.6985 17.2438 17.6237 17.2432H16.8743V16.086C16.8733 16.0117 16.8432 15.9408 16.7905 15.8885C16.7377 15.8362 16.6666 15.8067 16.5924 15.8064H15.5647L14.6602 6.4064C14.6541 6.33866 14.6267 6.27459 14.5821 6.22329L12.7647 4.11867C12.7083 4.05363 12.6284 4.01362 12.5426 4.00745C12.4568 4.00127 12.372 4.02942 12.3069 4.08571L12.2703 4.12233L10.4554 6.22329C10.4086 6.27707 10.3811 6.34496 10.3773 6.41617L9.47401 15.8089Z" fill="#299091"/>
</svg>
