<svg width="25" height="35" viewBox="0 0 25 35" fill="none" xmlns="http://www.w3.org/2000/svg">
<ellipse cx="12.5187" cy="11.0006" rx="9.99885" ry="10.0006" fill="white"/>
<path fill-rule="evenodd" clip-rule="evenodd" d="M3.7036 3.9133C5.6056 1.86873 7.40095 0.837559 10.1206 0.197521C11.6316 -0.158056 14.5646 -0.015827 16.1644 0.481981C18.173 1.10424 19.5596 1.9754 21.2305 3.66439C23.648 6.1001 24.6612 8.55358 24.679 12.0382C24.6967 14.3317 24.4479 15.3807 23.3991 17.5319C22.6348 19.1142 22.4037 19.3987 19.8973 21.8877C15.5778 26.1902 13.4447 29.8882 12.8225 34.1373C12.7881 34.3813 12.4364 34.3804 12.3959 34.1373C11.6494 29.6571 9.64069 26.1902 5.33897 21.9055C2.40597 18.9898 1.74827 18.0119 0.948359 15.4162C0.415087 13.7094 0.379535 10.7582 0.841704 9.01583C1.3572 7.09571 2.31709 5.38894 3.7036 3.9133ZM15.1405 16.4358C15.3128 16.3558 15.6732 16.1399 16.2197 15.7884C16.1845 15.7954 16.1495 15.8024 16.1147 15.8093C13.8619 16.2582 12.3427 16.561 10.4596 14.6741C9.43857 13.6526 8.92854 12.428 8.92854 11.0003C8.92854 9.56182 9.44153 8.33429 10.4655 7.31866C12.3715 5.43322 13.9211 5.74337 16.2186 6.20321L16.2197 6.20343C15.0647 5.40167 13.8625 5.0003 12.616 5.0003C10.9204 5.0003 9.48091 5.58429 8.29543 6.74835C7.11092 7.91339 6.51917 9.3294 6.51917 11.0003C6.51917 12.6605 7.10797 14.0735 8.28755 15.2435C9.46713 16.4134 10.8919 17.0003 12.5657 17.0003C13.4696 17.0003 14.3292 16.8118 15.1405 16.4358ZM15.6703 10.3118H13.9127L15.3355 11.3323L14.7939 12.9974L16.2197 11.9739L17.6336 12.9974L17.095 11.3323L18.5178 10.3118H16.7583L16.2197 8.6546L15.6703 10.3118Z" fill="#5E758D"/>
</svg>
