<svg width="24" height="34" viewBox="0 0 24 34" fill="none" xmlns="http://www.w3.org/2000/svg">
<ellipse cx="11.7565" cy="11.7669" rx="9.664" ry="9.80571" fill="white"/>
<path d="M3.23687 3.83703C5.07518 1.83231 6.8104 0.821238 9.43901 0.193672C10.8993 -0.154976 13.7341 -0.0155186 15.2803 0.472588C17.2217 1.08272 18.5618 1.93691 20.1768 3.59299C22.5133 5.98122 23.4926 8.3869 23.5098 11.8036C23.527 14.0524 23.2865 15.0809 22.2728 17.1902C21.5341 18.7418 21.3107 19.0206 18.8883 21.4612C14.7134 25.6798 12.6517 29.3057 12.0504 33.4721C12.0172 33.7114 11.6773 33.7104 11.6381 33.4721C10.9165 29.0791 8.97513 25.6798 4.81747 21.4786C1.9827 18.6197 1.34702 17.6609 0.5739 15.1158C0.0584874 13.4423 0.0241261 10.5485 0.470817 8.84014C0.969051 6.95744 1.89679 5.28393 3.23687 3.83703ZM6.92252 9.97114C7.08224 10.1332 7.28424 10.2143 7.52853 10.2143C7.77282 10.2143 7.97482 10.1332 8.13454 9.97114C8.29427 9.80915 8.37413 9.60415 8.37413 9.35629C8.37413 9.10842 8.29427 8.90345 8.13454 8.74138C7.97482 8.57931 7.77282 8.49829 7.52853 8.49829C7.28424 8.49829 7.08224 8.57931 6.92252 8.74138C6.76279 8.90345 6.68293 9.10842 6.68293 9.35629C6.68293 9.60415 6.76279 9.80915 6.92252 9.97114ZM6.84528 16.3415C6.95315 16.4513 7.08694 16.5063 7.24666 16.5063H16.2664C16.4261 16.5063 16.5599 16.4513 16.6678 16.3415C16.776 16.2321 16.8301 16.0964 16.8301 15.9343C16.8301 15.7722 16.776 15.6365 16.6678 15.5271C16.5599 15.4172 16.4261 15.3623 16.2664 15.3623H14.0114V12.5023H14.998C15.665 12.5023 16.2313 12.2663 16.6965 11.7941C17.1614 11.3225 17.3938 10.7481 17.3938 10.0713C17.3938 9.56601 17.2601 9.11547 16.9925 8.71965C16.7245 8.32421 16.3791 8.03115 15.9563 7.84048C15.853 7.22082 15.5689 6.69877 15.1039 6.27435C14.6387 5.8503 14.0866 5.63828 13.4477 5.63828C12.8088 5.63828 12.2567 5.8503 11.7915 6.27435C11.3266 6.69877 11.0425 7.22082 10.9391 7.84048C10.5163 8.03115 10.1712 8.32421 9.90355 8.71965C9.63558 9.11547 9.5016 9.56601 9.5016 10.0713C9.5016 10.7481 9.73423 11.3225 10.1995 11.7941C10.6644 12.2663 11.2304 12.5023 11.8974 12.5023H12.884V15.3623H8.37413V13.6463H8.656C8.73116 13.6463 8.79693 13.6177 8.8533 13.5605C8.90968 13.5033 8.93786 13.4366 8.93786 13.3603V11.3583C8.93786 11.1963 8.88393 11.0603 8.77607 10.9504C8.66784 10.841 8.53386 10.7863 8.37413 10.7863H6.68293C6.5232 10.7863 6.38941 10.841 6.28155 10.9504C6.17332 11.0603 6.1192 11.1963 6.1192 11.3583V13.3603C6.1192 13.4366 6.14738 13.5033 6.20376 13.5605C6.26013 13.6177 6.3259 13.6463 6.40106 13.6463H6.68293V15.9343C6.68293 16.0964 6.73705 16.2321 6.84528 16.3415Z" fill="#598017"/>
</svg>
