<svg width="25" height="35" viewBox="0 0 25 35" fill="none" xmlns="http://www.w3.org/2000/svg">
<ellipse cx="12.2389" cy="12.0006" rx="9.99885" ry="10.0006" fill="white"/>
<path fill-rule="evenodd" clip-rule="evenodd" d="M3.42378 3.9133C5.32579 1.86873 7.12114 0.837559 9.84082 0.197521C11.3518 -0.158056 14.2848 -0.015827 15.8846 0.481981C17.8932 1.10424 19.2797 1.9754 20.9507 3.66439C23.3682 6.1001 24.3814 8.55358 24.3992 12.0382C24.4169 14.3317 24.1681 15.3807 23.1193 17.5319C22.3549 19.1142 22.1239 19.3987 19.6175 21.8877C15.298 26.1902 13.1649 29.8882 12.5427 34.1373C12.5083 34.3813 12.1566 34.3804 12.1161 34.1373C11.3695 29.6571 9.36088 26.1902 5.05915 21.9055C2.12615 18.9898 1.46845 18.0119 0.668543 15.4162C0.135271 13.7094 0.0997194 10.7582 0.561889 9.01583C1.07738 7.09571 2.03727 5.38894 3.42378 3.9133ZM8.63156 17.6087C8.89245 17.8695 9.20623 18 9.5729 18C9.93956 18 10.2536 17.8695 10.5149 17.6087C10.7758 17.3473 10.9062 17.0333 10.9062 16.6667V14H12.9062C14.0173 14 14.9618 13.6111 15.7396 12.8333C16.5173 12.0555 16.9062 11.1111 16.9062 9.99999C16.9062 8.88888 16.5173 7.94443 15.7396 7.16665C14.9618 6.38887 14.0173 5.99999 12.9062 5.99999H9.5729C9.20623 5.99999 8.89245 6.13043 8.63156 6.39132C8.37023 6.65265 8.23956 6.96665 8.23956 7.33332V16.6667C8.23956 17.0333 8.37023 17.3473 8.63156 17.6087ZM13.0396 11.3333H10.9062V8.66665H13.0396C13.4062 8.66665 13.7202 8.7971 13.9816 9.05799C14.2425 9.31932 14.3729 9.63332 14.3729 9.99999C14.3729 10.3667 14.2425 10.6804 13.9816 10.9413C13.7202 11.2027 13.4062 11.3333 13.0396 11.3333Z" fill="#1F6FC4"/>
</svg>
