<svg width="25" height="34" viewBox="0 0 25 34" fill="none" xmlns="http://www.w3.org/2000/svg">
<ellipse cx="12.4767" cy="11.7669" rx="9.664" ry="9.80571" fill="white"/>
<path d="M3.95709 3.83703C5.79539 1.83232 7.53061 0.821238 10.1592 0.193672C11.6195 -0.154976 14.4543 -0.0155185 16.0005 0.472588C17.9419 1.08272 19.282 1.9369 20.897 3.59298C23.2335 5.98122 24.2128 8.38689 24.23 11.8036C24.2472 14.0524 24.0067 15.0809 22.993 17.1902C22.2543 18.7418 22.031 19.0206 19.6085 21.4612C15.4336 25.6798 13.3719 29.3057 12.7706 33.4721C12.7374 33.7114 12.3975 33.7104 12.3584 33.4721C11.6367 29.0791 9.69535 25.6798 5.53768 21.4786C2.70291 18.6197 2.06723 17.6609 1.29411 15.1158C0.778702 13.4423 0.744341 10.5485 1.19103 8.84014C1.68927 6.95744 2.61701 5.28393 3.95709 3.83703ZM12.0765 6.33611L8.0909 10.3801C6.77177 11.7244 6.77177 13.8922 8.0909 15.2364C9.41004 16.5749 11.5522 16.5749 12.877 15.2364L16.8626 11.1924C18.1817 9.84817 18.1817 7.67459 16.8626 6.33611C15.5378 4.99763 13.4013 4.99763 12.0765 6.33611ZM8.30511 13.4003C8.10217 12.6396 8.29948 11.7873 8.8914 11.1924L12.877 7.14836C13.7565 6.25031 15.1827 6.25031 16.0621 7.14836C16.9471 8.04068 16.9471 9.48783 16.0621 10.3801L14.0721 12.405L11.6819 9.97977L8.30511 13.4003Z" fill="#BA272A"/>
</svg>
