<svg width="24" height="34" viewBox="0 0 24 34" fill="none" xmlns="http://www.w3.org/2000/svg">
<ellipse cx="12.0765" cy="11.7669" rx="9.664" ry="9.80571" fill="white"/>
<path d="M3.55682 3.83703C5.39512 1.83232 7.13034 0.821238 9.75895 0.193672C11.2193 -0.154976 14.054 -0.0155185 15.6003 0.472588C17.5417 1.08272 18.8818 1.9369 20.4967 3.59298C22.8333 5.98122 23.8125 8.38689 23.8297 11.8036C23.8469 14.0524 23.6064 15.0809 22.5927 17.1902C21.854 18.7418 21.6307 19.0206 19.2082 21.4612C15.0334 25.6798 12.9717 29.3057 12.3704 33.4721C12.3371 33.7114 11.9972 33.7104 11.9581 33.4721C11.2365 29.0791 9.29509 25.6798 5.13741 21.4786C2.30264 18.6197 1.66697 17.6609 0.893846 15.1158C0.378433 13.4423 0.344073 10.5485 0.790764 8.84014C1.289 6.95744 2.21674 5.28393 3.55682 3.83703ZM10.6322 18.2374C11.2004 18.4997 11.8275 18.6309 12.5134 18.6309C13.1992 18.6309 13.8265 18.4997 14.3951 18.2374C14.9633 17.9753 15.4517 17.6251 15.8602 17.1866C16.2691 16.7481 16.5864 16.245 16.8118 15.6776C17.0373 15.1106 17.1501 14.522 17.1501 13.9119V10.1938C17.1501 9.99369 17.082 9.82454 16.946 9.6865C16.8096 9.54807 16.6427 9.47886 16.4454 9.47886C16.2481 9.47886 16.0814 9.54807 15.9454 9.6865C15.8089 9.82454 15.7408 9.99369 15.7408 10.1938V13.1968C15.7408 13.2731 15.7126 13.3399 15.6562 13.3971C15.5998 13.4542 15.5341 13.4829 15.4589 13.4829C15.0361 13.4829 14.665 13.6236 14.3455 13.905C14.0261 14.186 13.8381 14.5363 13.7818 14.9558C13.7724 15.0321 13.7442 15.0915 13.6972 15.1342C13.6503 15.1773 13.5938 15.1989 13.5281 15.1989C13.4342 15.1989 13.3567 15.1655 13.2958 15.0987C13.2346 15.0321 13.2133 14.9558 13.2321 14.87C13.3073 14.3647 13.5187 13.9334 13.8663 13.5761C14.214 13.2184 14.6509 13.0014 15.177 12.9251V6.76185C15.177 6.56166 15.1089 6.39235 14.973 6.25392C14.8365 6.11587 14.6696 6.04686 14.4724 6.04686C14.275 6.04686 14.1083 6.11587 13.9723 6.25392C13.8359 6.39235 13.7677 6.56166 13.7677 6.76185V10.9089C13.7677 10.9851 13.7395 11.0518 13.6831 11.1091C13.6268 11.1663 13.561 11.1949 13.4858 11.1949C13.4107 11.1949 13.3449 11.1663 13.2885 11.1091C13.2321 11.0518 13.204 10.9851 13.204 10.9089V5.61786C13.204 5.41766 13.1357 5.24834 12.9993 5.10992C12.8632 4.97188 12.6966 4.90286 12.4993 4.90286C12.3019 4.90286 12.1353 4.97188 11.9993 5.10992C11.8628 5.24834 11.7946 5.41766 11.7946 5.61786V10.9089C11.7946 10.9851 11.7665 11.0518 11.71 11.1091C11.6537 11.1663 11.5879 11.1949 11.5128 11.1949C11.4376 11.1949 11.3718 11.1663 11.3154 11.1091C11.2591 11.0518 11.2309 10.9851 11.2309 10.9089V6.47586C11.2309 6.27566 11.1626 6.10634 11.0262 5.96792C10.8902 5.82988 10.7235 5.76086 10.5262 5.76086C10.3289 5.76086 10.1622 5.82988 10.0262 5.96792C9.88975 6.10634 9.82154 6.27566 9.82154 6.47586V11.4808C9.82154 11.5571 9.79335 11.6239 9.73698 11.6811C9.6806 11.7382 9.61484 11.7669 9.53968 11.7669C9.46451 11.7669 9.39874 11.7382 9.34237 11.6811C9.286 11.6239 9.25781 11.5571 9.25781 11.4808V8.19186C9.25781 7.99166 9.18978 7.82234 9.05373 7.68392C8.91731 7.54588 8.75045 7.47686 8.55314 7.47686C8.35584 7.47686 8.18915 7.54588 8.05311 7.68392C7.91668 7.82234 7.84848 7.99166 7.84848 8.19186V13.9119C7.84848 14.522 7.96366 15.1131 8.19404 15.685C8.42404 16.2571 8.74575 16.76 9.15915 17.194C9.57256 17.6275 10.0636 17.9753 10.6322 18.2374Z" fill="#5E758D"/>
</svg>
