<svg width="25" height="35" viewBox="0 0 25 35" fill="none" xmlns="http://www.w3.org/2000/svg">
<ellipse cx="12.0789" cy="13.0006" rx="9.99885" ry="10.0006" fill="white"/>
<path fill-rule="evenodd" clip-rule="evenodd" d="M9.68082 0.197521C6.96113 0.837559 5.16578 1.86873 3.26378 3.9133C1.87727 5.38894 0.917381 7.09571 0.401885 9.01583C-0.0602842 10.7582 -0.0247328 13.7094 0.508539 15.4162C1.30845 18.0119 1.96615 18.9898 4.89915 21.9055C9.20087 26.1902 11.2095 29.6571 11.9561 34.1373C11.9966 34.3804 12.3483 34.3813 12.3827 34.1373C13.0049 29.8882 15.138 26.1902 19.4575 21.8877C21.9639 19.3987 22.1949 19.1142 22.9593 17.5319C24.0081 15.3807 24.2569 14.3317 24.2391 12.0382C24.2214 8.55358 23.2082 6.1001 20.7907 3.66439C19.1197 1.9754 17.7332 1.10424 15.7246 0.481981C14.1248 -0.015827 11.1918 -0.158056 9.68082 0.197521ZM7.11063 11.1458H8.5605L8.05825 9.99085C7.87561 9.5705 7.53537 9.23858 7.11063 9.06641V11.1458ZM7.11063 13.3198H9.50944C9.50134 13.3055 9.49375 13.2909 9.48669 13.276L8.94419 12.0283H7.11063V13.3198ZM7.11063 15.4933H9.72863V14.2009H7.11063V15.4933ZM8.97136 5.94704C9.34361 5.61849 9.82311 5.43738 10.3196 5.43779C10.5884 5.43784 10.8546 5.4909 11.1029 5.59393C11.3513 5.69695 11.5768 5.84793 11.7668 6.03821C11.9567 6.22849 12.1073 6.45436 12.2099 6.70289C12.3125 6.95141 12.3651 7.21773 12.3647 7.4866V7.70535C13.1023 8.04233 13.6892 8.64025 14.0125 9.38404L14.8669 11.3528H14.9264C15.4694 11.3541 16.0007 11.5104 16.4579 11.8034C16.9151 12.0963 17.2792 12.5137 17.5073 13.0065L19.4973 17.3216C19.5587 17.4549 19.5856 17.6015 19.5755 17.7479C19.5654 17.8944 19.5187 18.0359 19.4395 18.1595C19.3604 18.2831 19.2515 18.3849 19.1227 18.4553C18.994 18.5258 18.8496 18.5628 18.7029 18.5628H13.4316C13.2654 18.5628 13.1026 18.5155 12.9623 18.4264C12.822 18.3373 12.71 18.2101 12.6394 18.0597L11.2592 15.1188V17.6878C11.2592 17.9198 11.167 18.1424 11.003 18.3065C10.8389 18.4706 10.6164 18.5628 10.3843 18.5628H9.72815C9.49611 18.5628 9.27358 18.4706 9.1095 18.3065C8.94543 18.1424 8.85325 17.9198 8.85325 17.6878V17.2503H7.98535V17.6878C7.98535 17.9198 7.89317 18.1424 7.7291 18.3065C7.56502 18.4706 7.34249 18.5628 7.11045 18.5628H6.45428C6.22224 18.5628 5.9997 18.4706 5.83563 18.3065C5.67155 18.1424 5.57938 17.9198 5.57938 17.6878V7.48179C5.57909 7.08871 5.69221 6.7039 5.90516 6.37353C6.11812 6.04315 6.42186 5.78124 6.77995 5.61922C7.13804 5.4572 7.53526 5.40194 7.92397 5.46009C8.31267 5.51824 8.67635 5.68732 8.97136 5.94704ZM11.1461 6.65518C10.9269 6.43595 10.6296 6.31279 10.3196 6.31279C10.0096 6.31279 9.71227 6.43595 9.49307 6.65518C9.27386 6.87441 9.15071 7.17175 9.15071 7.48179V8.93035L9.80689 8.93079V7.48179C9.80689 7.3458 9.86091 7.21538 9.95705 7.11922C10.0532 7.02306 10.1836 6.96904 10.3196 6.96904C10.4556 6.96904 10.586 7.02306 10.6821 7.11922C10.7783 7.21538 10.8323 7.3458 10.8323 7.48179V8.93604L10.8423 8.93079V8.93779H11.0011C11.3422 8.93783 11.6758 9.03757 11.961 9.22474C12.2461 9.41191 12.4704 9.67835 12.6061 9.99129L13.7466 12.6189C13.7752 12.685 13.8198 12.743 13.8763 12.7877C13.9327 12.8324 13.9994 12.8625 14.0703 12.8753C14.096 12.88 14.122 12.8823 14.1481 12.8823H14.9251C15.1759 12.8822 15.4215 12.9541 15.6327 13.0893C15.844 13.2245 16.0121 13.4175 16.1171 13.6453L16.1657 13.7503L17.9802 17.6878H18.7029L16.7129 13.3697C16.5554 13.028 16.3033 12.7386 15.9864 12.5357C15.6696 12.3329 15.3013 12.2251 14.9251 12.2252H14.2916L13.2085 9.73141C13.0551 9.37718 12.8187 9.06506 12.5194 8.82139C12.22 8.57773 11.8664 8.40967 11.4884 8.33141V7.48179C11.4884 7.17175 11.3653 6.87441 11.1461 6.65518ZM8.13583 8.92947L8.79201 8.92991V7.48179C8.79201 7.17175 8.66886 6.87441 8.44965 6.65518C8.23045 6.43595 7.93314 6.31279 7.62314 6.31279C7.31314 6.31279 7.01583 6.43595 6.79663 6.65518C6.57742 6.87441 6.45428 7.17175 6.45428 7.48179V17.6878H7.11045V16.3753H9.72946V17.6878H10.3856V13.5385H10.666C10.9441 13.5807 11.2071 13.6924 11.4305 13.8632C11.654 14.0341 11.8307 14.2586 11.9443 14.5159L13.4316 17.6878H14.1538L12.5388 14.2412C12.3415 13.8133 11.9701 13.399 11.5353 13.1426C11.2668 12.9953 10.97 12.9068 10.6647 12.8832H10.0313V12.8823L10.0282 12.8753L8.65946 9.73054C8.52994 9.43096 8.34093 9.16081 8.1039 8.93647C7.82306 8.67091 7.48228 8.47929 7.11045 8.37341V7.48091C7.11045 7.34492 7.16446 7.2145 7.26061 7.11834C7.35676 7.02218 7.48717 6.96816 7.62314 6.96816C7.75911 6.96816 7.88952 7.02218 7.98567 7.11834C8.08182 7.2145 8.13583 7.34492 8.13583 7.48091V8.92947Z" fill="#598017"/>
</svg>
