<svg width="24" height="34" viewBox="0 0 24 34" fill="none" xmlns="http://www.w3.org/2000/svg">
<ellipse cx="12.1568" cy="10.7863" rx="9.664" ry="9.80571" fill="white"/>
<path d="M3.63714 3.83703C5.47545 1.83231 7.21067 0.821238 9.83927 0.193672C11.2996 -0.154976 14.1343 -0.0155186 15.6806 0.472588C17.622 1.08272 18.9621 1.93691 20.577 3.59299C22.9136 5.98122 23.8929 8.3869 23.9101 11.8036C23.9273 14.0524 23.6867 15.0809 22.6731 17.1902C21.9344 18.7418 21.711 19.0206 19.2885 21.4612C15.1137 25.6798 13.052 29.3057 12.4507 33.4721C12.4174 33.7114 12.0776 33.7104 12.0384 33.4721C11.3168 29.0791 9.3754 25.6798 5.21774 21.4786C2.38297 18.6197 1.74729 17.6609 0.974169 15.1158C0.458756 13.4423 0.424394 10.5485 0.871087 8.84014C1.36932 6.95744 2.29706 5.28393 3.63714 3.83703ZM13.2843 10.8435C13.1715 10.8435 13.0635 10.8053 12.9602 10.7291L9.33813 8.16938V6.78229L13.2843 9.55648L17.2304 6.78229V8.16938L13.6084 10.7291C13.505 10.8053 13.397 10.8435 13.2843 10.8435ZM6.28692 15.5982C6.50772 15.8223 6.77315 15.9343 7.0832 15.9343H15.8211C15.9807 15.9343 16.1147 15.8795 16.2227 15.7698C16.3308 15.6602 16.3848 15.5243 16.3848 15.3623C16.3848 15.2002 16.3308 15.0643 16.2227 14.9547C16.1147 14.8451 15.9807 14.7903 15.8211 14.7903H7.0832V8.21229C7.0832 8.05022 7.02918 7.91437 6.92112 7.80474C6.81308 7.6951 6.67918 7.64029 6.51947 7.64029C6.35974 7.64029 6.22586 7.6951 6.1178 7.80474C6.00976 7.91437 5.95573 8.05022 5.95573 8.21229V14.7903C5.95573 15.1049 6.06613 15.3742 6.28692 15.5982ZM8.54185 13.3103C8.76266 13.5342 9.02808 13.6463 9.33813 13.6463H17.2304C17.5404 13.6463 17.8059 13.5342 18.0267 13.3103C18.2474 13.0862 18.3579 12.8169 18.3579 12.5023V6.78229C18.3579 6.46768 18.2474 6.19837 18.0267 5.97434C17.8059 5.75031 17.5404 5.63828 17.2304 5.63828H9.33813C9.02808 5.63828 8.76266 5.75031 8.54185 5.97434C8.32106 6.19837 8.21067 6.46768 8.21067 6.78229V12.5023C8.21067 12.8169 8.32106 13.0862 8.54185 13.3103Z" fill="#299091"/>
</svg>
