<svg width="25" height="35" viewBox="0 0 25 35" fill="none" xmlns="http://www.w3.org/2000/svg">
<ellipse cx="12.4389" cy="12.0006" rx="9.99885" ry="10.0006" fill="white"/>
<path fill-rule="evenodd" clip-rule="evenodd" d="M3.62376 3.9133C5.52577 1.86873 7.32112 0.837559 10.0408 0.197521C11.5517 -0.158056 14.4847 -0.015827 16.0846 0.481981C18.0932 1.10424 19.4797 1.9754 21.1506 3.66439C23.5681 6.1001 24.5814 8.55358 24.5991 12.0382C24.6169 14.3317 24.368 15.3807 23.3193 17.5319C22.5549 19.1142 22.3238 19.3987 19.8175 21.8877C15.498 26.1902 13.3649 29.8882 12.7427 34.1373C12.7083 34.3813 12.3566 34.3804 12.3161 34.1373C11.5695 29.6571 9.56086 26.1902 5.25913 21.9055C2.32614 18.9898 1.66843 18.0119 0.868525 15.4162C0.335253 13.7094 0.299701 10.7582 0.76187 9.01583C1.27737 7.09571 2.23726 5.38894 3.62376 3.9133ZM6.72307 18.067C6.72307 18.2559 6.78418 18.4114 6.9064 18.5336C7.03973 18.667 7.19529 18.7336 7.37307 18.7336C7.55084 18.7336 7.7064 18.667 7.83973 18.5336L12.4397 13.967L17.0397 18.5336C17.1731 18.667 17.3286 18.7336 17.5064 18.7336C17.6842 18.7336 17.8397 18.667 17.9731 18.5336C18.0953 18.4114 18.1564 18.2559 18.1564 18.067C18.1564 17.8781 18.0953 17.7225 17.9731 17.6003L13.3731 13.0003L14.2064 12.167C14.6731 12.367 15.2008 12.3947 15.7897 12.2503C16.3786 12.1059 16.9064 11.7892 17.3731 11.3003C17.962 10.7114 18.3064 10.0559 18.4064 9.33363C18.5064 8.61141 18.3286 8.02252 17.8731 7.56696C17.4175 7.11141 16.8286 6.93363 16.1064 7.03363C15.3842 7.13363 14.7286 7.47808 14.1397 8.06696C13.6508 8.53363 13.3342 9.06141 13.1897 9.6503C13.0453 10.2392 13.0731 10.767 13.2731 11.2336L6.9064 17.6003C6.78418 17.7225 6.72307 17.8781 6.72307 18.067ZM7.33973 11.3003L9.33973 13.3003L11.4731 11.167L7.92307 7.58363C7.7564 7.40585 7.56195 7.32808 7.33973 7.3503C7.11751 7.37252 6.95084 7.47808 6.83973 7.66696C6.5064 8.25585 6.38129 8.88363 6.4644 9.5503C6.54795 10.217 6.83973 10.8003 7.33973 11.3003Z" fill="#D97200"/>
</svg>
