<svg width="25" height="35" viewBox="0 0 25 35" fill="none" xmlns="http://www.w3.org/2000/svg">
<ellipse cx="12.1189" cy="13.0006" rx="9.99885" ry="10.0006" fill="white"/>
<path fill-rule="evenodd" clip-rule="evenodd" d="M3.30377 3.9133C5.20578 1.86873 7.00112 0.837559 9.72081 0.197521C11.2317 -0.158056 14.1647 -0.015827 15.7646 0.481981C17.7732 1.10424 19.1597 1.9754 20.8306 3.66439C23.2481 6.1001 24.2614 8.55358 24.2791 12.0382C24.2969 14.3317 24.0481 15.3807 22.9993 17.5319C22.2349 19.1142 22.0038 19.3987 19.4975 21.8877C15.178 26.1902 13.0449 29.8882 12.4227 34.1373C12.3883 34.3813 12.0366 34.3804 11.9961 34.1373C11.2495 29.6571 9.24087 26.1902 4.93914 21.9055C2.00614 18.9898 1.34844 18.0119 0.548533 15.4162C0.0152605 13.7094 -0.0202909 10.7582 0.441878 9.01583C0.957375 7.09571 1.91726 5.38894 3.30377 3.9133ZM6.5484 18.245C6.83383 18.5283 7.17712 18.67 7.57828 18.67H16.3308C16.7319 18.67 17.0755 18.5283 17.3614 18.245C17.6468 17.9612 17.7895 17.6202 17.7895 17.222V10.706C17.7895 10.4767 17.738 10.2595 17.6349 10.0544C17.5313 9.84922 17.3884 9.68029 17.206 9.54756L12.8298 6.28956C12.5745 6.09649 12.2827 5.99996 11.9545 5.99996C11.6263 5.99996 11.3346 6.09649 11.0793 6.28956L6.70303 9.54756C6.52069 9.68029 6.37797 9.84922 6.27489 10.0544C6.17132 10.2595 6.11953 10.4767 6.11953 10.706V17.222C6.11953 17.6202 6.26249 17.9612 6.5484 18.245ZM14.872 16.136V15.412H9.03703V16.136C9.03703 16.2325 9.00056 16.317 8.92762 16.3894C8.85469 16.4618 8.76959 16.498 8.67234 16.498C8.57509 16.498 8.49 16.4618 8.41706 16.3894C8.34412 16.317 8.30766 16.2325 8.30766 16.136V11.792C8.30766 11.6954 8.34412 11.611 8.41706 11.5386C8.49 11.4662 8.57509 11.43 8.67234 11.43C8.76959 11.43 8.85469 11.4662 8.92762 11.5386C9.00056 11.611 9.03703 11.6954 9.03703 11.792V14.688H11.5898V12.516C11.5898 12.4194 11.6263 12.335 11.6992 12.2626C11.7722 12.1902 11.8573 12.154 11.9545 12.154H14.1427C14.5438 12.154 14.8873 12.2956 15.1733 12.5789C15.4587 12.8628 15.6014 13.2038 15.6014 13.602V16.136C15.6014 16.2325 15.5649 16.317 15.492 16.3894C15.4191 16.4618 15.334 16.498 15.2367 16.498C15.1395 16.498 15.0544 16.4618 14.9814 16.3894C14.9085 16.317 14.872 16.2325 14.872 16.136ZM10.9604 14.0631C10.7844 14.2384 10.5687 14.326 10.3134 14.326C10.0582 14.326 9.8425 14.2384 9.66648 14.0631C9.48997 13.8884 9.40172 13.6744 9.40172 13.421C9.40172 13.1676 9.48997 12.9535 9.66648 12.7788C9.8425 12.6036 10.0582 12.516 10.3134 12.516C10.5687 12.516 10.7844 12.6036 10.9604 12.7788C11.1369 12.9535 11.2252 13.1676 11.2252 13.421C11.2252 13.6744 11.1369 13.8884 10.9604 14.0631Z" fill="#299091"/>
</svg>
