<svg width="26" height="35" viewBox="0 0 26 35" fill="none" xmlns="http://www.w3.org/2000/svg">
<ellipse cx="12.9589" cy="12.0006" rx="9.99885" ry="10.0006" fill="white"/>
<path d="M4.14377 3.9133C6.04577 1.86874 7.84113 0.83756 10.5608 0.197521C12.0717 -0.158056 15.0047 -0.0158269 16.6045 0.481981C18.6132 1.10424 19.9997 1.9754 21.6706 3.66439C24.0882 6.1001 25.1013 8.55358 25.1191 12.0382C25.1369 14.3317 24.8881 15.3806 23.8393 17.5319C23.075 19.1143 22.8439 19.3987 20.3375 21.8877C16.018 26.1902 13.8848 29.8882 13.2627 34.1374C13.2283 34.3814 12.8766 34.3804 12.8361 34.1374C12.0895 29.6571 10.0809 26.1902 5.77913 21.9055C2.84614 18.9897 2.18844 18.0119 1.38853 15.4162C0.855256 13.7094 0.819706 10.7582 1.28187 9.01583C1.79737 7.09571 2.75726 5.38895 4.14377 3.9133ZM11.6247 10.2492C11.5127 10.3612 11.3741 10.4172 11.2088 10.4172C11.0436 10.4172 10.9051 10.3612 10.7935 10.2492C10.6816 10.1376 10.6256 9.9992 10.6256 9.83392V8.66718H11.7921V9.83392C11.7921 9.9992 11.7363 10.1376 11.6247 10.2492ZM13.7828 6.67673C14.011 6.90501 14.1252 7.17959 14.1252 7.50044H11.7921C11.7921 7.17959 11.9065 6.90501 12.135 6.67673C12.3633 6.44804 12.6379 6.3337 12.9586 6.3337C13.2794 6.3337 13.5542 6.44804 13.7828 6.67673ZM15.1243 10.2492C15.0123 10.3612 14.8737 10.4172 14.7084 10.4172C14.5431 10.4172 14.4048 10.3612 14.2932 10.2492C14.1812 10.1376 14.1252 9.9992 14.1252 9.83392V8.66718H15.2917V9.83392C15.2917 9.9992 15.2359 10.1376 15.1243 10.2492ZM8.63546 16.4919C8.86371 16.7202 9.13824 16.8343 9.45903 16.8343H16.4582C16.779 16.8343 17.0538 16.7202 17.2823 16.4919C17.5106 16.2632 17.6248 15.9885 17.6248 15.6675V8.66718C17.6248 8.34633 17.5106 8.07175 17.2823 7.84346C17.0538 7.61478 16.779 7.50044 16.4582 7.50044H15.2917C15.2917 6.85874 15.0633 6.30939 14.6063 5.85243C14.1495 5.39545 13.6003 5.16696 12.9586 5.16696C12.317 5.16696 11.7678 5.39545 11.3109 5.85243C10.854 6.30939 10.6256 6.85874 10.6256 7.50044H9.45903C9.13824 7.50044 8.86371 7.61478 8.63546 7.84346C8.40682 8.07175 8.2925 8.34633 8.2925 8.66718V15.6675C8.2925 15.9885 8.40682 16.2632 8.63546 16.4919Z" fill="#1B78F2"/>
</svg>
