<svg width="25" height="35" viewBox="0 0 25 35" fill="none" xmlns="http://www.w3.org/2000/svg">
<ellipse cx="12.4788" cy="12.0006" rx="9.99885" ry="10.0006" fill="white"/>
<path d="M3.66376 3.9133C5.56576 1.86874 7.36112 0.83756 10.0808 0.197521C11.5917 -0.158056 14.5247 -0.0158269 16.1245 0.481981C18.1332 1.10424 19.5197 1.9754 21.1906 3.66439C23.6081 6.1001 24.6213 8.55358 24.6391 12.0382C24.6569 14.3317 24.4081 15.3806 23.3593 17.5319C22.595 19.1143 22.3639 19.3987 19.8575 21.8877C15.538 26.1902 13.4048 29.8882 12.7827 34.1374C12.7483 34.3814 12.3966 34.3804 12.3561 34.1374C11.6095 29.6571 9.60086 26.1902 5.29912 21.9055C2.36613 18.9897 1.70842 18.0119 0.908518 15.4162C0.375245 13.7094 0.339695 10.7582 0.801864 9.01583C1.31736 7.09571 2.27725 5.38895 3.66376 3.9133ZM6.85709 16.0468C6.99825 16.1732 7.15631 16.2121 7.33129 16.1635C7.60349 16.0857 7.81248 15.9836 7.95831 15.8572C8.10412 15.7308 8.30827 15.6675 8.57074 15.6675C8.9207 15.6675 9.19775 15.7649 9.40189 15.9593C9.60603 16.1538 9.9803 16.251 10.5246 16.251C11.0691 16.251 11.4433 16.1538 11.6474 15.9593C11.8516 15.7649 12.1287 15.6675 12.4786 15.6675C12.8286 15.6675 13.1056 15.7649 13.3098 15.9593C13.5139 16.1538 13.8882 16.251 14.4326 16.251C14.9769 16.251 15.3512 16.1538 15.5554 15.9593C15.7594 15.7649 16.0365 15.6675 16.3865 15.6675C16.6489 15.6675 16.8531 15.7308 16.9989 15.8572C17.1448 15.9836 17.3538 16.0857 17.6259 16.1635C17.8009 16.2121 17.959 16.1732 18.1002 16.0468C18.2409 15.9204 18.3113 15.7551 18.3113 15.5509C18.3113 15.4342 18.2701 15.3273 18.1877 15.23C18.1048 15.1328 17.9954 15.055 17.8593 14.9967C17.6648 14.9189 17.4729 14.8169 17.2836 14.6905C17.0938 14.5641 16.7948 14.5009 16.3865 14.5009C15.8421 14.5009 15.4679 14.5981 15.2637 14.7925C15.0596 14.987 14.7826 15.0842 14.4326 15.0842C14.0826 15.0842 13.8056 14.987 13.6014 14.7925C13.3973 14.5981 13.023 14.5009 12.4786 14.5009C11.9343 14.5009 11.56 14.5981 11.3558 14.7925C11.1517 14.987 10.8746 15.0842 10.5246 15.0842C10.1747 15.0842 9.89767 14.987 9.69352 14.7925C9.48938 14.5981 9.11512 14.5009 8.57074 14.5009C8.16244 14.5009 7.86362 14.5641 7.67425 14.6905C7.4845 14.8169 7.2924 14.9189 7.09799 14.9967C6.96189 15.055 6.85262 15.1352 6.77019 15.237C6.68736 15.3393 6.64596 15.4439 6.64596 15.5509C6.64596 15.7551 6.71634 15.9204 6.85709 16.0468ZM6.85709 13.4216C6.99825 13.548 7.15631 13.5869 7.33129 13.5383C7.60349 13.4605 7.81248 13.3584 7.95831 13.232C8.10412 13.1056 8.30827 13.0424 8.57074 13.0424C8.9207 13.0424 9.19056 13.1397 9.38031 13.3341C9.56967 13.5286 9.95113 13.6258 10.5246 13.6258C11.0982 13.6258 11.475 13.5286 11.655 13.3341C11.8347 13.1397 12.1093 13.0424 12.4786 13.0424C12.8286 13.0424 13.1033 13.1397 13.3028 13.3341C13.5019 13.5286 13.8785 13.6258 14.4326 13.6258C15.0061 13.6258 15.3876 13.5286 15.577 13.3341C15.7666 13.1397 16.0365 13.0424 16.3865 13.0424C16.6489 13.0424 16.8531 13.1056 16.9989 13.232C17.1448 13.3584 17.3538 13.4605 17.6259 13.5383C17.8009 13.5869 17.959 13.548 18.1002 13.4216C18.2409 13.2952 18.3113 13.1299 18.3113 12.9258C18.3113 12.8091 18.2701 12.7022 18.1877 12.6049C18.1048 12.5077 17.9954 12.4299 17.8593 12.3715C17.6648 12.2937 17.4729 12.1917 17.2836 12.0653C17.0938 11.9389 16.7948 11.8757 16.3865 11.8757C15.8421 11.8757 15.4679 11.9729 15.2637 12.1673C15.0596 12.3618 14.7826 12.4591 14.4326 12.4591C14.0826 12.4591 13.8056 12.3618 13.6014 12.1673C13.3973 11.9729 13.023 11.8757 12.4786 11.8757C11.9343 11.8757 11.56 11.9729 11.3558 12.1673C11.1517 12.3618 10.8746 12.4591 10.5246 12.4591C10.1844 12.4591 9.90991 12.3618 9.70111 12.1673C9.4919 11.9729 9.11512 11.8757 8.57074 11.8757C8.16244 11.8757 7.86362 11.9389 7.67425 12.0653C7.4845 12.1917 7.2924 12.2937 7.09799 12.3715C6.96189 12.4299 6.85262 12.5101 6.77019 12.6119C6.68736 12.7142 6.64596 12.8188 6.64596 12.9258C6.64596 13.1299 6.71634 13.2952 6.85709 13.4216ZM9.98516 10.9056C10.1407 10.969 10.3205 11.0007 10.5246 11.0007C10.8746 11.0007 11.1517 10.9035 11.3558 10.7089C11.56 10.5145 11.9343 10.4172 12.4786 10.4172C13.023 10.4172 13.3973 10.5145 13.6014 10.7089C13.8056 10.9035 14.0826 11.0007 14.4326 11.0007C14.6367 11.0007 14.8166 10.969 14.9721 10.9056C15.1276 10.8426 15.288 10.7576 15.4533 10.6506L11.7204 6.91707C11.3509 6.5476 10.9767 6.2777 10.5975 6.10735C10.2185 5.9374 9.77129 5.82811 9.25607 5.7795C9.06165 5.76005 8.8892 5.82072 8.73872 5.96151C8.58785 6.10269 8.5124 6.28022 8.5124 6.49412C8.5124 6.68859 8.58046 6.85621 8.71655 6.99699C8.85265 7.13816 9.01791 7.22334 9.21232 7.25251C9.55256 7.30112 9.85159 7.39835 10.1094 7.54419C10.3668 7.69004 10.617 7.88449 10.8601 8.12756L11.4433 8.71093L9.50396 10.6506C9.66922 10.7576 9.82961 10.8426 9.98516 10.9056ZM14.1847 8.24423C14.4666 8.5262 14.8117 8.66718 15.22 8.66718C15.6283 8.66718 15.9733 8.5262 16.2553 8.24423C16.5372 7.96227 16.6781 7.61711 16.6781 7.20876C16.6781 6.81011 16.5372 6.46729 16.2553 6.18028C15.9733 5.89365 15.6283 5.75033 15.22 5.75033C14.8117 5.75033 14.4666 5.89365 14.1847 6.18028C13.9028 6.46729 13.7618 6.81011 13.7618 7.20876C13.7618 7.61711 13.9028 7.96227 14.1847 8.24423Z" fill="#5E758D"/>
</svg>
