<svg width="24" height="34" viewBox="0 0 24 34" fill="none" xmlns="http://www.w3.org/2000/svg">
<path d="M3.39714 3.83703C5.23545 1.83231 6.97068 0.821238 9.59929 0.193672C11.0596 -0.154976 13.8944 -0.0155186 15.4406 0.472588C17.382 1.08272 18.7221 1.93691 20.3371 3.59299C22.6736 5.98122 23.6529 8.3869 23.6701 11.8036C23.6873 14.0524 23.4467 15.0809 22.4331 17.1902C21.6943 18.7418 21.4709 19.0206 19.0486 21.4612C14.8737 25.6798 12.812 29.3057 12.2107 33.4721C12.1775 33.7114 11.8376 33.7104 11.7983 33.4721C11.0768 29.0791 9.13541 25.6798 4.97774 21.4786C2.14297 18.6197 1.50729 17.6609 0.734171 15.1158C0.218758 13.4423 0.184397 10.5485 0.631088 8.84014C1.12932 6.95744 2.05706 5.28393 3.39714 3.83703ZM10.1772 5.40134C9.96575 5.1868 9.67902 5.06627 9.38 5.06627C9.08097 5.06627 8.7942 5.1868 8.58276 5.40134C8.37132 5.61588 8.25253 5.90686 8.25253 6.21027C8.25253 6.51368 8.37132 6.80466 8.58276 7.0192C8.7942 7.23374 9.08097 7.35428 9.38 7.35428C9.67902 7.35428 9.96575 7.23374 10.1772 7.0192C10.3886 6.80466 10.5074 6.51368 10.5074 6.21027C10.5074 5.90686 10.3886 5.61588 10.1772 5.40134ZM11.0228 8.26134C10.8114 8.0468 10.5246 7.92627 10.2256 7.92627H8.5344C8.23537 7.92627 7.94861 8.0468 7.73716 8.26134C7.52572 8.47588 7.40693 8.76687 7.40693 9.07028V12.2163H8.25253V16.5063H10.5074V12.2163H11.353V9.07028C11.353 8.76687 11.2343 8.47588 11.0228 8.26134ZM15.2508 5.40134C15.0394 5.1868 14.7526 5.06627 14.4536 5.06627C14.1546 5.06627 13.8678 5.1868 13.6563 5.40134C13.4449 5.61588 13.3261 5.90686 13.3261 6.21027C13.3261 6.51368 13.4449 6.80466 13.6563 7.0192C13.8678 7.23374 14.1546 7.35428 14.4536 7.35428C14.7526 7.35428 15.0394 7.23374 15.2508 7.0192C15.4622 6.80466 15.581 6.51368 15.581 6.21027C15.581 5.90686 15.4622 5.61588 15.2508 5.40134ZM13.608 13.0743V16.5063H15.2992V13.0743H16.9904L15.5303 8.73279C15.3894 8.26375 14.961 7.92627 14.4536 7.92627C13.9463 7.92627 13.5178 8.26375 13.3769 8.73279L11.9168 13.0743H13.608Z" fill="#299091"/>
</svg>
