<svg width="24" height="34" viewBox="0 0 24 34" fill="none" xmlns="http://www.w3.org/2000/svg">
<ellipse cx="11.7568" cy="11.7669" rx="7.7312" ry="7.84457" fill="white"/>
<path d="M3.23715 3.83703C5.07545 1.83231 6.81067 0.821238 9.43928 0.193672C10.8996 -0.154976 13.7343 -0.0155186 15.2806 0.472588C17.222 1.08272 18.5621 1.93691 20.177 3.59299C22.5136 5.98122 23.4929 8.3869 23.5101 11.8036C23.5273 14.0524 23.2867 15.0809 22.2731 17.1902C21.5344 18.7418 21.311 19.0206 18.8885 21.4612C14.7137 25.6798 12.652 29.3057 12.0507 33.4721C12.0174 33.7114 11.6776 33.7104 11.6384 33.4721C10.9168 29.0791 8.97541 25.6798 4.81774 21.4786C1.98297 18.6197 1.34729 17.6609 0.574175 15.1158C0.0587619 13.4423 0.0244006 10.5485 0.471093 8.84014C0.969325 6.95744 1.89707 5.28393 3.23715 3.83703ZM6.52817 10.4431C6.80065 10.7195 7.13419 10.8578 7.5288 10.8578C7.92341 10.8578 8.25696 10.7195 8.52943 10.4431C8.8019 10.1666 8.93813 9.82817 8.93813 9.42777C8.93813 9.02738 8.8019 8.68894 8.52943 8.41247C8.25696 8.13601 7.92341 7.99778 7.5288 7.99778C7.13419 7.99778 6.80065 8.13601 6.52817 8.41247C6.25571 8.68894 6.11947 9.02738 6.11947 9.42777C6.11947 9.82817 6.25571 10.1666 6.52817 10.4431ZM9.06497 8.15507C9.33745 8.43154 9.67099 8.56977 10.0656 8.56977C10.4602 8.56977 10.7938 8.43154 11.0662 8.15507C11.3387 7.87861 11.4749 7.54017 11.4749 7.13978C11.4749 6.73937 11.3387 6.40093 11.0662 6.12447C10.7938 5.848 10.4602 5.70977 10.0656 5.70977C9.67099 5.70977 9.33745 5.848 9.06497 6.12447C8.79251 6.40093 8.65627 6.73937 8.65627 7.13978C8.65627 7.54017 8.79251 7.87861 9.06497 8.15507ZM12.4474 8.15507C12.7198 8.43154 13.0534 8.56977 13.448 8.56977C13.8426 8.56977 14.1762 8.43154 14.4486 8.15507C14.7211 7.87861 14.8573 7.54017 14.8573 7.13978C14.8573 6.73937 14.7211 6.40093 14.4486 6.12447C14.1762 5.848 13.8426 5.70977 13.448 5.70977C13.0534 5.70977 12.7198 5.848 12.4474 6.12447C12.1749 6.40093 12.0387 6.73937 12.0387 7.13978C12.0387 7.54017 12.1749 7.87861 12.4474 8.15507ZM14.9842 10.4431C15.2566 10.7195 15.5902 10.8578 15.9848 10.8578C16.3794 10.8578 16.713 10.7195 16.9854 10.4431C17.2579 10.1666 17.3941 9.82817 17.3941 9.42777C17.3941 9.02738 17.2579 8.68894 16.9854 8.41247C16.713 8.13601 16.3794 7.99778 15.9848 7.99778C15.5902 7.99778 15.2566 8.13601 14.9842 8.41247C14.7117 8.68894 14.5755 9.02738 14.5755 9.42777C14.5755 9.82817 14.7117 10.1666 14.9842 10.4431ZM7.67707 16.0841C7.96344 16.4132 8.31803 16.5777 8.74083 16.5777C9.24819 16.5777 9.75085 16.5349 10.2488 16.4491C10.7468 16.3633 11.2494 16.3203 11.7568 16.3203C12.2642 16.3203 12.7668 16.3633 13.2648 16.4491C13.7628 16.5349 14.2654 16.5777 14.7727 16.5777C15.1955 16.5777 15.5503 16.4132 15.8371 16.0841C16.1235 15.7554 16.2667 15.367 16.2667 14.919C16.2667 14.4232 16.1 13.9895 15.7667 13.6177C15.4329 13.2459 15.1016 12.8788 14.7727 12.5166C14.5003 12.2115 14.263 11.8826 14.0608 11.5299C13.859 11.1771 13.6265 10.8483 13.3634 10.5432C13.1567 10.2953 12.9172 10.0951 12.6446 9.9426C12.3722 9.79003 12.0763 9.71378 11.7568 9.71378C11.4373 9.71378 11.1414 9.7948 10.869 9.95692C10.5964 10.1189 10.3569 10.3239 10.1502 10.5717C9.87774 10.8768 9.6428 11.2032 9.44549 11.551C9.24819 11.8992 9.0133 12.2211 8.74083 12.5166C8.41199 12.8788 8.08089 13.2459 7.74753 13.6177C7.4138 13.9895 7.24693 14.4232 7.24693 14.919C7.24693 15.367 7.39031 15.7554 7.67707 16.0841Z" fill="#BA272A"/>
</svg>
