<svg width="25" height="35" viewBox="0 0 25 35" fill="none" xmlns="http://www.w3.org/2000/svg">
<circle cx="12.092" cy="12.6589" r="10" fill="#7FA8D4"/>
<path d="M3.27617 3.91306C5.17839 1.86862 6.97394 0.837509 9.69394 0.197509C11.205 -0.158047 14.1383 -0.0158259 15.7383 0.481952C17.7472 1.10417 19.1339 1.97528 20.805 3.66417C23.2228 6.09973 24.2361 8.55306 24.2539 12.0375C24.2717 14.3308 24.0228 15.3797 22.9739 17.5308C22.2095 19.1131 21.9784 19.3975 19.4717 21.8864C15.1517 26.1886 13.0183 29.8864 12.3961 34.1353C12.3617 34.3793 12.01 34.3783 11.9695 34.1353C11.2228 29.6553 9.21394 26.1886 4.91172 21.9042C1.97839 18.9886 1.32061 18.0108 0.520612 15.4153C-0.0127207 13.7086 -0.0482767 10.7575 0.413946 9.01528C0.929501 7.09528 1.8895 5.38862 3.27617 3.91306ZM10.0504 15.9583V16.8333L12.092 16.25L14.1337 16.8333V15.9583L12.967 15.0833V11.875L17.9253 13.3333V12.1666L12.967 9.24998V6.04165C12.967 5.78887 12.8844 5.57984 12.7191 5.41457C12.5538 5.24929 12.3448 5.16665 12.092 5.16665C11.8392 5.16665 11.6302 5.24929 11.4649 5.41457C11.2996 5.57984 11.217 5.78887 11.217 6.04165V9.24998L6.25871 12.1666V13.3333L11.217 11.875V15.0833L10.0504 15.9583Z" fill="#54585C"/>
</svg>
