<svg width="26" height="35" viewBox="0 0 26 35" fill="none" xmlns="http://www.w3.org/2000/svg">
<circle cx="12.9293" cy="12.6589" r="10" fill="#5CBDC4"/>
<path d="M4.11345 3.91306C6.01567 1.86862 7.81123 0.837509 10.5312 0.197509C12.0423 -0.158047 14.9756 -0.0158259 16.5756 0.481952C18.5845 1.10417 19.9712 1.97528 21.6423 3.66417C24.0601 6.09973 25.0734 8.55306 25.0912 12.0375C25.109 14.3308 24.8601 15.3797 23.8112 17.5308C23.0468 19.1131 22.8157 19.3975 20.309 21.8864C15.989 26.1886 13.8556 29.8864 13.2334 34.1353C13.199 34.3793 12.8473 34.3783 12.8068 34.1353C12.0601 29.6553 10.0512 26.1886 5.749 21.9042C2.81567 18.9886 2.15789 18.0108 1.35789 15.4153C0.824559 13.7086 0.789004 10.7575 1.25123 9.01528C1.76678 7.09528 2.72678 5.38862 4.11345 3.91306ZM7.4387 16.4906C7.66717 16.7191 7.94182 16.8333 8.26265 16.8333H17.596C17.9168 16.8333 18.1915 16.7191 18.4199 16.4906C18.6484 16.2621 18.7626 15.9875 18.7626 15.6667V8.66666C18.7626 8.34583 18.6484 8.07118 18.4199 7.84271C18.1915 7.61423 17.9168 7.5 17.596 7.5H15.2626L13.3376 5.575C13.221 5.45833 13.0849 5.4 12.9293 5.4C12.7737 5.4 12.6376 5.45833 12.521 5.575L10.596 7.5H8.26265C7.94182 7.5 7.66717 7.61423 7.4387 7.84271C7.21022 8.07118 7.09599 8.34583 7.09599 8.66666V15.6667C7.09599 15.9875 7.21022 16.2621 7.4387 16.4906ZM11.4126 12.4729L12.4918 13.9167L14.0085 11.8896C14.0668 11.8118 14.1446 11.7729 14.2418 11.7729C14.339 11.7729 14.4168 11.8118 14.4751 11.8896L16.0793 14.0333C16.1571 14.1306 16.1668 14.2326 16.1085 14.3396C16.0501 14.4465 15.9626 14.5 15.846 14.5H10.0127C9.89599 14.5 9.80849 14.4465 9.75015 14.3396C9.69182 14.2326 9.70154 14.1306 9.77932 14.0333L10.946 12.4729C11.0043 12.3951 11.0821 12.3562 11.1793 12.3562C11.2765 12.3562 11.3543 12.3951 11.4126 12.4729ZM16.7574 11.3281C16.5873 11.4983 16.3807 11.5833 16.1376 11.5833C15.8946 11.5833 15.688 11.4983 15.5178 11.3281C15.3477 11.158 15.2626 10.9514 15.2626 10.7083C15.2626 10.4653 15.3477 10.2587 15.5178 10.0885C15.688 9.9184 15.8946 9.83333 16.1376 9.83333C16.3807 9.83333 16.5873 9.9184 16.7574 10.0885C16.9276 10.2587 17.0126 10.4653 17.0126 10.7083C17.0126 10.9514 16.9276 11.158 16.7574 11.3281ZM12.9293 6.39166L14.0376 7.5H11.821L12.9293 6.39166Z" fill="#54585C"/>
</svg>
