<svg width="25" height="35" viewBox="0 0 25 35" fill="none" xmlns="http://www.w3.org/2000/svg">
<circle cx="12.7666" cy="12" r="10" fill="#9B9BE0"/>
<path d="M3.95073 3.91306C5.85295 1.86862 7.6485 0.837509 10.3685 0.197509C11.8796 -0.158047 14.8129 -0.0158259 16.4129 0.481952C18.4218 1.10417 19.8085 1.97528 21.4796 3.66417C23.8974 6.09973 24.9107 8.55306 24.9285 12.0375C24.9463 14.3308 24.6974 15.3797 23.6485 17.5308C22.8841 19.1131 22.653 19.3975 20.1463 21.8864C15.8263 26.1886 13.6929 29.8864 13.0707 34.1353C13.0363 34.3793 12.6846 34.3783 12.6441 34.1353C11.8974 29.6553 9.8885 26.1886 5.58628 21.9042C2.65295 18.9886 1.99517 18.0108 1.19517 15.4153C0.66184 13.7086 0.626284 10.7575 1.08851 9.01528C1.60406 7.09528 2.56406 5.38862 3.95073 3.91306ZM18.5999 13.9166H6.93327V16.25H18.5999V13.9166ZM11.0166 8.08332H9.41243C8.71243 8.08332 8.1291 8.66665 8.1291 9.24998L7.80827 13.3333H17.7249L17.4333 9.24998C17.3166 8.66665 16.7333 8.08332 16.1499 8.08332H12.1833V7.49998H13.9333V5.74998H9.2666V7.49998H11.0166V8.08332ZM16.2666 10.4166H13.3499V9.24998H16.2666V10.4166ZM9.2666 9.83332V9.24998H10.4333V9.83332H9.2666ZM11.0166 9.83332V9.24998H12.1833V9.83332H11.0166ZM9.2666 11V10.4166H10.4333V11H9.2666ZM11.0166 11V10.4166H12.1833V11H11.0166ZM9.2666 12.1666V11.5833H10.4333V12.1666H9.2666ZM11.0166 12.1666V11.5833H12.1833V12.1666H11.0166ZM9.84993 6.91665V6.33332H13.3499V6.91665H9.84993Z" fill="#54585C"/>
</svg>
