<svg width="25" height="35" viewBox="0 0 25 35" fill="none" xmlns="http://www.w3.org/2000/svg">
<circle cx="12.6039" cy="12.6589" r="10" fill="white"/>
<path d="M3.78801 3.91306C5.69023 1.86862 7.48579 0.837509 10.2058 0.197509C11.7169 -0.158047 14.6502 -0.0158261 16.2502 0.481952C18.2591 1.10417 19.6458 1.97529 21.3169 3.66418C23.7347 6.09973 24.748 8.55307 24.7658 12.0375C24.7836 14.3308 24.5347 15.3797 23.4858 17.5308C22.7214 19.1131 22.4903 19.3975 19.9836 21.8864C15.6636 26.1886 13.5302 29.8864 12.908 34.1353C12.8736 34.3793 12.5219 34.3783 12.4814 34.1353C11.7347 29.6553 9.72579 26.1886 5.42356 21.9042C2.49023 18.9886 1.83245 18.0108 1.03245 15.4153C0.49912 13.7086 0.463565 10.7575 0.925787 9.01529C1.44134 7.09529 2.40134 5.38862 3.78801 3.91306ZM13.1872 7.5H12.0206V11.5833H13.1872V7.5ZM10.683 16.0791C10.7924 15.9698 10.8539 15.8214 10.8539 15.6667V12.1667C11.0086 12.1667 11.157 12.1052 11.2664 11.9958C11.3758 11.8864 11.4372 11.738 11.4372 11.5833V7.5H9.10388L7.93721 12.75V15.6667C7.93721 15.8214 7.99867 15.9698 8.10807 16.0791C8.21746 16.1885 8.36584 16.25 8.52055 16.25H10.2706C10.4253 16.25 10.5736 16.1885 10.683 16.0791ZM9.68721 6.91667H11.4372V5.75H9.68721V6.91667ZM14.3539 12.1667V15.6667C14.3539 15.8214 14.4154 15.9698 14.5248 16.0791C14.6342 16.1885 14.7825 16.25 14.9372 16.25H16.6872C16.8419 16.25 16.9903 16.1885 17.0997 16.0791C17.2091 15.9698 17.2706 15.8214 17.2706 15.6667V12.75L16.1039 7.5H13.7706V11.5833C13.7706 11.738 13.832 11.8864 13.9414 11.9958C14.0508 12.1052 14.1992 12.1667 14.3539 12.1667ZM13.7706 5.75V6.91667H15.5206V5.75H13.7706Z" fill="#54585C"/>
</svg>
