<svg xmlns="http://www.w3.org/2000/svg" xmlns:xlink="http://www.w3.org/1999/xlink" width="128" zoomAndPan="magnify" viewBox="0 0 96 95.999999" height="128" preserveAspectRatio="xMidYMid meet" version="1.0"><defs><g/><clipPath id="275594f48b"><path d="M 0.0898438 0 L 96.410156 0 L 96.410156 112.003906 L 0.0898438 112.003906 Z M 0.0898438 0 " clip-rule="nonzero"/></clipPath></defs><g clip-path="url(#275594f48b)"><path fill="#ffffff" d="M 0.0898438 0 L 96.410156 0 L 96.410156 112.003906 L 0.0898438 112.003906 Z M 0.0898438 0 " fill-opacity="1" fill-rule="nonzero"/><path fill="#212d31" d="M 0.0898438 0 L 96.410156 0 L 96.410156 112.003906 L 0.0898438 112.003906 Z M 0.0898438 0 " fill-opacity="1" fill-rule="nonzero"/></g><g fill="#5d5957" fill-opacity="1"><g transform="translate(19.876659, 59.734509)"><g><path d="M 3.75 0.109375 C 3.0625 0.109375 2.550781 -0.148438 2.21875 -0.671875 L 2.125 -0.640625 L 2.125 0 L 0.765625 0 L 0.765625 -7.515625 L 2.125 -7.515625 L 2.125 -4.734375 L 2.21875 -4.703125 C 2.40625 -4.960938 2.625 -5.15625 2.875 -5.28125 C 3.125 -5.40625 3.425781 -5.46875 3.78125 -5.46875 C 4.207031 -5.46875 4.582031 -5.363281 4.90625 -5.15625 C 5.238281 -4.945312 5.492188 -4.632812 5.671875 -4.21875 C 5.847656 -3.800781 5.9375 -3.285156 5.9375 -2.671875 C 5.9375 -2.066406 5.84375 -1.554688 5.65625 -1.140625 C 5.46875 -0.722656 5.207031 -0.410156 4.875 -0.203125 C 4.550781 0.00390625 4.175781 0.109375 3.75 0.109375 Z M 3.34375 -1.046875 C 3.738281 -1.046875 4.035156 -1.175781 4.234375 -1.4375 C 4.441406 -1.695312 4.546875 -2.109375 4.546875 -2.671875 C 4.546875 -3.242188 4.441406 -3.660156 4.234375 -3.921875 C 4.035156 -4.191406 3.738281 -4.328125 3.34375 -4.328125 C 2.957031 -4.328125 2.65625 -4.1875 2.4375 -3.90625 C 2.21875 -3.632812 2.109375 -3.222656 2.109375 -2.671875 C 2.109375 -2.128906 2.21875 -1.722656 2.4375 -1.453125 C 2.65625 -1.179688 2.957031 -1.046875 3.34375 -1.046875 Z M 3.34375 -1.046875 "/></g></g></g><g fill="#5d5957" fill-opacity="1"><g transform="translate(26.295811, 59.734509)"><g><path d="M 2.09375 0.109375 C 1.75 0.109375 1.445312 0.046875 1.1875 -0.078125 C 0.9375 -0.210938 0.742188 -0.398438 0.609375 -0.640625 C 0.472656 -0.890625 0.40625 -1.1875 0.40625 -1.53125 C 0.40625 -1.84375 0.472656 -2.109375 0.609375 -2.328125 C 0.742188 -2.546875 0.953125 -2.722656 1.234375 -2.859375 C 1.523438 -2.992188 1.898438 -3.097656 2.359375 -3.171875 C 2.679688 -3.222656 2.925781 -3.28125 3.09375 -3.34375 C 3.257812 -3.40625 3.367188 -3.472656 3.421875 -3.546875 C 3.484375 -3.628906 3.515625 -3.726562 3.515625 -3.84375 C 3.515625 -4.019531 3.453125 -4.148438 3.328125 -4.234375 C 3.210938 -4.328125 3.015625 -4.375 2.734375 -4.375 C 2.441406 -4.375 2.160156 -4.304688 1.890625 -4.171875 C 1.617188 -4.046875 1.382812 -3.875 1.1875 -3.65625 L 1.09375 -3.65625 L 0.53125 -4.5 C 0.800781 -4.800781 1.128906 -5.035156 1.515625 -5.203125 C 1.910156 -5.378906 2.34375 -5.46875 2.8125 -5.46875 C 3.519531 -5.46875 4.03125 -5.316406 4.34375 -5.015625 C 4.664062 -4.710938 4.828125 -4.285156 4.828125 -3.734375 L 4.828125 -1.40625 C 4.828125 -1.164062 4.929688 -1.046875 5.140625 -1.046875 C 5.222656 -1.046875 5.300781 -1.054688 5.375 -1.078125 L 5.453125 -1.0625 L 5.546875 -0.125 C 5.472656 -0.0703125 5.367188 -0.03125 5.234375 0 C 5.097656 0.0195312 4.953125 0.03125 4.796875 0.03125 C 4.472656 0.03125 4.222656 -0.0234375 4.046875 -0.140625 C 3.867188 -0.265625 3.738281 -0.457031 3.65625 -0.71875 L 3.5625 -0.734375 C 3.289062 -0.171875 2.800781 0.109375 2.09375 0.109375 Z M 2.515625 -0.90625 C 2.828125 -0.90625 3.078125 -1.007812 3.265625 -1.21875 C 3.453125 -1.425781 3.546875 -1.71875 3.546875 -2.09375 L 3.546875 -2.640625 L 3.453125 -2.65625 C 3.367188 -2.59375 3.257812 -2.535156 3.125 -2.484375 C 3 -2.441406 2.8125 -2.398438 2.5625 -2.359375 C 2.269531 -2.304688 2.0625 -2.222656 1.9375 -2.109375 C 1.8125 -1.992188 1.75 -1.828125 1.75 -1.609375 C 1.75 -1.378906 1.816406 -1.203125 1.953125 -1.078125 C 2.085938 -0.960938 2.273438 -0.90625 2.515625 -0.90625 Z M 2.515625 -0.90625 "/></g></g></g><g fill="#5d5957" fill-opacity="1"><g transform="translate(31.947192, 59.734509)"><g><path d="M 2.09375 0.109375 C 1.75 0.109375 1.445312 0.046875 1.1875 -0.078125 C 0.9375 -0.210938 0.742188 -0.398438 0.609375 -0.640625 C 0.472656 -0.890625 0.40625 -1.1875 0.40625 -1.53125 C 0.40625 -1.84375 0.472656 -2.109375 0.609375 -2.328125 C 0.742188 -2.546875 0.953125 -2.722656 1.234375 -2.859375 C 1.523438 -2.992188 1.898438 -3.097656 2.359375 -3.171875 C 2.679688 -3.222656 2.925781 -3.28125 3.09375 -3.34375 C 3.257812 -3.40625 3.367188 -3.472656 3.421875 -3.546875 C 3.484375 -3.628906 3.515625 -3.726562 3.515625 -3.84375 C 3.515625 -4.019531 3.453125 -4.148438 3.328125 -4.234375 C 3.210938 -4.328125 3.015625 -4.375 2.734375 -4.375 C 2.441406 -4.375 2.160156 -4.304688 1.890625 -4.171875 C 1.617188 -4.046875 1.382812 -3.875 1.1875 -3.65625 L 1.09375 -3.65625 L 0.53125 -4.5 C 0.800781 -4.800781 1.128906 -5.035156 1.515625 -5.203125 C 1.910156 -5.378906 2.34375 -5.46875 2.8125 -5.46875 C 3.519531 -5.46875 4.03125 -5.316406 4.34375 -5.015625 C 4.664062 -4.710938 4.828125 -4.285156 4.828125 -3.734375 L 4.828125 -1.40625 C 4.828125 -1.164062 4.929688 -1.046875 5.140625 -1.046875 C 5.222656 -1.046875 5.300781 -1.054688 5.375 -1.078125 L 5.453125 -1.0625 L 5.546875 -0.125 C 5.472656 -0.0703125 5.367188 -0.03125 5.234375 0 C 5.097656 0.0195312 4.953125 0.03125 4.796875 0.03125 C 4.472656 0.03125 4.222656 -0.0234375 4.046875 -0.140625 C 3.867188 -0.265625 3.738281 -0.457031 3.65625 -0.71875 L 3.5625 -0.734375 C 3.289062 -0.171875 2.800781 0.109375 2.09375 0.109375 Z M 2.515625 -0.90625 C 2.828125 -0.90625 3.078125 -1.007812 3.265625 -1.21875 C 3.453125 -1.425781 3.546875 -1.71875 3.546875 -2.09375 L 3.546875 -2.640625 L 3.453125 -2.65625 C 3.367188 -2.59375 3.257812 -2.535156 3.125 -2.484375 C 3 -2.441406 2.8125 -2.398438 2.5625 -2.359375 C 2.269531 -2.304688 2.0625 -2.222656 1.9375 -2.109375 C 1.8125 -1.992188 1.75 -1.828125 1.75 -1.609375 C 1.75 -1.378906 1.816406 -1.203125 1.953125 -1.078125 C 2.085938 -0.960938 2.273438 -0.90625 2.515625 -0.90625 Z M 2.515625 -0.90625 "/></g></g></g><g fill="#5d5957" fill-opacity="1"><g transform="translate(37.598572, 59.734509)"><g><path d="M 3.703125 -1.28125 L 4.046875 -0.28125 C 3.898438 -0.164062 3.71875 -0.0703125 3.5 0 C 3.28125 0.0703125 3.03125 0.109375 2.75 0.109375 C 2.164062 0.109375 1.722656 -0.046875 1.421875 -0.359375 C 1.128906 -0.679688 0.984375 -1.144531 0.984375 -1.75 L 0.984375 -4.296875 L 0.15625 -4.296875 L 0.15625 -5.359375 L 0.984375 -5.359375 L 0.984375 -6.40625 L 2.328125 -6.625 L 2.328125 -5.359375 L 3.84375 -5.359375 L 3.84375 -4.296875 L 2.328125 -4.296875 L 2.328125 -1.84375 C 2.328125 -1.582031 2.378906 -1.390625 2.484375 -1.265625 C 2.597656 -1.140625 2.757812 -1.078125 2.96875 -1.078125 C 3.207031 -1.078125 3.414062 -1.144531 3.59375 -1.28125 Z M 3.703125 -1.28125 "/></g></g></g><g fill="#5d5957" fill-opacity="1"><g transform="translate(41.763005, 59.734509)"><g><path d="M 3.109375 0.109375 C 2.585938 0.109375 2.128906 0 1.734375 -0.21875 C 1.335938 -0.4375 1.03125 -0.753906 0.8125 -1.171875 C 0.59375 -1.585938 0.484375 -2.085938 0.484375 -2.671875 C 0.484375 -3.265625 0.59375 -3.769531 0.8125 -4.1875 C 1.03125 -4.601562 1.335938 -4.921875 1.734375 -5.140625 C 2.128906 -5.359375 2.585938 -5.46875 3.109375 -5.46875 C 3.640625 -5.46875 4.101562 -5.359375 4.5 -5.140625 C 4.894531 -4.921875 5.203125 -4.601562 5.421875 -4.1875 C 5.640625 -3.769531 5.75 -3.265625 5.75 -2.671875 C 5.75 -2.085938 5.640625 -1.585938 5.421875 -1.171875 C 5.203125 -0.753906 4.894531 -0.4375 4.5 -0.21875 C 4.101562 0 3.640625 0.109375 3.109375 0.109375 Z M 3.109375 -1.046875 C 3.941406 -1.046875 4.359375 -1.585938 4.359375 -2.671875 C 4.359375 -3.242188 4.25 -3.660156 4.03125 -3.921875 C 3.820312 -4.191406 3.515625 -4.328125 3.109375 -4.328125 C 2.273438 -4.328125 1.859375 -3.773438 1.859375 -2.671875 C 1.859375 -1.585938 2.273438 -1.046875 3.109375 -1.046875 Z M 3.109375 -1.046875 "/></g></g></g><g fill="#5d5957" fill-opacity="1"><g transform="translate(47.992638, 59.734509)"><g/></g></g><g fill="#5d5957" fill-opacity="1"><g transform="translate(50.339689, 59.734509)"><g><path d="M 0.765625 0 L 0.765625 -5.359375 L 2.0625 -5.359375 L 2.0625 -4.640625 L 2.171875 -4.625 C 2.347656 -4.90625 2.550781 -5.113281 2.78125 -5.25 C 3.019531 -5.394531 3.320312 -5.46875 3.6875 -5.46875 C 4.09375 -5.46875 4.414062 -5.382812 4.65625 -5.21875 C 4.90625 -5.0625 5.085938 -4.828125 5.203125 -4.515625 L 5.296875 -4.515625 C 5.460938 -4.835938 5.675781 -5.078125 5.9375 -5.234375 C 6.195312 -5.390625 6.523438 -5.46875 6.921875 -5.46875 C 8.023438 -5.46875 8.578125 -4.847656 8.578125 -3.609375 L 8.578125 0 L 7.234375 0 L 7.234375 -3.4375 C 7.234375 -3.75 7.171875 -3.972656 7.046875 -4.109375 C 6.921875 -4.253906 6.722656 -4.328125 6.453125 -4.328125 C 5.710938 -4.328125 5.34375 -3.832031 5.34375 -2.84375 L 5.34375 0 L 4 0 L 4 -3.4375 C 4 -3.75 3.9375 -3.972656 3.8125 -4.109375 C 3.6875 -4.253906 3.488281 -4.328125 3.21875 -4.328125 C 2.875 -4.328125 2.601562 -4.207031 2.40625 -3.96875 C 2.21875 -3.738281 2.125 -3.375 2.125 -2.875 L 2.125 0 Z M 0.765625 0 "/></g></g></g><g fill="#5d5957" fill-opacity="1"><g transform="translate(59.611248, 59.734509)"><g><path d="M 2.09375 0.109375 C 1.75 0.109375 1.445312 0.046875 1.1875 -0.078125 C 0.9375 -0.210938 0.742188 -0.398438 0.609375 -0.640625 C 0.472656 -0.890625 0.40625 -1.1875 0.40625 -1.53125 C 0.40625 -1.84375 0.472656 -2.109375 0.609375 -2.328125 C 0.742188 -2.546875 0.953125 -2.722656 1.234375 -2.859375 C 1.523438 -2.992188 1.898438 -3.097656 2.359375 -3.171875 C 2.679688 -3.222656 2.925781 -3.28125 3.09375 -3.34375 C 3.257812 -3.40625 3.367188 -3.472656 3.421875 -3.546875 C 3.484375 -3.628906 3.515625 -3.726562 3.515625 -3.84375 C 3.515625 -4.019531 3.453125 -4.148438 3.328125 -4.234375 C 3.210938 -4.328125 3.015625 -4.375 2.734375 -4.375 C 2.441406 -4.375 2.160156 -4.304688 1.890625 -4.171875 C 1.617188 -4.046875 1.382812 -3.875 1.1875 -3.65625 L 1.09375 -3.65625 L 0.53125 -4.5 C 0.800781 -4.800781 1.128906 -5.035156 1.515625 -5.203125 C 1.910156 -5.378906 2.34375 -5.46875 2.8125 -5.46875 C 3.519531 -5.46875 4.03125 -5.316406 4.34375 -5.015625 C 4.664062 -4.710938 4.828125 -4.285156 4.828125 -3.734375 L 4.828125 -1.40625 C 4.828125 -1.164062 4.929688 -1.046875 5.140625 -1.046875 C 5.222656 -1.046875 5.300781 -1.054688 5.375 -1.078125 L 5.453125 -1.0625 L 5.546875 -0.125 C 5.472656 -0.0703125 5.367188 -0.03125 5.234375 0 C 5.097656 0.0195312 4.953125 0.03125 4.796875 0.03125 C 4.472656 0.03125 4.222656 -0.0234375 4.046875 -0.140625 C 3.867188 -0.265625 3.738281 -0.457031 3.65625 -0.71875 L 3.5625 -0.734375 C 3.289062 -0.171875 2.800781 0.109375 2.09375 0.109375 Z M 2.515625 -0.90625 C 2.828125 -0.90625 3.078125 -1.007812 3.265625 -1.21875 C 3.453125 -1.425781 3.546875 -1.71875 3.546875 -2.09375 L 3.546875 -2.640625 L 3.453125 -2.65625 C 3.367188 -2.59375 3.257812 -2.535156 3.125 -2.484375 C 3 -2.441406 2.8125 -2.398438 2.5625 -2.359375 C 2.269531 -2.304688 2.0625 -2.222656 1.9375 -2.109375 C 1.8125 -1.992188 1.75 -1.828125 1.75 -1.609375 C 1.75 -1.378906 1.816406 -1.203125 1.953125 -1.078125 C 2.085938 -0.960938 2.273438 -0.90625 2.515625 -0.90625 Z M 2.515625 -0.90625 "/></g></g></g><g fill="#5d5957" fill-opacity="1"><g transform="translate(65.262629, 59.734509)"><g><path d="M 0.765625 2.171875 L 0.765625 -5.359375 L 2.125 -5.359375 L 2.125 -4.65625 L 2.21875 -4.640625 C 2.375 -4.910156 2.582031 -5.113281 2.84375 -5.25 C 3.113281 -5.394531 3.429688 -5.46875 3.796875 -5.46875 C 4.222656 -5.46875 4.597656 -5.363281 4.921875 -5.15625 C 5.242188 -4.945312 5.492188 -4.632812 5.671875 -4.21875 C 5.847656 -3.800781 5.9375 -3.285156 5.9375 -2.671875 C 5.9375 -2.066406 5.84375 -1.554688 5.65625 -1.140625 C 5.46875 -0.722656 5.203125 -0.410156 4.859375 -0.203125 C 4.523438 0.00390625 4.140625 0.109375 3.703125 0.109375 C 3.367188 0.109375 3.078125 0.0507812 2.828125 -0.0625 C 2.585938 -0.175781 2.382812 -0.351562 2.21875 -0.59375 L 2.125 -0.5625 L 2.125 2.171875 Z M 3.328125 -1.046875 C 3.734375 -1.046875 4.035156 -1.175781 4.234375 -1.4375 C 4.441406 -1.695312 4.546875 -2.109375 4.546875 -2.671875 C 4.546875 -3.242188 4.441406 -3.660156 4.234375 -3.921875 C 4.035156 -4.191406 3.734375 -4.328125 3.328125 -4.328125 C 2.953125 -4.328125 2.65625 -4.1875 2.4375 -3.90625 C 2.21875 -3.632812 2.109375 -3.222656 2.109375 -2.671875 C 2.109375 -2.128906 2.21875 -1.722656 2.4375 -1.453125 C 2.65625 -1.179688 2.953125 -1.046875 3.328125 -1.046875 Z M 3.328125 -1.046875 "/></g></g></g><g fill="#5d5957" fill-opacity="1"><g transform="translate(71.681781, 59.734509)"><g><path d="M 2.5 0.109375 C 2.132812 0.109375 1.800781 0.0664062 1.5 -0.015625 C 1.195312 -0.109375 0.9375 -0.226562 0.71875 -0.375 C 0.507812 -0.53125 0.351562 -0.707031 0.25 -0.90625 L 0.984375 -1.703125 L 1.09375 -1.703125 C 1.269531 -1.460938 1.476562 -1.28125 1.71875 -1.15625 C 1.96875 -1.039062 2.234375 -0.984375 2.515625 -0.984375 C 2.773438 -0.984375 2.972656 -1.03125 3.109375 -1.125 C 3.242188 -1.21875 3.3125 -1.351562 3.3125 -1.53125 C 3.3125 -1.664062 3.257812 -1.78125 3.15625 -1.875 C 3.0625 -1.96875 2.910156 -2.039062 2.703125 -2.09375 L 2 -2.265625 C 1.46875 -2.390625 1.078125 -2.582031 0.828125 -2.84375 C 0.585938 -3.101562 0.46875 -3.429688 0.46875 -3.828125 C 0.46875 -4.160156 0.550781 -4.453125 0.71875 -4.703125 C 0.882812 -4.953125 1.125 -5.140625 1.4375 -5.265625 C 1.75 -5.398438 2.109375 -5.46875 2.515625 -5.46875 C 2.992188 -5.46875 3.390625 -5.394531 3.703125 -5.25 C 4.023438 -5.113281 4.28125 -4.925781 4.46875 -4.6875 L 3.734375 -3.921875 L 3.640625 -3.921875 C 3.492188 -4.085938 3.328125 -4.207031 3.140625 -4.28125 C 2.953125 -4.363281 2.742188 -4.40625 2.515625 -4.40625 C 1.984375 -4.40625 1.71875 -4.238281 1.71875 -3.90625 C 1.71875 -3.769531 1.765625 -3.65625 1.859375 -3.5625 C 1.960938 -3.476562 2.140625 -3.410156 2.390625 -3.359375 L 3.046875 -3.203125 C 3.597656 -3.085938 4 -2.898438 4.25 -2.640625 C 4.5 -2.390625 4.625 -2.046875 4.625 -1.609375 C 4.625 -1.265625 4.535156 -0.960938 4.359375 -0.703125 C 4.191406 -0.453125 3.945312 -0.253906 3.625 -0.109375 C 3.3125 0.0351562 2.9375 0.109375 2.5 0.109375 Z M 2.5 0.109375 "/></g></g></g></svg>
