<svg width="25" height="35" viewBox="0 0 25 35" fill="none" xmlns="http://www.w3.org/2000/svg">
<circle cx="12.4412" cy="11.6589" r="10" fill="#FAA264"/>
<path d="M3.62529 3.91306C5.52751 1.86862 7.32306 0.837508 10.0431 0.197509C11.5542 -0.158048 14.4875 -0.0158243 16.0875 0.481952C18.0964 1.10417 19.4831 1.97528 21.1542 3.66417C23.572 6.09973 24.5853 8.55306 24.6031 12.0375C24.6209 14.3308 24.372 15.3797 23.3231 17.5308C22.5587 19.1131 22.3276 19.3975 19.8209 21.8864C15.5009 26.1886 13.3675 29.8864 12.7453 34.1353C12.7109 34.3793 12.3592 34.3783 12.3187 34.1353C11.572 29.6553 9.56306 26.1886 5.26084 21.9042C2.32751 18.9886 1.66973 18.0108 0.869733 15.4153C0.3364 13.7086 0.300845 10.7575 0.763067 9.01529C1.27862 7.09529 2.23862 5.38862 3.62529 3.91306ZM7.21449 14.9083C7.27866 15.4567 7.58783 16.8333 8.35783 16.8333C9.10856 16.8333 9.87073 16.2845 10.4519 15.866L10.4695 15.8533C11.4271 15.1534 12.3246 14.3748 13.1529 13.5258C14.7166 12.0455 16.062 10.3505 17.1487 8.49165C17.5581 7.87709 17.734 7.1363 17.6445 6.40332C17.3762 5.01498 15.8537 5.06165 14.7512 5.31832C14.1602 5.39545 13.6057 5.64733 13.1587 6.04165C12.9327 6.33219 13.126 6.37116 13.3726 6.42086C13.4379 6.43402 13.5069 6.44794 13.5729 6.46748C13.8612 6.54768 14.1392 6.66123 14.4012 6.80582C14.7745 7.02165 15.6495 7.91998 14.8095 8.17665C14.5498 8.26478 14.2716 8.12793 14.0189 8.00364C13.9539 7.97162 13.8905 7.94044 13.8295 7.91415C13.3643 7.70625 12.877 7.55165 12.377 7.45332C11.4087 7.27832 10.3995 7.49998 10.3995 8.66665C11.257 8.66665 12.6979 8.73665 13.2054 9.59998C13.4154 9.96748 13.3162 10.4692 12.832 10.51C12.6161 10.5257 12.3922 10.4172 12.18 10.3143C12.0769 10.2644 11.9766 10.2157 11.8812 10.1833C11.4023 10.0151 10.9048 9.90545 10.3995 9.85665C9.54783 9.77498 8.35783 9.91498 8.35783 11C9.10449 11 10.9304 11.0175 11.187 12.0208C11.209 12.1408 11.1995 12.2644 11.1594 12.3797C11.1194 12.4949 11.0502 12.5978 10.9585 12.6783C10.8668 12.7588 10.7559 12.8141 10.6364 12.839C10.517 12.8638 10.3931 12.8573 10.277 12.82C10.062 12.7713 9.86315 12.6902 9.66658 12.6099C9.29792 12.4595 8.93714 12.3122 8.49199 12.3883C8.24381 12.4377 8.01273 12.5507 7.82148 12.7164C7.63023 12.8821 7.48537 13.0947 7.40116 13.3333C7.20955 13.8348 7.14541 14.376 7.21449 14.9083Z" fill="#54585C"/>
</svg>
