<svg width="25" height="35" viewBox="0 0 25 35" fill="none" xmlns="http://www.w3.org/2000/svg">
<circle cx="12.0001" cy="12" r="10" fill="#9B9BE0"/>
<path fill-rule="evenodd" clip-rule="evenodd" d="M3.18419 3.91302C5.08641 1.86857 6.88197 0.837463 9.60197 0.197463C11.1131 -0.158093 14.0464 -0.0158719 15.6464 0.481906C17.6553 1.10413 19.042 1.97524 20.7131 3.66413C23.1309 6.09968 24.1442 8.55302 24.162 12.0375C24.1797 14.3308 23.9309 15.3797 22.882 17.5308C22.1175 19.113 21.8864 19.3975 19.3797 21.8864C15.0597 26.1886 12.9264 29.8864 12.3042 34.1352C12.2698 34.3792 11.918 34.3783 11.8775 34.1352C11.1309 29.6552 9.12197 26.1886 4.81974 21.9041C1.88641 18.9886 1.22863 18.0108 0.428632 15.4152C-0.104701 13.7086 -0.140256 10.7575 0.321966 9.01524C0.837521 7.09524 1.79752 5.38857 3.18419 3.91302ZM6.17115 8.41244C6.20631 8.38666 7.51178 7.61088 9.07506 6.6851C11.2032 5.4265 11.9368 5.00463 11.9954 5.00228C12.0563 4.99994 12.6446 5.33744 14.9368 6.68978C16.5118 7.61791 17.8243 8.40541 17.8547 8.43822C17.9157 8.50619 17.911 8.5976 17.843 8.64916C17.7821 8.69603 6.21569 8.69369 6.1524 8.64681C6.08444 8.5976 6.09615 8.46869 6.17115 8.41244ZM12.3563 7.72572C13.0383 7.40463 13.043 6.46009 12.3657 6.139C12.1805 6.05228 11.9297 6.03588 11.7399 6.09681C11.4774 6.18588 11.2758 6.37806 11.1774 6.63588C11.1071 6.82806 11.1212 7.11869 11.2126 7.30384C11.3016 7.48666 11.454 7.63666 11.6438 7.72572C11.7821 7.79135 11.8243 7.80072 12.0001 7.80072C12.1758 7.80072 12.218 7.79135 12.3563 7.72572ZM11.7962 6.34291C11.5407 6.439 11.3907 6.65228 11.3907 6.9265C11.3907 7.11869 11.4329 7.22884 11.5501 7.35072C11.6907 7.49603 11.7962 7.54291 12.0001 7.54291C12.1993 7.54291 12.3141 7.49603 12.4454 7.36244C12.7571 7.05306 12.6258 6.49525 12.211 6.34759C12.0938 6.30541 11.9016 6.30541 11.7962 6.34291ZM6.76178 9.28197C6.70084 9.19994 6.63287 9.01947 6.63287 8.93275C6.63287 8.89291 6.80397 8.89056 12.0001 8.89056H17.3672L17.3532 8.989C17.3204 9.214 17.1797 9.39447 16.9946 9.45072C16.9454 9.46478 16.7672 9.4765 16.5962 9.4765H16.2891V9.58197C16.2891 9.77181 16.1696 9.94759 16.0172 9.98978L15.9493 10.0062L15.9446 12.0921L15.9399 14.1757L16.0547 14.2296C16.1977 14.2953 16.2704 14.4078 16.2844 14.5742L16.2938 14.6984L16.6266 14.7078C16.9032 14.7171 16.9735 14.7265 17.0508 14.7663C17.2172 14.8531 17.3227 15.0007 17.3555 15.1882L17.3719 15.289H12.0047H6.63522L6.64928 15.1999C6.67975 14.9703 6.85787 14.7757 7.07819 14.7288C7.14381 14.7148 7.31256 14.7031 7.45319 14.7031H7.711V14.6046C7.711 14.464 7.79069 14.314 7.90084 14.2507L7.99225 14.1992V12.0992V9.99916L7.90553 9.94291C7.77194 9.85619 7.7274 9.7765 7.71569 9.61713L7.70631 9.4765H7.38522C7.09928 9.4765 7.05475 9.46947 6.94694 9.42025C6.88131 9.38978 6.79694 9.3265 6.76178 9.28197ZM14.1212 9.96869C13.9805 9.90072 13.8985 9.76478 13.8985 9.59838V9.4765H12.0118C10.1555 9.4765 10.1251 9.4765 10.1251 9.52338C10.1251 9.75541 9.9985 9.94759 9.80631 9.99681L9.70319 10.0249V12.1062C9.70319 14.1851 9.70319 14.1874 9.75006 14.1874C9.82975 14.1874 9.9774 14.2742 10.0337 14.3562C10.0712 14.4054 10.0899 14.4734 10.0969 14.5671L10.1063 14.7031H12.0001H13.8938L13.9032 14.5648C13.9149 14.3984 13.9876 14.2882 14.1305 14.2226L14.2266 14.1804V12.0992V10.0203L14.1212 9.96869ZM11.5688 9.97338C11.5454 10.0085 11.5313 10.0788 11.5313 10.1726V10.3179L11.4047 10.3437C11.2337 10.3788 10.9782 10.5054 10.8493 10.6203C10.5282 10.9062 10.4321 11.539 10.6407 11.9749C10.7649 12.2304 11.0344 12.4249 11.3672 12.4999C11.4376 12.5163 11.6977 12.5304 11.9415 12.5351C12.4922 12.5421 12.5391 12.5562 12.5391 12.7296C12.5391 12.8913 12.4993 12.9499 12.3633 12.9968C12.0985 13.0882 11.6954 13.0343 11.3368 12.8585C11.0391 12.7132 11.0368 12.7132 10.8305 13.114C10.6805 13.4023 10.6758 13.414 10.711 13.4773C10.7579 13.5593 11.1165 13.7445 11.3532 13.8078L11.5196 13.8523L11.5313 14.0281L11.5321 14.04C11.5384 14.1409 11.5422 14.1996 11.573 14.2337C11.616 14.2813 11.7116 14.2812 11.9404 14.2812L11.9626 14.2812C12.1571 14.2812 12.3282 14.2718 12.3422 14.2624C12.3938 14.2296 12.4219 14.1406 12.4219 14.0187V13.8945L12.6305 13.8288C13.1883 13.6601 13.4274 13.2992 13.4016 12.6687C13.3876 12.357 13.3337 12.1999 13.1719 12.0242C12.9282 11.757 12.6797 11.6796 12.0212 11.6656C11.768 11.6609 11.5313 11.6468 11.4985 11.6328C11.4633 11.621 11.4258 11.5835 11.4141 11.5531C11.393 11.4921 11.4071 11.3445 11.4422 11.2765C11.4727 11.2156 11.679 11.164 11.8805 11.164C12.1313 11.164 12.3469 11.2156 12.6094 11.3398C12.7922 11.4242 12.8485 11.4429 12.893 11.4242C12.9329 11.4101 12.9915 11.321 13.0969 11.1242C13.268 10.7913 13.2797 10.7187 13.1672 10.6484C13.0196 10.557 12.7547 10.4398 12.5766 10.3859L12.3985 10.3343V10.1726C12.3985 10.1645 12.3985 10.1567 12.3985 10.1492C12.3987 10.0555 12.3988 10.0003 12.3717 9.96794C12.333 9.92166 12.2389 9.9217 12.0104 9.9218C11.9995 9.92181 11.9882 9.92181 11.9766 9.92181C11.618 9.92181 11.604 9.92416 11.5688 9.97338ZM6.10553 15.746C6.1524 15.671 6.211 15.6148 6.27897 15.5773L6.38209 15.5234H12.0001H17.618L17.7212 15.5773C17.7891 15.6148 17.8477 15.671 17.8946 15.746L17.9649 15.8585L17.9719 16.3671C17.979 16.8523 17.9766 16.8757 17.9297 16.9367L17.8805 16.9999H12.0001H6.11959L6.07037 16.9367C6.0235 16.8757 6.02115 16.8523 6.02819 16.3671L6.03522 15.8585L6.10553 15.746Z" fill="#54585C"/>
</svg>
