<svg width="25" height="35" viewBox="0 0 25 35" fill="none" xmlns="http://www.w3.org/2000/svg">
<circle cx="12.1157" cy="11" r="10" fill="#FAA264"/>
<path fill-rule="evenodd" clip-rule="evenodd" d="M3.29985 3.91306C5.20207 1.86862 6.99763 0.837509 9.71763 0.197509C11.2287 -0.158047 14.1621 -0.0158261 15.7621 0.481952C17.771 1.10417 19.1576 1.97528 20.8287 3.66417C23.2465 6.09973 24.2598 8.55306 24.2776 12.0375C24.2954 14.3308 24.0465 15.3797 22.9976 17.5308C22.2332 19.1131 22.0021 19.3975 19.4954 21.8864C15.1754 26.1886 13.0421 29.8864 12.4198 34.1353C12.3854 34.3793 12.0337 34.3783 11.9932 34.1353C11.2465 29.6553 9.23763 26.1886 4.93541 21.9042C2.00207 18.9886 1.34429 18.0108 0.544294 15.4153C0.0109607 13.7086 -0.0245948 10.7575 0.437627 9.01529C0.953183 7.09529 1.91318 5.38862 3.29985 3.91306ZM9.83172 17.792C9.97522 17.9307 10.1532 18 10.3657 18H14.8657C15.0782 18 15.2565 17.9307 15.4005 17.792C15.544 17.6538 15.6157 17.4824 15.6157 17.2778C15.6157 17.0732 15.544 16.9017 15.4005 16.7636C15.2565 16.6249 15.0782 16.5556 14.8657 16.5556H13.3657V13.5944C14.4407 13.4259 15.3345 12.9444 16.047 12.15C16.7595 11.3556 17.1157 10.4167 17.1157 9.33334V5.72223C17.1157 5.5176 17.0437 5.34595 16.8997 5.20728C16.7562 5.0691 16.5782 5 16.3657 5H8.86572C8.65322 5 8.47497 5.0691 8.33097 5.20728C8.18747 5.34595 8.11572 5.5176 8.11572 5.72223V9.33334C8.11572 10.4167 8.47197 11.3556 9.18447 12.15C9.89697 12.9444 10.7907 13.4259 11.8657 13.5944V16.5556H10.3657C10.1532 16.5556 9.97522 16.6249 9.83172 16.7636C9.68772 16.9017 9.61572 17.0732 9.61572 17.2778C9.61572 17.4824 9.68772 17.6538 9.83172 17.792ZM15.6157 8.61111H9.61572V6.44445H15.6157V8.61111Z" fill="#54585C"/>
</svg>
