<svg width="26" height="35" viewBox="0 0 26 35" fill="none" xmlns="http://www.w3.org/2000/svg">
<circle cx="12.9529" cy="11.6589" r="10" fill="#FAA264"/>
<path d="M4.13701 3.91306C6.03923 1.86862 7.83479 0.837509 10.5548 0.197509C12.0659 -0.158047 14.9992 -0.0158259 16.5992 0.481952C18.6081 1.10417 19.9948 1.97528 21.6659 3.66417C24.0837 6.09973 25.097 8.55306 25.1148 12.0375C25.1325 14.3308 24.8837 15.3797 23.8348 17.5308C23.0703 19.1131 22.8392 19.3975 20.3325 21.8864C16.0125 26.1886 13.8792 29.8864 13.257 34.1353C13.2226 34.3793 12.8708 34.3783 12.8303 34.1353C12.0837 29.6553 10.0748 26.1886 5.77256 21.9042C2.83923 18.9886 2.18145 18.0108 1.38145 15.4153C0.848119 13.7086 0.812564 10.7575 1.27479 9.01528C1.79034 7.09528 2.75034 5.38862 4.13701 3.91306ZM9.79588 15.9076C10.0242 16.1358 10.2987 16.25 10.6195 16.25H14.7029C15.0237 16.25 15.2984 16.1358 15.5271 15.9076C15.7554 15.6789 15.8695 15.4041 15.8695 15.0833H17.0362C17.357 15.0833 17.6318 14.9692 17.8604 14.7409C18.0887 14.5122 18.2029 14.2375 18.2029 13.9166V10.4166C18.2029 10.0958 18.0887 9.82107 17.8604 9.5924C17.6318 9.36412 17.357 9.24998 17.0362 9.24998H16.132C16.239 9.07498 16.3193 8.89026 16.3729 8.69582C16.4262 8.50137 16.4529 8.2972 16.4529 8.08332C16.4529 7.44165 16.2244 6.89234 15.7674 6.4354C15.3105 5.97846 14.7612 5.74998 14.1195 5.74998C14.0126 5.74998 13.9154 5.75718 13.8279 5.77157C13.7404 5.78634 13.648 5.80345 13.5508 5.8229C13.3077 5.62845 13.0378 5.4729 12.7411 5.35623C12.4448 5.23957 12.1265 5.18123 11.7862 5.18123C11.232 5.18123 10.7339 5.32707 10.2917 5.61873C9.84916 5.9104 9.51608 6.28957 9.29246 6.75623C8.8258 6.91179 8.4443 7.18887 8.14796 7.58748C7.85124 7.98609 7.70288 8.44304 7.70288 8.95832C7.70288 9.50276 7.86816 9.97915 8.19871 10.3875C8.52927 10.7958 8.94733 11.068 9.45288 11.2041V15.0833C9.45288 15.4041 9.56721 15.6789 9.79588 15.9076ZM9.21255 9.78198C8.98388 9.5537 8.86955 9.27915 8.86955 8.95832C8.86955 8.70554 8.94247 8.4794 9.0883 8.2799C9.23413 8.08079 9.42858 7.94234 9.67163 7.86457L10.1383 7.70415L10.3425 7.26665C10.4786 6.9847 10.6755 6.76109 10.9334 6.59582C11.1908 6.43054 11.4751 6.3479 11.7862 6.3479C12.0195 6.3479 12.2214 6.38912 12.3917 6.47157C12.5616 6.5544 12.7001 6.63957 12.807 6.72707L13.2591 7.10623L13.507 7.01115C13.6723 6.94815 13.8765 6.91665 14.1195 6.91665C14.4404 6.91665 14.7151 7.03098 14.9438 7.25965C15.1721 7.48793 15.2862 7.76248 15.2862 8.08332H13.5362C13.0404 8.08332 12.6394 8.19259 12.3334 8.41115C12.0269 8.63009 11.7522 8.87082 11.5091 9.13332C11.2758 9.38609 11.0498 9.61457 10.8313 9.81873C10.6123 10.0229 10.3473 10.125 10.0362 10.125C9.71538 10.125 9.44083 10.0106 9.21255 9.78198ZM17.0362 13.9166H15.8695V10.4166H17.0362V13.9166Z" fill="#54585C"/>
</svg>
