<svg width="25" height="35" viewBox="0 0 25 35" fill="none" xmlns="http://www.w3.org/2000/svg">
<circle cx="12" cy="12" r="10" fill="white"/>
<path fill-rule="evenodd" clip-rule="evenodd" d="M3.18413 3.91305C5.08635 1.86861 6.8819 0.837498 9.60191 0.197497C11.113 -0.158058 14.0463 -0.0158375 15.6463 0.48194C17.6552 1.10416 19.0419 1.97527 20.713 3.66416C23.1308 6.09972 24.1441 8.55305 24.1619 12.0375C24.1797 14.3308 23.9308 15.3797 22.8819 17.5308C22.1175 19.1131 21.8864 19.3975 19.3797 21.8864C15.0597 26.1886 12.9263 29.8864 12.3041 34.1353C12.2697 34.3793 11.918 34.3783 11.8775 34.1353C11.1308 29.6553 9.1219 26.1886 4.81968 21.9042C1.88635 18.9886 1.22857 18.0108 0.428571 15.4153C-0.104762 13.7086 -0.140317 10.7575 0.321905 9.01528C0.83746 7.09527 1.79746 5.38861 3.18413 3.91305ZM8.36367 9.84364V12.0909H6.90912V8.97091C7.35276 9.31273 7.84003 9.60364 8.36367 9.84364ZM5.45458 15H6.90912V13.5455H17.0909V15H18.5455V13.5455H20V12.0909H18.5455V7H17.0909V8.04C15.7818 9.18182 13.9855 9.90909 12 9.90909C10.0146 9.90909 8.21821 9.18182 6.90912 8.04V7H5.45458V12.0909H4.00003V13.5455H5.45458V15ZM15.6364 12.0909V9.84364C16.16 9.60364 16.6473 9.31273 17.0909 8.97091V12.0909H15.6364ZM14.9091 10.1418V12.0909H13.4546V10.52C13.9564 10.4327 14.4437 10.3091 14.9091 10.1418ZM12.7273 10.6073V12.0909H11.2728V10.6073L12 10.6364L12.7273 10.6073ZM10.5455 10.52V12.0909H9.09094V10.1418C9.55639 10.3091 10.0437 10.4327 10.5455 10.52Z" fill="#54585C"/>
</svg>
