<svg width="25" height="35" viewBox="0 0 25 35" fill="none" xmlns="http://www.w3.org/2000/svg">
<circle cx="12.7901" cy="13" r="10" fill="#7FA8D4"/>
<path d="M3.97423 3.91306C5.87645 1.86862 7.67201 0.837509 10.392 0.197509C11.9031 -0.158047 14.8364 -0.015826 16.4364 0.481952C18.4453 1.10417 19.832 1.97528 21.5031 3.66417C23.9209 6.09973 24.9342 8.55306 24.952 12.0375C24.9698 14.3308 24.7209 15.3797 23.672 17.5308C22.9076 19.1131 22.6765 19.3975 20.1698 21.8864C15.8498 26.1886 13.7164 29.8864 13.0942 34.1353C13.0598 34.3793 12.7081 34.3783 12.6676 34.1353C11.9209 29.6553 9.91201 26.1886 5.60978 21.9042C2.67645 18.9886 2.01867 18.0108 1.21867 15.4153C0.685338 13.7086 0.649783 10.7575 1.112 9.01529C1.62756 7.09529 2.58756 5.38862 3.97423 3.91306ZM8.74876 17.708C8.94298 17.9027 9.17898 18 9.45676 18C9.73454 18 9.97054 17.9027 10.1648 17.708C10.3594 17.5138 10.4568 17.2778 10.4568 17V16.6667H15.7901V17C15.7901 17.2778 15.8874 17.5138 16.0821 17.708C16.2763 17.9027 16.5123 18 16.7901 18C17.0679 18 17.3039 17.9027 17.4981 17.708C17.6928 17.5138 17.7901 17.2778 17.7901 17V15.9667C17.9901 15.7444 18.1512 15.4971 18.2734 15.2247C18.3957 14.9527 18.4568 14.6556 18.4568 14.3333V8C18.4568 7.04444 18.0457 6.36111 17.2234 5.95C16.4012 5.53889 15.0345 5.33333 13.1234 5.33333C11.279 5.33333 9.92898 5.54711 9.07343 5.97466C8.21787 6.40266 7.7901 7.07778 7.7901 8V14.3333C7.7901 14.6556 7.85121 14.9527 7.97343 15.2247C8.09565 15.4971 8.25676 15.7444 8.45676 15.9667V17C8.45676 17.2778 8.5541 17.5138 8.74876 17.708ZM17.1234 8.66667V10.6667H9.12343V8.66667H17.1234ZM11.4981 14.3747C11.3039 14.5693 11.0679 14.6667 10.7901 14.6667C10.5123 14.6667 10.2763 14.5693 10.0821 14.3747C9.88743 14.1804 9.7901 13.9444 9.7901 13.6667C9.7901 13.3889 9.88743 13.1529 10.0821 12.9587C10.2763 12.764 10.5123 12.6667 10.7901 12.6667C11.0679 12.6667 11.3039 12.764 11.4981 12.9587C11.6928 13.1529 11.7901 13.3889 11.7901 13.6667C11.7901 13.9444 11.6928 14.1804 11.4981 14.3747ZM16.1648 14.3747C15.9705 14.5693 15.7345 14.6667 15.4568 14.6667C15.179 14.6667 14.943 14.5693 14.7488 14.3747C14.5541 14.1804 14.4568 13.9444 14.4568 13.6667C14.4568 13.3889 14.5541 13.1529 14.7488 12.9587C14.943 12.764 15.179 12.6667 15.4568 12.6667C15.7345 12.6667 15.9705 12.764 16.1648 12.9587C16.3594 13.1529 16.4568 13.3889 16.4568 13.6667C16.4568 13.9444 16.3594 14.1804 16.1648 14.3747Z" fill="#54585C"/>
</svg>
