<svg width="25" height="35" viewBox="0 0 25 35" fill="none" xmlns="http://www.w3.org/2000/svg">
<circle cx="12.6273" cy="12" r="10" fill="#FAA264"/>
<path d="M3.81145 3.91306C5.71367 1.86862 7.50923 0.837509 10.2292 0.197509C11.7403 -0.158047 14.6737 -0.0158259 16.2737 0.481952C18.2825 1.10417 19.6692 1.97528 21.3403 3.66417C23.7581 6.09973 24.7714 8.55306 24.7892 12.0375C24.807 14.3308 24.5581 15.3797 23.5092 17.5308C22.7448 19.1131 22.5137 19.3975 20.007 21.8864C15.687 26.1886 13.5537 29.8864 12.9314 34.1353C12.897 34.3793 12.5453 34.3783 12.5048 34.1353C11.7581 29.6553 9.74923 26.1886 5.447 21.9042C2.51367 18.9886 1.85589 18.0108 1.05589 15.4153C0.522557 13.7086 0.487002 10.7575 0.949224 9.01528C1.46478 7.09528 2.42478 5.38862 3.81145 3.91306ZM8.12807 16.082C8.24007 16.194 8.37871 16.25 8.54399 16.25H16.7106C16.8759 16.25 17.0144 16.194 17.126 16.082C17.238 15.9704 17.294 15.8319 17.294 15.6666C17.294 15.5014 17.238 15.3629 17.126 15.2513C17.0144 15.1393 16.8759 15.0833 16.7106 15.0833H8.54399C8.37871 15.0833 8.24007 15.1393 8.12807 15.2513C8.01646 15.3629 7.96065 15.5014 7.96065 15.6666C7.96065 15.8319 8.01646 15.9704 8.12807 16.082ZM8.64607 13.2312C9.10302 13.6882 9.65232 13.9166 10.294 13.9166H13.794C14.4356 13.9166 14.985 13.6882 15.4419 13.2312C15.8988 12.7743 16.1273 12.225 16.1273 11.5833V9.83332H17.294C17.6148 9.83332 17.8896 9.71898 18.1182 9.49032C18.3465 9.26204 18.4606 8.98748 18.4606 8.66665V6.91665C18.4606 6.59582 18.3465 6.32107 18.1182 6.0924C17.8896 5.86412 17.6148 5.74998 17.294 5.74998H9.12732C8.80649 5.74998 8.53193 5.86412 8.30365 6.0924C8.07499 6.32107 7.96065 6.59582 7.96065 6.91665V11.5833C7.96065 12.225 8.18913 12.7743 8.64607 13.2312ZM17.294 8.66665H16.1273V6.91665H17.294V8.66665Z" fill="#54585C"/>
</svg>
