<svg width="25" height="35" viewBox="0 0 25 35" fill="none" xmlns="http://www.w3.org/2000/svg">
<circle cx="12.4645" cy="12" r="10" fill="#80D980"/>
<path d="M3.64867 3.91306C5.55089 1.86862 7.34644 0.837509 10.0664 0.197509C11.5775 -0.158047 14.5108 -0.0158261 16.1108 0.481952C18.1197 1.10417 19.5064 1.97529 21.1775 3.66418C23.5953 6.09973 24.6086 8.55307 24.6264 12.0375C24.6442 14.3308 24.3953 15.3797 23.3464 17.5308C22.582 19.1131 22.3509 19.3975 19.8442 21.8864C15.5242 26.1886 13.3908 29.8864 12.7686 34.1353C12.7342 34.3793 12.3825 34.3783 12.342 34.1353C11.5953 29.6553 9.58644 26.1886 5.28422 21.9042C2.35089 18.9886 1.69311 18.0108 0.89311 15.4153C0.359777 13.7086 0.324221 10.7575 0.786444 9.01529C1.302 7.09529 2.262 5.38862 3.64867 3.91306ZM6.63121 14.5V16.25C6.63121 16.4153 6.68721 16.5537 6.79921 16.6653C6.91082 16.7773 7.04926 16.8333 7.21454 16.8333H17.7145C17.8798 16.8333 18.0182 16.7773 18.1298 16.6653C18.2418 16.5537 18.2978 16.4153 18.2978 16.25V14.5C18.2978 14.3736 18.2784 14.2521 18.2395 14.1354C18.2006 14.0187 18.1423 13.9069 18.0645 13.8L13.1937 7.23749L13.8645 6.33332C13.9617 6.19721 14.0006 6.05137 13.9812 5.89582C13.9617 5.74026 13.8839 5.61387 13.7478 5.51665C13.6117 5.41943 13.4659 5.38054 13.3103 5.39999C13.1548 5.41943 13.0284 5.49721 12.9312 5.63332L12.4645 6.2604L11.9978 5.63332C11.9006 5.49721 11.7742 5.41943 11.6187 5.39999C11.4631 5.38054 11.3173 5.41943 11.1812 5.51665C11.1131 5.56526 11.0596 5.6236 11.0207 5.69165C10.9819 5.75971 10.9576 5.8301 10.9478 5.90282C10.9381 5.97593 10.943 6.04885 10.9624 6.12157C10.9819 6.19468 11.0159 6.26526 11.0645 6.33332L11.7353 7.23749L6.86454 13.8C6.78676 13.9069 6.72843 14.0187 6.68954 14.1354C6.65065 14.2521 6.63121 14.3736 6.63121 14.5ZM12.4645 12.5896L14.6666 15.6667H10.2625L12.4645 12.5896Z" fill="#54585C"/>
</svg>
