<svg width="25" height="35" viewBox="0 0 25 35" fill="none" xmlns="http://www.w3.org/2000/svg">
<circle cx="12" cy="12" r="10" fill="#7FA8D4"/>
<path fill-rule="evenodd" clip-rule="evenodd" d="M9.60191 0.197509C6.8819 0.837509 5.08635 1.86862 3.18413 3.91306C1.79746 5.38862 0.83746 7.09529 0.321905 9.01529C-0.140317 10.7575 -0.104762 13.7086 0.428571 15.4153C1.22857 18.0108 1.88635 18.9886 4.81968 21.9042C9.1219 26.1886 11.1308 29.6553 11.8775 34.1353C11.918 34.3783 12.2697 34.3793 12.3041 34.1353C12.9263 29.8864 15.0597 26.1886 19.3797 21.8864C21.8864 19.3975 22.1175 19.1131 22.8819 17.5308C23.9308 15.3797 24.1797 14.3308 24.1619 12.0375C24.1441 8.55306 23.1308 6.09973 20.713 3.66417C19.0419 1.97528 17.6552 1.10417 15.6463 0.481952C14.0463 -0.0158261 11.113 -0.158047 9.60191 0.197509ZM15.6328 5.03748C15.3375 5.11717 15.082 5.28592 14.8828 5.52967L14.7609 5.67967H11.7562H8.75156L8.66953 5.5953C8.47031 5.39139 8.18906 5.27889 7.87266 5.27655C7.53984 5.27655 7.27969 5.38202 7.04766 5.61639C6.41016 6.26092 6.70781 7.3367 7.58672 7.56639C7.74141 7.60623 7.98047 7.61092 8.13281 7.57577C8.29453 7.53827 8.50781 7.42811 8.64141 7.30858L8.76094 7.20311H11.7703H14.7773L14.8336 7.28514C14.8641 7.33202 14.9531 7.42811 15.0328 7.50311C15.6703 8.09608 16.7086 7.97655 17.1914 7.25233C17.25 7.16327 17.2969 7.08592 17.2969 7.07889C17.2969 7.07186 17.0461 7.06248 16.7414 7.0578C16.2023 7.05077 16.1789 7.04842 16.0687 6.99217C15.9445 6.92889 15.8672 6.84686 15.7945 6.70623C15.6422 6.40858 15.7805 6.01952 16.0875 5.87655C16.2023 5.82264 16.2281 5.8203 16.7531 5.8203C17.0531 5.8203 17.2969 5.81092 17.2969 5.7992C17.2969 5.74764 17.0953 5.4828 16.9617 5.36092C16.8094 5.2203 16.5398 5.07733 16.3313 5.02577C16.1789 4.99061 15.7875 4.9953 15.6328 5.03748ZM8.31562 6.18123L8.46328 6.4367L8.31562 6.68983L8.17031 6.9453H7.87031H7.57266L7.48125 6.78592C7.45042 6.73407 7.41456 6.67216 7.38419 6.61973L7.38419 6.61973C7.36377 6.58448 7.34584 6.55353 7.33359 6.5328L7.27969 6.4367L7.42969 6.1742L7.57969 5.9117L7.875 5.91873L8.16797 5.92577L8.31562 6.18123ZM8.21953 10.0039C8.53594 9.57967 8.95781 9.28905 9.35859 9.22108C9.42656 9.20936 10.6453 9.20233 12.0703 9.20467L14.6602 9.20702L14.8125 9.25858C15.5789 9.52342 16.1648 10.3461 16.3945 11.4805C16.4273 11.6375 16.4531 11.7734 16.4531 11.7805C16.4531 11.7875 16.5188 11.8344 16.6008 11.8812C16.793 11.9984 17.0977 12.3078 17.2195 12.5117C17.5617 13.0836 17.6625 13.857 17.4844 14.5695C17.4023 14.8976 17.2477 15.1976 17.0297 15.4531L16.8984 15.6055V16.3015V17H16.0078H15.1172V16.5781V16.1562H12H8.88281V16.5781V17H7.99219H7.10156V16.3015V15.6055L6.97031 15.4531C6.75234 15.1976 6.59766 14.8976 6.51562 14.5695C6.3375 13.857 6.43828 13.0836 6.78047 12.5117C6.90234 12.3078 7.20703 11.9984 7.39922 11.8812C7.48125 11.8344 7.54687 11.7875 7.54687 11.7805C7.54687 11.7125 7.67812 11.1476 7.73437 10.9742C7.83281 10.6695 8.05547 10.2265 8.21953 10.0039ZM15.6797 11.0258C15.4734 10.4609 15.1359 10.025 14.768 9.84451L14.6133 9.76952L12.0352 9.76483C9.53672 9.76014 9.45234 9.76014 9.33047 9.80467C8.91094 9.95702 8.54062 10.4117 8.30156 11.0703C8.23359 11.2578 8.15625 11.5297 8.15625 11.5789C8.15625 11.593 8.20078 11.5953 8.26875 11.5836C8.32969 11.5742 9.47109 11.5648 10.8047 11.5648L13.2328 11.5625L13.2586 11.3961C13.3453 10.8359 13.8187 10.4328 14.3883 10.4328C14.9766 10.4328 15.4453 10.8523 15.5297 11.45C15.5438 11.5531 15.5508 11.5625 15.6187 11.5719C15.757 11.593 15.8438 11.6023 15.8438 11.5906C15.8438 11.5508 15.7359 11.1758 15.6797 11.0258ZM15.1383 11.4453C15.0984 11.1922 14.8992 10.9508 14.6578 10.8594C14.5266 10.8125 14.2969 10.7984 14.1797 10.8336C14.0016 10.8875 13.793 11.0562 13.7109 11.2133C13.6805 11.2695 13.6172 11.4828 13.6172 11.532C13.6172 11.5555 13.7859 11.5625 14.3883 11.5625H15.157L15.1383 11.4453ZM8.65078 14.5109C9.20859 14.2555 9.22734 13.489 8.68359 13.2078C8.51953 13.1258 8.26406 13.1117 8.09297 13.1797C7.95 13.2383 7.78359 13.3883 7.70625 13.5336C7.62891 13.6836 7.62891 14.0117 7.70625 14.164C7.89375 14.5226 8.30156 14.6726 8.65078 14.5109ZM16.2938 13.5336C16.2117 13.3836 16.05 13.2359 15.9 13.182C15.7688 13.1328 15.5602 13.1187 15.4453 13.1539C15.2625 13.2101 15.075 13.3625 14.993 13.5242C14.8547 13.7937 14.9133 14.1453 15.1336 14.3656C15.4102 14.6422 15.8766 14.6422 16.1438 14.368C16.3055 14.2015 16.3477 14.0914 16.3477 13.8476C16.3477 13.6719 16.3383 13.6203 16.2938 13.5336ZM14.1961 13.789C14.3461 13.7351 14.3461 13.5383 14.1984 13.4867C14.1047 13.4539 9.88125 13.4539 9.79922 13.4867C9.63984 13.55 9.64453 13.7258 9.80625 13.789C9.89531 13.8219 14.1 13.8219 14.1961 13.789ZM14.2781 14.3726C14.3367 14.293 14.3133 14.1969 14.2242 14.1523C14.168 14.1219 13.8492 14.1172 11.9953 14.1172C10.3055 14.1172 9.82031 14.1242 9.77344 14.1476C9.68438 14.1922 9.65859 14.2906 9.71953 14.3703L9.76641 14.4336H12H14.2336L14.2781 14.3726Z" fill="#54585C"/>
</svg>
