<svg width="25" height="35" viewBox="0 0 25 35" fill="none" xmlns="http://www.w3.org/2000/svg">
<circle cx="12.139" cy="12.6589" r="10" fill="#5CBDC4"/>
<path d="M3.32311 3.91306C5.22533 1.86862 7.02088 0.837509 9.74088 0.197509C11.252 -0.158047 14.1853 -0.0158261 15.7853 0.481952C17.7942 1.10417 19.1809 1.97529 20.852 3.66418C23.2698 6.09973 24.2831 8.55307 24.3009 12.0375C24.3187 14.3308 24.0698 15.3797 23.0209 17.5308C22.2565 19.1131 22.0254 19.3975 19.5187 21.8864C15.1987 26.1886 13.0653 29.8864 12.4431 34.1353C12.4087 34.3793 12.057 34.3783 12.0165 34.1353C11.2698 29.6553 9.26088 26.1886 4.95866 21.9042C2.02533 18.9886 1.36755 18.0108 0.567548 15.4153C0.0342155 13.7086 -0.00134054 10.7575 0.460881 9.01529C0.976437 7.09529 1.93644 5.38862 3.32311 3.91306ZM6.06531 15.9076C6.29359 16.1359 6.56815 16.25 6.88898 16.25H10.9723V14.5C10.9723 14.1792 11.0867 13.9044 11.3153 13.6758C11.5436 13.4475 11.8182 13.3333 12.139 13.3333C12.4598 13.3333 12.7346 13.4475 12.9632 13.6758C13.1915 13.9044 13.3057 14.1792 13.3057 14.5V16.25H17.389C17.7098 16.25 17.9846 16.1359 18.2132 15.9076C18.4415 15.6789 18.5557 15.4042 18.5557 15.0833V9.83333C18.5557 9.66806 18.4997 9.52942 18.3877 9.41742C18.2761 9.30581 18.1376 9.25 17.9723 9.25C17.8071 9.25 17.6686 9.30581 17.557 9.41742C17.445 9.52942 17.389 9.66806 17.389 9.83333V10.4167H16.2223V6.33333C16.2223 6.16806 16.1663 6.02942 16.0543 5.91742C15.9427 5.80581 15.8043 5.75 15.639 5.75C15.4737 5.75 15.3353 5.80581 15.2237 5.91742C15.1117 6.02942 15.0557 6.16806 15.0557 6.33333V6.91667H13.889V6.33333C13.889 6.16806 13.8332 6.02942 13.7216 5.91742C13.6096 5.80581 13.4709 5.75 13.3057 5.75C13.1404 5.75 13.0019 5.80581 12.8903 5.91742C12.7783 6.02942 12.7223 6.16806 12.7223 6.33333V6.91667H11.5557V6.33333C11.5557 6.16806 11.4999 6.02942 11.3882 5.91742C11.2762 5.80581 11.1376 5.75 10.9723 5.75C10.8071 5.75 10.6686 5.80581 10.557 5.91742C10.445 6.02942 10.389 6.16806 10.389 6.33333V6.91667H9.22231V6.33333C9.22231 6.16806 9.16651 6.02942 9.0549 5.91742C8.9429 5.80581 8.80426 5.75 8.63898 5.75C8.4737 5.75 8.33506 5.80581 8.22306 5.91742C8.11145 6.02942 8.05565 6.16806 8.05565 6.33333V10.4167H6.88898V9.83333C6.88898 9.66806 6.83317 9.52942 6.72156 9.41742C6.60956 9.30581 6.47092 9.25 6.30565 9.25C6.14037 9.25 6.00192 9.30581 5.89031 9.41742C5.77831 9.52942 5.72231 9.66806 5.72231 9.83333V15.0833C5.72231 15.4042 5.83665 15.6789 6.06531 15.9076ZM11.5557 11H10.389V9.25H11.5557V11ZM13.889 9.25V11H12.7223V9.25H13.889Z" fill="#54585C"/>
</svg>
