<svg width="26" height="35" viewBox="0 0 26 35" fill="none" xmlns="http://www.w3.org/2000/svg">
<circle cx="12.9762" cy="12.6589" r="10" fill="#7FA8D4"/>
<path d="M4.16033 3.91306C6.06255 1.86862 7.85811 0.837509 10.5781 0.197509C12.0892 -0.158047 15.0225 -0.0158261 16.6225 0.481952C18.6314 1.10417 20.0181 1.97529 21.6892 3.66418C24.107 6.09973 25.1203 8.55307 25.1381 12.0375C25.1559 14.3308 24.907 15.3797 23.8581 17.5308C23.0937 19.1131 22.8626 19.3975 20.3559 21.8864C16.0359 26.1886 13.9025 29.8864 13.2803 34.1353C13.2459 34.3793 12.8942 34.3783 12.8537 34.1353C12.107 29.6553 10.0981 26.1886 5.79588 21.9042C2.86255 18.9886 2.20477 18.0108 1.40477 15.4153C0.871434 13.7086 0.835879 10.7575 1.2981 9.01529C1.81366 7.09529 2.77366 5.38862 4.16033 3.91306ZM14.1429 5.16667H11.8095C9.8787 5.16667 8.89287 6.73583 8.89287 8.66667V14.885C10.1295 14.2842 11.1854 13.9167 12.9762 13.9167C14.767 13.9167 15.8229 14.2842 17.0595 14.885V8.66667C17.0595 6.73583 16.0737 5.16667 14.1429 5.16667ZM10.6429 9.54167V8.66667H15.3095V9.54167H10.6429ZM11.2262 11.875V11H14.7262V11.875H11.2262ZM7.7262 16.4308V16.8333H18.2262V16.3958C13.6937 13.24 9.27787 15.445 7.7262 16.4308Z" fill="#54585C"/>
</svg>
