<svg width="25" height="35" viewBox="0 0 25 35" fill="none" xmlns="http://www.w3.org/2000/svg">
<circle cx="12.8134" cy="11" r="10" fill="#7FA8D4"/>
<path fill-rule="evenodd" clip-rule="evenodd" d="M3.99754 3.91302C5.89976 1.86858 7.69532 0.837467 10.4153 0.197467C11.9264 -0.158089 14.8598 -0.015868 16.4598 0.48191C18.4687 1.10413 19.8553 1.97524 21.5264 3.66413C23.9442 6.09969 24.9575 8.55302 24.9753 12.0375C24.9931 14.3308 24.7442 15.3797 23.6953 17.5308C22.9309 19.113 22.6998 19.3975 20.1931 21.8864C15.8731 26.1886 13.7398 29.8864 13.1175 34.1352C13.0831 34.3792 12.7314 34.3783 12.6909 34.1352C11.9442 29.6552 9.93532 26.1886 5.6331 21.9041C2.69976 18.9886 2.04199 18.0108 1.24199 15.4152C0.708654 13.7086 0.673098 10.7575 1.13532 9.01524C1.65088 7.09524 2.61088 5.38858 3.99754 3.91302ZM11.0634 5.16661H11.6467C13.2964 5.16661 14.1218 5.16661 14.634 5.67936C15.1467 6.19153 15.1467 7.01694 15.1467 8.66661V13.4791H16.0632C16.4003 13.4791 16.7236 13.613 16.962 13.8514C17.2003 14.0898 17.3343 14.4131 17.3343 14.7502V14.7916C17.3343 14.9076 17.3803 15.0189 17.4624 15.101C17.5444 15.183 17.6557 15.2291 17.7718 15.2291C17.8878 15.2291 17.9991 15.183 18.0811 15.101C18.1632 15.0189 18.2093 14.9076 18.2093 14.7916V12.0208L17.4952 11.7828C17.321 11.7247 17.1694 11.6133 17.062 11.4644C16.9546 11.3154 16.8968 11.1364 16.8968 10.9527V9.54161C16.8968 9.30954 16.9889 9.08698 17.153 8.92289C17.3171 8.7588 17.5397 8.66661 17.7718 8.66661H18.2093V8.44611C18.2102 8.3866 18.2096 8.32709 18.2075 8.26761C18.1877 7.92053 18.0313 7.59561 17.7729 7.36403C17.7493 7.34263 17.7221 7.32071 17.6491 7.26187L17.6347 7.25028L16.9154 6.67511C16.8698 6.63952 16.8316 6.59523 16.8032 6.54479C16.7748 6.49436 16.7566 6.43878 16.7499 6.38129C16.7431 6.32379 16.7478 6.26553 16.7637 6.20986C16.7796 6.15419 16.8064 6.10224 16.8425 6.057C16.8786 6.01176 16.9234 5.97415 16.9741 5.94633C17.0249 5.91851 17.0807 5.90105 17.1383 5.89495C17.1958 5.88886 17.254 5.89424 17.3095 5.91081C17.365 5.92737 17.4166 5.95478 17.4614 5.99144L18.1906 6.57478C18.2472 6.61949 18.3028 6.66539 18.3574 6.71244C18.7883 7.09901 19.0484 7.64062 19.0807 8.21861C19.0842 8.27986 19.0843 8.34286 19.0843 8.43444V14.7916C19.0843 15.1397 18.946 15.4735 18.6998 15.7197C18.4537 15.9658 18.1198 16.1041 17.7718 16.1041C17.4237 16.1041 17.0898 15.9658 16.8437 15.7197C16.5975 15.4735 16.4592 15.1397 16.4592 14.7916V14.7502C16.4592 14.5314 16.2819 14.3541 16.0632 14.3541H15.1467V16.3958H15.8759C15.9919 16.3958 16.1032 16.4419 16.1853 16.5239C16.2673 16.606 16.3134 16.7172 16.3134 16.8333C16.3134 16.9493 16.2673 17.0606 16.1853 17.1426C16.1032 17.2247 15.9919 17.2708 15.8759 17.2708H6.98008C6.86405 17.2708 6.75277 17.2247 6.67072 17.1426C6.58868 17.0606 6.54258 16.9493 6.54258 16.8333C6.54258 16.7172 6.58868 16.606 6.67072 16.5239C6.75277 16.4419 6.86405 16.3958 6.98008 16.3958H7.56342V8.66661C7.56342 7.01694 7.56342 6.19153 8.07617 5.67936C8.58833 5.16661 9.41375 5.16661 11.0634 5.16661ZM11.7795 9.72727C11.7514 9.6147 11.6797 9.51791 11.5802 9.45819C11.4808 9.39848 11.3616 9.38073 11.2491 9.40884C11.1365 9.43696 11.0397 9.50864 10.98 9.60811L10.105 11.0664C10.0652 11.1328 10.0436 11.2086 10.0426 11.286C10.0417 11.3634 10.0612 11.4397 10.0994 11.5071C10.1375 11.5745 10.1928 11.6306 10.2597 11.6696C10.3266 11.7086 10.4027 11.7291 10.4801 11.7291H11.4572L10.98 12.5248C10.9498 12.5741 10.9296 12.6288 10.9206 12.686C10.9117 12.7431 10.9141 12.8014 10.9279 12.8576C10.9416 12.9137 10.9663 12.9666 11.0006 13.0132C11.0349 13.0597 11.0781 13.099 11.1277 13.1288C11.1772 13.1585 11.2322 13.1781 11.2894 13.1865C11.3466 13.1949 11.4049 13.1919 11.461 13.1776C11.517 13.1633 11.5696 13.138 11.6158 13.1033C11.662 13.0685 11.7009 13.025 11.7302 12.9751L12.6052 11.5168C12.645 11.4504 12.6665 11.3746 12.6675 11.2972C12.6685 11.2198 12.6489 11.1435 12.6108 11.0761C12.5727 11.0087 12.5173 10.9527 12.4504 10.9137C12.3835 10.8747 12.3075 10.8541 12.2301 10.8541H11.253L11.7302 10.0584C11.7899 9.95896 11.8076 9.83984 11.7795 9.72727Z" fill="#54585C"/>
</svg>
