<svg width="25" height="35" viewBox="0 0 25 35" fill="none" xmlns="http://www.w3.org/2000/svg">
<circle cx="12.6506" cy="12" r="10" fill="#9D9EBF"/>
<path fill-rule="evenodd" clip-rule="evenodd" d="M3.83476 3.91306C5.73698 1.86862 7.53254 0.837509 10.2525 0.197509C11.7637 -0.158047 14.697 -0.0158261 16.297 0.481952C18.3059 1.10417 19.6925 1.97528 21.3637 3.66417C23.7814 6.09973 24.7948 8.55306 24.8125 12.0375C24.8303 14.3308 24.5814 15.3797 23.5325 17.5308C22.7681 19.1131 22.537 19.3975 20.0303 21.8864C15.7103 26.1886 13.577 29.8864 12.9548 34.1353C12.9204 34.3793 12.5686 34.3783 12.5281 34.1353C11.7814 29.6553 9.77254 26.1886 5.47032 21.9042C2.53698 18.9886 1.87921 18.0108 1.07921 15.4153C0.545873 13.7086 0.510317 10.7575 0.97254 9.01529C1.4881 7.09529 2.4481 5.38862 3.83476 3.91306ZM13.9224 4.99996H11.7088V9.29896H7.65062V11.4485H11.7088V19.33H13.9224V11.4485H17.9806V9.29896H13.9224V4.99996Z" fill="#54585C"/>
</svg>
