<svg width="25" height="35" viewBox="0 0 25 35" fill="none" xmlns="http://www.w3.org/2000/svg">
<circle cx="12.4879" cy="12" r="10" fill="#5CBDC4"/>
<path d="M3.67198 3.91306C5.5742 1.86862 7.36975 0.837509 10.0898 0.197509C11.6009 -0.158047 14.5342 -0.015826 16.1342 0.481952C18.1431 1.10417 19.5298 1.97528 21.2009 3.66417C23.6187 6.09973 24.632 8.55306 24.6498 12.0375C24.6676 14.3308 24.4187 15.3797 23.3698 17.5308C22.6054 19.1131 22.3743 19.3975 19.8676 21.8864C15.5476 26.1886 13.4142 29.8864 12.792 34.1353C12.7576 34.3793 12.4059 34.3783 12.3654 34.1353C11.6187 29.6553 9.60976 26.1886 5.30753 21.9042C2.3742 18.9886 1.71642 18.0108 0.916425 15.4153C0.383092 13.7086 0.347537 10.7575 0.809759 9.01529C1.32531 7.09529 2.28531 5.38862 3.67198 3.91306ZM8.98785 12.75H7.82118C7.51176 12.75 7.21502 12.8729 6.99623 13.0917C6.77743 13.3105 6.65452 13.6072 6.65452 13.9167V15.0833H6.07118V16.8333H18.9046V15.0833H18.3212V13.9167C18.3212 13.6072 18.1983 13.3105 17.9795 13.0917C17.7607 12.8729 17.464 12.75 17.1546 12.75H15.9879C15.6785 12.75 15.3817 12.8729 15.1629 13.0917C14.9442 13.3105 14.8212 13.6072 14.8212 13.9167V15.0833H14.2379V13.9167C14.2379 13.6072 14.115 13.3105 13.8962 13.0917C13.6774 12.8729 13.3807 12.75 13.0712 12.75H11.9046C11.5951 12.75 11.2984 12.8729 11.0796 13.0917C10.8608 13.3105 10.7379 13.6072 10.7379 13.9167V15.0833H10.1545V13.9167C10.1545 13.6072 10.0316 13.3105 9.81281 13.0917C9.59402 12.8729 9.29727 12.75 8.98785 12.75ZM14.2379 9.83333L11.9046 8.08333V11.5833L14.2379 9.83333ZM17.1546 5.16667H7.82118C7.51176 5.16667 7.21502 5.28958 6.99623 5.50838C6.77743 5.72717 6.65452 6.02391 6.65452 6.33333V11.8983C6.99868 11.6942 7.39535 11.5833 7.82118 11.5833V6.33333H17.1546V11.5833C17.5804 11.5833 17.9771 11.6942 18.3212 11.8983V6.33333C18.3212 6.02391 18.1983 5.72717 17.9795 5.50838C17.7607 5.28958 17.464 5.16667 17.1546 5.16667Z" fill="#54585C"/>
</svg>
