<svg width="25" height="35" viewBox="0 0 25 35" fill="none" xmlns="http://www.w3.org/2000/svg">
<circle cx="12.3251" cy="12" r="10" fill="#6AA7F7"/>
<path fill-rule="evenodd" clip-rule="evenodd" d="M3.5092 3.91307C5.41142 1.86862 7.20698 0.837513 9.92698 0.197513C11.4381 -0.158043 14.3714 -0.0158223 15.9714 0.481956C17.9803 1.10418 19.367 1.97529 21.0381 3.66418C23.4559 6.09973 24.4692 8.55307 24.487 12.0375C24.5048 14.3308 24.2559 15.3797 23.207 17.5308C22.4425 19.1131 22.2114 19.3975 19.7048 21.8864C15.3848 26.1886 13.2514 29.8864 12.6292 34.1353C12.5948 34.3793 12.243 34.3784 12.2025 34.1353C11.4559 29.6553 9.44698 26.1886 5.14476 21.9042C2.21142 18.9886 1.55364 18.0108 0.753645 15.4153C0.220311 13.7086 0.184756 10.7575 0.646978 9.01529C1.16253 7.09529 2.12253 5.38862 3.5092 3.91307ZM9.1944 18H14.8958C15.0848 18 15.266 17.9239 15.3997 17.7885C15.5334 17.653 15.6084 17.4693 15.6084 17.2778V11.5867L16.5349 12.3089C16.8128 12.5833 17.2618 12.5833 17.5398 12.3089L19.5566 10.265C19.8346 9.98332 19.8346 9.52832 19.5566 9.24666L15.3661 4.99999H14.1831C14.1831 5.79443 13.2281 6.44443 12.0451 6.44443C10.8621 6.44443 9.90708 5.79443 9.90708 4.99999H8.72404L4.53354 9.24666C4.2556 9.52832 4.2556 9.98332 4.53354 10.265L6.5504 12.2728C6.82834 12.5544 7.27732 12.5544 7.55526 12.2728L8.48174 11.5505V17.2778C8.48174 17.4693 8.55682 17.653 8.69047 17.7885C8.82412 17.9239 9.00539 18 9.1944 18Z" fill="#54585C"/>
</svg>
