<svg width="25" height="35" viewBox="0 0 25 35" fill="none" xmlns="http://www.w3.org/2000/svg">
<circle cx="12.1623" cy="11.6589" r="10" fill="#B7B6BA"/>
<path d="M3.34642 3.91306C5.24864 1.86862 7.04419 0.837509 9.76419 0.197509C11.2753 -0.158047 14.2086 -0.0158261 15.8086 0.481952C17.8175 1.10417 19.2042 1.97529 20.8753 3.66418C23.2931 6.09973 24.3064 8.55307 24.3242 12.0375C24.342 14.3308 24.0931 15.3797 23.0442 17.5308C22.2798 19.1131 22.0487 19.3975 19.542 21.8864C15.222 26.1886 13.0886 29.8864 12.4664 34.1353C12.432 34.3793 12.0803 34.3783 12.0398 34.1353C11.2931 29.6553 9.28419 26.1886 4.98197 21.9042C2.04864 18.9886 1.39086 18.0108 0.590864 15.4153C0.0575309 13.7086 0.0219749 10.7575 0.484197 9.01529C0.999753 7.09529 1.95975 5.38862 3.34642 3.91306ZM18.3543 14.1413C18.4819 14.2693 18.6401 14.3333 18.829 14.3333C19.0179 14.3333 19.1761 14.2693 19.3036 14.1413C19.4316 14.0138 19.4956 13.8555 19.4956 13.6666V9.39998C19.4956 9.27776 19.4652 9.16376 19.4043 9.05798C19.343 8.95265 19.2567 8.87221 19.1456 8.81665L12.7956 5.34998C12.6956 5.29443 12.593 5.25265 12.4876 5.22465C12.3819 5.19709 12.2734 5.18332 12.1623 5.18332C12.0512 5.18332 11.9427 5.19709 11.837 5.22465C11.7316 5.25265 11.629 5.29443 11.529 5.34998L5.89562 8.41665C5.78451 8.47221 5.69851 8.55287 5.63762 8.65865C5.57629 8.76398 5.54562 8.87776 5.54562 8.99998C5.54562 9.12221 5.57629 9.23598 5.63762 9.34132C5.69851 9.44709 5.78451 9.52776 5.89562 9.58332L11.5123 12.65C11.6123 12.7055 11.7152 12.7471 11.821 12.7746C11.9263 12.8026 12.0401 12.8167 12.1623 12.8167C12.2845 12.8167 12.3983 12.8026 12.5036 12.7746C12.6094 12.7471 12.7123 12.7055 12.8123 12.65L18.1623 9.73332V13.6666C18.1623 13.8555 18.2263 14.0138 18.3543 14.1413ZM11.837 16.7753C11.9427 16.8029 12.0512 16.8167 12.1623 16.8167C12.2734 16.8167 12.3819 16.8029 12.4876 16.7753C12.593 16.7473 12.6956 16.7055 12.7956 16.65L16.129 14.85C16.3512 14.7278 16.5234 14.564 16.6456 14.3587C16.7679 14.1529 16.829 13.9222 16.829 13.6666V11.1333L13.0623 13.1667C12.9179 13.2444 12.7707 13.3166 12.621 13.3833C12.4707 13.45 12.3179 13.4833 12.1623 13.4833C12.0067 13.4833 11.8567 13.4527 11.7123 13.3913C11.5679 13.3304 11.4234 13.2611 11.279 13.1833L7.49562 11.1333V13.6666C7.49562 13.9222 7.55673 14.1529 7.67896 14.3587C7.80118 14.564 7.9734 14.7278 8.19562 14.85L11.529 16.65C11.629 16.7055 11.7316 16.7473 11.837 16.7753Z" fill="#54585C"/>
</svg>
