<svg width="25" height="35" viewBox="0 0 25 35" fill="none" xmlns="http://www.w3.org/2000/svg">
<circle cx="11.9995" cy="12.6589" r="10" fill="#FF7D7F"/>
<path d="M3.18364 3.91306C5.08586 1.86862 6.88142 0.837509 9.60141 0.197509C11.1125 -0.158047 14.0458 -0.015826 15.6458 0.481952C17.6547 1.10417 19.0414 1.97528 20.7125 3.66417C23.1303 6.09973 24.1436 8.55306 24.1614 12.0375C24.1792 14.3308 23.9303 15.3797 22.8814 17.5308C22.117 19.1131 21.8859 19.3975 19.3792 21.8864C15.0592 26.1886 12.9258 29.8864 12.3036 34.1353C12.2692 34.3793 11.9175 34.3783 11.877 34.1353C11.1303 29.6553 9.12142 26.1886 4.81919 21.9042C1.88586 18.9886 1.22808 18.0108 0.428083 15.4153C-0.10525 13.7086 -0.140805 10.7575 0.321417 9.01529C0.836972 7.09529 1.79697 5.38862 3.18364 3.91306ZM16.5641 6.92498C16.1071 6.46804 15.5578 6.23957 14.9162 6.23957C14.5759 6.23957 14.2988 6.28565 14.0849 6.37782C13.871 6.47037 13.6669 6.57012 13.4724 6.67707C13.278 6.78401 13.0715 6.88357 12.8529 6.97573C12.634 7.06829 12.3495 7.11457 11.9995 7.11457C11.6495 7.11457 11.3652 7.06829 11.1467 6.97573C10.9277 6.88357 10.721 6.78401 10.5266 6.67707C10.3321 6.57012 10.1305 6.47037 9.92168 6.37782C9.71245 6.28565 9.43284 6.23957 9.08284 6.23957C8.44118 6.23957 7.89187 6.46804 7.43493 6.92498C6.97798 7.38193 6.74951 7.93123 6.74951 8.5729C6.74951 8.67984 6.7569 8.82315 6.77168 9.00282C6.78607 9.18287 6.80784 9.38957 6.83701 9.6229L7.62451 15.4854C7.67312 15.8548 7.8384 16.1588 8.12034 16.3972C8.40229 16.6352 8.72798 16.7542 9.09743 16.7542C9.32104 16.7542 9.53259 16.703 9.73209 16.6007C9.9312 16.4988 10.0988 16.3507 10.2349 16.1562L11.7516 13.9542C11.8682 13.8667 11.946 13.8229 11.9849 13.8229C12.0335 13.8229 12.0798 13.8301 12.1238 13.8445C12.1673 13.8593 12.1988 13.8861 12.2183 13.925L13.7787 16.2C13.9051 16.375 14.0631 16.5111 14.2529 16.6083C14.4423 16.7055 14.6488 16.7542 14.8724 16.7542C15.2419 16.7542 15.5701 16.6375 15.8571 16.4042C16.1437 16.1708 16.3113 15.8694 16.3599 15.5L17.162 9.6229C17.1912 9.38957 17.2129 9.18287 17.2273 9.00282C17.2421 8.82315 17.2495 8.67984 17.2495 8.5729C17.2495 7.93123 17.021 7.38193 16.5641 6.92498Z" fill="#54585C"/>
</svg>
