<svg width="25" height="35" viewBox="0 0 25 35" fill="none" xmlns="http://www.w3.org/2000/svg">
<circle cx="12.8367" cy="12" r="10" fill="#FF7D7F"/>
<path fill-rule="evenodd" clip-rule="evenodd" d="M4.02086 3.91306C5.92308 1.86862 7.71864 0.837509 10.4386 0.197509C11.9497 -0.158047 14.8831 -0.0158261 16.4831 0.481952C18.492 1.10417 19.8786 1.97528 21.5497 3.66417C23.9675 6.09973 24.9809 8.55306 24.9986 12.0375C25.0164 14.3308 24.7675 15.3797 23.7186 17.5308C22.9542 19.1131 22.7231 19.3975 20.2164 21.8864C15.8964 26.1886 13.7631 29.8864 13.1409 34.1353C13.1064 34.3793 12.7547 34.3783 12.7142 34.1353C11.9675 29.6553 9.95864 26.1886 5.65641 21.9042C2.72308 18.9886 2.0653 18.0108 1.2653 15.4153C0.731969 13.7086 0.696414 10.7575 1.15864 9.01529C1.67419 7.09529 2.63419 5.38862 4.02086 3.91306ZM18.5067 17.8969C18.5067 16.6717 16.9459 15.6256 14.7432 15.2172L12.6717 18.6134L10.6003 15.2172C8.39759 15.6256 6.83673 16.6717 6.83673 17.8969V19.3299H18.5067V17.8969ZM15.5892 10.7319V9.29894H9.75423V10.7319C9.75423 11.4921 10.0616 12.221 10.6087 12.7585C11.1559 13.296 11.898 13.5979 12.6717 13.5979C13.4455 13.5979 14.1876 13.296 14.7347 12.7585C15.2818 12.221 15.5892 11.4921 15.5892 10.7319ZM10.0533 5.64479L9.75423 8.58244H15.5892L15.2902 5.64479C15.2537 5.27938 14.9401 4.99994 14.5681 4.99994H10.7826C10.4034 4.99994 10.0897 5.27938 10.0533 5.64479ZM11.9424 5.71644H12.6717V6.43294H13.4011V7.14944H12.6717V7.86594H11.9424V7.14944H11.213V6.43294H11.9424V5.71644Z" fill="#54585C"/>
</svg>
