<svg width="25" height="35" viewBox="0 0 25 35" fill="none" xmlns="http://www.w3.org/2000/svg">
<circle cx="12.674" cy="12" r="10" fill="#BAA4A8"/>
<path fill-rule="evenodd" clip-rule="evenodd" d="M3.85808 3.91307C5.7603 1.86862 7.55586 0.837513 10.2759 0.197513C11.787 -0.158043 14.7203 -0.0158223 16.3203 0.481956C18.3292 1.10418 19.7159 1.97529 21.387 3.66418C23.8047 6.09973 24.8181 8.55307 24.8359 12.0375C24.8536 14.3308 24.6047 15.3797 23.5559 17.5308C22.7914 19.1131 22.5603 19.3975 20.0536 21.8864C15.7336 26.1886 13.6003 29.8864 12.9781 34.1353C12.9437 34.3793 12.5919 34.3784 12.5514 34.1353C11.8047 29.6553 9.79586 26.1886 5.49363 21.9042C2.5603 18.9886 1.90252 18.0108 1.10252 15.4153C0.569188 13.7086 0.533633 10.7575 0.995855 9.01529C1.51141 7.09529 2.47141 5.38862 3.85808 3.91307ZM10.8958 16.3121C10.7941 16.4133 10.6656 16.4639 10.5103 16.4639C10.3551 16.4639 10.2268 16.4133 10.1256 16.3121C10.0238 16.2103 9.97295 16.0818 9.97295 15.9266V9.29895C9.97295 9.09594 10.0417 8.92565 10.1793 8.78808C10.3164 8.65099 10.4864 8.58245 10.6895 8.58245H13.8241C13.9555 8.58245 14.0809 8.61517 14.2003 8.68061C14.3197 8.74653 14.4093 8.84517 14.469 8.97652L14.9885 10.0154H16.4215C16.6245 10.0154 16.7945 10.084 16.9316 10.2211C17.0692 10.3587 17.138 10.5289 17.138 10.7319V13.5979C17.138 13.801 17.0692 13.971 16.9316 14.1081C16.7945 14.2457 16.6245 14.3144 16.4215 14.3144H14.0033C13.8719 14.3144 13.7465 14.2817 13.6271 14.2163C13.5077 14.1504 13.4181 14.0517 13.3584 13.9204L12.839 12.8814H11.0477V15.9266C11.0477 16.0818 10.9971 16.2103 10.8958 16.3121ZM10.0446 18.7653C10.9163 19.1417 11.8478 19.3299 12.839 19.3299C13.8301 19.3299 14.7616 19.1417 15.6333 18.7653C16.505 18.3894 17.2633 17.879 17.9082 17.2342C18.553 16.5893 19.0634 15.831 19.4394 14.9593C19.8158 14.0876 20.004 13.1561 20.004 12.1649C20.004 11.1738 19.8158 10.2423 19.4394 9.3706C19.0634 8.49886 18.553 7.74056 17.9082 7.09571C17.2633 6.45086 16.505 5.94024 15.6333 5.56383C14.7616 5.18791 13.8301 4.99995 12.839 4.99995C11.8478 4.99995 10.9163 5.18791 10.0446 5.56383C9.17286 5.94024 8.41457 6.45086 7.76972 7.09571C7.12487 7.74056 6.61448 8.49886 6.23856 9.3706C5.86216 10.2423 5.67395 11.1738 5.67395 12.1649C5.67395 13.1561 5.86216 14.0876 6.23856 14.9593C6.61448 15.831 7.12487 16.5893 7.76972 17.2342C8.41457 17.879 9.17286 18.3894 10.0446 18.7653Z" fill="#54585C"/>
</svg>
