<svg width="25" height="35" viewBox="0 0 25 35" fill="none" xmlns="http://www.w3.org/2000/svg">
<circle cx="12.5112" cy="11.6589" r="10" fill="#FAA264"/>
<path d="M3.6953 3.91306C5.59752 1.86862 7.39308 0.837509 10.1131 0.197509C11.6242 -0.158047 14.5575 -0.0158261 16.1575 0.481952C18.1664 1.10417 19.5531 1.97529 21.2242 3.66418C23.642 6.09973 24.6553 8.55307 24.6731 12.0375C24.6909 14.3308 24.442 15.3797 23.3931 17.5308C22.6287 19.1131 22.3976 19.3975 19.8909 21.8864C15.5709 26.1886 13.4375 29.8864 12.8153 34.1353C12.7809 34.3793 12.4292 34.3783 12.3887 34.1353C11.642 29.6553 9.63308 26.1886 5.33085 21.9042C2.39752 18.9886 1.73974 18.0108 0.939741 15.4153C0.406407 13.7086 0.370852 10.7575 0.833074 9.01529C1.34863 7.09529 2.30863 5.38862 3.6953 3.91306ZM6.31325 12.5528C6.42992 12.6843 6.58061 12.75 6.76534 12.75H14.232C14.4168 12.75 14.5674 12.6843 14.6841 12.5528C14.8008 12.4218 14.8445 12.2736 14.8154 12.1083C14.6306 11.1458 14.1154 10.4287 13.2695 9.95699C12.4237 9.48565 11.5001 9.24999 10.4987 9.24999C9.49728 9.24999 8.57367 9.48565 7.72784 9.95699C6.882 10.4287 6.36673 11.1458 6.182 12.1083C6.15284 12.2736 6.19659 12.4218 6.31325 12.5528ZM15.0125 9.89924C15.6978 10.6817 16.0404 11.6319 16.0404 12.75V17.4167H17.032C17.2848 17.4167 17.5012 17.334 17.6813 17.1687C17.861 17.0035 17.9654 16.8042 17.9945 16.5708L18.8987 7.55832C18.9181 7.38332 18.8695 7.23262 18.7529 7.10624C18.6362 6.97985 18.4904 6.91665 18.3154 6.91665H16.0404V5.16665C16.0404 5.00137 15.9846 4.86274 15.8729 4.75074C15.761 4.63912 15.6223 4.58332 15.457 4.58332C15.2918 4.58332 15.1531 4.63912 15.0411 4.75074C14.9295 4.86274 14.8737 5.00137 14.8737 5.16665V6.91665H12.6133C12.4383 6.91665 12.295 6.98237 12.1834 7.11382C12.0714 7.24487 12.0251 7.3979 12.0445 7.5729L12.1174 8.25832C13.3619 8.56943 14.3269 9.1164 15.0125 9.89924ZM6.2625 14.9153C6.37411 15.0273 6.51256 15.0833 6.67784 15.0833H14.2612C14.4265 15.0833 14.5651 15.0273 14.6771 14.9153C14.7887 14.8037 14.8445 14.6653 14.8445 14.5C14.8445 14.3347 14.7887 14.1963 14.6771 14.0847C14.5651 13.9727 14.4265 13.9167 14.2612 13.9167H6.67784C6.51256 13.9167 6.37411 13.9727 6.2625 14.0847C6.1505 14.1963 6.0945 14.3347 6.0945 14.5C6.0945 14.6653 6.1505 14.8037 6.2625 14.9153ZM6.2625 17.2487C6.37411 17.3607 6.51256 17.4167 6.67784 17.4167H14.2612C14.4265 17.4167 14.5651 17.3607 14.6771 17.2487C14.7887 17.137 14.8445 16.9986 14.8445 16.8333C14.8445 16.668 14.7887 16.5296 14.6771 16.418C14.5651 16.306 14.4265 16.25 14.2612 16.25H6.67784C6.51256 16.25 6.37411 16.306 6.2625 16.418C6.1505 16.5296 6.0945 16.668 6.0945 16.8333C6.0945 16.9986 6.1505 17.137 6.2625 17.2487Z" fill="#54585C"/>
</svg>
