<svg width="25" height="35" viewBox="0 0 25 35" fill="none" xmlns="http://www.w3.org/2000/svg">
<circle cx="12.3484" cy="11.6589" r="10" fill="#5CBDC4"/>
<path d="M3.53252 3.91306C5.43474 1.86862 7.2303 0.837509 9.9503 0.197509C11.4614 -0.158047 14.3948 -0.0158261 15.9948 0.481952C18.0036 1.10417 19.3903 1.97529 21.0614 3.66418C23.4792 6.09973 24.4925 8.55307 24.5103 12.0375C24.5281 14.3308 24.2792 15.3797 23.2303 17.5308C22.4659 19.1131 22.2348 19.3975 19.7281 21.8864C15.4081 26.1886 13.2748 29.8864 12.6525 34.1353C12.6181 34.3793 12.2664 34.3783 12.2259 34.1353C11.4792 29.6553 9.4703 26.1886 5.16808 21.9042C2.23474 18.9886 1.57696 18.0108 0.77696 15.4153C0.243626 13.7086 0.208071 10.7575 0.670293 9.01529C1.18585 7.09529 2.14585 5.38862 3.53252 3.91306ZM8.19214 15.7396C8.53242 16.0799 8.94562 16.25 9.43173 16.25C9.91784 16.25 10.331 16.0799 10.6713 15.7396C11.0116 15.3993 11.1817 14.9861 11.1817 14.5H13.5151C13.5151 14.9861 13.6852 15.3993 14.0255 15.7396C14.3658 16.0799 14.779 16.25 15.2651 16.25C15.7512 16.25 16.1644 16.0799 16.5047 15.7396C16.8449 15.3993 17.0151 14.9861 17.0151 14.5H17.5984C17.9192 14.5 18.194 14.3859 18.4227 14.1576C18.6509 13.9289 18.7651 13.6542 18.7651 13.3333V10.6063C18.7651 10.5382 18.7602 10.4725 18.7505 10.4091C18.7408 10.3461 18.7262 10.2854 18.7067 10.2271L17.8609 7.71875C17.7831 7.4757 17.6422 7.28125 17.438 7.13542C17.2338 6.98958 17.0053 6.91667 16.7526 6.91667H16.4317V6.33333C16.4317 6.16806 16.3757 6.02942 16.2637 5.91742C16.1521 5.80581 16.0137 5.75 15.8484 5.75H15.2651C15.0998 5.75 14.9613 5.80581 14.8497 5.91742C14.7377 6.02942 14.6817 6.16806 14.6817 6.33333V6.91667H13.5151C13.1942 6.91667 12.9197 7.031 12.6914 7.25967C12.4627 7.48795 12.3484 7.7625 12.3484 8.08333V10.4167H7.09839C6.77756 10.4167 6.503 10.5308 6.27473 10.7591C6.04606 10.9878 5.93173 11.2625 5.93173 11.5833V13.3333C5.93173 13.6542 6.04606 13.9289 6.27473 14.1576C6.503 14.3859 6.77756 14.5 7.09839 14.5H7.68173C7.68173 14.9861 7.85187 15.3993 8.19214 15.7396ZM9.84764 14.9153C9.73564 15.0273 9.597 15.0833 9.43173 15.0833C9.26645 15.0833 9.12781 15.0273 9.01581 14.9153C8.9042 14.8037 8.84839 14.6653 8.84839 14.5C8.84839 14.3347 8.9042 14.1963 9.01581 14.0847C9.12781 13.9727 9.26645 13.9167 9.43173 13.9167C9.597 13.9167 9.73564 13.9727 9.84764 14.0847C9.95925 14.1963 10.0151 14.3347 10.0151 14.5C10.0151 14.6653 9.95925 14.8037 9.84764 14.9153ZM15.6804 14.9153C15.5688 15.0273 15.4303 15.0833 15.2651 15.0833C15.0998 15.0833 14.9613 15.0273 14.8497 14.9153C14.7377 14.8037 14.6817 14.6653 14.6817 14.5C14.6817 14.3347 14.7377 14.1963 14.8497 14.0847C14.9613 13.9727 15.0998 13.9167 15.2651 13.9167C15.4303 13.9167 15.5688 13.9727 15.6804 14.0847C15.7924 14.1963 15.8484 14.3347 15.8484 14.5C15.8484 14.6653 15.7924 14.8037 15.6804 14.9153ZM17.5401 10.4167H13.5151V8.08333H16.7526L17.5401 10.4167ZM8.41089 8.95833H7.39006V7.79167H8.41089V8.95833ZM10.3067 8.95833H9.28589V7.79167H10.3067V8.95833ZM6.05539 9.70908C6.13823 9.79192 6.24284 9.83333 6.36923 9.83333H11.3276C11.454 9.83333 11.5586 9.79192 11.6414 9.70908C11.7238 9.62664 11.7651 9.52222 11.7651 9.39583C11.7651 9.26945 11.7238 9.16483 11.6414 9.082C11.5586 8.99956 11.454 8.95833 11.3276 8.95833H11.1817V7.79167H11.3276C11.454 7.79167 11.5586 7.75025 11.6414 7.66742C11.7238 7.58497 11.7651 7.48056 11.7651 7.35417C11.7651 7.22778 11.7238 7.12336 11.6414 7.04092C11.5586 6.95808 11.454 6.91667 11.3276 6.91667H6.36923C6.24284 6.91667 6.13823 6.95808 6.05539 7.04092C5.97295 7.12336 5.93173 7.22778 5.93173 7.35417C5.93173 7.48056 5.97295 7.58497 6.05539 7.66742C6.13823 7.75025 6.24284 7.79167 6.36923 7.79167H6.51506V8.95833H6.36923C6.24284 8.95833 6.13823 8.99956 6.05539 9.082C5.97295 9.16483 5.93173 9.26945 5.93173 9.39583C5.93173 9.52222 5.97295 9.62664 6.05539 9.70908Z" fill="#54585C"/>
</svg>
