<svg width="25" height="35" viewBox="0 0 25 35" fill="none" xmlns="http://www.w3.org/2000/svg">
<circle cx="12.1856" cy="12" r="10" fill="#7FA8D4"/>
<path fill-rule="evenodd" clip-rule="evenodd" d="M3.36974 3.91302C5.27196 1.86858 7.06751 0.837467 9.78751 0.197467C11.2986 -0.158089 14.232 -0.015868 15.832 0.48191C17.8408 1.10413 19.2275 1.97524 20.8986 3.66413C23.3164 6.09969 24.3297 8.55302 24.3475 12.0375C24.3653 14.3308 24.1164 15.3797 23.0675 17.5308C22.3031 19.113 22.072 19.3975 19.5653 21.8864C15.2453 26.1886 13.112 29.8864 12.4897 34.1352C12.4553 34.3792 12.1036 34.3783 12.0631 34.1352C11.3164 29.6552 9.30751 26.1886 5.00529 21.9041C2.07196 18.9886 1.41418 18.0108 0.614179 15.4152C0.080846 13.7086 0.0452905 10.7575 0.507513 9.01524C1.02307 7.09524 1.98307 5.38858 3.36974 3.91302ZM16.0475 10.4713C16.1726 10.5964 16.3421 10.6666 16.5189 10.6666C16.6958 10.6666 16.8653 10.5964 16.9903 10.4713C17.1154 10.3463 17.1856 10.1768 17.1856 9.99994C17.1856 9.82313 17.1154 9.65356 16.9903 9.52854C16.8653 9.40351 16.6958 9.33328 16.5189 9.33328C16.3421 9.33328 16.1726 9.40351 16.0475 9.52854C15.9225 9.65356 15.8523 9.82313 15.8523 9.99994C15.8523 10.1768 15.9225 10.3463 16.0475 10.4713ZM8.51894 10.6666H12.5189V7.33328H8.51894V10.6666ZM17.7056 8.81328L17.6989 8.81994C17.9989 9.11994 18.1856 9.53994 18.1856 9.99994V16.3333C18.1856 16.5521 18.1425 16.7689 18.0587 16.9711C17.975 17.1733 17.8522 17.357 17.6975 17.5118C17.5427 17.6666 17.359 17.7893 17.1568 17.8731C16.9545 17.9568 16.7378 17.9999 16.5189 17.9999C16.0769 17.9999 15.653 17.8243 15.3404 17.5118C15.0279 17.1992 14.8523 16.7753 14.8523 16.3333V12.9999H13.8523V17.9999H7.18561V7.33328C7.18561 6.59328 7.77894 5.99994 8.51894 5.99994H12.5189C12.8726 5.99994 13.2117 6.14042 13.4618 6.39047C13.7118 6.64051 13.8523 6.97965 13.8523 7.33328V11.9999H14.5189C14.8726 11.9999 15.2117 12.1404 15.4618 12.3905C15.7118 12.6405 15.8523 12.9797 15.8523 13.3333V16.3333C15.8523 16.5101 15.9225 16.6797 16.0475 16.8047C16.1726 16.9297 16.3421 16.9999 16.5189 16.9999C16.6958 16.9999 16.8653 16.9297 16.9903 16.8047C17.1154 16.6797 17.1856 16.5101 17.1856 16.3333V11.5266C16.9789 11.6133 16.7589 11.6666 16.5189 11.6666C16.0769 11.6666 15.653 11.491 15.3404 11.1785C15.1857 11.0237 15.0629 10.84 14.9791 10.6377C14.8954 10.4355 14.8523 10.2188 14.8523 9.99994C14.8523 9.28661 15.2989 8.66661 15.9256 8.44661L14.5189 7.03994L15.2256 6.33328L17.7056 8.81328Z" fill="#54585C"/>
</svg>
