<svg width="25" height="35" viewBox="0 0 25 35" fill="none" xmlns="http://www.w3.org/2000/svg">
<circle cx="12.0228" cy="12.6589" r="10" fill="#5CBDC4"/>
<path d="M3.20696 3.91306C5.10918 1.86862 6.90473 0.837509 9.62473 0.197509C11.1358 -0.158047 14.0691 -0.015826 15.6691 0.481952C17.678 1.10417 19.0647 1.97528 20.7358 3.66417C23.1536 6.09973 24.1669 8.55306 24.1847 12.0375C24.2025 14.3308 23.9536 15.3797 22.9047 17.5308C22.1403 19.1131 21.9092 19.3975 19.4025 21.8864C15.0825 26.1886 12.9491 29.8864 12.3269 34.1353C12.2925 34.3793 11.9408 34.3783 11.9003 34.1353C11.1536 29.6553 9.14474 26.1886 4.84251 21.9042C1.90918 18.9886 1.2514 18.0108 0.451398 15.4153C-0.081935 13.7086 -0.11749 10.7575 0.344732 9.01529C0.860287 7.09529 1.82029 5.38862 3.20696 3.91306ZM5.35616 8.66667V15.3333H6.6895V8.66667H5.35616ZM17.3561 8.66667V15.3333H18.6895V8.66667H17.3561ZM7.35616 10V16.6667H11.3561V12.6667H10.0228V11.3333H11.3561V7.33333H10.0228C9.2895 7.33333 8.66172 7.59444 8.1395 8.11667C7.61727 8.63889 7.35616 9.26667 7.35616 10ZM12.6895 12.6667V16.6667H16.6895V10C16.6895 9.26667 16.4284 8.63889 15.9061 8.11667C15.3839 7.59444 14.7561 7.33333 14.0228 7.33333H12.6895V11.3333H14.0228V12.6667H12.6895Z" fill="#54585C"/>
</svg>
