<svg width="26" height="35" viewBox="0 0 26 35" fill="none" xmlns="http://www.w3.org/2000/svg">
<circle cx="12.86" cy="11.6589" r="10" fill="#6AA7F7"/>
<path d="M4.04418 3.91306C5.9464 1.86862 7.74196 0.837509 10.4619 0.197509C11.973 -0.158047 14.9063 -0.0158261 16.5063 0.481952C18.5152 1.10417 19.9019 1.97529 21.573 3.66418C23.9908 6.09973 25.0041 8.55307 25.0219 12.0375C25.0397 14.3308 24.7908 15.3797 23.7419 17.5308C22.9775 19.1131 22.7464 19.3975 20.2397 21.8864C15.9197 26.1886 13.7863 29.8864 13.1641 34.1353C13.1297 34.3793 12.778 34.3783 12.7375 34.1353C11.9908 29.6553 9.98196 26.1886 5.67973 21.9042C2.7464 18.9886 2.08862 18.0108 1.28862 15.4153C0.755284 13.7086 0.719729 10.7575 1.18195 9.01529C1.69751 7.09529 2.65751 5.38862 4.04418 3.91306ZM18.86 7.2H9.26005V6.6C9.26005 6.44087 9.19684 6.28826 9.08431 6.17573C8.97179 6.06321 8.81918 6 8.66005 6H6.86005V7.2H8.06005L8.66005 9L9.45805 11.4H9.26005C8.78266 11.4 8.32482 11.5896 7.98726 11.9272C7.64969 12.2648 7.46005 12.7226 7.46005 13.2C7.46005 13.6774 7.64969 14.1352 7.98726 14.4728C8.32482 14.8104 8.78266 15 9.26005 15H17.06V13.8H9.26005C9.10092 13.8 8.94831 13.7368 8.83579 13.6243C8.72326 13.5117 8.66005 13.3591 8.66005 13.2C8.66005 13.0409 8.72326 12.8883 8.83579 12.7757C8.94831 12.6632 9.10092 12.6 9.26005 12.6H17.06L18.86 7.2ZM9.01152 17.6485C9.23657 17.8736 9.54179 18 9.86005 18C10.1783 18 10.4835 17.8736 10.7086 17.6485C10.9336 17.4235 11.06 17.1183 11.06 16.8C11.06 16.4817 10.9336 16.1765 10.7086 15.9515C10.4835 15.7264 10.1783 15.6 9.86005 15.6C9.54179 15.6 9.23657 15.7264 9.01152 15.9515C8.78648 16.1765 8.66005 16.4817 8.66005 16.8C8.66005 17.1183 8.78648 17.4235 9.01152 17.6485ZM15.0115 17.6485C15.2365 17.8736 15.5417 18 15.86 18C16.1783 18 16.4835 17.8736 16.7085 17.6485C16.9336 17.4235 17.06 17.1183 17.06 16.8C17.06 16.4817 16.9336 16.1765 16.7085 15.9515C16.4835 15.7264 16.1783 15.6 15.86 15.6C15.5417 15.6 15.2365 15.7264 15.0115 15.9515C14.7864 16.1765 14.66 16.4817 14.66 16.8C14.66 17.1183 14.7864 17.4235 15.0115 17.6485Z" fill="#54585C"/>
</svg>
