<svg width="25" height="35" viewBox="0 0 25 35" fill="none" xmlns="http://www.w3.org/2000/svg">
<circle cx="12.6973" cy="11" r="10" fill="#FF7D7F"/>
<path fill-rule="evenodd" clip-rule="evenodd" d="M3.88139 3.91302C5.78361 1.86858 7.57917 0.837467 10.2992 0.197467C11.8103 -0.158089 14.7436 -0.015868 16.3436 0.48191C18.3525 1.10413 19.7392 1.97524 21.4103 3.66413C23.8281 6.09969 24.8414 8.55302 24.8592 12.0375C24.8769 14.3308 24.6281 15.3797 23.5792 17.5308C22.8147 19.113 22.5836 19.3975 20.077 21.8864C15.7569 26.1886 13.6236 29.8864 13.0014 34.1352C12.967 34.3792 12.6152 34.3783 12.5747 34.1352C11.8281 29.6552 9.81917 26.1886 5.51695 21.9041C2.58361 18.9886 1.92584 18.0108 1.12584 15.4152C0.592504 13.7086 0.556948 10.7575 1.01917 9.01524C1.53473 7.09524 2.49473 5.38858 3.88139 3.91302ZM13.6263 14.6727H11.4382V12.8814H9.61477V10.7319H11.4382V8.94065H13.6263V10.7319H15.4498V12.8814H13.6263V14.6727ZM8.34711 16.4725C9.4475 17.9595 10.8425 18.9119 12.5323 19.3299C14.2225 18.9124 15.6175 17.9602 16.7174 16.4732C17.8173 14.9862 18.3673 13.3352 18.3673 11.5201V7.1494L12.5323 4.9999L6.69727 7.1494V11.5201C6.69678 13.3347 7.24673 14.9855 8.34711 16.4725Z" fill="#54585C"/>
</svg>
