<svg width="25" height="35" viewBox="0 0 25 35" fill="none" xmlns="http://www.w3.org/2000/svg">
<circle cx="12.5345" cy="12" r="10" fill="#9D9EBF"/>
<path fill-rule="evenodd" clip-rule="evenodd" d="M3.71861 3.91307C5.62083 1.86862 7.41639 0.837513 10.1364 0.197513C11.6475 -0.158043 14.5808 -0.0158223 16.1808 0.481956C18.1897 1.10418 19.5764 1.97529 21.2475 3.66418C23.6653 6.09973 24.6786 8.55307 24.6964 12.0375C24.7142 14.3308 24.4653 15.3797 23.4164 17.5308C22.6519 19.1131 22.4208 19.3975 19.9142 21.8864C15.5942 26.1886 13.4608 29.8864 12.8386 34.1353C12.8042 34.3793 12.4525 34.3784 12.4119 34.1353C11.6653 29.6553 9.65639 26.1886 5.35417 21.9042C2.42083 18.9886 1.76306 18.0108 0.963056 15.4153C0.429723 13.7086 0.394167 10.7575 0.85639 9.01529C1.37195 7.09529 2.33195 5.38862 3.71861 3.91307ZM7.25965 11.6872L6.65517 11.8626L6.53448 11.8973L6.54489 12.0234C6.61772 12.8597 6.78522 13.6277 7.04636 14.3263C7.30854 15.026 7.66748 15.6554 8.1211 16.2132C8.5768 16.7764 9.07515 17.1987 9.61616 17.4824C10.1603 17.7671 10.744 17.91 11.3682 17.91C11.7531 17.91 12.1038 17.8533 12.419 17.7387C12.7374 17.6242 13.0183 17.4509 13.2596 17.2218C13.5021 16.9907 13.6841 16.7249 13.8048 16.4223C13.9245 16.1218 13.9848 15.7877 13.9848 15.419C13.9848 14.9788 13.8974 14.5291 13.7226 14.071C13.5655 13.6602 13.3387 13.2421 13.0401 12.8187C13.2212 12.6989 13.3897 12.6054 13.5468 12.5392C13.7289 12.4625 13.8912 12.4237 14.0327 12.4237C14.1617 12.4237 14.2595 12.4867 14.3261 12.6128C14.4093 12.7714 14.4509 13.0194 14.4509 13.3566V13.9439C14.4509 14.3389 14.479 14.6793 14.5341 14.9641C14.5924 15.2582 14.6798 15.4957 14.7984 15.6764C14.9222 15.8644 15.0866 16.0063 15.2936 16.1008C15.4934 16.1922 15.7316 16.2385 16.0073 16.2385C16.3975 16.2385 16.7481 16.147 17.0602 15.9653C17.3703 15.7846 17.6387 15.5156 17.8665 15.1584C18.0902 14.8065 18.2577 14.3946 18.3691 13.9239C18.4793 13.4585 18.5345 12.9332 18.5345 12.3491C18.5345 11.7754 18.4908 11.2711 18.4024 10.8351C18.3129 10.3939 18.1787 10.024 17.9976 9.72672C17.8135 9.41994 17.5804 9.1909 17.3006 9.03646C17.0207 8.88202 16.6961 8.80533 16.3278 8.80533C15.7608 8.80533 15.3009 8.98183 14.9472 9.33484C14.6267 9.65528 14.3989 10.1197 14.2657 10.728C14.2147 10.7227 14.1731 10.7196 14.1398 10.7196C13.7975 10.7196 13.45 10.8089 13.0942 10.9885C12.7811 11.1461 12.4627 11.3751 12.1381 11.6735L12.0798 11.6189C12.1246 11.5138 12.1589 11.4025 12.1828 11.2848C12.2161 11.1303 12.2328 10.9675 12.2328 10.7941C12.2328 10.4002 12.1745 10.0419 12.058 9.71832C11.9415 9.39367 11.7646 9.1058 11.5295 8.85681C11.2933 8.60676 11.0207 8.4187 10.7117 8.29263C10.4048 8.16865 10.0646 8.10562 9.69107 8.10562C9.41224 8.10562 9.13653 8.13713 8.86499 8.20017C8.59344 8.26321 8.3271 8.35776 8.067 8.48279L7.93695 8.54478L8.58824 10.168L8.73806 10.0839C9.03145 9.92003 9.31652 9.79816 9.59327 9.71727C9.86689 9.63742 10.1343 9.59749 10.3954 9.59749C10.5692 9.59749 10.7169 9.61535 10.8418 9.65003C10.9583 9.68364 11.055 9.73197 11.131 9.79501C11.2017 9.857 11.2558 9.93369 11.2912 10.0251C11.3297 10.1228 11.3484 10.2405 11.3484 10.3771C11.3484 10.7406 11.2121 11.0526 10.9406 11.3153C10.6545 11.5905 10.2217 11.8143 9.63905 11.9855L9.47466 12.0339L10.152 13.6445L10.2935 13.5793C10.5754 13.4501 10.8376 13.2831 11.081 13.075C11.2808 12.9048 11.467 12.7084 11.6408 12.4867C11.9498 12.8218 12.1849 13.1706 12.3472 13.5352C12.5282 13.9439 12.6188 14.3736 12.6188 14.8243C12.6188 15.0639 12.5803 15.2834 12.5033 15.4831C12.4263 15.6827 12.3098 15.8644 12.1547 16.0283C11.9997 16.1912 11.8291 16.312 11.6408 16.3929C11.4535 16.4738 11.2465 16.5137 11.0197 16.5137C10.5744 16.5137 10.1561 16.4097 9.76597 16.2017C9.37062 15.9916 9.00128 15.6743 8.65691 15.2509C8.30733 14.8212 8.01914 14.3242 7.79129 13.7621C7.5624 13.1959 7.39386 12.5613 7.28566 11.8595L7.25965 11.6872ZM15.2229 11.3468C15.1636 11.1965 15.0803 11.0778 14.9753 10.9906C15.098 10.7763 15.2479 10.6124 15.4278 10.4989C15.638 10.3655 15.8919 10.2983 16.1894 10.2983C16.4027 10.2983 16.5952 10.3455 16.7658 10.439C16.9395 10.5346 17.0946 10.6796 17.2309 10.874C17.3713 11.0726 17.4764 11.3026 17.5461 11.5622C17.6179 11.8259 17.6533 12.1221 17.6533 12.451C17.6533 12.7893 17.6137 13.0971 17.5357 13.3755C17.4587 13.6508 17.3432 13.8966 17.1892 14.112L17.1882 14.1131C17.0363 14.3263 16.8667 14.486 16.6805 14.5911C16.4963 14.694 16.2935 14.7455 16.0708 14.7455C15.8305 14.7455 15.6515 14.651 15.534 14.4629C15.4018 14.2517 15.3363 13.925 15.3363 13.4816V12.0643C15.3363 11.7754 15.2978 11.5359 15.2229 11.3468ZM11.0072 6.28384L10.4963 6.66522L10.3798 6.75137L10.4578 6.87219C10.8438 7.46999 11.2766 7.91966 11.7552 8.22118C12.2401 8.52691 12.7696 8.67925 13.3429 8.67925C13.7268 8.67925 14.1076 8.58049 14.4842 8.38193C14.8535 8.18756 15.2198 7.89654 15.5829 7.51097L15.6942 7.39225L14.3666 6.27439L14.2709 6.40466C14.0493 6.70619 13.81 6.93208 13.551 7.08126C13.2981 7.22625 13.0256 7.29979 12.7322 7.29979C12.4159 7.29979 12.1225 7.22625 11.853 7.07916C11.5804 6.92997 11.3287 6.70409 11.0977 6.40256L11.0072 6.28384ZM13.939 6.05586L13.0152 5.10715L12.9122 4.99999L11.8561 5.99387L12.9038 7.08021L13.939 6.05586Z" fill="#54585C"/>
</svg>
