<svg width="25" height="35" viewBox="0 0 25 35" fill="none" xmlns="http://www.w3.org/2000/svg">
<circle cx="12.3717" cy="13" r="10" fill="#FF7D7F"/>
<path d="M3.55585 3.91306C5.45807 1.86862 7.25363 0.837509 9.97362 0.197509C11.4847 -0.158047 14.418 -0.015826 16.018 0.481952C18.0269 1.10417 19.4136 1.97528 21.0847 3.66417C23.5025 6.09973 24.5158 8.55306 24.5336 12.0375C24.5514 14.3308 24.3025 15.3797 23.2536 17.5308C22.4892 19.1131 22.2581 19.3975 19.7514 21.8864C15.4314 26.1886 13.298 29.8864 12.6758 34.1353C12.6414 34.3793 12.2897 34.3783 12.2492 34.1353C11.5025 29.6553 9.49363 26.1886 5.1914 21.9042C2.25807 18.9886 1.60029 18.0108 0.80029 15.4153C0.266957 13.7086 0.231402 10.7575 0.693624 9.01529C1.20918 7.09529 2.16918 5.38862 3.55585 3.91306ZM10.629 9.84875V6.02729H8.37172V15.9729H10.629V11.811H14.3327V15.9727H16.5748V6.02729H14.3325V9.84875H10.629Z" fill="#54585C"/>
</svg>
