<svg width="25" height="35" viewBox="0 0 25 35" fill="none" xmlns="http://www.w3.org/2000/svg">
<circle cx="12.2089" cy="12" r="10" fill="#FAA264"/>
<path fill-rule="evenodd" clip-rule="evenodd" d="M9.81084 0.197509C7.09084 0.837509 5.29529 1.86862 3.39307 3.91306C2.0064 5.38862 1.0464 7.09529 0.530843 9.01529C0.0686212 10.7575 0.104177 13.7086 0.63751 15.4153C1.43751 18.0108 2.09529 18.9886 5.02862 21.9042C9.33084 26.1886 11.3397 29.6553 12.0864 34.1353C12.1269 34.3783 12.4787 34.3793 12.5131 34.1353C13.1353 29.8864 15.2686 26.1886 19.5886 21.8864C22.0953 19.3975 22.3264 19.1131 23.0908 17.5308C24.1397 15.3797 24.3886 14.3308 24.3708 12.0375C24.3531 8.55306 23.3397 6.09973 20.922 3.66417C19.2508 1.97528 17.8642 1.10417 15.8553 0.481952C14.2553 -0.0158261 11.322 -0.158047 9.81084 0.197509ZM9.01248 16.2007C8.20598 16.1834 7.5723 15.5708 7.5723 14.8429V13.7074C7.57225 13.6483 7.55047 13.5909 7.51037 13.5443C7.47026 13.4976 7.41412 13.4642 7.35074 13.4495C6.10443 13.1545 5.20894 12.126 5.20894 10.8682C5.2099 10.2406 5.45568 9.63337 5.90317 9.15301C6.35066 8.67266 6.97127 8.34986 7.65613 8.24124C7.7185 8.2319 7.77591 8.20475 7.81991 8.16378C7.86392 8.1228 7.89219 8.07017 7.90059 8.01361C8.02222 7.1799 8.47552 6.41453 9.17602 5.86009C9.87653 5.30565 10.7765 4.99996 11.7082 4.99996C12.6399 4.99996 13.5398 5.30565 14.2404 5.86009C14.9409 6.41453 15.3942 7.1799 15.5158 8.01361C15.5242 8.07017 15.5525 8.1228 15.5965 8.16378C15.6405 8.20475 15.6979 8.2319 15.7603 8.24124C16.4891 8.35548 17.1439 8.71233 17.5952 9.24126C18.0466 9.77018 18.2617 10.4327 18.198 11.0978C18.1342 11.763 17.7964 12.3823 17.2511 12.8335C16.7059 13.2846 15.993 13.5348 15.2532 13.5344C14.612 13.5317 13.9921 13.3264 13.501 12.9542C13.4497 12.9159 13.3854 12.8946 13.3188 12.8938C13.2522 12.8929 13.1872 12.9126 13.1347 12.9495C12.7283 13.2394 12.2262 13.3984 11.7082 13.4011C11.4357 13.3993 11.1649 13.3636 10.9032 13.2951C10.8592 13.2838 10.8129 13.2818 10.768 13.2893C10.723 13.2969 10.6806 13.3137 10.6441 13.3386C10.6076 13.3634 10.5779 13.3956 10.5575 13.4325C10.5371 13.4695 10.5265 13.5102 10.5265 13.5514V14.8676C10.5266 15.0455 10.4872 15.2216 10.4106 15.3856C10.3341 15.5495 10.222 15.698 10.0809 15.8222C9.9398 15.9465 9.77258 16.0439 9.58909 16.1089C9.40559 16.174 9.20954 16.2051 9.01248 16.2007ZM12.0924 14.5414C12.143 14.4926 12.212 14.4627 12.2858 14.4576C12.6929 14.4267 13.0909 14.3319 13.4619 14.1773C13.5034 14.16 13.5487 14.1516 13.5944 14.1527C13.6401 14.1539 13.6849 14.1646 13.7252 14.184C14.1381 14.3831 14.587 14.5139 15.0509 14.5703C15.0957 14.5762 15.1384 14.5913 15.1757 14.6144C15.2131 14.6376 15.244 14.6682 15.2661 14.7038C15.2882 14.7395 15.301 14.7793 15.3034 14.8201C15.3058 14.8609 15.2977 14.9016 15.2799 14.9392L12.5553 20.6767C12.5099 20.7725 12.4342 20.8542 12.3378 20.9117C12.2414 20.9692 12.1284 20.9998 12.0129 21C11.8975 21 11.7847 20.9695 11.6883 20.9123C11.5919 20.855 11.5161 20.7736 11.4704 20.678L9.95971 17.5185C9.94343 17.4843 9.93525 17.4475 9.93569 17.4103C9.93612 17.3731 9.94517 17.3365 9.96224 17.3026C9.97932 17.2688 10.004 17.2386 10.0348 17.2139C10.0656 17.1892 10.1018 17.1705 10.141 17.1592C10.6829 17.0071 11.1567 16.7027 11.4934 16.2905C11.8301 15.8782 12.0121 15.3797 12.0129 14.8676V14.7212C12.0135 14.6544 12.0419 14.5903 12.0924 14.5414Z" fill="#54585C"/>
</svg>
