<svg width="26" height="35" viewBox="0 0 26 35" fill="none" xmlns="http://www.w3.org/2000/svg">
<circle cx="12.8834" cy="11.6589" r="10" fill="#98A5B3"/>
<path d="M4.06751 3.91306C5.96973 1.86862 7.76529 0.837509 10.4853 0.197509C11.9964 -0.158047 14.9297 -0.0158259 16.5297 0.481952C18.5386 1.10417 19.9253 1.97528 21.5964 3.66417C24.0142 6.09973 25.0275 8.55306 25.0453 12.0375C25.0631 14.3308 24.8142 15.3797 23.7653 17.5308C23.0009 19.1131 22.7698 19.3975 20.2631 21.8864C15.9431 26.1886 13.8097 29.8864 13.1875 34.1353C13.1531 34.3793 12.8014 34.3783 12.7609 34.1353C12.0142 29.6553 10.0053 26.1886 5.70306 21.9042C2.76973 18.9886 2.11195 18.0108 1.31196 15.4153C0.778622 13.7086 0.743067 10.7575 1.20529 9.01528C1.72084 7.09528 2.68084 5.38862 4.06751 3.91306ZM8.55971 16.4909C8.78799 16.7192 9.06255 16.8333 9.38338 16.8333H16.3834C16.7042 16.8333 16.979 16.7192 17.2076 16.4909C17.4359 16.2622 17.5501 15.9875 17.5501 15.6666V6.33332C17.5501 6.01248 17.4359 5.73773 17.2076 5.50907C16.979 5.28079 16.7042 5.16665 16.3834 5.16665H9.38338C9.06255 5.16665 8.78799 5.28079 8.55971 5.50907C8.33105 5.73773 8.21671 6.01248 8.21671 6.33332V15.6666C8.21671 15.9875 8.33105 16.2622 8.55971 16.4909ZM14.9472 14.2305C14.3783 14.799 13.6903 15.0833 12.8834 15.0833C12.0765 15.0833 11.3887 14.799 10.8201 14.2305C10.2512 13.6615 9.96671 12.9736 9.96671 12.1666C9.96671 11.3597 10.2512 10.6718 10.8201 10.1028C11.3887 9.53426 12.0765 9.24998 12.8834 9.24998C13.6903 9.24998 14.3783 9.53426 14.9472 10.1028C15.5158 10.6718 15.8001 11.3597 15.8001 12.1666C15.8001 12.9736 15.5158 13.6615 14.9472 14.2305ZM12.1327 13.9458C12.3707 14.043 12.6209 14.0916 12.8834 14.0916C13.4084 14.0916 13.8605 13.9021 14.2396 13.5229C14.6188 13.1437 14.8084 12.6916 14.8084 12.1666C14.8084 11.9042 14.7598 11.6537 14.6626 11.4153C14.5653 11.1773 14.4292 10.9708 14.2542 10.7958L11.5126 13.5375C11.6876 13.7125 11.8943 13.8486 12.1327 13.9458ZM10.966 7.9159C10.854 8.02751 10.7153 8.08332 10.5501 8.08332C10.3848 8.08332 10.2461 8.02751 10.1341 7.9159C10.0225 7.8039 9.96671 7.66526 9.96671 7.49998C9.96671 7.3347 10.0225 7.19607 10.1341 7.08407C10.2461 6.97246 10.3848 6.91665 10.5501 6.91665C10.7153 6.91665 10.854 6.97246 10.966 7.08407C11.0776 7.19607 11.1334 7.3347 11.1334 7.49998C11.1334 7.66526 11.0776 7.8039 10.966 7.9159ZM12.716 7.9159C12.604 8.02751 12.4653 8.08332 12.3001 8.08332C12.1348 8.08332 11.9963 8.02751 11.8847 7.9159C11.7727 7.8039 11.7167 7.66526 11.7167 7.49998C11.7167 7.3347 11.7727 7.19607 11.8847 7.08407C11.9963 6.97246 12.1348 6.91665 12.3001 6.91665C12.4653 6.91665 12.604 6.97246 12.716 7.08407C12.8276 7.19607 12.8834 7.3347 12.8834 7.49998C12.8834 7.66526 12.8276 7.8039 12.716 7.9159Z" fill="#54585C"/>
</svg>
