<svg width="25" height="35" viewBox="0 0 25 35" fill="none" xmlns="http://www.w3.org/2000/svg">
<circle cx="12.7206" cy="11.6589" r="10" fill="#98A5B3"/>
<path d="M3.90474 3.91306C5.80696 1.86862 7.60251 0.837509 10.3225 0.197509C11.8336 -0.158047 14.7669 -0.0158259 16.3669 0.481952C18.3758 1.10417 19.7625 1.97528 21.4336 3.66417C23.8514 6.09973 24.8647 8.55306 24.8825 12.0375C24.9003 14.3308 24.6514 15.3797 23.6025 17.5308C22.8381 19.1131 22.607 19.3975 20.1003 21.8864C15.7803 26.1886 13.6469 29.8864 13.0247 34.1353C12.9903 34.3793 12.6386 34.3783 12.5981 34.1353C11.8514 29.6553 9.84251 26.1886 5.54029 21.9042C2.60696 18.9886 1.94918 18.0108 1.14918 15.4153C0.61585 13.7086 0.580294 10.7575 1.04252 9.01528C1.55807 7.09528 2.51807 5.38862 3.90474 3.91306ZM13.9824 8.84865C13.919 8.94121 13.8873 9.03123 13.8873 9.11873C13.8873 9.29373 13.9433 9.42012 14.0553 9.4979C14.1669 9.57568 14.3102 9.58054 14.4852 9.51248C14.7088 9.4347 14.9421 9.37151 15.1852 9.3229C15.4282 9.27429 15.6762 9.24998 15.9289 9.24998C16.0845 9.24998 16.2377 9.25718 16.3886 9.27157C16.5391 9.28634 16.6824 9.30832 16.8185 9.33748C16.9838 9.37637 17.1199 9.35693 17.2269 9.27915C17.3338 9.20137 17.3873 9.07984 17.3873 8.91457C17.3873 8.81734 17.3556 8.72984 17.2922 8.65207C17.2292 8.57429 17.1539 8.52568 17.0664 8.50623C16.8817 8.46734 16.6947 8.43565 16.5053 8.41115C16.3155 8.38704 16.1234 8.37498 15.9289 8.37498C15.6178 8.37498 15.3213 8.39929 15.0394 8.4479C14.7574 8.49651 14.4755 8.56943 14.1935 8.66665C14.1157 8.69582 14.0453 8.75648 13.9824 8.84865ZM13.9824 12.057C13.919 12.1495 13.8873 12.2396 13.8873 12.3271C13.8873 12.5021 13.9433 12.6259 14.0553 12.6986C14.1669 12.7718 14.3102 12.7743 14.4852 12.7062C14.7088 12.6285 14.9421 12.5678 15.1852 12.5242C15.4282 12.4803 15.6762 12.4583 15.9289 12.4583C16.0845 12.4583 16.2377 12.4655 16.3886 12.4799C16.5391 12.4947 16.6824 12.5166 16.8185 12.5458C16.9838 12.5847 17.1199 12.5653 17.2269 12.4875C17.3338 12.4097 17.3873 12.2882 17.3873 12.1229C17.3873 12.0257 17.3556 11.9382 17.2922 11.8604C17.2292 11.7826 17.1539 11.734 17.0664 11.7146C16.8817 11.6757 16.6947 11.644 16.5053 11.6195C16.3155 11.5954 16.1234 11.5833 15.9289 11.5833C15.6178 11.5833 15.3213 11.6076 15.0394 11.6562C14.7574 11.7048 14.4755 11.7778 14.1935 11.875C14.1157 11.9041 14.0453 11.9648 13.9824 12.057ZM13.9824 10.4528C13.919 10.5454 13.8873 10.6354 13.8873 10.7229C13.8873 10.8979 13.9433 11.0243 14.0553 11.1021C14.1669 11.1798 14.3102 11.1847 14.4852 11.1166C14.7088 11.0389 14.9421 10.9757 15.1852 10.9271C15.4282 10.8785 15.6762 10.8541 15.9289 10.8541C16.0845 10.8541 16.2377 10.8613 16.3886 10.8757C16.5391 10.8905 16.6824 10.9125 16.8185 10.9416C16.9838 10.9805 17.1199 10.9611 17.2269 10.8833C17.3338 10.8055 17.3873 10.684 17.3873 10.5187C17.3873 10.4215 17.3556 10.334 17.2922 10.2562C17.2292 10.1785 17.1539 10.1298 17.0664 10.1104C16.8817 10.0715 16.6947 10.0398 16.5053 10.0153C16.3155 9.99121 16.1234 9.97915 15.9289 9.97915C15.6178 9.97915 15.3213 10.0035 15.0394 10.0521C14.7574 10.1007 14.4755 10.1736 14.1935 10.2708C14.1157 10.3 14.0453 10.3606 13.9824 10.4528ZM14.5948 13.4861C14.162 13.5884 13.7317 13.7416 13.3039 13.9458V8.19998C13.7025 7.96665 14.1255 7.79165 14.5727 7.67498C15.0199 7.55832 15.472 7.49998 15.9289 7.49998C16.2789 7.49998 16.6266 7.53401 16.9719 7.60207C17.3169 7.67012 17.6498 7.7722 17.9706 7.90832V13.6833C17.6303 13.5666 17.2926 13.4791 16.9573 13.4208C16.6217 13.3625 16.2789 13.3333 15.9289 13.3333C15.472 13.3333 15.0273 13.3843 14.5948 13.4861ZM12.3344 15.3096C12.4558 15.3435 12.5845 15.3604 12.7206 15.3604C12.8567 15.3604 12.9856 15.3435 13.1074 15.3096C13.2287 15.2754 13.3428 15.2291 13.4498 15.1708C13.8289 14.9472 14.2275 14.7796 14.6456 14.668C15.0637 14.556 15.4914 14.5 15.9289 14.5C16.3373 14.5 16.7382 14.5535 17.1318 14.6604C17.5257 14.7673 17.9025 14.918 18.2623 15.1125C18.4664 15.2194 18.6634 15.2146 18.8532 15.0979C19.0426 14.9812 19.1373 14.8111 19.1373 14.5875V7.55832C19.1373 7.45137 19.1106 7.34929 19.0574 7.25207C19.0037 7.15484 18.9234 7.08193 18.8164 7.03332C18.3692 6.79998 17.9025 6.62498 17.4164 6.50832C16.9303 6.39165 16.4345 6.33332 15.9289 6.33332C15.365 6.33332 14.8134 6.40623 14.274 6.55207C13.7342 6.6979 13.2164 6.91665 12.7206 7.20832C12.2248 6.91665 11.7072 6.6979 11.1678 6.55207C10.628 6.40623 10.0762 6.33332 9.51228 6.33332C9.00672 6.33332 8.51089 6.39165 8.02478 6.50832C7.53867 6.62498 7.072 6.79998 6.62478 7.03332C6.51783 7.08193 6.43772 7.15484 6.38444 7.25207C6.33078 7.34929 6.30394 7.45137 6.30394 7.55832V14.5875C6.30394 14.8111 6.39883 14.9812 6.58861 15.0979C6.778 15.2146 6.97478 15.2194 7.17894 15.1125C7.53867 14.918 7.9155 14.7673 8.30944 14.6604C8.703 14.5535 9.10394 14.5 9.51228 14.5C9.94978 14.5 10.3776 14.556 10.7956 14.668C11.2137 14.7796 11.6123 14.9472 11.9914 15.1708C12.0984 15.2291 12.2127 15.2754 12.3344 15.3096Z" fill="#54585C"/>
</svg>
