<svg width="25" height="35" viewBox="0 0 25 35" fill="none" xmlns="http://www.w3.org/2000/svg">
<circle cx="12.5578" cy="12" r="10" fill="#FC77B3"/>
<path d="M3.74198 3.91306C5.6442 1.86862 7.43976 0.837509 10.1597 0.197509C11.6708 -0.158047 14.6041 -0.0158261 16.2041 0.481952C18.213 1.10417 19.5997 1.97529 21.2708 3.66418C23.6886 6.09973 24.7019 8.55307 24.7197 12.0375C24.7375 14.3308 24.4886 15.3797 23.4397 17.5308C22.6753 19.1131 22.4442 19.3975 19.9375 21.8864C15.6175 26.1886 13.4841 29.8864 12.8619 34.1353C12.8275 34.3793 12.4758 34.3783 12.4353 34.1353C11.6886 29.6553 9.67976 26.1886 5.37753 21.9042C2.4442 18.9886 1.78642 18.0108 0.986418 15.4153C0.453084 13.7086 0.417529 10.7575 0.879751 9.01529C1.39531 7.09529 2.35531 5.38862 3.74198 3.91306ZM6.30918 15.4987C6.42079 15.6107 6.55924 15.6667 6.72452 15.6667C6.88979 15.6667 7.02843 15.6107 7.14043 15.4987C7.25204 15.3871 7.30785 15.2486 7.30785 15.0833V13.9167H17.8078V15.0833C17.8078 15.2486 17.8638 15.3871 17.9758 15.4987C18.0874 15.6107 18.2259 15.6667 18.3911 15.6667C18.5564 15.6667 18.6949 15.6107 18.8065 15.4987C18.9185 15.3871 18.9745 15.2486 18.9745 15.0833V10.4167C18.9745 9.775 18.746 9.22569 18.2891 8.76875C17.8321 8.3118 17.2828 8.08333 16.6411 8.08333H13.1411C12.8203 8.08333 12.5457 8.19747 12.3175 8.42575C12.0888 8.65442 11.9745 8.92917 11.9745 9.25V12.75H7.30785V7.5C7.30785 7.33472 7.25204 7.19608 7.14043 7.08408C7.02843 6.97247 6.88979 6.91667 6.72452 6.91667C6.55924 6.91667 6.42079 6.97247 6.30918 7.08408C6.19718 7.19608 6.14118 7.33472 6.14118 7.5V15.0833C6.14118 15.2486 6.19718 15.3871 6.30918 15.4987ZM8.4016 11.6562C8.74188 11.9965 9.15507 12.1667 9.64118 12.1667C10.1273 12.1667 10.5405 11.9965 10.8807 11.6562C11.221 11.316 11.3911 10.9028 11.3911 10.4167C11.3911 9.93055 11.221 9.51736 10.8807 9.17708C10.5405 8.8368 10.1273 8.66667 9.64118 8.66667C9.15507 8.66667 8.74188 8.8368 8.4016 9.17708C8.06132 9.51736 7.89118 9.93055 7.89118 10.4167C7.89118 10.9028 8.06132 11.316 8.4016 11.6562Z" fill="#54585C"/>
</svg>
