<svg width="25" height="35" viewBox="0 0 25 35" fill="none" xmlns="http://www.w3.org/2000/svg">
<circle cx="12.3951" cy="12" r="10" fill="#9D9EBF"/>
<path fill-rule="evenodd" clip-rule="evenodd" d="M3.57919 3.91307C5.48141 1.86862 7.27697 0.837513 9.99697 0.197513C11.5081 -0.158043 14.4414 -0.0158223 16.0414 0.481956C18.0503 1.10418 19.437 1.97529 21.1081 3.66418C23.5259 6.09973 24.5392 8.55307 24.557 12.0375C24.5747 14.3308 24.3259 15.3797 23.277 17.5308C22.5125 19.1131 22.2814 19.3975 19.7747 21.8864C15.4547 26.1886 13.3214 29.8864 12.6992 34.1353C12.6648 34.3793 12.313 34.3784 12.2725 34.1353C11.5259 29.6553 9.51697 26.1886 5.21475 21.9042C2.28141 18.9886 1.62364 18.0108 0.823637 15.4153C0.290303 13.7086 0.254748 10.7575 0.71697 9.01529C1.23253 7.09529 2.19253 5.38862 3.57919 3.91307ZM10.3601 18.7055C10.5202 18.8076 10.6705 18.8047 10.8111 18.6969L12.2301 17.6903L13.649 18.6969C13.7896 18.8047 13.94 18.8076 14.1 18.7055C14.2595 18.6039 14.3074 18.4692 14.2434 18.3014L13.6874 16.6477L15.0871 15.713C15.2405 15.6172 15.2853 15.4853 15.2214 15.3176C15.1574 15.1498 15.036 15.0659 14.857 15.0659H13.1505L12.6136 13.4122L15.3364 11.9023C15.5665 11.7705 15.7455 11.5968 15.8733 11.3811C16.0011 11.1654 16.0651 10.9197 16.0651 10.6441V6.43796C16.0651 6.04251 15.915 5.70386 15.6148 5.42202C15.3142 5.14065 14.9529 4.99997 14.5311 4.99997H9.92906C9.50721 4.99997 9.14621 5.14065 8.84606 5.42202C8.54539 5.70386 8.39506 6.04251 8.39506 6.43796V10.6441C8.39506 10.9197 8.45898 11.1654 8.58681 11.3811C8.71464 11.5968 8.89361 11.7705 9.12371 11.9023L11.8466 13.4122L11.3097 15.0659H9.60309C9.42412 15.0659 9.30268 15.1498 9.23876 15.3176C9.17484 15.4853 9.21959 15.6172 9.37299 15.713L10.7728 16.6477L10.2167 18.3014C10.1528 18.4692 10.2006 18.6039 10.3601 18.7055ZM12.9971 11.5069L12.2301 11.9383L11.4631 11.5069V7.15696C11.4631 6.95324 11.5367 6.78236 11.684 6.64431C11.8307 6.50674 12.0127 6.43796 12.2301 6.43796C12.4474 6.43796 12.6297 6.50674 12.7769 6.64431C12.9237 6.78236 12.9971 6.95324 12.9971 7.15696V11.5069Z" fill="#54585C"/>
</svg>
