<svg width="25" height="35" viewBox="0 0 25 35" fill="none" xmlns="http://www.w3.org/2000/svg">
<circle cx="12.2323" cy="12" r="10" fill="#5CBDC4"/>
<path d="M3.41643 3.91306C5.31865 1.86862 7.11421 0.837508 9.83421 0.197509C11.3453 -0.158048 14.2787 -0.0158242 15.8787 0.481952C17.8875 1.10417 19.2742 1.97528 20.9453 3.66417C23.3631 6.09973 24.3764 8.55306 24.3942 12.0375C24.412 14.3308 24.1631 15.3797 23.1142 17.5308C22.3498 19.1131 22.1187 19.3975 19.612 21.8864C15.292 26.1886 13.1587 29.8864 12.5364 34.1353C12.502 34.3793 12.1503 34.3783 12.1098 34.1353C11.3631 29.6553 9.35421 26.1886 5.05198 21.9042C2.11865 18.9886 1.46087 18.0108 0.660872 15.4153C0.127538 13.7086 0.0919826 10.7575 0.554205 9.01528C1.06976 7.09528 2.02976 5.38862 3.41643 3.91306ZM11.2482 6.57081L12.7533 4.82276L14.2572 6.57081L15.1227 15.5601H10.3827L11.2482 6.57081ZM12.5228 6.90431C12.4617 6.96543 12.4274 7.04833 12.4274 7.13477V8.71436C12.4274 8.8008 12.4617 8.88371 12.5228 8.94483C12.584 9.00595 12.6669 9.04029 12.7533 9.04029C12.8397 9.04029 12.9226 9.00595 12.9838 8.94483C13.0449 8.88371 13.0792 8.8008 13.0792 8.71436V7.13477C13.0792 7.04833 13.0449 6.96543 12.9838 6.90431C12.9226 6.84318 12.8397 6.80885 12.7533 6.80885C12.6669 6.80885 12.584 6.84318 12.5228 6.90431ZM12.5228 9.36158C12.4617 9.42271 12.4274 9.50561 12.4274 9.59205V15.012C12.4274 15.0984 12.4617 15.1813 12.5228 15.2424C12.584 15.3036 12.6669 15.3379 12.7533 15.3379C12.8397 15.3379 12.9226 15.3036 12.9838 15.2424C13.0449 15.1813 13.0792 15.0984 13.0792 15.012V9.59205C13.0792 9.50561 13.0449 9.42271 12.9838 9.36158C12.9226 9.30046 12.8397 9.26612 12.7533 9.26612C12.6669 9.26612 12.584 9.30046 12.5228 9.36158ZM9.70764 15.8079H8.69812L8.69324 15.803C8.61855 15.8033 8.54701 15.8331 8.4942 15.8859C8.44139 15.9387 8.41158 16.0103 8.41126 16.085V17.2422H7.61414C7.53903 17.2422 7.46699 17.272 7.41388 17.3251C7.36077 17.3783 7.33093 17.4503 7.33093 17.5254V18.6106H6.2323V18.9951H19.1901V18.6106H18.1403V17.5254C18.1399 17.4506 18.1102 17.3789 18.0574 17.3259C18.0046 17.2729 17.9331 17.2428 17.8583 17.2422H17.1088V16.085C17.1078 16.0107 17.0777 15.9398 17.025 15.8875C16.9722 15.8352 16.9011 15.8057 16.8268 15.8054H15.799L14.8944 6.40601C14.8883 6.33828 14.8609 6.27421 14.8163 6.22291L12.9987 4.11842C12.9423 4.05338 12.8624 4.01338 12.7766 4.00721C12.6908 4.00103 12.606 4.02917 12.5409 4.08546L12.5043 4.12208L10.6891 6.22291C10.6423 6.27669 10.6148 6.34458 10.611 6.41578L9.70764 15.8079Z" fill="#54585C"/>
</svg>
