<svg width="25" height="35" viewBox="0 0 25 35" fill="none" xmlns="http://www.w3.org/2000/svg">
<circle cx="12.0695" cy="11.6589" r="10" fill="#5CBDC4"/>
<path d="M3.25365 3.91306C5.15587 1.86862 6.95143 0.837509 9.67142 0.197509C11.1825 -0.158047 14.1158 -0.0158261 15.7158 0.481952C17.7247 1.10417 19.1114 1.97529 20.7825 3.66418C23.2003 6.09973 24.2136 8.55307 24.2314 12.0375C24.2492 14.3308 24.0003 15.3797 22.9514 17.5308C22.187 19.1131 21.9559 19.3975 19.4492 21.8864C15.1292 26.1886 12.9958 29.8864 12.3736 34.1353C12.3392 34.3793 11.9875 34.3783 11.947 34.1353C11.2003 29.6553 9.19143 26.1886 4.8892 21.9042C1.95587 18.9886 1.29809 18.0108 0.498091 15.4153C-0.0352432 13.7086 -0.0707982 10.7575 0.391424 9.01529C0.906979 7.09529 1.86698 5.38862 3.25365 3.91306ZM6.40419 16.6653C6.5158 16.7773 6.65424 16.8333 6.81952 16.8333H17.3195C17.4848 16.8333 17.6232 16.7773 17.7348 16.6653C17.8468 16.5537 17.9028 16.4153 17.9028 16.25C17.9028 16.0847 17.8468 15.9463 17.7348 15.8347C17.6232 15.7227 17.4848 15.6667 17.3195 15.6667H16.7362V10.4167H17.1153C17.3389 10.4167 17.5262 10.3414 17.6771 10.1909C17.8276 10.04 17.9028 9.85278 17.9028 9.62917C17.9028 9.52222 17.8711 9.41275 17.8078 9.30075C17.7448 9.18914 17.6744 9.10417 17.5966 9.04583L12.7403 5.63333C12.6334 5.55556 12.5241 5.50208 12.4125 5.47292C12.3005 5.44375 12.1862 5.42917 12.0695 5.42917C11.9528 5.42917 11.8387 5.44375 11.7271 5.47292C11.6151 5.50208 11.5056 5.55556 11.3987 5.63333L6.54244 9.04583C6.46466 9.10417 6.39427 9.18681 6.33127 9.29375C6.26788 9.40069 6.23619 9.50764 6.23619 9.61458C6.23619 9.8382 6.31163 10.0278 6.46252 10.1833C6.61302 10.3389 6.80008 10.4167 7.02369 10.4167H7.40285V15.6667H6.81952C6.65424 15.6667 6.5158 15.7227 6.40419 15.8347C6.29219 15.9463 6.23619 16.0847 6.23619 16.25C6.23619 16.4153 6.29219 16.5537 6.40419 16.6653ZM10.7354 14.332C10.6234 14.444 10.4848 14.5 10.3195 14.5C10.1542 14.5 10.0158 14.444 9.90419 14.332C9.79219 14.2204 9.73619 14.0819 9.73619 13.9167V11.175C9.73619 10.9611 9.8091 10.7813 9.95494 10.6354C10.1007 10.4896 10.2806 10.4167 10.4945 10.4167C10.6112 10.4167 10.7304 10.4507 10.8521 10.5188C10.9734 10.5868 11.0633 10.6646 11.1216 10.7521L12.0695 12.1667L13.0174 10.7521C13.0758 10.6646 13.1658 10.5868 13.2875 10.5188C13.4088 10.4507 13.523 10.4167 13.6299 10.4167C13.8438 10.4167 14.0262 10.4896 14.1771 10.6354C14.3276 10.7813 14.4028 10.9611 14.4028 11.175V13.9167C14.4028 14.0819 14.347 14.2204 14.2354 14.332C14.1234 14.444 13.9848 14.5 13.8195 14.5C13.6542 14.5 13.5158 14.444 13.4042 14.332C13.2922 14.2204 13.2362 14.0819 13.2362 13.9167V12.1667L12.5507 13.1875C12.4924 13.275 12.422 13.3405 12.3396 13.3841C12.2568 13.428 12.1667 13.45 12.0695 13.45C11.982 13.45 11.8945 13.428 11.807 13.3841C11.7195 13.3405 11.6466 13.275 11.5883 13.1875L10.9028 12.1667V13.9167C10.9028 14.0819 10.847 14.2204 10.7354 14.332Z" fill="#54585C"/>
</svg>
