<svg width="26" height="35" viewBox="0 0 26 35" fill="none" xmlns="http://www.w3.org/2000/svg">
<circle cx="12.9067" cy="11" r="10" fill="#9D9EBF"/>
<path fill-rule="evenodd" clip-rule="evenodd" d="M4.09087 3.91306C5.99309 1.86862 7.78864 0.837509 10.5086 0.197509C12.0198 -0.158047 14.9531 -0.0158261 16.5531 0.481952C18.562 1.10417 19.9486 1.97528 21.6198 3.66417C24.0375 6.09973 25.0509 8.55306 25.0686 12.0375C25.0864 14.3308 24.8375 15.3797 23.7886 17.5308C23.0242 19.1131 22.7931 19.3975 20.2864 21.8864C15.9664 26.1886 13.8331 29.8864 13.2109 34.1353C13.1765 34.3793 12.8247 34.3783 12.7842 34.1353C12.0375 29.6553 10.0286 26.1886 5.72642 21.9042C2.79309 18.9886 2.13531 18.0108 1.33531 15.4153C0.801976 13.7086 0.766421 10.7575 1.22864 9.01529C1.7442 7.09529 2.7042 5.38862 4.09087 3.91306ZM15.5291 16.4355C15.7014 16.3555 16.0618 16.1397 16.6084 15.7881C16.5732 15.7951 16.5382 15.8021 16.5033 15.809C14.2503 16.2579 12.7309 16.5607 10.8477 14.6738C9.82648 13.6523 9.31639 12.4277 9.31639 11C9.31639 9.56153 9.82944 8.33399 10.8536 7.31836C12.7597 5.43292 14.3095 5.74307 16.6073 6.20291L16.6084 6.20313C15.4533 5.40137 14.2509 5 13.0042 5C11.3085 5 9.86883 5.58399 8.6832 6.74805C7.49857 7.91309 6.90674 9.3291 6.90674 11C6.90674 12.6602 7.49561 14.0732 8.67533 15.2432C9.85504 16.4131 11.28 17 12.954 17C13.858 17 14.7177 16.8115 15.5291 16.4355ZM16.0589 10.3115H14.3011L15.7241 11.332L15.1825 12.9971L16.6084 11.9736L18.0224 12.9971L17.4838 11.332L18.9067 10.3115H17.147L16.6084 8.6543L16.0589 10.3115Z" fill="#54585C"/>
</svg>
