<svg width="25" height="35" viewBox="0 0 25 35" fill="none" xmlns="http://www.w3.org/2000/svg">
<circle cx="12.2784" cy="11" r="10" fill="#BAA4A8"/>
<path d="M3.46257 3.91306C5.36479 1.86862 7.16035 0.837509 9.88035 0.197509C11.3914 -0.158047 14.3248 -0.0158261 15.9248 0.481952C17.9336 1.10417 19.3203 1.97529 20.9914 3.66418C23.4092 6.09973 24.4225 8.55307 24.4403 12.0375C24.4581 14.3308 24.2092 15.3797 23.1603 17.5308C22.3959 19.1131 22.1648 19.3975 19.6581 21.8864C15.3381 26.1886 13.2048 29.8864 12.5825 34.1353C12.5481 34.3793 12.1964 34.3783 12.1559 34.1353C11.4092 29.6553 9.40035 26.1886 5.09813 21.9042C2.16479 18.9886 1.50701 18.0108 0.707014 15.4153C0.17368 13.7086 0.138125 10.7575 0.600347 9.01529C1.1159 7.09529 2.0759 5.38862 3.46257 3.91306ZM8.36253 13.7487C8.47453 13.8607 8.61317 13.9167 8.77844 13.9167C8.94372 13.9167 9.08236 13.8632 9.19436 13.7562C9.30597 13.6493 9.36178 13.5132 9.36178 13.3479V10.4167C9.36178 10.2514 9.30597 10.1127 9.19436 10.0007C9.08236 9.88914 8.94372 9.83333 8.77844 9.83333C8.61317 9.83333 8.47453 9.8868 8.36253 9.99375C8.25092 10.1007 8.19511 10.2368 8.19511 10.4021V13.3333C8.19511 13.4986 8.25092 13.6371 8.36253 13.7487ZM11.8631 13.7487C11.9747 13.8607 12.1131 13.9167 12.2784 13.9167C12.4437 13.9167 12.5823 13.8632 12.6943 13.7562C12.8059 13.6493 12.8617 13.5132 12.8617 13.3479V10.4167C12.8617 10.2514 12.8059 10.1127 12.6943 10.0007C12.5823 9.88914 12.4437 9.83333 12.2784 9.83333C12.1131 9.83333 11.9747 9.8868 11.8631 9.99375C11.7511 10.1007 11.6951 10.2368 11.6951 10.4021V13.3333C11.6951 13.4986 11.7511 13.6371 11.8631 13.7487ZM6.60553 16.082C6.71247 16.194 6.84858 16.25 7.01386 16.25H17.5284C17.6937 16.25 17.8321 16.194 17.9437 16.082C18.0557 15.9704 18.1117 15.8319 18.1117 15.6667C18.1117 15.5014 18.0583 15.3629 17.9513 15.2513C17.8444 15.1393 17.7083 15.0833 17.543 15.0833H7.02844C6.86317 15.0833 6.72472 15.1393 6.61311 15.2513C6.50111 15.3629 6.44511 15.5014 6.44511 15.6667C6.44511 15.8319 6.49858 15.9704 6.60553 16.082ZM15.3631 13.7487C15.4747 13.8607 15.6131 13.9167 15.7784 13.9167C15.9437 13.9167 16.0821 13.8632 16.1937 13.7562C16.3057 13.6493 16.3617 13.5132 16.3617 13.3479V10.4167C16.3617 10.2514 16.3057 10.1127 16.1937 10.0007C16.0821 9.88914 15.9437 9.83333 15.7784 9.83333C15.6131 9.83333 15.4747 9.8868 15.3631 9.99375C15.2511 10.1007 15.1951 10.2368 15.1951 10.4021V13.3333C15.1951 13.4986 15.2511 13.6371 15.3631 13.7487ZM17.718 7.29583L12.8034 4.84583C12.6381 4.76805 12.4631 4.72917 12.2784 4.72917C12.0937 4.72917 11.9187 4.76805 11.7534 4.84583L6.83886 7.31042C6.70275 7.36875 6.60319 7.46111 6.54019 7.5875C6.4768 7.71389 6.44511 7.84514 6.44511 7.98125C6.44511 8.17569 6.51803 8.33844 6.66386 8.4695C6.80969 8.60094 6.97983 8.66667 7.17428 8.66667H17.3972C17.5916 8.66667 17.7594 8.60094 17.9006 8.4695C18.0413 8.33844 18.1117 8.17569 18.1117 7.98125C18.1117 7.83542 18.0777 7.70164 18.0097 7.57992C17.9416 7.45858 17.8444 7.36389 17.718 7.29583Z" fill="#54585C"/>
</svg>
