<svg xmlns="http://www.w3.org/2000/svg" viewBox="0 0 20 20" height="20" width="20"><title>oneway.svg</title><rect fill="none" x="0" y="0" width="20" height="20"></rect><path fill="#8a8a8a" transform="translate(2 2)" d="M11.793 7.5H2.5C2.36739 7.5 2.24021 7.55268 2.14645 7.64645C2.05268 7.74021 2 7.86739 2 8C2 8.13261 2.05268 8.25978 2.14645 8.35355C2.24021 8.44732 2.36739 8.5 2.5 8.5H11.793L8.146 12.146C8.05211 12.2399 7.99937 12.3672 7.99937 12.5C7.99937 12.6328 8.05211 12.7601 8.146 12.854C8.23989 12.9479 8.36722 13.0006 8.5 13.0006C8.63278 13.0006 8.76011 12.9479 8.854 12.854L13.354 8.354C13.4006 8.30755 13.4375 8.25238 13.4627 8.19163C13.4879 8.13089 13.5009 8.06577 13.5009 8C13.5009 7.93423 13.4879 7.86911 13.4627 7.80836C13.4375 7.74762 13.4006 7.69244 13.354 7.646L8.854 3.146C8.76011 3.05211 8.63278 2.99937 8.5 2.99937C8.36722 2.99937 8.23989 3.05211 8.146 3.146C8.05211 3.23988 7.99937 3.36722 7.99937 3.5C7.99937 3.63277 8.05211 3.76011 8.146 3.854L11.793 7.5Z"></path></svg>