<svg width="25" height="35" viewBox="0 0 25 35" fill="none" xmlns="http://www.w3.org/2000/svg">
<circle cx="12.2556" cy="11.6589" r="10" fill="#98A5B3"/>
<path d="M3.43975 3.91306C5.34197 1.86862 7.13752 0.837509 9.85755 0.197509C11.3686 -0.158047 14.3019 -0.0158261 15.9019 0.481952C17.9108 1.10417 19.2975 1.97529 20.9686 3.66418C23.3864 6.09973 24.3997 8.55307 24.4175 12.0375C24.4353 14.3308 24.1864 15.3797 23.1375 17.5308C22.373 19.1131 22.1419 19.3975 19.6353 21.8864C15.3153 26.1886 13.1819 29.8864 12.5597 34.1353C12.5253 34.3793 12.1735 34.3783 12.133 34.1353C11.3864 29.6553 9.37752 26.1886 5.0753 21.9042C2.14197 18.9886 1.48419 18.0108 0.684187 15.4153C0.150854 13.7086 0.115298 10.7575 0.577517 9.01529C1.09308 7.09529 2.05308 5.38862 3.43975 3.91306ZM12.2556 5.16667C9.03387 5.16667 6.42229 7.77825 6.42229 11C6.42229 14.2217 9.03387 16.8333 12.2556 16.8333C15.4773 16.8333 18.0889 14.2217 18.0889 11C18.0889 7.77825 15.4773 5.16667 12.2556 5.16667ZM11.6368 7.75628C11.4728 7.92037 11.3806 8.14293 11.3806 8.375V8.38083C11.3806 8.6129 11.4728 8.83546 11.6368 8.99955C11.8009 9.16365 12.0235 9.25583 12.2556 9.25583H12.2614C12.4935 9.25583 12.716 9.16365 12.8801 8.99955C13.0442 8.83546 13.1364 8.6129 13.1364 8.38083V8.375C13.1364 8.14293 13.0442 7.92037 12.8801 7.75628C12.716 7.59219 12.4935 7.5 12.2614 7.5H12.2556C12.0235 7.5 11.8009 7.59219 11.6368 7.75628ZM11.6368 10.3813C11.8009 10.2172 12.0235 10.125 12.2556 10.125H12.2614C12.4935 10.125 12.716 10.2172 12.8801 10.3813C13.0442 10.5454 13.1364 10.7679 13.1364 11V11.0058C13.1364 11.2379 13.0442 11.4605 12.8801 11.6246C12.716 11.7886 12.4935 11.8808 12.2614 11.8808H12.2556C12.0235 11.8808 11.8009 11.7886 11.6368 11.6246C11.4728 11.4605 11.3806 11.2379 11.3806 11.0058V11C11.3806 10.7679 11.4728 10.5454 11.6368 10.3813ZM11.6368 13.0063C11.8009 12.8422 12.0235 12.75 12.2556 12.75H12.2614C12.4935 12.75 12.716 12.8422 12.8801 13.0063C13.0442 13.1704 13.1364 13.3929 13.1364 13.625V13.6308C13.1364 13.8629 13.0442 14.0855 12.8801 14.2496C12.716 14.4136 12.4935 14.5058 12.2614 14.5058H12.2556C12.0235 14.5058 11.8009 14.4136 11.6368 14.2496C11.4728 14.0855 11.3806 13.8629 11.3806 13.6308V13.625C11.3806 13.3929 11.4728 13.1704 11.6368 13.0063Z" fill="#54585C"/>
</svg>
