<svg width="25" height="35" viewBox="0 0 25 35" fill="none" xmlns="http://www.w3.org/2000/svg">
<circle cx="12.0928" cy="11.6589" r="10" fill="#80D980"/>
<path d="M3.27696 3.91306C5.17918 1.86862 6.97473 0.837509 9.69473 0.197509C11.2058 -0.158047 14.1391 -0.0158261 15.7391 0.481952C17.748 1.10417 19.1347 1.97529 20.8058 3.66418C23.2236 6.09973 24.2369 8.55307 24.2547 12.0375C24.2725 14.3308 24.0236 15.3797 22.9747 17.5308C22.2103 19.1131 21.9792 19.3975 19.4725 21.8864C15.1525 26.1886 13.0191 29.8864 12.3969 34.1353C12.3625 34.3793 12.0108 34.3783 11.9703 34.1353C11.2236 29.6553 9.21474 26.1886 4.91252 21.9042C1.97919 18.9886 1.3214 18.0108 0.521406 15.4153C-0.0119271 13.7086 -0.0474831 10.7575 0.414739 9.01529C0.930295 7.09529 1.89029 5.38862 3.27696 3.91306ZM7.09075 10.1687C7.25602 10.334 7.46505 10.4167 7.71783 10.4167C7.97061 10.4167 8.17964 10.334 8.34491 10.1687C8.51019 10.0035 8.59283 9.79444 8.59283 9.54167C8.59283 9.28889 8.51019 9.07986 8.34491 8.91458C8.17964 8.7493 7.97061 8.66667 7.71783 8.66667C7.46505 8.66667 7.25602 8.7493 7.09075 8.91458C6.92547 9.07986 6.84283 9.28889 6.84283 9.54167C6.84283 9.79444 6.92547 10.0035 7.09075 10.1687ZM7.01084 16.6653C7.12245 16.7773 7.2609 16.8333 7.42617 16.8333H16.7595C16.9247 16.8333 17.0632 16.7773 17.1748 16.6653C17.2868 16.5537 17.3428 16.4153 17.3428 16.25C17.3428 16.0847 17.2868 15.9463 17.1748 15.8347C17.0632 15.7227 16.9247 15.6667 16.7595 15.6667H14.4261V12.75H15.447C16.1372 12.75 16.7231 12.5093 17.2045 12.0278C17.6856 11.5468 17.9261 10.9611 17.9261 10.2708C17.9261 9.75555 17.7877 9.29608 17.5108 8.89242C17.2335 8.48914 16.8761 8.19028 16.4386 7.99583C16.3317 7.36389 16.0377 6.8315 15.5566 6.39867C15.0752 5.96622 14.5039 5.75 13.8428 5.75C13.1817 5.75 12.6104 5.96622 12.129 6.39867C11.6479 6.8315 11.3539 7.36389 11.247 7.99583C10.8095 8.19028 10.4523 8.48914 10.1754 8.89242C9.89814 9.29608 9.7595 9.75555 9.7595 10.2708C9.7595 10.9611 10.0002 11.5468 10.4816 12.0278C10.9627 12.5093 11.5484 12.75 12.2386 12.75H13.2595V15.6667H8.59283V13.9167H8.8845C8.96227 13.9167 9.03033 13.8875 9.08866 13.8292C9.147 13.7708 9.17616 13.7028 9.17616 13.625V11.5833C9.17616 11.4181 9.12036 11.2794 9.00875 11.1674C8.89675 11.0558 8.75811 11 8.59283 11H6.84283C6.67755 11 6.53912 11.0558 6.42751 11.1674C6.31551 11.2794 6.2595 11.4181 6.2595 11.5833V13.625C6.2595 13.7028 6.28866 13.7708 6.347 13.8292C6.40533 13.8875 6.4734 13.9167 6.55117 13.9167H6.84283V16.25C6.84283 16.4153 6.89884 16.5537 7.01084 16.6653Z" fill="#54585C"/>
</svg>
