<svg width="25" height="35" viewBox="0 0 25 35" fill="none" xmlns="http://www.w3.org/2000/svg">
<circle cx="12.6045" cy="11.6589" r="10" fill="#6AA7F7"/>
<path d="M3.78862 3.91306C5.69084 1.86862 7.4864 0.837509 10.2064 0.197509C11.7175 -0.158047 14.6508 -0.0158259 16.2508 0.481952C18.2597 1.10417 19.6464 1.97528 21.3175 3.66417C23.7353 6.09973 24.7486 8.55306 24.7664 12.0375C24.7842 14.3308 24.5353 15.3797 23.4864 17.5308C22.722 19.1131 22.4909 19.3975 19.9842 21.8864C15.6642 26.1886 13.5308 29.8864 12.9086 34.1353C12.8742 34.3793 12.5225 34.3783 12.482 34.1353C11.7353 29.6553 9.7264 26.1886 5.42417 21.9042C2.49084 18.9886 1.83306 18.0108 1.03306 15.4153C0.49973 13.7086 0.464175 10.7575 0.926397 9.01528C1.44195 7.09528 2.40195 5.38862 3.78862 3.91306ZM15.5212 5.74998H14.3545V9.93248L12.3128 14.325L10.2712 11.5833L6.77116 16.25H18.4378L15.5212 9.93248V8.08332L18.4378 6.91665L15.5212 5.74998Z" fill="#54585C"/>
</svg>
