<svg width="25" height="35" viewBox="0 0 25 35" fill="none" xmlns="http://www.w3.org/2000/svg">
<circle cx="12.4417" cy="12" r="10" fill="#FF7D7F"/>
<path d="M3.62584 3.91306C5.52806 1.86862 7.32361 0.837509 10.0436 0.197509C11.5547 -0.158047 14.488 -0.015826 16.088 0.481952C18.0969 1.10417 19.4836 1.97528 21.1547 3.66417C23.5725 6.09973 24.5858 8.55306 24.6036 12.0375C24.6214 14.3308 24.3725 15.3797 23.3236 17.5308C22.5592 19.1131 22.3281 19.3975 19.8214 21.8864C15.5014 26.1886 13.368 29.8864 12.7458 34.1353C12.7114 34.3793 12.3597 34.3783 12.3192 34.1353C11.5725 29.6553 9.56361 26.1886 5.26139 21.9042C2.32806 18.9886 1.67028 18.0108 0.870282 15.4153C0.336949 13.7086 0.301394 10.7575 0.763616 9.01529C1.27917 7.09529 2.23917 5.38862 3.62584 3.91306ZM12.0275 6.46165L7.90338 10.5858C6.53838 11.9567 6.53838 14.1675 7.90338 15.5383C9.26838 16.9033 11.485 16.9033 12.8559 15.5383L16.98 11.4142C18.345 10.0433 18.345 7.82665 16.98 6.46165C15.6092 5.09665 13.3984 5.09665 12.0275 6.46165ZM8.12504 13.6658C7.91504 12.89 8.11921 12.0208 8.73171 11.4142L12.8559 7.28999C13.7659 6.37415 15.2417 6.37415 16.1517 7.28999C17.0675 8.19999 17.0675 9.67582 16.1517 10.5858L14.0925 12.6508L11.6192 10.1775L8.12504 13.6658Z" fill="#54585C"/>
</svg>
