<svg width="25" height="35" viewBox="0 0 25 35" fill="none" xmlns="http://www.w3.org/2000/svg">
<circle cx="12.2789" cy="12.6589" r="10" fill="#9D9EBF"/>
<path d="M3.46306 3.91306C5.36528 1.86862 7.16083 0.837509 9.88083 0.197509C11.3919 -0.158047 14.3252 -0.015826 15.9252 0.481952C17.9341 1.10417 19.3208 1.97528 20.9919 3.66417C23.4097 6.09973 24.423 8.55306 24.4408 12.0375C24.4586 14.3308 24.2097 15.3797 23.1608 17.5308C22.3964 19.1131 22.1653 19.3975 19.6586 21.8864C15.3386 26.1886 13.2052 29.8864 12.583 34.1353C12.5486 34.3793 12.1969 34.3783 12.1564 34.1353C11.4097 29.6553 9.40084 26.1886 5.09861 21.9042C2.16528 18.9886 1.5075 18.0108 0.707502 15.4153C0.174169 13.7086 0.138614 10.7575 0.600836 9.01529C1.11639 7.09529 2.07639 5.38862 3.46306 3.91306ZM10.7844 18.5987C11.3724 18.8662 12.0213 19 12.731 19C13.4407 19 14.0898 18.8662 14.6781 18.5987C15.2661 18.3315 15.7715 17.9743 16.1942 17.5271C16.6173 17.0799 16.9456 16.5669 17.1789 15.9882C17.4122 15.41 17.5289 14.8097 17.5289 14.1875V10.3958C17.5289 10.1917 17.4585 10.0192 17.3177 9.87842C17.1766 9.73725 17.0039 9.66667 16.7997 9.66667C16.5956 9.66667 16.4231 9.73725 16.2823 9.87842C16.1411 10.0192 16.0706 10.1917 16.0706 10.3958V13.4583C16.0706 13.5361 16.0414 13.6042 15.9831 13.6625C15.9247 13.7208 15.8567 13.75 15.7789 13.75C15.3414 13.75 14.9574 13.8935 14.6268 14.1805C14.2963 14.4671 14.1018 14.8243 14.0435 15.2521C14.0338 15.3299 14.0046 15.3905 13.956 15.4341C13.9074 15.478 13.849 15.5 13.781 15.5C13.6838 15.5 13.6036 15.466 13.5406 15.3979C13.4773 15.3299 13.4553 15.2521 13.4747 15.1646C13.5525 14.6493 13.7713 14.2095 14.131 13.8451C14.4907 13.4803 14.9428 13.259 15.4872 13.1812V6.89583C15.4872 6.69167 15.4168 6.519 15.2761 6.37783C15.1349 6.23705 14.9622 6.16667 14.7581 6.16667C14.5539 6.16667 14.3814 6.23705 14.2406 6.37783C14.0995 6.519 14.0289 6.69167 14.0289 6.89583V11.125C14.0289 11.2028 13.9997 11.2708 13.9414 11.3292C13.8831 11.3875 13.815 11.4167 13.7372 11.4167C13.6595 11.4167 13.5914 11.3875 13.5331 11.3292C13.4747 11.2708 13.4456 11.2028 13.4456 11.125V5.72917C13.4456 5.525 13.375 5.35233 13.2338 5.21117C13.093 5.07039 12.9206 5 12.7164 5C12.5122 5 12.3398 5.07039 12.199 5.21117C12.0578 5.35233 11.9872 5.525 11.9872 5.72917V11.125C11.9872 11.2028 11.9581 11.2708 11.8997 11.3292C11.8414 11.3875 11.7733 11.4167 11.6956 11.4167C11.6178 11.4167 11.5497 11.3875 11.4914 11.3292C11.4331 11.2708 11.4039 11.2028 11.4039 11.125V6.60417C11.4039 6.4 11.3333 6.22733 11.1921 6.08617C11.0514 5.94539 10.8789 5.875 10.6747 5.875C10.4706 5.875 10.2981 5.94539 10.1573 6.08617C10.0162 6.22733 9.94559 6.4 9.94559 6.60417V11.7083C9.94559 11.7861 9.91643 11.8542 9.85809 11.9125C9.79976 11.9708 9.73171 12 9.65393 12C9.57615 12 9.50809 11.9708 9.44976 11.9125C9.39143 11.8542 9.36226 11.7861 9.36226 11.7083V8.35417C9.36226 8.15 9.29187 7.97733 9.15109 7.83617C9.00993 7.69539 8.83726 7.625 8.63309 7.625C8.42893 7.625 8.25645 7.69539 8.11568 7.83617C7.97451 7.97733 7.90393 8.15 7.90393 8.35417V14.1875C7.90393 14.8097 8.02312 15.4125 8.26151 15.9958C8.49951 16.5792 8.8324 17.0921 9.26018 17.5347C9.68796 17.9768 10.196 18.3315 10.7844 18.5987Z" fill="#54585C"/>
</svg>
