<svg width="25" height="35" viewBox="0 0 25 35" fill="none" xmlns="http://www.w3.org/2000/svg">
<circle cx="12.1161" cy="13" r="10" fill="#80D980"/>
<path fill-rule="evenodd" clip-rule="evenodd" d="M9.71806 0.197509C6.99805 0.837509 5.2025 1.86862 3.30028 3.91306C1.91361 5.38862 0.95361 7.09529 0.438055 9.01529C-0.0241675 10.7575 0.011388 13.7086 0.544721 15.4153C1.34472 18.0108 2.0025 18.9886 4.93583 21.9042C9.23805 26.1886 11.2469 29.6553 11.9936 34.1353C12.0341 34.3783 12.3859 34.3793 12.4203 34.1353C13.0425 29.8864 15.1758 26.1886 19.4958 21.8864C22.0025 19.3975 22.2336 19.1131 22.9981 17.5308C24.0469 15.3797 24.2958 14.3308 24.2781 12.0375C24.2603 8.55306 23.2469 6.09973 20.8292 3.66417C19.1581 1.97528 17.7714 1.10417 15.7625 0.481952C14.1625 -0.0158261 11.2292 -0.158047 9.71806 0.197509ZM7.1474 11.1455H8.59728L8.09502 9.99055C7.91239 9.5702 7.57214 9.23828 7.1474 9.06611V11.1455ZM7.1474 13.3195H9.54621C9.53811 13.3052 9.53053 13.2906 9.52346 13.2757L8.98096 12.028H7.1474V13.3195ZM7.1474 15.493H9.7654V14.2006H7.1474V15.493ZM9.00852 5.94673C9.38081 5.61819 9.86037 5.43707 10.3569 5.43748C10.6258 5.43754 10.892 5.4906 11.1403 5.59363C11.3887 5.69665 11.6143 5.84762 11.8043 6.03791C11.9942 6.22819 12.1448 6.45406 12.2474 6.70258C12.35 6.95111 12.4026 7.21742 12.4022 7.4863V7.70505C13.1399 8.04203 13.7269 8.63994 14.0503 9.38373L14.9047 11.3525H14.9642C15.5073 11.3538 16.0387 11.5101 16.4959 11.8031C16.9532 12.096 17.3173 12.5134 17.5455 13.0062L19.5356 17.3213C19.5971 17.4546 19.624 17.6012 19.6139 17.7476C19.6038 17.8941 19.557 18.0356 19.4779 18.1592C19.3988 18.2828 19.2898 18.3846 19.1611 18.455C19.0323 18.5255 18.8879 18.5625 18.7411 18.5625H13.4693C13.3031 18.5625 13.1403 18.5152 13 18.4261C12.8596 18.337 12.7476 18.2098 12.677 18.0594L11.2966 15.1185V17.6875C11.2966 17.9195 11.2045 18.1421 11.0404 18.3062C10.8763 18.4703 10.6537 18.5625 10.4216 18.5625H9.7654C9.53333 18.5625 9.31078 18.4703 9.14668 18.3062C8.98259 18.1421 8.8904 17.9195 8.8904 17.6875V17.25H8.0224V17.6875C8.0224 17.9195 7.93021 18.1421 7.76612 18.3062C7.60202 18.4703 7.37946 18.5625 7.1474 18.5625H6.49115C6.25908 18.5625 6.03653 18.4703 5.87243 18.3062C5.70834 18.1421 5.61615 17.9195 5.61615 17.6875V7.48148C5.61586 7.08841 5.729 6.7036 5.94197 6.37322C6.15495 6.04285 6.45873 5.78094 6.81686 5.61892C7.17499 5.45689 7.57226 5.40164 7.96101 5.45979C8.34976 5.51794 8.71348 5.68701 9.00852 5.94673ZM11.1835 6.65488C10.9643 6.43565 10.6669 6.31248 10.3569 6.31248C10.0469 6.31248 9.74952 6.43565 9.53029 6.65488C9.31106 6.87411 9.1879 7.17145 9.1879 7.48148V8.93005L9.84415 8.93048V7.48148C9.84415 7.34549 9.89817 7.21507 9.99433 7.11892C10.0905 7.02276 10.2209 6.96873 10.3569 6.96873C10.4929 6.96873 10.6233 7.02276 10.7195 7.11892C10.8156 7.21507 10.8696 7.34549 10.8696 7.48148V8.93573L10.8797 8.93048V8.93748H11.0385C11.3796 8.93753 11.7133 9.03727 11.9985 9.22444C12.2837 9.41161 12.5079 9.67805 12.6437 9.99098L13.7843 12.6186C13.813 12.6847 13.8575 12.7427 13.914 12.7874C13.9705 12.8321 14.0371 12.8622 14.108 12.875C14.1337 12.8797 14.1598 12.882 14.1859 12.882H14.9629C15.2138 12.8819 15.4594 12.9538 15.6707 13.089C15.882 13.2242 16.0501 13.4172 16.1551 13.645L16.2036 13.75L18.0184 17.6875H18.7411L16.751 13.3694C16.5934 13.0277 16.3413 12.7383 16.0244 12.5354C15.7075 12.3326 15.3391 12.2248 14.9629 12.2249H14.3294L13.2461 9.73111C13.0927 9.37688 12.8564 9.06475 12.5569 8.82109C12.2575 8.57742 11.9039 8.40937 11.5259 8.33111V7.48148C11.5259 7.17145 11.4027 6.87411 11.1835 6.65488ZM8.1729 8.92917L8.82915 8.92961V7.48148C8.82915 7.17145 8.70599 6.87411 8.48676 6.65488C8.26753 6.43565 7.97019 6.31248 7.66015 6.31248C7.35011 6.31248 7.05277 6.43565 6.83354 6.65488C6.61431 6.87411 6.49115 7.17145 6.49115 7.48148V17.6875H7.1474V16.375H9.76671V17.6875H10.423V13.5382H10.7034C10.9815 13.5804 11.2445 13.6921 11.468 13.8629C11.6914 14.0338 11.8682 14.2583 11.9818 14.5156L13.4693 17.6875H14.1916L12.5763 14.2409C12.379 13.813 12.0076 13.3987 11.5727 13.1423C11.3042 12.995 11.0074 12.9065 10.7021 12.8829H10.0686V12.882L10.0655 12.875L8.69659 9.73023C8.56705 9.43066 8.37802 9.16051 8.14096 8.93617C7.86009 8.67061 7.51927 8.47898 7.1474 8.37311V7.48061C7.1474 7.34462 7.20142 7.2142 7.29758 7.11804C7.39374 7.02188 7.52416 6.96786 7.66015 6.96786C7.79614 6.96786 7.92656 7.02188 8.02272 7.11804C8.11888 7.2142 8.1729 7.34462 8.1729 7.48061V8.92917Z" fill="#54585C"/>
</svg>
