<svg width="26" height="35" viewBox="0 0 26 35" fill="none" xmlns="http://www.w3.org/2000/svg">
<circle cx="12.9534" cy="12" r="10" fill="#9D9EBF"/>
<path fill-rule="evenodd" clip-rule="evenodd" d="M4.1375 3.91306C6.03972 1.86862 7.83527 0.837509 10.5553 0.197509C12.0664 -0.158047 14.9997 -0.0158261 16.5997 0.481952C18.6086 1.10417 19.9953 1.97528 21.6664 3.66417C24.0842 6.09973 25.0975 8.55306 25.1153 12.0375C25.1331 14.3308 24.8842 15.3797 23.8353 17.5308C23.0708 19.1131 22.8397 19.3975 20.3331 21.8864C16.0131 26.1886 13.8797 29.8864 13.2575 34.1353C13.2231 34.3793 12.8713 34.3783 12.8308 34.1353C12.0842 29.6553 10.0753 26.1886 5.77305 21.9042C2.83972 18.9886 2.18194 18.0108 1.38194 15.4153C0.848607 13.7086 0.813052 10.7575 1.27527 9.01529C1.79083 7.09529 2.75083 5.38862 4.1375 3.91306ZM12.7883 14.1387L11.6213 14.9992C11.4876 15.0948 11.3478 15.0979 11.202 15.0085C11.0561 14.9186 11.0135 14.79 11.0743 14.6227L11.5119 13.2065L10.3632 12.2922C10.2173 12.1847 10.1748 12.0472 10.2355 11.8799C10.2963 11.7126 10.4179 11.629 10.6002 11.629H11.986L12.4601 10.2128C12.5209 10.0454 12.6303 9.96178 12.7883 9.96178C12.9464 9.96178 13.0558 10.0454 13.1166 10.2128L13.5907 11.629H14.9765C15.1588 11.629 15.2775 11.7126 15.3324 11.8799C15.3869 12.0472 15.3472 12.1847 15.2135 12.2922L14.0283 13.2065L14.4659 14.6227C14.5267 14.79 14.4841 14.9186 14.3383 15.0085C14.1924 15.0979 14.0526 15.0948 13.9189 14.9992L12.7883 14.1387ZM12.606 20.18H12.7883C12.9585 20.18 13.074 20.168 13.1348 20.1441C14.7273 19.6541 16.0401 18.683 17.0734 17.2307C18.1067 15.7789 18.6233 14.1745 18.6233 12.4177V9.02959C18.6233 8.73081 18.5353 8.46191 18.3593 8.22289C18.1828 7.98387 17.9548 7.81058 17.6752 7.70302L13.2989 6.08962C13.1287 6.02986 12.9585 5.99998 12.7883 5.99998C12.6182 5.99998 12.448 6.02986 12.2778 6.08962L7.90154 7.70302C7.62194 7.81058 7.39413 7.98387 7.21811 8.22289C7.0416 8.46191 6.95335 8.73081 6.95335 9.02959V12.4177C6.95335 14.1745 7.46999 15.7789 8.50327 17.2307C9.53655 18.683 10.8494 19.6541 12.4419 20.1441C12.4905 20.168 12.5452 20.18 12.606 20.18Z" fill="#54585C"/>
</svg>
