<svg width="25" height="35" viewBox="0 0 25 35" fill="none" xmlns="http://www.w3.org/2000/svg">
<circle cx="12.7906" cy="11.6589" r="10" fill="#5CBDC4"/>
<path d="M3.97472 3.91306C5.87694 1.86862 7.67249 0.837509 10.3925 0.197509C11.9036 -0.158047 14.8369 -0.0158261 16.4369 0.481952C18.4458 1.10417 19.8325 1.97529 21.5036 3.66418C23.9214 6.09973 24.9347 8.55307 24.9525 12.0375C24.9703 14.3308 24.7214 15.3797 23.6725 17.5308C22.9081 19.1131 22.677 19.3975 20.1703 21.8864C15.8503 26.1886 13.7169 29.8864 13.0947 34.1353C13.0603 34.3793 12.7086 34.3783 12.6681 34.1353C11.9214 29.6553 9.91249 26.1886 5.61027 21.9042C2.67694 18.9886 2.01916 18.0108 1.21916 15.4153C0.685827 13.7086 0.650271 10.7575 1.11249 9.01529C1.62805 7.09529 2.58805 5.38862 3.97472 3.91306ZM13.9573 11.0583C13.8406 11.0583 13.7288 11.0194 13.6219 10.9417L9.87392 8.33125V6.91667L13.9573 9.74583L18.0406 6.91667V8.33125L14.2927 10.9417C14.1857 11.0194 14.0739 11.0583 13.9573 11.0583ZM6.71663 15.9073C6.9451 16.1358 7.21976 16.25 7.54059 16.25H16.5823C16.7475 16.25 16.8861 16.1941 16.9979 16.0823C17.1097 15.9705 17.1656 15.8319 17.1656 15.6667C17.1656 15.5014 17.1097 15.3628 16.9979 15.251C16.8861 15.1392 16.7475 15.0833 16.5823 15.0833H7.54059V8.375C7.54059 8.20972 7.48469 8.07118 7.37288 7.95938C7.26108 7.84757 7.12253 7.79167 6.95726 7.79167C6.79198 7.79167 6.65344 7.84757 6.54163 7.95938C6.42983 8.07118 6.37392 8.20972 6.37392 8.375V15.0833C6.37392 15.4042 6.48816 15.6788 6.71663 15.9073ZM9.04996 13.574C9.27844 13.8024 9.55309 13.9167 9.87392 13.9167H18.0406C18.3614 13.9167 18.6361 13.8024 18.8646 13.574C19.093 13.3455 19.2073 13.0708 19.2073 12.75V6.91667C19.2073 6.59583 19.093 6.32118 18.8646 6.09271C18.6361 5.86424 18.3614 5.75 18.0406 5.75H9.87392C9.55309 5.75 9.27844 5.86424 9.04996 6.09271C8.82149 6.32118 8.70726 6.59583 8.70726 6.91667V12.75C8.70726 13.0708 8.82149 13.3455 9.04996 13.574Z" fill="#54585C"/>
</svg>
