<svg width="25" height="35" viewBox="0 0 25 35" fill="none" xmlns="http://www.w3.org/2000/svg">
<circle cx="12.6278" cy="11.6589" r="10" fill="#5CBDC4"/>
<path d="M3.81194 3.91306C5.71416 1.86862 7.50971 0.837509 10.2297 0.197509C11.7408 -0.158047 14.6741 -0.015826 16.2741 0.481952C18.283 1.10417 19.6697 1.97528 21.3408 3.66417C23.7586 6.09973 24.7719 8.55306 24.7897 12.0375C24.8075 14.3308 24.5586 15.3797 23.5097 17.5308C22.7453 19.1131 22.5142 19.3975 20.0075 21.8864C15.6875 26.1886 13.5541 29.8864 12.9319 34.1353C12.8975 34.3793 12.5458 34.3783 12.5053 34.1353C11.7586 29.6553 9.74972 26.1886 5.44749 21.9042C2.51416 18.9886 1.85638 18.0108 1.05638 15.4153C0.523045 13.7086 0.48749 10.7575 0.949712 9.01529C1.46527 7.09529 2.42527 5.38862 3.81194 3.91306ZM7.43022 5.8229H5.62781V6.41763H7.43136V16.0768H5.62781V16.9575H19.6301V16.0768H18.2743V6.41421H19.6175V5.8229H18.2618V3.99998H17.5782V5.8229H15.7279V3.99998H15.0443V5.8229H13.1895V3.99998H12.5059V5.8229H10.6499V3.99998H9.96635V5.8229H8.11381V3.99998H7.43022V5.8229ZM9.95724 10.3699L9.94698 9.6328H9.96407V6.41763H8.12179V15.0024C8.42997 14.6168 8.84498 14.5249 9.3003 14.424C9.51492 14.3764 9.7385 14.3269 9.96407 14.2436V10.3699H9.95724ZM10.6568 12.6734C10.6556 12.6712 10.6545 12.669 10.6534 12.6668H10.6568V12.6734ZM10.6568 12.6734V13.8472C10.6796 13.8289 10.7023 13.8084 10.7251 13.7879C10.6853 13.903 11.4725 14.6173 12.5082 14.6447V14.001C12.1386 13.9808 11.7826 13.8547 11.4828 13.6375C11.1366 13.3843 10.8538 13.0543 10.6568 12.6734ZM13.5734 13.7127C13.4533 13.7872 13.3258 13.849 13.1929 13.8973V14.557C13.6588 14.4121 14.0781 14.1468 14.4086 13.7879C14.5949 13.9566 14.8098 14.0909 15.0432 14.1844V10.9168C14.8438 12.3638 14.265 13.282 13.5734 13.7127ZM14.3522 8.11214C14.678 8.41085 14.9168 8.79225 15.0432 9.2158V6.41763H13.1929V7.51935C13.6258 7.60857 14.0264 7.81343 14.3522 8.11214ZM11.4647 7.78107C11.7847 7.60385 12.1398 7.49932 12.5048 7.47492V6.41763H10.6534V8.50031C10.8677 8.20387 11.1447 7.9583 11.4647 7.78107ZM15.8696 14.4064C15.8246 14.3975 15.7792 14.3885 15.7336 14.3792V6.41763H17.5793V16.0802H17.5565C17.3005 14.6894 16.6302 14.5568 15.8696 14.4064ZM12.5048 10.7129L10.6534 10.5192V10.3711H12.5048V10.7129ZM14.9019 10.4805L13.1929 10.6662V10.6627V10.3665H14.9099C14.9019 10.4075 14.9019 10.444 14.9019 10.4805ZM14.8129 11.1643C14.8137 11.1634 14.8145 11.1626 14.8153 11.1618V11.1504C14.8145 11.155 14.8137 11.1596 14.8129 11.1643ZM13.1929 11.5548C13.7389 11.8449 14.2884 11.7022 14.8129 11.1643C14.7592 11.4698 14.6792 11.7701 14.5738 12.0618C14.5247 12.0821 14.4782 12.1402 14.4251 12.2065C14.2872 12.3789 14.1043 12.6074 13.7136 12.3763C13.5428 12.3267 13.3688 12.2887 13.1929 12.2624V11.5548ZM10.6534 11.3691C11.2378 11.8989 11.8622 11.8089 12.5048 11.2073V12.2156C12.1626 12.2241 11.8232 12.28 11.4965 12.382C11.0655 12.6318 10.8686 12.3359 10.7219 12.1154C10.698 12.0795 10.6754 12.0455 10.6534 12.0163V11.3691ZM13.1883 11.147C13.2222 11.1906 13.2604 11.2306 13.3023 11.2666H13.3091C13.7865 11.671 14.2946 11.3452 14.5327 10.861C14.5356 10.8546 14.5386 10.849 14.5413 10.844C14.5523 10.8232 14.5585 10.8117 14.5327 10.7869C14.5099 10.7649 14.4743 10.7703 14.4422 10.7752C14.4293 10.7771 14.417 10.779 14.4063 10.779L13.1883 10.9692V11.147ZM12.1573 10.9863C12.1016 11.0929 12.0262 11.188 11.9351 11.2666H11.9453C11.468 11.671 10.9598 11.3452 10.7217 10.861C10.719 10.8549 10.7162 10.8496 10.7137 10.8447C10.7026 10.8235 10.6966 10.812 10.7217 10.7869C10.7437 10.765 10.779 10.7703 10.8111 10.7752C10.824 10.7771 10.8363 10.779 10.847 10.779L12.1573 10.9863ZM13.4458 13.0006C13.4458 12.9106 13.349 12.8297 13.1929 12.7728V13.2285C13.349 13.1704 13.4458 13.0906 13.4458 13.0006ZM11.8496 12.9995C11.8496 13.1522 12.1345 13.2786 12.5093 13.3048V12.6942C12.1345 12.7204 11.8496 12.8468 11.8496 12.9995Z" fill="#54585C"/>
</svg>
