<svg width="25" height="35" viewBox="0 0 25 35" fill="none" xmlns="http://www.w3.org/2000/svg">
<circle cx="12.465" cy="12" r="10" fill="#FAA264"/>
<path fill-rule="evenodd" clip-rule="evenodd" d="M3.64915 3.91306C5.55138 1.86862 7.34693 0.837509 10.0669 0.197509C11.578 -0.158047 14.5114 -0.0158261 16.1114 0.481952C18.1203 1.10417 19.5069 1.97528 21.178 3.66417C23.5958 6.09973 24.6092 8.55306 24.6269 12.0375C24.6447 14.3308 24.3958 15.3797 23.3469 17.5308C22.5825 19.1131 22.3514 19.3975 19.8447 21.8864C15.5247 26.1886 13.3914 29.8864 12.7692 34.1353C12.7347 34.3793 12.383 34.3783 12.3425 34.1353C11.5958 29.6553 9.58693 26.1886 5.28471 21.9042C2.35138 18.9886 1.6936 18.0108 0.893598 15.4153C0.360265 13.7086 0.324709 10.7575 0.786932 9.01529C1.30249 7.09529 2.26249 5.38862 3.64915 3.91306ZM6.74855 18.0667C6.74855 18.2556 6.80966 18.4111 6.93188 18.5333C7.06521 18.6667 7.22077 18.7333 7.39855 18.7333C7.57633 18.7333 7.73188 18.6667 7.86521 18.5333L12.4652 13.9667L17.0652 18.5333C17.1985 18.6667 17.3541 18.7333 17.5319 18.7333C17.7097 18.7333 17.8652 18.6667 17.9985 18.5333C18.1208 18.4111 18.1819 18.2556 18.1819 18.0667C18.1819 17.8778 18.1208 17.7222 17.9985 17.6L13.3985 13L14.2319 12.1667C14.6985 12.3667 15.2263 12.3944 15.8152 12.25C16.4041 12.1056 16.9319 11.7889 17.3985 11.3C17.9874 10.7111 18.3319 10.0556 18.4319 9.33333C18.5319 8.61111 18.3541 8.02222 17.8985 7.56667C17.443 7.11111 16.8541 6.93333 16.1319 7.03333C15.4097 7.13333 14.7541 7.47778 14.1652 8.06667C13.6763 8.53333 13.3597 9.06111 13.2152 9.65C13.0708 10.2389 13.0985 10.7667 13.2985 11.2333L6.93188 17.6C6.80966 17.7222 6.74855 17.8778 6.74855 18.0667ZM7.36521 11.3L9.36521 13.3L11.4985 11.1667L7.94855 7.58333C7.78188 7.40555 7.58744 7.32778 7.36521 7.35C7.14299 7.37222 6.97633 7.47778 6.86521 7.66667C6.53188 8.25555 6.40677 8.88333 6.48988 9.55C6.57344 10.2167 6.86521 10.8 7.36521 11.3Z" fill="#54585C"/>
</svg>
