<svg width="25" height="35" viewBox="0 0 25 35" fill="none" xmlns="http://www.w3.org/2000/svg">
<circle cx="12.3022" cy="12" r="10" fill="#B7B6BA"/>
<path fill-rule="evenodd" clip-rule="evenodd" d="M3.48637 3.91306C5.3886 1.86862 7.18415 0.837509 9.90415 0.197509C11.4153 -0.158047 14.3486 -0.0158261 15.9486 0.481952C17.9575 1.10417 19.3442 1.97528 21.0153 3.66417C23.433 6.09973 24.4464 8.55306 24.4642 12.0375C24.4819 14.3308 24.233 15.3797 23.1842 17.5308C22.4197 19.1131 22.1886 19.3975 19.6819 21.8864C15.3619 26.1886 13.2286 29.8864 12.6064 34.1353C12.572 34.3793 12.2202 34.3783 12.1797 34.1353C11.433 29.6553 9.42415 26.1886 5.12193 21.9042C2.1886 18.9886 1.53082 18.0108 0.730818 15.4153C0.197484 13.7086 0.161929 10.7575 0.624151 9.01529C1.13971 7.09529 2.09971 5.38862 3.48637 3.91306ZM12.1372 12.2222C13.7491 12.2222 15.0547 10.9294 15.0547 9.33329L14.9745 8.6544L16.5135 7.88885V11.1388H17.2428V7.52774L12.1372 4.99996L7.0316 7.52774L9.29996 8.6544L9.21973 9.33329C9.21973 10.9294 10.5253 12.2222 12.1372 12.2222ZM17.9722 16.5555C17.9722 14.9594 15.3611 13.6666 12.1372 13.6666C8.91339 13.6666 6.30223 14.9594 6.30223 16.5555V18H17.9722V16.5555Z" fill="#54585C"/>
</svg>
