<svg width="25" height="35" viewBox="0 0 25 35" fill="none" xmlns="http://www.w3.org/2000/svg">
<circle cx="12.1395" cy="13" r="10" fill="#5CBDC4"/>
<path fill-rule="evenodd" clip-rule="evenodd" d="M3.32359 3.91306C5.22581 1.86862 7.02137 0.837509 9.74137 0.197509C11.2525 -0.158047 14.1858 -0.0158261 15.7858 0.481952C17.7947 1.10417 19.1814 1.97528 20.8525 3.66417C23.2703 6.09973 24.2836 8.55306 24.3014 12.0375C24.3191 14.3308 24.0703 15.3797 23.0214 17.5308C22.2569 19.1131 22.0258 19.3975 19.5191 21.8864C15.1991 26.1886 13.0658 29.8864 12.4436 34.1353C12.4092 34.3793 12.0574 34.3783 12.0169 34.1353C11.2703 29.6553 9.26137 26.1886 4.95915 21.9042C2.02581 18.9886 1.36804 18.0108 0.568037 15.4153C0.0347034 13.7086 -0.000852111 10.7575 0.46137 9.01529C0.976926 7.09529 1.93693 5.38862 3.32359 3.91306ZM6.56832 18.245C6.85375 18.5283 7.19704 18.67 7.59819 18.67H16.3507C16.7519 18.67 17.0954 18.5283 17.3813 18.245C17.6667 17.9612 17.8094 17.6202 17.8094 17.222V10.706C17.8094 10.4767 17.7579 10.2595 17.6548 10.0544C17.5512 9.84923 17.4083 9.68029 17.2259 9.54756L12.8497 6.28956C12.5944 6.09649 12.3027 5.99996 11.9744 5.99996C11.6462 5.99996 11.3545 6.09649 11.0992 6.28956L6.72294 9.54756C6.5406 9.68029 6.39789 9.84923 6.2948 10.0544C6.19123 10.2595 6.13944 10.4767 6.13944 10.706V17.222C6.13944 17.6202 6.2824 17.9612 6.56832 18.245ZM14.8919 16.136V15.412H9.05694V16.136C9.05694 16.2325 9.02048 16.317 8.94754 16.3894C8.8746 16.4618 8.78951 16.498 8.69226 16.498C8.59501 16.498 8.50991 16.4618 8.43698 16.3894C8.36404 16.317 8.32757 16.2325 8.32757 16.136V11.792C8.32757 11.6954 8.36404 11.611 8.43698 11.5386C8.50991 11.4662 8.59501 11.43 8.69226 11.43C8.78951 11.43 8.8746 11.4662 8.94754 11.5386C9.02048 11.611 9.05694 11.6954 9.05694 11.792V14.688H11.6098V12.516C11.6098 12.4194 11.6462 12.335 11.7192 12.2626C11.7921 12.1902 11.8772 12.154 11.9744 12.154H14.1626C14.5637 12.154 14.9073 12.2956 15.1932 12.5789C15.4786 12.8628 15.6213 13.2038 15.6213 13.602V16.136C15.6213 16.2325 15.5849 16.317 15.5119 16.3894C15.439 16.4618 15.3539 16.498 15.2566 16.498C15.1594 16.498 15.0743 16.4618 15.0014 16.3894C14.9284 16.317 14.8919 16.2325 14.8919 16.136ZM10.9803 14.0631C10.8043 14.2384 10.5886 14.326 10.3334 14.326C10.0781 14.326 9.86242 14.2384 9.6864 14.0631C9.50989 13.8884 9.42163 13.6744 9.42163 13.421C9.42163 13.1676 9.50989 12.9535 9.6864 12.7788C9.86242 12.6036 10.0781 12.516 10.3334 12.516C10.5886 12.516 10.8043 12.6036 10.9803 12.7788C11.1568 12.9535 11.2451 13.1676 11.2451 13.421C11.2451 13.6744 11.1568 13.8884 10.9803 14.0631Z" fill="#54585C"/>
</svg>
