<svg width="26" height="35" viewBox="0 0 26 35" fill="none" xmlns="http://www.w3.org/2000/svg">
<circle cx="12.9767" cy="11.6589" r="10" fill="#6AA7F7"/>
<path d="M4.16081 3.91306C6.06303 1.86862 7.85859 0.837509 10.5786 0.197509C12.0897 -0.158047 15.023 -0.0158259 16.623 0.481952C18.6319 1.10417 20.0186 1.97528 21.6897 3.66417C24.1075 6.09973 25.1208 8.55306 25.1386 12.0375C25.1564 14.3308 24.9075 15.3797 23.8586 17.5308C23.0942 19.1131 22.8631 19.3975 20.3564 21.8864C16.0364 26.1886 13.903 29.8864 13.2808 34.1353C13.2464 34.3793 12.8947 34.3783 12.8542 34.1353C12.1075 29.6553 10.0986 26.1886 5.79636 21.9042C2.86303 18.9886 2.20525 18.0108 1.40526 15.4153C0.871922 13.7086 0.836367 10.7575 1.29859 9.01528C1.81414 7.09528 2.77414 5.38862 4.16081 3.91306ZM11.6426 10.2486C11.5306 10.3606 11.392 10.4166 11.2267 10.4166C11.0614 10.4166 10.923 10.3606 10.8114 10.2486C10.6994 10.137 10.6434 9.99859 10.6434 9.83332V8.66665H11.81V9.83332C11.81 9.99859 11.7542 10.137 11.6426 10.2486ZM13.801 6.67632C14.0292 6.90459 14.1434 7.17915 14.1434 7.49998H11.81C11.81 7.17915 11.9244 6.90459 12.153 6.67632C12.3813 6.44765 12.6559 6.33332 12.9767 6.33332C13.2975 6.33332 13.5723 6.44765 13.801 6.67632ZM15.1426 10.2486C15.0306 10.3606 14.892 10.4166 14.7267 10.4166C14.5614 10.4166 14.423 10.3606 14.3114 10.2486C14.1994 10.137 14.1434 9.99859 14.1434 9.83332V8.66665H15.31V9.83332C15.31 9.99859 15.2542 10.137 15.1426 10.2486ZM8.65301 16.4909C8.88129 16.7192 9.15585 16.8333 9.47668 16.8333H16.4767C16.7975 16.8333 17.0723 16.7192 17.3009 16.4909C17.5292 16.2622 17.6434 15.9875 17.6434 15.6666V8.66665C17.6434 8.34582 17.5292 8.07126 17.3009 7.84298C17.0723 7.61432 16.7975 7.49998 16.4767 7.49998H15.31C15.31 6.85832 15.0816 6.30901 14.6246 5.85207C14.1677 5.39512 13.6184 5.16665 12.9767 5.16665C12.335 5.16665 11.7857 5.39512 11.3288 5.85207C10.8718 6.30901 10.6434 6.85832 10.6434 7.49998H9.47668C9.15585 7.49998 8.88129 7.61432 8.65301 7.84298C8.42435 8.07126 8.31001 8.34582 8.31001 8.66665V15.6666C8.31001 15.9875 8.42435 16.2622 8.65301 16.4909Z" fill="#54585C"/>
</svg>
