<svg width="25" height="35" viewBox="0 0 25 35" fill="none" xmlns="http://www.w3.org/2000/svg">
<circle cx="12.8139" cy="11.6589" r="10" fill="#80D980"/>
<path d="M3.99803 3.91306C5.90025 1.86862 7.69581 0.837509 10.4158 0.197509C11.9269 -0.158047 14.8602 -0.0158259 16.4602 0.481952C18.4691 1.10417 19.8558 1.97528 21.5269 3.66417C23.9447 6.09973 24.958 8.55306 24.9758 12.0375C24.9936 14.3308 24.7447 15.3797 23.6958 17.5308C22.9314 19.1131 22.7003 19.3975 20.1936 21.8864C15.8736 26.1886 13.7402 29.8864 13.118 34.1353C13.0836 34.3793 12.7319 34.3783 12.6914 34.1353C11.9447 29.6553 9.93581 26.1886 5.63358 21.9042C2.70025 18.9886 2.04247 18.0108 1.24248 15.4153C0.709142 13.7086 0.673587 10.7575 1.13581 9.01528C1.65136 7.09528 2.61136 5.38862 3.99803 3.91306ZM12.9306 13.9166L14.5639 12.2833C14.6806 12.1666 14.7389 12.0305 14.7389 11.875C14.7389 11.7194 14.6806 11.5833 14.5639 11.4667L9.63473 6.53748C9.51807 6.42082 9.37709 6.36248 9.21182 6.36248C9.04654 6.36248 8.90557 6.42082 8.7889 6.53748L7.15557 8.17082C7.0389 8.28748 6.98057 8.41873 6.98057 8.56457C6.98057 8.7104 7.0389 8.84165 7.15557 8.95832L12.1139 13.9166C12.2306 14.0333 12.3667 14.0916 12.5222 14.0916C12.6778 14.0916 12.8139 14.0333 12.9306 13.9166ZM14.1847 14.3541L16.2556 16.425C16.3625 16.5319 16.4986 16.5854 16.6639 16.5854C16.8292 16.5854 16.9653 16.5319 17.0722 16.425C17.1889 16.3083 17.2472 16.1722 17.2472 16.0166C17.2472 15.8611 17.1938 15.7298 17.0868 15.6229L15.0014 13.5375L14.1847 14.3541ZM15.1618 8.65207C15.5604 9.05068 16.0417 9.24998 16.6056 9.24998C17.1695 9.24998 17.6507 9.05068 18.0493 8.65207C18.4479 8.25346 18.6472 7.7722 18.6472 7.20832C18.6472 6.64443 18.4479 6.16318 18.0493 5.76457C17.6507 5.36595 17.1695 5.16665 16.6056 5.16665C16.0417 5.16665 15.5604 5.36595 15.1618 5.76457C14.7632 6.16318 14.5639 6.64443 14.5639 7.20832C14.5639 7.7722 14.7632 8.25346 15.1618 8.65207Z" fill="#54585C"/>
</svg>
