<svg width="25" height="35" viewBox="0 0 25 35" fill="none" xmlns="http://www.w3.org/2000/svg">
<circle cx="12.6511" cy="11.6589" r="10" fill="#5CBDC4"/>
<path d="M3.83525 3.91306C5.73747 1.86862 7.53303 0.837509 10.253 0.197509C11.7641 -0.158047 14.6974 -0.0158261 16.2974 0.481952C18.3063 1.10417 19.693 1.97529 21.3641 3.66418C23.7819 6.09973 24.7952 8.55307 24.813 12.0375C24.8308 14.3308 24.5819 15.3797 23.533 17.5308C22.7686 19.1131 22.5375 19.3975 20.0308 21.8864C15.7108 26.1886 13.5774 29.8864 12.9552 34.1353C12.9208 34.3793 12.5691 34.3783 12.5286 34.1353C11.7819 29.6553 9.77303 26.1886 5.4708 21.9042C2.53747 18.9886 1.87969 18.0108 1.07969 15.4153C0.546361 13.7086 0.510806 10.7575 0.973028 9.01529C1.48858 7.09529 2.44858 5.38862 3.83525 3.91306ZM7.53937 7.86457C7.63193 7.9229 7.72681 7.92776 7.82404 7.87915L9.20945 7.17915C9.25806 7.14999 9.29695 7.1111 9.32612 7.06249C9.35529 7.01387 9.36987 6.96526 9.36987 6.91665C9.36987 6.86804 9.35529 6.81943 9.32612 6.77082C9.29695 6.72221 9.25806 6.68332 9.20945 6.65415L7.82404 5.95415C7.72681 5.90554 7.63193 5.9104 7.53937 5.96874C7.4472 6.02707 7.40112 6.10971 7.40112 6.21665V7.61665C7.40112 7.7236 7.4472 7.80624 7.53937 7.86457ZM16.2899 7.86457C16.3821 7.9229 16.4768 7.92776 16.574 7.87915L17.9594 7.17915C18.008 7.14999 18.0469 7.1111 18.0761 7.06249C18.1053 7.01387 18.1199 6.96526 18.1199 6.91665C18.1199 6.86804 18.1053 6.81943 18.0761 6.77082C18.0469 6.72221 18.008 6.68332 17.9594 6.65415L16.574 5.95415C16.4768 5.90554 16.3821 5.9104 16.2899 5.96874C16.1974 6.02707 16.1511 6.10971 16.1511 6.21665V7.61665C16.1511 7.7236 16.1974 7.80624 16.2899 7.86457ZM12.2066 7.28124C12.2988 7.33957 12.3935 7.34443 12.4907 7.29582L13.8761 6.59582C13.9247 6.56665 13.9636 6.52776 13.9928 6.47915C14.0219 6.43054 14.0365 6.38193 14.0365 6.33332C14.0365 6.28471 14.0219 6.2361 13.9928 6.18749C13.9636 6.13887 13.9247 6.09999 13.8761 6.07082L12.4907 5.37082C12.3935 5.32221 12.2988 5.32707 12.2066 5.3854C12.114 5.44374 12.0678 5.52637 12.0678 5.63332V7.03332C12.0678 7.14026 12.114 7.2229 12.2066 7.28124ZM9.41362 16.5417C9.89973 16.6389 10.3956 16.7118 10.9011 16.7604V14.5C10.9011 14.3347 10.9571 14.1963 11.0691 14.0847C11.1807 13.9727 11.3192 13.9167 11.4844 13.9167H13.8178C13.983 13.9167 14.1217 13.9727 14.2337 14.0847C14.3453 14.1963 14.4011 14.3347 14.4011 14.5V16.7604C14.9067 16.7118 15.4025 16.6389 15.8886 16.5417C16.3747 16.4444 16.8099 16.3252 17.1941 16.1841C17.5779 16.0433 17.889 15.8805 18.1274 15.6958C18.3654 15.5111 18.4844 15.3069 18.4844 15.0833V9.83332C18.4844 9.59026 18.3312 9.36412 18.0248 9.1549C17.7187 8.94607 17.3032 8.76135 16.7782 8.60074C16.2532 8.44051 15.6358 8.31412 14.9261 8.22157C14.2164 8.1294 13.458 8.08332 12.6511 8.08332C11.8442 8.08332 11.0858 8.1294 10.3761 8.22157C9.6664 8.31412 9.04904 8.44051 8.52404 8.60074C7.99904 8.76135 7.58351 8.94607 7.27745 9.1549C6.97101 9.36412 6.81779 9.59026 6.81779 9.83332V15.0833C6.81779 15.3069 6.93679 15.5111 7.17479 15.6958C7.41318 15.8805 7.72448 16.0433 8.1087 16.1841C8.49254 16.3252 8.92751 16.4444 9.41362 16.5417ZM15.0941 10.2487C14.4085 10.3607 13.5942 10.4167 12.6511 10.4167C11.708 10.4167 10.8939 10.3607 10.2087 10.2487C9.52309 10.137 8.97612 10.0083 8.56779 9.86249C8.56779 9.81387 8.93723 9.69954 9.67612 9.51949C10.415 9.33982 11.4067 9.24999 12.6511 9.24999C13.8955 9.24999 14.8872 9.33982 15.6261 9.51949C16.365 9.69954 16.7344 9.81387 16.7344 9.86249C16.3261 10.0083 15.7793 10.137 15.0941 10.2487Z" fill="#54585C"/>
</svg>
