<svg width="25" height="35" viewBox="0 0 25 35" fill="none" xmlns="http://www.w3.org/2000/svg">
<circle cx="12.4883" cy="11.6589" r="10" fill="#98A5B3"/>
<path d="M3.67241 3.91306C5.57463 1.86862 7.37019 0.837509 10.0902 0.197509C11.6013 -0.158047 14.5346 -0.0158259 16.1346 0.481952C18.1435 1.10417 19.5302 1.97528 21.2013 3.66417C23.6191 6.09973 24.6324 8.55306 24.6502 12.0375C24.668 14.3308 24.4191 15.3797 23.3702 17.5308C22.6058 19.1131 22.3747 19.3975 19.868 21.8864C15.548 26.1886 13.4146 29.8864 12.7924 34.1353C12.758 34.3793 12.4063 34.3783 12.3658 34.1353C11.6191 29.6553 9.61019 26.1886 5.30796 21.9042C2.37463 18.9886 1.71685 18.0108 0.916853 15.4153C0.383519 13.7086 0.347964 10.7575 0.810186 9.01528C1.32574 7.09528 2.28574 5.38862 3.67241 3.91306ZM6.86611 16.0458C7.00728 16.1722 7.16536 16.2111 7.34036 16.1625C7.61259 16.0847 7.82161 15.9826 7.96745 15.8562C8.11328 15.7298 8.31745 15.6666 8.57995 15.6666C8.92995 15.6666 9.20703 15.7639 9.4112 15.9583C9.61536 16.1528 9.98967 16.25 10.5341 16.25C11.0786 16.25 11.4529 16.1528 11.657 15.9583C11.8612 15.7639 12.1383 15.6666 12.4883 15.6666C12.8383 15.6666 13.1154 15.7639 13.3196 15.9583C13.5237 16.1528 13.898 16.25 14.4425 16.25C14.9869 16.25 15.3612 16.1528 15.5654 15.9583C15.7695 15.7639 16.0466 15.6666 16.3966 15.6666C16.6591 15.6666 16.8633 15.7298 17.0091 15.8562C17.155 15.9826 17.364 16.0847 17.6362 16.1625C17.8112 16.2111 17.9693 16.1722 18.1105 16.0458C18.2512 15.9194 18.3216 15.7541 18.3216 15.55C18.3216 15.4333 18.2804 15.3264 18.198 15.2291C18.1151 15.1319 18.0057 15.0541 17.8696 14.9958C17.6751 14.918 17.4832 14.816 17.2938 14.6896C17.104 14.5632 16.805 14.5 16.3966 14.5C15.8522 14.5 15.4779 14.5972 15.2737 14.7916C15.0696 14.9861 14.7925 15.0833 14.4425 15.0833C14.0925 15.0833 13.8154 14.9861 13.6112 14.7916C13.4071 14.5972 13.0327 14.5 12.4883 14.5C11.9439 14.5 11.5696 14.5972 11.3654 14.7916C11.1612 14.9861 10.8841 15.0833 10.5341 15.0833C10.1841 15.0833 9.90703 14.9861 9.70286 14.7916C9.4987 14.5972 9.12439 14.5 8.57995 14.5C8.17161 14.5 7.87275 14.5632 7.68336 14.6896C7.49359 14.816 7.30147 14.918 7.10703 14.9958C6.97092 15.0541 6.86164 15.1343 6.7792 15.2361C6.69636 15.3384 6.65495 15.443 6.65495 15.55C6.65495 15.7541 6.72534 15.9194 6.86611 16.0458ZM6.86611 13.4208C7.00728 13.5472 7.16536 13.5861 7.34036 13.5375C7.61259 13.4597 7.82161 13.3576 7.96745 13.2312C8.11328 13.1048 8.31745 13.0416 8.57995 13.0416C8.92995 13.0416 9.19984 13.1389 9.38961 13.3333C9.579 13.5278 9.9605 13.625 10.5341 13.625C11.1077 13.625 11.4846 13.5278 11.6646 13.3333C11.8443 13.1389 12.1189 13.0416 12.4883 13.0416C12.8383 13.0416 13.1131 13.1389 13.3126 13.3333C13.5117 13.5278 13.8883 13.625 14.4425 13.625C15.0161 13.625 15.3976 13.5278 15.587 13.3333C15.7767 13.1389 16.0466 13.0416 16.3966 13.0416C16.6591 13.0416 16.8633 13.1048 17.0091 13.2312C17.155 13.3576 17.364 13.4597 17.6362 13.5375C17.8112 13.5861 17.9693 13.5472 18.1105 13.4208C18.2512 13.2944 18.3216 13.1291 18.3216 12.925C18.3216 12.8083 18.2804 12.7014 18.198 12.6041C18.1151 12.5069 18.0057 12.4291 17.8696 12.3708C17.6751 12.293 17.4832 12.191 17.2938 12.0646C17.104 11.9382 16.805 11.875 16.3966 11.875C15.8522 11.875 15.4779 11.9722 15.2737 12.1666C15.0696 12.3611 14.7925 12.4583 14.4425 12.4583C14.0925 12.4583 13.8154 12.3611 13.6112 12.1666C13.4071 11.9722 13.0327 11.875 12.4883 11.875C11.9439 11.875 11.5696 11.9722 11.3654 12.1666C11.1612 12.3611 10.8841 12.4583 10.5341 12.4583C10.1938 12.4583 9.91928 12.3611 9.71045 12.1666C9.50122 11.9722 9.12439 11.875 8.57995 11.875C8.17161 11.875 7.87275 11.9382 7.68336 12.0646C7.49359 12.191 7.30147 12.293 7.10703 12.3708C6.97092 12.4291 6.86164 12.5093 6.7792 12.6111C6.69636 12.7134 6.65495 12.818 6.65495 12.925C6.65495 13.1291 6.72534 13.2944 6.86611 13.4208ZM9.99453 10.9049C10.1501 10.9683 10.33 11 10.5341 11C10.8841 11 11.1612 10.9028 11.3654 10.7083C11.5696 10.5139 11.9439 10.4166 12.4883 10.4166C13.0327 10.4166 13.4071 10.5139 13.6112 10.7083C13.8154 10.9028 14.0925 11 14.4425 11C14.6466 11 14.8265 10.9683 14.9821 10.9049C15.1376 10.8419 15.298 10.7569 15.4633 10.65L11.73 6.91665C11.3605 6.5472 10.9862 6.27732 10.607 6.10698C10.2279 5.93704 9.78064 5.82776 9.26536 5.77915C9.07092 5.7597 8.89845 5.82037 8.74795 5.96115C8.59706 6.10232 8.52161 6.27984 8.52161 6.49373C8.52161 6.68818 8.58967 6.85579 8.72578 6.99657C8.86189 7.13773 9.02717 7.2229 9.22161 7.25207C9.56189 7.30068 9.86095 7.3979 10.1188 7.54373C10.3762 7.68957 10.6265 7.88401 10.8696 8.12707L11.4529 8.7104L9.51328 10.65C9.67856 10.7569 9.83897 10.8419 9.99453 10.9049ZM14.1946 8.24373C14.4765 8.52568 14.8216 8.66665 15.23 8.66665C15.6383 8.66665 15.9834 8.52568 16.2654 8.24373C16.5473 7.96179 16.6883 7.61665 16.6883 7.20832C16.6883 6.8097 16.5473 6.4669 16.2654 6.1799C15.9834 5.89329 15.6383 5.74998 15.23 5.74998C14.8216 5.74998 14.4765 5.89329 14.1946 6.1799C13.9126 6.4669 13.7716 6.8097 13.7716 7.20832C13.7716 7.61665 13.9126 7.96179 14.1946 8.24373Z" fill="#54585C"/>
</svg>
