<svg width="25" height="35" viewBox="0 0 25 35" fill="none" xmlns="http://www.w3.org/2000/svg">
<circle cx="12.3256" cy="11.6589" r="10" fill="#5CBDC4"/>
<path d="M3.50969 3.91306C5.41191 1.86862 7.20747 0.837509 9.92747 0.197509C11.4386 -0.158047 14.3719 -0.0158261 15.9719 0.481952C17.9808 1.10417 19.3675 1.97529 21.0386 3.66418C23.4564 6.09973 24.4697 8.55307 24.4875 12.0375C24.5053 14.3308 24.2564 15.3797 23.2075 17.5308C22.443 19.1131 22.2119 19.3975 19.7053 21.8864C15.3853 26.1886 13.2519 29.8864 12.6297 34.1353C12.5953 34.3793 12.2436 34.3783 12.203 34.1353C11.4564 29.6553 9.44747 26.1886 5.14524 21.9042C2.21191 18.9886 1.55413 18.0108 0.754133 15.4153C0.2208 13.7086 0.185244 10.7575 0.647466 9.01529C1.16302 7.09529 2.12302 5.38862 3.50969 3.91306ZM10.5255 5.50836C10.3067 5.28957 10.01 5.16665 9.70056 5.16665C9.39114 5.16665 9.09439 5.28957 8.8756 5.50836C8.65681 5.72715 8.53389 6.0239 8.53389 6.33332C8.53389 6.64274 8.65681 6.93948 8.8756 7.15828C9.09439 7.37707 9.39114 7.49999 9.70056 7.49999C10.01 7.49999 10.3067 7.37707 10.5255 7.15828C10.7443 6.93948 10.8672 6.64274 10.8672 6.33332C10.8672 6.0239 10.7443 5.72715 10.5255 5.50836ZM11.4005 8.42503C11.1817 8.20624 10.885 8.08332 10.5756 8.08332H8.82556C8.51614 8.08332 8.2194 8.20624 8.0006 8.42503C7.78181 8.64382 7.65889 8.94057 7.65889 9.24999V12.4583H8.53389V16.8333H10.8672V12.4583H11.7422V9.24999C11.7422 8.94057 11.6193 8.64382 11.4005 8.42503ZM15.7755 5.50836C15.5567 5.28957 15.26 5.16665 14.9506 5.16665C14.6412 5.16665 14.3444 5.28957 14.1256 5.50836C13.9068 5.72715 13.7839 6.0239 13.7839 6.33332C13.7839 6.64274 13.9068 6.93948 14.1256 7.15828C14.3444 7.37707 14.6412 7.49999 14.9506 7.49999C15.26 7.49999 15.5567 7.37707 15.7755 7.15828C15.9943 6.93948 16.1172 6.64274 16.1172 6.33332C16.1172 6.0239 15.9943 5.72715 15.7755 5.50836ZM14.0756 13.3333V16.8333H15.8256V13.3333H17.5756L16.0647 8.90582C15.9189 8.42749 15.4756 8.08332 14.9506 8.08332C14.4256 8.08332 13.9822 8.42749 13.8364 8.90582L12.3256 13.3333H14.0756Z" fill="#54585C"/>
</svg>
