<svg width="25" height="35" viewBox="0 0 25 35" fill="none" xmlns="http://www.w3.org/2000/svg">
<circle cx="12" cy="12" r="10" fill="#98A5B3"/>
<path fill-rule="evenodd" clip-rule="evenodd" d="M3.18413 3.91306C5.08635 1.86862 6.8819 0.837509 9.6019 0.197509C11.113 -0.158047 14.0463 -0.0158261 15.6463 0.481952C17.6552 1.10417 19.0419 1.97528 20.713 3.66417C23.1308 6.09973 24.1441 8.55306 24.1619 12.0375C24.1797 14.3308 23.9308 15.3797 22.8819 17.5308C22.1175 19.1131 21.8864 19.3975 19.3797 21.8864C15.0597 26.1886 12.9263 29.8864 12.3041 34.1353C12.2697 34.3793 11.918 34.3783 11.8775 34.1353C11.1308 29.6553 9.12191 26.1886 4.81968 21.9042C1.88635 18.9886 1.22857 18.0108 0.428571 15.4153C-0.104762 13.7086 -0.140317 10.7575 0.321905 9.01529C0.83746 7.09529 1.79746 5.38862 3.18413 3.91306ZM9.08333 5.75V6.33333H7.33333C7.33333 7.79167 8.79167 8.375 9.08333 8.375V9.83333H7.33333C7.33333 11.2917 8.79167 11.875 9.08333 11.875V13.3333H7.33333C7.33333 14.7917 8.79167 15.375 9.08333 15.375V16.25C9.08333 16.4047 9.14479 16.5531 9.25419 16.6625C9.36358 16.7719 9.51196 16.8333 9.66667 16.8333H14.3333C14.488 16.8333 14.6364 16.7719 14.7458 16.6625C14.8552 16.5531 14.9167 16.4047 14.9167 16.25V15.375C15.2083 15.375 16.6667 14.7917 16.6667 13.3333H14.9167V11.875C15.2083 11.875 16.6667 11.2917 16.6667 9.83333H14.9167V8.375C15.2083 8.375 16.6667 7.79167 16.6667 6.33333H14.9167V5.75C14.9167 5.59529 14.8552 5.44692 14.7458 5.33752C14.6364 5.22812 14.488 5.16666 14.3333 5.16666H9.66667C9.51196 5.16666 9.36358 5.22812 9.25419 5.33752C9.14479 5.44692 9.08333 5.59529 9.08333 5.75ZM12.825 15.325C12.6062 15.5437 12.3094 15.6667 12 15.6667C11.6906 15.6667 11.3938 15.5437 11.175 15.325C10.9562 15.1062 10.8333 14.8094 10.8333 14.5C10.8333 14.1906 10.9562 13.8938 11.175 13.675C11.3938 13.4562 11.6906 13.3333 12 13.3333C12.3094 13.3333 12.6062 13.4562 12.825 13.675C13.0437 13.8938 13.1667 14.1906 13.1667 14.5C13.1667 14.8094 13.0437 15.1062 12.825 15.325ZM12.825 11.825C12.6062 12.0437 12.3094 12.1667 12 12.1667C11.6906 12.1667 11.3938 12.0437 11.175 11.825C10.9562 11.6062 10.8333 11.3094 10.8333 11C10.8333 10.6906 10.9562 10.3938 11.175 10.175C11.3938 9.95625 11.6906 9.83333 12 9.83333C12.3094 9.83333 12.6062 9.95625 12.825 10.175C13.0437 10.3938 13.1667 10.6906 13.1667 11C13.1667 11.3094 13.0437 11.6062 12.825 11.825ZM12.825 8.32496C12.6062 8.54375 12.3094 8.66667 12 8.66667C11.6906 8.66667 11.3938 8.54375 11.175 8.32496C10.9562 8.10616 10.8333 7.80942 10.8333 7.5C10.8333 7.19058 10.9562 6.89383 11.175 6.67504C11.3938 6.45625 11.6906 6.33333 12 6.33333C12.3094 6.33333 12.6062 6.45625 12.825 6.67504C13.0437 6.89383 13.1667 7.19058 13.1667 7.5C13.1667 7.80942 13.0437 8.10616 12.825 8.32496Z" fill="#54585C"/>
</svg>
