<svg width="25" height="35" viewBox="0 0 25 35" fill="none" xmlns="http://www.w3.org/2000/svg">
<circle cx="12.1628" cy="12" r="10" fill="#FF7D7F"/>
<path d="M3.34697 3.91306C5.24919 1.86862 7.04474 0.837509 9.76474 0.197509C11.2758 -0.158047 14.2091 -0.0158261 15.8091 0.481952C17.818 1.10417 19.2047 1.97529 20.8758 3.66418C23.2936 6.09973 24.3069 8.55307 24.3247 12.0375C24.3425 14.3308 24.0936 15.3797 23.0447 17.5308C22.2803 19.1131 22.0492 19.3975 19.5425 21.8864C15.2225 26.1886 13.0891 29.8864 12.4669 34.1353C12.4325 34.3793 12.0808 34.3783 12.0403 34.1353C11.2936 29.6553 9.28474 26.1886 4.98252 21.9042C2.04919 18.9886 1.39141 18.0108 0.591413 15.4153C0.05808 13.7086 0.0225241 10.7575 0.484747 9.01529C1.0003 7.09529 1.9603 5.38862 3.34697 3.91306ZM6.75242 10.65C7.03437 10.9319 7.37951 11.0729 7.78784 11.0729C8.19617 11.0729 8.54131 10.9319 8.82326 10.65C9.1052 10.368 9.24617 10.0229 9.24617 9.61457C9.24617 9.20624 9.1052 8.8611 8.82326 8.57915C8.54131 8.29721 8.19617 8.15624 7.78784 8.15624C7.37951 8.15624 7.03437 8.29721 6.75242 8.57915C6.47048 8.8611 6.32951 9.20624 6.32951 9.61457C6.32951 10.0229 6.47048 10.368 6.75242 10.65ZM9.37742 8.31665C9.65937 8.5986 10.0045 8.73957 10.4128 8.73957C10.8211 8.73957 11.1663 8.5986 11.4482 8.31665C11.7302 8.03471 11.8711 7.68957 11.8711 7.28124C11.8711 6.8729 11.7302 6.52776 11.4482 6.24582C11.1663 5.96387 10.8211 5.8229 10.4128 5.8229C10.0045 5.8229 9.65937 5.96387 9.37742 6.24582C9.09548 6.52776 8.95451 6.8729 8.95451 7.28124C8.95451 7.68957 9.09548 8.03471 9.37742 8.31665ZM12.8774 8.31665C13.1593 8.5986 13.5045 8.73957 13.9128 8.73957C14.3211 8.73957 14.6663 8.5986 14.9482 8.31665C15.2302 8.03471 15.3711 7.68957 15.3711 7.28124C15.3711 6.8729 15.2302 6.52776 14.9482 6.24582C14.6663 5.96387 14.3211 5.8229 13.9128 5.8229C13.5045 5.8229 13.1593 5.96387 12.8774 6.24582C12.5954 6.52776 12.4545 6.8729 12.4545 7.28124C12.4545 7.68957 12.5954 8.03471 12.8774 8.31665ZM15.5024 10.65C15.7843 10.9319 16.1295 11.0729 16.5378 11.0729C16.9461 11.0729 17.2913 10.9319 17.5732 10.65C17.8552 10.368 17.9961 10.0229 17.9961 9.61457C17.9961 9.20624 17.8552 8.8611 17.5732 8.57915C17.2913 8.29721 16.9461 8.15624 16.5378 8.15624C16.1295 8.15624 15.7843 8.29721 15.5024 8.57915C15.2204 8.8611 15.0795 9.20624 15.0795 9.61457C15.0795 10.0229 15.2204 10.368 15.5024 10.65ZM7.94126 16.4028C8.23759 16.7384 8.60451 16.9062 9.04201 16.9062C9.56701 16.9062 10.0871 16.8625 10.6024 16.775C11.1177 16.6875 11.6378 16.6437 12.1628 16.6437C12.6878 16.6437 13.2079 16.6875 13.7232 16.775C14.2385 16.8625 14.7586 16.9062 15.2836 16.9062C15.7211 16.9062 16.0882 16.7384 16.385 16.4028C16.6813 16.0676 16.8295 15.6715 16.8295 15.2146C16.8295 14.709 16.657 14.2667 16.3121 13.8875C15.9667 13.5083 15.6239 13.134 15.2836 12.7646C15.0017 12.4535 14.7561 12.118 14.5469 11.7583C14.3381 11.3986 14.0975 11.0632 13.8253 10.7521C13.6114 10.4993 13.3635 10.2951 13.0815 10.1396C12.7996 9.98401 12.4934 9.90624 12.1628 9.90624C11.8322 9.90624 11.526 9.98887 11.2441 10.1542C10.9621 10.3194 10.7142 10.5285 10.5003 10.7812C10.2184 11.0923 9.97534 11.4252 9.77117 11.7799C9.56701 12.135 9.32395 12.4632 9.04201 12.7646C8.70173 13.134 8.35912 13.5083 8.01417 13.8875C7.66884 14.2667 7.49617 14.709 7.49617 15.2146C7.49617 15.6715 7.64453 16.0676 7.94126 16.4028Z" fill="#54585C"/>
</svg>
